G04 MADE WITH FRITZING*
G04 WWW.FRITZING.ORG*
G04 DOUBLE SIDED*
G04 HOLES PLATED*
G04 CONTOUR ON CENTER OF CONTOUR VECTOR*
%ASAXBY*%
%FSLAX23Y23*%
%MOIN*%
%OFA0B0*%
%SFA1.0B1.0*%
%ADD10C,0.055118*%
%ADD11C,0.075000*%
%ADD12C,0.158819*%
%ADD13C,0.085000*%
%ADD14C,0.065000*%
%ADD15C,0.070866*%
%ADD16R,0.000170X0.000170*%
%ADD17C,0.024000*%
%LNCOPPER1*%
G90*
G70*
G54D10*
X1453Y51D03*
X853Y51D03*
X253Y851D03*
X653Y851D03*
X1553Y51D03*
X1253Y51D03*
X953Y51D03*
X1353Y51D03*
X1453Y851D03*
G54D11*
X678Y651D03*
X678Y251D03*
X428Y651D03*
X428Y251D03*
X553Y651D03*
X553Y251D03*
X1328Y651D03*
X1328Y251D03*
G54D10*
X1353Y851D03*
X753Y51D03*
X653Y51D03*
X353Y851D03*
X1553Y851D03*
X1653Y851D03*
X1753Y851D03*
X1253Y851D03*
X1153Y851D03*
X1053Y851D03*
X753Y851D03*
X1653Y51D03*
X1053Y51D03*
X453Y851D03*
X853Y851D03*
X1753Y51D03*
X1153Y51D03*
X553Y851D03*
X953Y851D03*
G54D12*
X1902Y800D03*
X1902Y103D03*
G54D13*
X1103Y697D03*
X906Y697D03*
X906Y205D03*
X1103Y205D03*
X1103Y697D03*
X906Y697D03*
X906Y205D03*
X1103Y205D03*
G54D14*
X303Y451D03*
X224Y451D03*
X145Y451D03*
X67Y451D03*
G54D15*
X1673Y319D03*
X1673Y583D03*
G54D16*
X1145Y205D03*
G54D17*
X581Y651D02*
X649Y651D01*
D02*
X325Y317D02*
X325Y117D01*
D02*
X145Y317D02*
X325Y317D01*
D02*
X1052Y117D02*
X1052Y78D01*
D02*
X325Y117D02*
X1052Y117D01*
D02*
X145Y428D02*
X145Y317D01*
D02*
X653Y651D02*
X581Y651D01*
D02*
X653Y824D02*
X653Y651D01*
D02*
X551Y554D02*
X904Y554D01*
D02*
X428Y554D02*
X551Y554D01*
D02*
X428Y623D02*
X428Y554D01*
D02*
X553Y388D02*
X553Y280D01*
D02*
X551Y554D02*
X553Y388D01*
D02*
X553Y781D02*
X428Y781D01*
D02*
X428Y781D02*
X428Y680D01*
D02*
X553Y824D02*
X553Y781D01*
D02*
X426Y366D02*
X427Y280D01*
D02*
X224Y366D02*
X426Y366D01*
D02*
X224Y428D02*
X224Y366D01*
D02*
X1253Y78D02*
X1253Y347D01*
D02*
X904Y554D02*
X906Y240D01*
D02*
X1673Y554D02*
X1673Y556D01*
D02*
X904Y554D02*
X1673Y554D01*
D02*
X1253Y347D02*
X1673Y347D01*
D02*
X1673Y347D02*
X1673Y346D01*
G04 End of Copper1*
M02*