G04 MADE WITH FRITZING*
G04 WWW.FRITZING.ORG*
G04 DOUBLE SIDED*
G04 HOLES PLATED*
G04 CONTOUR ON CENTER OF CONTOUR VECTOR*
%ASAXBY*%
%FSLAX23Y23*%
%MOIN*%
%OFA0B0*%
%SFA1.0B1.0*%
%ADD10R,0.001000X0.001000*%
%LNSILK0*%
G90*
G70*
G54D10*
X1242Y614D02*
X1271Y614D01*
X1235Y613D02*
X1277Y613D01*
X1230Y612D02*
X1281Y612D01*
X382Y611D02*
X417Y611D01*
X466Y611D02*
X508Y611D01*
X580Y611D02*
X649Y611D01*
X687Y611D02*
X717Y611D01*
X763Y611D02*
X805Y611D01*
X824Y611D02*
X949Y611D01*
X1048Y611D02*
X1091Y611D01*
X1137Y611D02*
X1179Y611D01*
X1225Y611D02*
X1284Y611D01*
X1336Y611D02*
X1376Y611D01*
X1419Y611D02*
X1461Y611D01*
X1527Y611D02*
X1597Y611D01*
X382Y610D02*
X424Y610D01*
X466Y610D02*
X508Y610D01*
X571Y610D02*
X649Y610D01*
X680Y610D02*
X717Y610D01*
X763Y610D02*
X805Y610D01*
X824Y610D02*
X949Y610D01*
X1048Y610D02*
X1091Y610D01*
X1137Y610D02*
X1179Y610D01*
X1221Y610D02*
X1287Y610D01*
X1334Y610D02*
X1376Y610D01*
X1419Y610D02*
X1461Y610D01*
X1521Y610D02*
X1597Y610D01*
X382Y609D02*
X424Y609D01*
X466Y609D02*
X508Y609D01*
X566Y609D02*
X649Y609D01*
X675Y609D02*
X717Y609D01*
X763Y609D02*
X805Y609D01*
X824Y609D02*
X949Y609D01*
X1048Y609D02*
X1091Y609D01*
X1137Y609D02*
X1179Y609D01*
X1218Y609D02*
X1290Y609D01*
X1334Y609D02*
X1376Y609D01*
X1419Y609D02*
X1461Y609D01*
X1517Y609D02*
X1597Y609D01*
X382Y608D02*
X424Y608D01*
X466Y608D02*
X508Y608D01*
X562Y608D02*
X649Y608D01*
X675Y608D02*
X717Y608D01*
X763Y608D02*
X805Y608D01*
X824Y608D02*
X949Y608D01*
X1048Y608D02*
X1091Y608D01*
X1137Y608D02*
X1179Y608D01*
X1215Y608D02*
X1292Y608D01*
X1334Y608D02*
X1376Y608D01*
X1419Y608D02*
X1461Y608D01*
X1514Y608D02*
X1597Y608D01*
X382Y607D02*
X424Y607D01*
X466Y607D02*
X508Y607D01*
X559Y607D02*
X649Y607D01*
X675Y607D02*
X717Y607D01*
X763Y607D02*
X805Y607D01*
X824Y607D02*
X949Y607D01*
X1048Y607D02*
X1091Y607D01*
X1137Y607D02*
X1179Y607D01*
X1212Y607D02*
X1294Y607D01*
X1334Y607D02*
X1376Y607D01*
X1419Y607D02*
X1461Y607D01*
X1511Y607D02*
X1597Y607D01*
X382Y606D02*
X424Y606D01*
X466Y606D02*
X508Y606D01*
X556Y606D02*
X649Y606D01*
X675Y606D02*
X717Y606D01*
X763Y606D02*
X805Y606D01*
X824Y606D02*
X949Y606D01*
X1048Y606D02*
X1091Y606D01*
X1137Y606D02*
X1179Y606D01*
X1210Y606D02*
X1295Y606D01*
X1334Y606D02*
X1376Y606D01*
X1419Y606D02*
X1461Y606D01*
X1508Y606D02*
X1597Y606D01*
X382Y605D02*
X424Y605D01*
X466Y605D02*
X508Y605D01*
X554Y605D02*
X649Y605D01*
X675Y605D02*
X717Y605D01*
X763Y605D02*
X805Y605D01*
X824Y605D02*
X949Y605D01*
X1048Y605D02*
X1091Y605D01*
X1137Y605D02*
X1179Y605D01*
X1207Y605D02*
X1297Y605D01*
X1334Y605D02*
X1376Y605D01*
X1419Y605D02*
X1461Y605D01*
X1506Y605D02*
X1597Y605D01*
X382Y604D02*
X424Y604D01*
X466Y604D02*
X508Y604D01*
X552Y604D02*
X649Y604D01*
X675Y604D02*
X717Y604D01*
X763Y604D02*
X805Y604D01*
X824Y604D02*
X949Y604D01*
X1048Y604D02*
X1091Y604D01*
X1137Y604D02*
X1179Y604D01*
X1205Y604D02*
X1298Y604D01*
X1334Y604D02*
X1376Y604D01*
X1419Y604D02*
X1461Y604D01*
X1504Y604D02*
X1597Y604D01*
X382Y603D02*
X424Y603D01*
X466Y603D02*
X508Y603D01*
X550Y603D02*
X649Y603D01*
X675Y603D02*
X717Y603D01*
X763Y603D02*
X805Y603D01*
X824Y603D02*
X949Y603D01*
X1048Y603D02*
X1091Y603D01*
X1137Y603D02*
X1179Y603D01*
X1203Y603D02*
X1300Y603D01*
X1334Y603D02*
X1376Y603D01*
X1419Y603D02*
X1461Y603D01*
X1502Y603D02*
X1597Y603D01*
X382Y602D02*
X424Y602D01*
X466Y602D02*
X508Y602D01*
X548Y602D02*
X649Y602D01*
X675Y602D02*
X717Y602D01*
X763Y602D02*
X805Y602D01*
X824Y602D02*
X949Y602D01*
X1048Y602D02*
X1091Y602D01*
X1137Y602D02*
X1179Y602D01*
X1203Y602D02*
X1301Y602D01*
X1334Y602D02*
X1376Y602D01*
X1419Y602D02*
X1461Y602D01*
X1501Y602D02*
X1597Y602D01*
X382Y601D02*
X424Y601D01*
X466Y601D02*
X508Y601D01*
X547Y601D02*
X649Y601D01*
X675Y601D02*
X717Y601D01*
X763Y601D02*
X805Y601D01*
X824Y601D02*
X949Y601D01*
X1048Y601D02*
X1091Y601D01*
X1137Y601D02*
X1179Y601D01*
X1203Y601D02*
X1302Y601D01*
X1334Y601D02*
X1376Y601D01*
X1419Y601D02*
X1461Y601D01*
X1499Y601D02*
X1597Y601D01*
X382Y600D02*
X424Y600D01*
X466Y600D02*
X508Y600D01*
X545Y600D02*
X649Y600D01*
X675Y600D02*
X717Y600D01*
X763Y600D02*
X805Y600D01*
X824Y600D02*
X949Y600D01*
X1048Y600D02*
X1091Y600D01*
X1137Y600D02*
X1179Y600D01*
X1204Y600D02*
X1303Y600D01*
X1334Y600D02*
X1376Y600D01*
X1419Y600D02*
X1461Y600D01*
X1498Y600D02*
X1597Y600D01*
X382Y599D02*
X424Y599D01*
X466Y599D02*
X508Y599D01*
X544Y599D02*
X649Y599D01*
X675Y599D02*
X717Y599D01*
X763Y599D02*
X805Y599D01*
X824Y599D02*
X949Y599D01*
X1048Y599D02*
X1091Y599D01*
X1137Y599D02*
X1179Y599D01*
X1204Y599D02*
X1304Y599D01*
X1334Y599D02*
X1376Y599D01*
X1419Y599D02*
X1461Y599D01*
X1496Y599D02*
X1597Y599D01*
X382Y598D02*
X424Y598D01*
X466Y598D02*
X508Y598D01*
X543Y598D02*
X649Y598D01*
X675Y598D02*
X717Y598D01*
X763Y598D02*
X805Y598D01*
X824Y598D02*
X949Y598D01*
X1048Y598D02*
X1091Y598D01*
X1137Y598D02*
X1179Y598D01*
X1204Y598D02*
X1305Y598D01*
X1334Y598D02*
X1376Y598D01*
X1419Y598D02*
X1461Y598D01*
X1495Y598D02*
X1597Y598D01*
X382Y597D02*
X424Y597D01*
X466Y597D02*
X508Y597D01*
X542Y597D02*
X649Y597D01*
X675Y597D02*
X717Y597D01*
X763Y597D02*
X805Y597D01*
X824Y597D02*
X949Y597D01*
X1048Y597D02*
X1091Y597D01*
X1137Y597D02*
X1179Y597D01*
X1204Y597D02*
X1305Y597D01*
X1334Y597D02*
X1376Y597D01*
X1419Y597D02*
X1461Y597D01*
X1494Y597D02*
X1597Y597D01*
X382Y596D02*
X424Y596D01*
X466Y596D02*
X508Y596D01*
X540Y596D02*
X649Y596D01*
X675Y596D02*
X717Y596D01*
X763Y596D02*
X805Y596D01*
X824Y596D02*
X949Y596D01*
X1048Y596D02*
X1091Y596D01*
X1137Y596D02*
X1179Y596D01*
X1205Y596D02*
X1306Y596D01*
X1334Y596D02*
X1376Y596D01*
X1419Y596D02*
X1461Y596D01*
X1493Y596D02*
X1597Y596D01*
X382Y595D02*
X424Y595D01*
X466Y595D02*
X508Y595D01*
X540Y595D02*
X649Y595D01*
X675Y595D02*
X717Y595D01*
X763Y595D02*
X805Y595D01*
X824Y595D02*
X949Y595D01*
X1048Y595D02*
X1091Y595D01*
X1137Y595D02*
X1179Y595D01*
X1205Y595D02*
X1307Y595D01*
X1334Y595D02*
X1376Y595D01*
X1419Y595D02*
X1461Y595D01*
X1492Y595D02*
X1597Y595D01*
X382Y594D02*
X424Y594D01*
X466Y594D02*
X508Y594D01*
X539Y594D02*
X649Y594D01*
X675Y594D02*
X717Y594D01*
X763Y594D02*
X805Y594D01*
X824Y594D02*
X949Y594D01*
X1048Y594D02*
X1091Y594D01*
X1137Y594D02*
X1179Y594D01*
X1205Y594D02*
X1308Y594D01*
X1334Y594D02*
X1376Y594D01*
X1419Y594D02*
X1461Y594D01*
X1491Y594D02*
X1597Y594D01*
X382Y593D02*
X424Y593D01*
X466Y593D02*
X508Y593D01*
X538Y593D02*
X649Y593D01*
X675Y593D02*
X717Y593D01*
X763Y593D02*
X805Y593D01*
X824Y593D02*
X949Y593D01*
X1048Y593D02*
X1091Y593D01*
X1137Y593D02*
X1179Y593D01*
X1205Y593D02*
X1308Y593D01*
X1334Y593D02*
X1376Y593D01*
X1419Y593D02*
X1461Y593D01*
X1490Y593D02*
X1597Y593D01*
X382Y592D02*
X424Y592D01*
X466Y592D02*
X508Y592D01*
X537Y592D02*
X649Y592D01*
X675Y592D02*
X717Y592D01*
X763Y592D02*
X805Y592D01*
X824Y592D02*
X949Y592D01*
X1048Y592D02*
X1091Y592D01*
X1137Y592D02*
X1179Y592D01*
X1206Y592D02*
X1309Y592D01*
X1334Y592D02*
X1376Y592D01*
X1419Y592D02*
X1461Y592D01*
X1489Y592D02*
X1597Y592D01*
X382Y591D02*
X424Y591D01*
X466Y591D02*
X508Y591D01*
X536Y591D02*
X649Y591D01*
X675Y591D02*
X717Y591D01*
X763Y591D02*
X805Y591D01*
X824Y591D02*
X949Y591D01*
X1048Y591D02*
X1091Y591D01*
X1137Y591D02*
X1179Y591D01*
X1206Y591D02*
X1309Y591D01*
X1334Y591D02*
X1376Y591D01*
X1419Y591D02*
X1461Y591D01*
X1488Y591D02*
X1597Y591D01*
X382Y590D02*
X424Y590D01*
X466Y590D02*
X508Y590D01*
X536Y590D02*
X649Y590D01*
X675Y590D02*
X717Y590D01*
X763Y590D02*
X805Y590D01*
X824Y590D02*
X949Y590D01*
X1048Y590D02*
X1091Y590D01*
X1137Y590D02*
X1179Y590D01*
X1206Y590D02*
X1310Y590D01*
X1334Y590D02*
X1376Y590D01*
X1419Y590D02*
X1461Y590D01*
X1488Y590D02*
X1597Y590D01*
X382Y589D02*
X424Y589D01*
X466Y589D02*
X508Y589D01*
X535Y589D02*
X649Y589D01*
X675Y589D02*
X717Y589D01*
X763Y589D02*
X805Y589D01*
X824Y589D02*
X949Y589D01*
X1048Y589D02*
X1091Y589D01*
X1137Y589D02*
X1179Y589D01*
X1206Y589D02*
X1310Y589D01*
X1334Y589D02*
X1376Y589D01*
X1419Y589D02*
X1461Y589D01*
X1487Y589D02*
X1597Y589D01*
X382Y588D02*
X424Y588D01*
X466Y588D02*
X508Y588D01*
X534Y588D02*
X649Y588D01*
X675Y588D02*
X717Y588D01*
X763Y588D02*
X805Y588D01*
X824Y588D02*
X949Y588D01*
X1048Y588D02*
X1091Y588D01*
X1137Y588D02*
X1179Y588D01*
X1207Y588D02*
X1311Y588D01*
X1334Y588D02*
X1376Y588D01*
X1419Y588D02*
X1461Y588D01*
X1486Y588D02*
X1597Y588D01*
X382Y587D02*
X424Y587D01*
X466Y587D02*
X508Y587D01*
X534Y587D02*
X649Y587D01*
X675Y587D02*
X717Y587D01*
X763Y587D02*
X805Y587D01*
X824Y587D02*
X949Y587D01*
X1048Y587D02*
X1091Y587D01*
X1137Y587D02*
X1179Y587D01*
X1207Y587D02*
X1311Y587D01*
X1334Y587D02*
X1376Y587D01*
X1419Y587D02*
X1461Y587D01*
X1486Y587D02*
X1597Y587D01*
X382Y586D02*
X424Y586D01*
X466Y586D02*
X508Y586D01*
X533Y586D02*
X649Y586D01*
X675Y586D02*
X717Y586D01*
X763Y586D02*
X805Y586D01*
X824Y586D02*
X949Y586D01*
X1048Y586D02*
X1091Y586D01*
X1137Y586D02*
X1179Y586D01*
X1207Y586D02*
X1311Y586D01*
X1334Y586D02*
X1376Y586D01*
X1419Y586D02*
X1461Y586D01*
X1485Y586D02*
X1597Y586D01*
X382Y585D02*
X424Y585D01*
X466Y585D02*
X508Y585D01*
X533Y585D02*
X649Y585D01*
X675Y585D02*
X717Y585D01*
X763Y585D02*
X805Y585D01*
X824Y585D02*
X949Y585D01*
X1048Y585D02*
X1091Y585D01*
X1137Y585D02*
X1179Y585D01*
X1207Y585D02*
X1312Y585D01*
X1334Y585D02*
X1376Y585D01*
X1419Y585D02*
X1461Y585D01*
X1485Y585D02*
X1597Y585D01*
X382Y584D02*
X424Y584D01*
X466Y584D02*
X508Y584D01*
X532Y584D02*
X649Y584D01*
X675Y584D02*
X717Y584D01*
X763Y584D02*
X805Y584D01*
X824Y584D02*
X949Y584D01*
X1048Y584D02*
X1091Y584D01*
X1137Y584D02*
X1179Y584D01*
X1207Y584D02*
X1312Y584D01*
X1334Y584D02*
X1376Y584D01*
X1419Y584D02*
X1461Y584D01*
X1484Y584D02*
X1597Y584D01*
X382Y583D02*
X424Y583D01*
X466Y583D02*
X508Y583D01*
X532Y583D02*
X649Y583D01*
X675Y583D02*
X717Y583D01*
X763Y583D02*
X805Y583D01*
X824Y583D02*
X949Y583D01*
X1048Y583D02*
X1091Y583D01*
X1137Y583D02*
X1179Y583D01*
X1208Y583D02*
X1312Y583D01*
X1334Y583D02*
X1376Y583D01*
X1419Y583D02*
X1461Y583D01*
X1484Y583D02*
X1597Y583D01*
X382Y582D02*
X424Y582D01*
X466Y582D02*
X508Y582D01*
X532Y582D02*
X649Y582D01*
X675Y582D02*
X717Y582D01*
X763Y582D02*
X805Y582D01*
X824Y582D02*
X949Y582D01*
X1048Y582D02*
X1091Y582D01*
X1137Y582D02*
X1179Y582D01*
X1208Y582D02*
X1312Y582D01*
X1334Y582D02*
X1376Y582D01*
X1419Y582D02*
X1461Y582D01*
X1483Y582D02*
X1597Y582D01*
X382Y581D02*
X424Y581D01*
X466Y581D02*
X508Y581D01*
X531Y581D02*
X649Y581D01*
X675Y581D02*
X717Y581D01*
X763Y581D02*
X805Y581D01*
X824Y581D02*
X949Y581D01*
X1048Y581D02*
X1091Y581D01*
X1137Y581D02*
X1179Y581D01*
X1208Y581D02*
X1313Y581D01*
X1334Y581D02*
X1376Y581D01*
X1419Y581D02*
X1461Y581D01*
X1483Y581D02*
X1597Y581D01*
X382Y580D02*
X424Y580D01*
X466Y580D02*
X508Y580D01*
X531Y580D02*
X649Y580D01*
X675Y580D02*
X717Y580D01*
X763Y580D02*
X805Y580D01*
X824Y580D02*
X949Y580D01*
X1048Y580D02*
X1091Y580D01*
X1137Y580D02*
X1179Y580D01*
X1208Y580D02*
X1253Y580D01*
X1264Y580D02*
X1313Y580D01*
X1334Y580D02*
X1376Y580D01*
X1419Y580D02*
X1461Y580D01*
X1483Y580D02*
X1597Y580D01*
X382Y579D02*
X424Y579D01*
X466Y579D02*
X508Y579D01*
X531Y579D02*
X593Y579D01*
X606Y579D02*
X649Y579D01*
X675Y579D02*
X717Y579D01*
X763Y579D02*
X805Y579D01*
X824Y579D02*
X949Y579D01*
X1048Y579D02*
X1091Y579D01*
X1137Y579D02*
X1179Y579D01*
X1209Y579D02*
X1245Y579D01*
X1269Y579D02*
X1313Y579D01*
X1334Y579D02*
X1376Y579D01*
X1419Y579D02*
X1461Y579D01*
X1482Y579D02*
X1542Y579D01*
X1555Y579D02*
X1597Y579D01*
X382Y578D02*
X424Y578D01*
X466Y578D02*
X508Y578D01*
X531Y578D02*
X584Y578D01*
X607Y578D02*
X649Y578D01*
X675Y578D02*
X717Y578D01*
X763Y578D02*
X805Y578D01*
X824Y578D02*
X949Y578D01*
X1048Y578D02*
X1091Y578D01*
X1137Y578D02*
X1179Y578D01*
X1209Y578D02*
X1240Y578D01*
X1270Y578D02*
X1313Y578D01*
X1334Y578D02*
X1376Y578D01*
X1419Y578D02*
X1461Y578D01*
X1482Y578D02*
X1534Y578D01*
X1555Y578D02*
X1597Y578D01*
X382Y577D02*
X424Y577D01*
X466Y577D02*
X508Y577D01*
X530Y577D02*
X580Y577D01*
X607Y577D02*
X649Y577D01*
X675Y577D02*
X717Y577D01*
X763Y577D02*
X805Y577D01*
X824Y577D02*
X949Y577D01*
X1048Y577D02*
X1091Y577D01*
X1137Y577D02*
X1179Y577D01*
X1209Y577D02*
X1236Y577D01*
X1272Y577D02*
X1313Y577D01*
X1334Y577D02*
X1376Y577D01*
X1419Y577D02*
X1461Y577D01*
X1482Y577D02*
X1531Y577D01*
X1555Y577D02*
X1597Y577D01*
X382Y576D02*
X424Y576D01*
X466Y576D02*
X508Y576D01*
X530Y576D02*
X578Y576D01*
X607Y576D02*
X649Y576D01*
X675Y576D02*
X717Y576D01*
X763Y576D02*
X805Y576D01*
X865Y576D02*
X907Y576D01*
X1048Y576D02*
X1091Y576D01*
X1137Y576D02*
X1179Y576D01*
X1209Y576D02*
X1232Y576D01*
X1272Y576D02*
X1313Y576D01*
X1334Y576D02*
X1376Y576D01*
X1419Y576D02*
X1461Y576D01*
X1481Y576D02*
X1529Y576D01*
X1555Y576D02*
X1597Y576D01*
X1739Y576D02*
X1945Y576D01*
X382Y575D02*
X424Y575D01*
X466Y575D02*
X508Y575D01*
X530Y575D02*
X577Y575D01*
X607Y575D02*
X649Y575D01*
X675Y575D02*
X717Y575D01*
X763Y575D02*
X805Y575D01*
X865Y575D02*
X907Y575D01*
X1048Y575D02*
X1091Y575D01*
X1137Y575D02*
X1179Y575D01*
X1210Y575D02*
X1229Y575D01*
X1273Y575D02*
X1314Y575D01*
X1334Y575D02*
X1376Y575D01*
X1419Y575D02*
X1461Y575D01*
X1481Y575D02*
X1527Y575D01*
X1555Y575D02*
X1597Y575D01*
X1738Y575D02*
X1946Y575D01*
X382Y574D02*
X424Y574D01*
X466Y574D02*
X508Y574D01*
X530Y574D02*
X576Y574D01*
X607Y574D02*
X649Y574D01*
X675Y574D02*
X717Y574D01*
X763Y574D02*
X805Y574D01*
X865Y574D02*
X907Y574D01*
X1048Y574D02*
X1091Y574D01*
X1137Y574D02*
X1179Y574D01*
X1210Y574D02*
X1226Y574D01*
X1273Y574D02*
X1314Y574D01*
X1334Y574D02*
X1376Y574D01*
X1419Y574D02*
X1461Y574D01*
X1481Y574D02*
X1526Y574D01*
X1555Y574D02*
X1597Y574D01*
X1738Y574D02*
X1946Y574D01*
X382Y573D02*
X424Y573D01*
X466Y573D02*
X508Y573D01*
X530Y573D02*
X575Y573D01*
X607Y573D02*
X649Y573D01*
X675Y573D02*
X717Y573D01*
X763Y573D02*
X805Y573D01*
X865Y573D02*
X907Y573D01*
X1048Y573D02*
X1091Y573D01*
X1137Y573D02*
X1179Y573D01*
X1210Y573D02*
X1223Y573D01*
X1273Y573D02*
X1314Y573D01*
X1334Y573D02*
X1376Y573D01*
X1419Y573D02*
X1461Y573D01*
X1481Y573D02*
X1525Y573D01*
X1555Y573D02*
X1597Y573D01*
X1738Y573D02*
X1946Y573D01*
X382Y572D02*
X424Y572D01*
X466Y572D02*
X508Y572D01*
X529Y572D02*
X574Y572D01*
X607Y572D02*
X649Y572D01*
X675Y572D02*
X717Y572D01*
X763Y572D02*
X805Y572D01*
X865Y572D02*
X907Y572D01*
X1048Y572D02*
X1091Y572D01*
X1137Y572D02*
X1179Y572D01*
X1210Y572D02*
X1220Y572D01*
X1273Y572D02*
X1314Y572D01*
X1334Y572D02*
X1376Y572D01*
X1419Y572D02*
X1461Y572D01*
X1480Y572D02*
X1524Y572D01*
X1555Y572D02*
X1597Y572D01*
X1738Y572D02*
X1946Y572D01*
X382Y571D02*
X424Y571D01*
X466Y571D02*
X508Y571D01*
X529Y571D02*
X574Y571D01*
X607Y571D02*
X649Y571D01*
X675Y571D02*
X717Y571D01*
X763Y571D02*
X805Y571D01*
X865Y571D02*
X907Y571D01*
X1048Y571D02*
X1091Y571D01*
X1137Y571D02*
X1179Y571D01*
X1211Y571D02*
X1218Y571D01*
X1272Y571D02*
X1314Y571D01*
X1334Y571D02*
X1376Y571D01*
X1419Y571D02*
X1461Y571D01*
X1480Y571D02*
X1523Y571D01*
X1555Y571D02*
X1597Y571D01*
X1738Y571D02*
X1946Y571D01*
X382Y570D02*
X424Y570D01*
X466Y570D02*
X508Y570D01*
X529Y570D02*
X573Y570D01*
X607Y570D02*
X649Y570D01*
X675Y570D02*
X717Y570D01*
X763Y570D02*
X805Y570D01*
X865Y570D02*
X907Y570D01*
X1048Y570D02*
X1091Y570D01*
X1137Y570D02*
X1179Y570D01*
X1211Y570D02*
X1215Y570D01*
X1272Y570D02*
X1314Y570D01*
X1334Y570D02*
X1376Y570D01*
X1419Y570D02*
X1461Y570D01*
X1480Y570D02*
X1523Y570D01*
X1555Y570D02*
X1597Y570D01*
X1738Y570D02*
X1946Y570D01*
X382Y569D02*
X424Y569D01*
X466Y569D02*
X508Y569D01*
X529Y569D02*
X573Y569D01*
X607Y569D02*
X649Y569D01*
X675Y569D02*
X717Y569D01*
X763Y569D02*
X805Y569D01*
X865Y569D02*
X907Y569D01*
X1048Y569D02*
X1091Y569D01*
X1137Y569D02*
X1179Y569D01*
X1211Y569D02*
X1213Y569D01*
X1271Y569D02*
X1314Y569D01*
X1334Y569D02*
X1376Y569D01*
X1419Y569D02*
X1461Y569D01*
X1480Y569D02*
X1522Y569D01*
X1555Y569D02*
X1597Y569D01*
X1738Y569D02*
X1946Y569D01*
X382Y568D02*
X424Y568D01*
X466Y568D02*
X508Y568D01*
X529Y568D02*
X573Y568D01*
X607Y568D02*
X649Y568D01*
X675Y568D02*
X717Y568D01*
X763Y568D02*
X805Y568D01*
X865Y568D02*
X907Y568D01*
X1048Y568D02*
X1091Y568D01*
X1137Y568D02*
X1179Y568D01*
X1270Y568D02*
X1314Y568D01*
X1334Y568D02*
X1376Y568D01*
X1419Y568D02*
X1461Y568D01*
X1480Y568D02*
X1522Y568D01*
X1555Y568D02*
X1597Y568D01*
X1738Y568D02*
X1946Y568D01*
X382Y567D02*
X424Y567D01*
X466Y567D02*
X508Y567D01*
X529Y567D02*
X573Y567D01*
X607Y567D02*
X649Y567D01*
X675Y567D02*
X717Y567D01*
X763Y567D02*
X805Y567D01*
X865Y567D02*
X907Y567D01*
X1048Y567D02*
X1091Y567D01*
X1137Y567D02*
X1179Y567D01*
X1268Y567D02*
X1314Y567D01*
X1334Y567D02*
X1376Y567D01*
X1419Y567D02*
X1461Y567D01*
X1480Y567D02*
X1522Y567D01*
X1555Y567D02*
X1597Y567D01*
X1738Y567D02*
X1946Y567D01*
X382Y566D02*
X424Y566D01*
X466Y566D02*
X508Y566D01*
X529Y566D02*
X572Y566D01*
X607Y566D02*
X649Y566D01*
X675Y566D02*
X717Y566D01*
X763Y566D02*
X805Y566D01*
X865Y566D02*
X907Y566D01*
X1048Y566D02*
X1091Y566D01*
X1137Y566D02*
X1179Y566D01*
X1266Y566D02*
X1313Y566D01*
X1334Y566D02*
X1376Y566D01*
X1419Y566D02*
X1461Y566D01*
X1480Y566D02*
X1521Y566D01*
X1555Y566D02*
X1597Y566D01*
X1738Y566D02*
X1946Y566D01*
X382Y565D02*
X424Y565D01*
X466Y565D02*
X508Y565D01*
X529Y565D02*
X572Y565D01*
X607Y565D02*
X649Y565D01*
X675Y565D02*
X717Y565D01*
X763Y565D02*
X805Y565D01*
X865Y565D02*
X907Y565D01*
X1048Y565D02*
X1091Y565D01*
X1137Y565D02*
X1179Y565D01*
X1264Y565D02*
X1313Y565D01*
X1334Y565D02*
X1376Y565D01*
X1419Y565D02*
X1461Y565D01*
X1480Y565D02*
X1521Y565D01*
X1555Y565D02*
X1597Y565D01*
X1738Y565D02*
X1946Y565D01*
X382Y564D02*
X424Y564D01*
X466Y564D02*
X508Y564D01*
X529Y564D02*
X572Y564D01*
X607Y564D02*
X649Y564D01*
X675Y564D02*
X717Y564D01*
X763Y564D02*
X805Y564D01*
X865Y564D02*
X907Y564D01*
X1048Y564D02*
X1091Y564D01*
X1137Y564D02*
X1179Y564D01*
X1261Y564D02*
X1313Y564D01*
X1334Y564D02*
X1376Y564D01*
X1419Y564D02*
X1461Y564D01*
X1480Y564D02*
X1521Y564D01*
X1555Y564D02*
X1597Y564D01*
X1738Y564D02*
X1946Y564D01*
X382Y563D02*
X424Y563D01*
X466Y563D02*
X508Y563D01*
X529Y563D02*
X572Y563D01*
X607Y563D02*
X649Y563D01*
X675Y563D02*
X717Y563D01*
X763Y563D02*
X805Y563D01*
X865Y563D02*
X907Y563D01*
X1048Y563D02*
X1091Y563D01*
X1137Y563D02*
X1179Y563D01*
X1257Y563D02*
X1313Y563D01*
X1334Y563D02*
X1376Y563D01*
X1419Y563D02*
X1461Y563D01*
X1480Y563D02*
X1521Y563D01*
X1555Y563D02*
X1597Y563D01*
X1738Y563D02*
X1946Y563D01*
X382Y562D02*
X424Y562D01*
X466Y562D02*
X508Y562D01*
X529Y562D02*
X572Y562D01*
X607Y562D02*
X649Y562D01*
X675Y562D02*
X717Y562D01*
X763Y562D02*
X805Y562D01*
X865Y562D02*
X907Y562D01*
X1048Y562D02*
X1091Y562D01*
X1137Y562D02*
X1179Y562D01*
X1254Y562D02*
X1313Y562D01*
X1334Y562D02*
X1376Y562D01*
X1419Y562D02*
X1461Y562D01*
X1480Y562D02*
X1521Y562D01*
X1555Y562D02*
X1597Y562D01*
X1738Y562D02*
X1946Y562D01*
X382Y561D02*
X424Y561D01*
X466Y561D02*
X508Y561D01*
X529Y561D02*
X573Y561D01*
X607Y561D02*
X649Y561D01*
X675Y561D02*
X805Y561D01*
X865Y561D02*
X907Y561D01*
X1048Y561D02*
X1179Y561D01*
X1250Y561D02*
X1313Y561D01*
X1334Y561D02*
X1376Y561D01*
X1419Y561D02*
X1461Y561D01*
X1480Y561D02*
X1521Y561D01*
X1555Y561D02*
X1597Y561D01*
X1738Y561D02*
X1946Y561D01*
X382Y560D02*
X424Y560D01*
X466Y560D02*
X508Y560D01*
X530Y560D02*
X573Y560D01*
X607Y560D02*
X649Y560D01*
X675Y560D02*
X805Y560D01*
X865Y560D02*
X907Y560D01*
X1048Y560D02*
X1179Y560D01*
X1246Y560D02*
X1312Y560D01*
X1334Y560D02*
X1376Y560D01*
X1419Y560D02*
X1461Y560D01*
X1480Y560D02*
X1521Y560D01*
X1555Y560D02*
X1597Y560D01*
X1738Y560D02*
X1946Y560D01*
X382Y559D02*
X424Y559D01*
X466Y559D02*
X508Y559D01*
X530Y559D02*
X573Y559D01*
X607Y559D02*
X649Y559D01*
X675Y559D02*
X805Y559D01*
X865Y559D02*
X907Y559D01*
X1048Y559D02*
X1179Y559D01*
X1243Y559D02*
X1312Y559D01*
X1334Y559D02*
X1376Y559D01*
X1419Y559D02*
X1461Y559D01*
X1480Y559D02*
X1521Y559D01*
X1555Y559D02*
X1597Y559D01*
X1738Y559D02*
X1946Y559D01*
X382Y558D02*
X424Y558D01*
X466Y558D02*
X508Y558D01*
X530Y558D02*
X573Y558D01*
X607Y558D02*
X649Y558D01*
X675Y558D02*
X805Y558D01*
X865Y558D02*
X907Y558D01*
X1048Y558D02*
X1179Y558D01*
X1239Y558D02*
X1312Y558D01*
X1334Y558D02*
X1376Y558D01*
X1419Y558D02*
X1461Y558D01*
X1480Y558D02*
X1521Y558D01*
X1555Y558D02*
X1597Y558D01*
X1738Y558D02*
X1755Y558D01*
X1929Y558D02*
X1946Y558D01*
X382Y557D02*
X424Y557D01*
X466Y557D02*
X508Y557D01*
X530Y557D02*
X573Y557D01*
X607Y557D02*
X649Y557D01*
X675Y557D02*
X805Y557D01*
X865Y557D02*
X907Y557D01*
X1048Y557D02*
X1179Y557D01*
X1236Y557D02*
X1311Y557D01*
X1334Y557D02*
X1376Y557D01*
X1419Y557D02*
X1461Y557D01*
X1480Y557D02*
X1521Y557D01*
X1555Y557D02*
X1597Y557D01*
X1738Y557D02*
X1755Y557D01*
X1929Y557D02*
X1946Y557D01*
X382Y556D02*
X424Y556D01*
X466Y556D02*
X508Y556D01*
X530Y556D02*
X574Y556D01*
X607Y556D02*
X649Y556D01*
X675Y556D02*
X805Y556D01*
X865Y556D02*
X907Y556D01*
X1048Y556D02*
X1179Y556D01*
X1234Y556D02*
X1311Y556D01*
X1334Y556D02*
X1376Y556D01*
X1419Y556D02*
X1461Y556D01*
X1480Y556D02*
X1522Y556D01*
X1555Y556D02*
X1597Y556D01*
X1738Y556D02*
X1755Y556D01*
X1929Y556D02*
X1946Y556D01*
X382Y555D02*
X424Y555D01*
X466Y555D02*
X508Y555D01*
X531Y555D02*
X574Y555D01*
X607Y555D02*
X649Y555D01*
X675Y555D02*
X805Y555D01*
X865Y555D02*
X907Y555D01*
X1048Y555D02*
X1179Y555D01*
X1231Y555D02*
X1310Y555D01*
X1334Y555D02*
X1376Y555D01*
X1419Y555D02*
X1461Y555D01*
X1480Y555D02*
X1522Y555D01*
X1555Y555D02*
X1597Y555D01*
X1738Y555D02*
X1755Y555D01*
X1929Y555D02*
X1946Y555D01*
X382Y554D02*
X424Y554D01*
X466Y554D02*
X508Y554D01*
X531Y554D02*
X575Y554D01*
X607Y554D02*
X649Y554D01*
X675Y554D02*
X805Y554D01*
X865Y554D02*
X907Y554D01*
X1048Y554D02*
X1179Y554D01*
X1228Y554D02*
X1310Y554D01*
X1334Y554D02*
X1376Y554D01*
X1419Y554D02*
X1461Y554D01*
X1480Y554D02*
X1522Y554D01*
X1555Y554D02*
X1597Y554D01*
X1738Y554D02*
X1755Y554D01*
X1929Y554D02*
X1946Y554D01*
X382Y553D02*
X424Y553D01*
X466Y553D02*
X508Y553D01*
X531Y553D02*
X576Y553D01*
X607Y553D02*
X649Y553D01*
X675Y553D02*
X805Y553D01*
X865Y553D02*
X907Y553D01*
X1048Y553D02*
X1179Y553D01*
X1226Y553D02*
X1309Y553D01*
X1334Y553D02*
X1376Y553D01*
X1419Y553D02*
X1461Y553D01*
X1480Y553D02*
X1523Y553D01*
X1555Y553D02*
X1597Y553D01*
X1738Y553D02*
X1755Y553D01*
X1929Y553D02*
X1946Y553D01*
X382Y552D02*
X424Y552D01*
X466Y552D02*
X508Y552D01*
X531Y552D02*
X576Y552D01*
X607Y552D02*
X649Y552D01*
X675Y552D02*
X805Y552D01*
X865Y552D02*
X907Y552D01*
X1048Y552D02*
X1179Y552D01*
X1224Y552D02*
X1309Y552D01*
X1334Y552D02*
X1376Y552D01*
X1419Y552D02*
X1461Y552D01*
X1481Y552D02*
X1523Y552D01*
X1555Y552D02*
X1597Y552D01*
X1738Y552D02*
X1755Y552D01*
X1929Y552D02*
X1946Y552D01*
X382Y551D02*
X424Y551D01*
X466Y551D02*
X508Y551D01*
X532Y551D02*
X578Y551D01*
X607Y551D02*
X649Y551D01*
X675Y551D02*
X805Y551D01*
X865Y551D02*
X907Y551D01*
X1048Y551D02*
X1179Y551D01*
X1222Y551D02*
X1308Y551D01*
X1334Y551D02*
X1376Y551D01*
X1419Y551D02*
X1461Y551D01*
X1481Y551D02*
X1524Y551D01*
X1555Y551D02*
X1597Y551D01*
X1738Y551D02*
X1755Y551D01*
X1929Y551D02*
X1946Y551D01*
X382Y550D02*
X424Y550D01*
X466Y550D02*
X508Y550D01*
X532Y550D02*
X579Y550D01*
X607Y550D02*
X649Y550D01*
X675Y550D02*
X805Y550D01*
X865Y550D02*
X907Y550D01*
X1048Y550D02*
X1179Y550D01*
X1220Y550D02*
X1308Y550D01*
X1334Y550D02*
X1376Y550D01*
X1419Y550D02*
X1461Y550D01*
X1481Y550D02*
X1525Y550D01*
X1555Y550D02*
X1597Y550D01*
X1738Y550D02*
X1755Y550D01*
X1929Y550D02*
X1946Y550D01*
X382Y549D02*
X424Y549D01*
X466Y549D02*
X508Y549D01*
X533Y549D02*
X581Y549D01*
X607Y549D02*
X649Y549D01*
X675Y549D02*
X805Y549D01*
X865Y549D02*
X907Y549D01*
X1048Y549D02*
X1179Y549D01*
X1219Y549D02*
X1307Y549D01*
X1334Y549D02*
X1376Y549D01*
X1419Y549D02*
X1461Y549D01*
X1481Y549D02*
X1526Y549D01*
X1555Y549D02*
X1597Y549D01*
X1738Y549D02*
X1755Y549D01*
X1929Y549D02*
X1946Y549D01*
X382Y548D02*
X424Y548D01*
X466Y548D02*
X508Y548D01*
X533Y548D02*
X584Y548D01*
X607Y548D02*
X649Y548D01*
X675Y548D02*
X805Y548D01*
X865Y548D02*
X907Y548D01*
X1048Y548D02*
X1179Y548D01*
X1217Y548D02*
X1306Y548D01*
X1334Y548D02*
X1376Y548D01*
X1419Y548D02*
X1461Y548D01*
X1481Y548D02*
X1527Y548D01*
X1555Y548D02*
X1597Y548D01*
X1738Y548D02*
X1755Y548D01*
X1929Y548D02*
X1946Y548D01*
X382Y547D02*
X424Y547D01*
X466Y547D02*
X508Y547D01*
X533Y547D02*
X589Y547D01*
X607Y547D02*
X649Y547D01*
X675Y547D02*
X805Y547D01*
X865Y547D02*
X907Y547D01*
X1048Y547D02*
X1179Y547D01*
X1216Y547D02*
X1305Y547D01*
X1334Y547D02*
X1376Y547D01*
X1419Y547D02*
X1461Y547D01*
X1482Y547D02*
X1528Y547D01*
X1555Y547D02*
X1597Y547D01*
X1738Y547D02*
X1755Y547D01*
X1929Y547D02*
X1946Y547D01*
X382Y546D02*
X424Y546D01*
X466Y546D02*
X508Y546D01*
X534Y546D02*
X649Y546D01*
X675Y546D02*
X805Y546D01*
X865Y546D02*
X907Y546D01*
X1048Y546D02*
X1179Y546D01*
X1215Y546D02*
X1304Y546D01*
X1334Y546D02*
X1376Y546D01*
X1419Y546D02*
X1461Y546D01*
X1482Y546D02*
X1530Y546D01*
X1555Y546D02*
X1597Y546D01*
X1738Y546D02*
X1755Y546D01*
X1929Y546D02*
X1946Y546D01*
X382Y545D02*
X424Y545D01*
X466Y545D02*
X508Y545D01*
X535Y545D02*
X649Y545D01*
X675Y545D02*
X805Y545D01*
X865Y545D02*
X907Y545D01*
X1048Y545D02*
X1179Y545D01*
X1213Y545D02*
X1303Y545D01*
X1334Y545D02*
X1376Y545D01*
X1419Y545D02*
X1461Y545D01*
X1482Y545D02*
X1532Y545D01*
X1555Y545D02*
X1597Y545D01*
X1738Y545D02*
X1755Y545D01*
X1929Y545D02*
X1946Y545D01*
X382Y544D02*
X424Y544D01*
X466Y544D02*
X508Y544D01*
X535Y544D02*
X649Y544D01*
X675Y544D02*
X805Y544D01*
X865Y544D02*
X907Y544D01*
X1048Y544D02*
X1179Y544D01*
X1212Y544D02*
X1302Y544D01*
X1334Y544D02*
X1376Y544D01*
X1419Y544D02*
X1461Y544D01*
X1483Y544D02*
X1536Y544D01*
X1555Y544D02*
X1597Y544D01*
X1738Y544D02*
X1755Y544D01*
X1929Y544D02*
X1946Y544D01*
X382Y543D02*
X424Y543D01*
X466Y543D02*
X508Y543D01*
X536Y543D02*
X649Y543D01*
X675Y543D02*
X805Y543D01*
X865Y543D02*
X907Y543D01*
X952Y543D02*
X1029Y543D01*
X1048Y543D02*
X1179Y543D01*
X1211Y543D02*
X1301Y543D01*
X1334Y543D02*
X1376Y543D01*
X1419Y543D02*
X1461Y543D01*
X1483Y543D02*
X1597Y543D01*
X1738Y543D02*
X1755Y543D01*
X1929Y543D02*
X1946Y543D01*
X382Y542D02*
X424Y542D01*
X466Y542D02*
X508Y542D01*
X536Y542D02*
X649Y542D01*
X675Y542D02*
X805Y542D01*
X865Y542D02*
X907Y542D01*
X952Y542D02*
X1029Y542D01*
X1048Y542D02*
X1179Y542D01*
X1210Y542D02*
X1300Y542D01*
X1334Y542D02*
X1376Y542D01*
X1419Y542D02*
X1461Y542D01*
X1483Y542D02*
X1597Y542D01*
X1738Y542D02*
X1755Y542D01*
X1929Y542D02*
X1946Y542D01*
X382Y541D02*
X424Y541D01*
X466Y541D02*
X508Y541D01*
X537Y541D02*
X649Y541D01*
X675Y541D02*
X805Y541D01*
X865Y541D02*
X907Y541D01*
X952Y541D02*
X1029Y541D01*
X1048Y541D02*
X1179Y541D01*
X1209Y541D02*
X1299Y541D01*
X1334Y541D02*
X1376Y541D01*
X1419Y541D02*
X1461Y541D01*
X1484Y541D02*
X1597Y541D01*
X1738Y541D02*
X1755Y541D01*
X1774Y541D02*
X1910Y541D01*
X1929Y541D02*
X1946Y541D01*
X382Y540D02*
X424Y540D01*
X466Y540D02*
X508Y540D01*
X538Y540D02*
X649Y540D01*
X675Y540D02*
X805Y540D01*
X865Y540D02*
X907Y540D01*
X952Y540D02*
X1029Y540D01*
X1048Y540D02*
X1179Y540D01*
X1209Y540D02*
X1297Y540D01*
X1334Y540D02*
X1376Y540D01*
X1419Y540D02*
X1461Y540D01*
X1484Y540D02*
X1597Y540D01*
X1738Y540D02*
X1755Y540D01*
X1774Y540D02*
X1911Y540D01*
X1929Y540D02*
X1946Y540D01*
X382Y539D02*
X424Y539D01*
X466Y539D02*
X508Y539D01*
X539Y539D02*
X649Y539D01*
X675Y539D02*
X805Y539D01*
X865Y539D02*
X907Y539D01*
X952Y539D02*
X1029Y539D01*
X1048Y539D02*
X1179Y539D01*
X1208Y539D02*
X1296Y539D01*
X1334Y539D02*
X1376Y539D01*
X1419Y539D02*
X1461Y539D01*
X1485Y539D02*
X1597Y539D01*
X1738Y539D02*
X1755Y539D01*
X1774Y539D02*
X1911Y539D01*
X1929Y539D02*
X1946Y539D01*
X382Y538D02*
X424Y538D01*
X466Y538D02*
X508Y538D01*
X540Y538D02*
X649Y538D01*
X675Y538D02*
X805Y538D01*
X865Y538D02*
X907Y538D01*
X952Y538D02*
X1029Y538D01*
X1048Y538D02*
X1179Y538D01*
X1207Y538D02*
X1294Y538D01*
X1334Y538D02*
X1376Y538D01*
X1419Y538D02*
X1461Y538D01*
X1485Y538D02*
X1597Y538D01*
X1738Y538D02*
X1755Y538D01*
X1774Y538D02*
X1911Y538D01*
X1929Y538D02*
X1946Y538D01*
X382Y537D02*
X424Y537D01*
X466Y537D02*
X508Y537D01*
X541Y537D02*
X649Y537D01*
X675Y537D02*
X805Y537D01*
X865Y537D02*
X907Y537D01*
X952Y537D02*
X1029Y537D01*
X1048Y537D02*
X1179Y537D01*
X1206Y537D02*
X1293Y537D01*
X1334Y537D02*
X1376Y537D01*
X1419Y537D02*
X1461Y537D01*
X1486Y537D02*
X1597Y537D01*
X1738Y537D02*
X1755Y537D01*
X1774Y537D02*
X1911Y537D01*
X1929Y537D02*
X1946Y537D01*
X382Y536D02*
X424Y536D01*
X466Y536D02*
X508Y536D01*
X542Y536D02*
X649Y536D01*
X675Y536D02*
X805Y536D01*
X865Y536D02*
X907Y536D01*
X952Y536D02*
X1029Y536D01*
X1048Y536D02*
X1179Y536D01*
X1206Y536D02*
X1291Y536D01*
X1334Y536D02*
X1376Y536D01*
X1419Y536D02*
X1461Y536D01*
X1486Y536D02*
X1597Y536D01*
X1738Y536D02*
X1755Y536D01*
X1774Y536D02*
X1911Y536D01*
X1929Y536D02*
X1946Y536D01*
X382Y535D02*
X424Y535D01*
X466Y535D02*
X508Y535D01*
X543Y535D02*
X649Y535D01*
X675Y535D02*
X805Y535D01*
X865Y535D02*
X907Y535D01*
X952Y535D02*
X1029Y535D01*
X1048Y535D02*
X1179Y535D01*
X1205Y535D02*
X1289Y535D01*
X1334Y535D02*
X1376Y535D01*
X1419Y535D02*
X1461Y535D01*
X1487Y535D02*
X1597Y535D01*
X1738Y535D02*
X1755Y535D01*
X1774Y535D02*
X1911Y535D01*
X1929Y535D02*
X1946Y535D01*
X382Y534D02*
X424Y534D01*
X466Y534D02*
X508Y534D01*
X544Y534D02*
X649Y534D01*
X675Y534D02*
X805Y534D01*
X865Y534D02*
X907Y534D01*
X952Y534D02*
X1029Y534D01*
X1048Y534D02*
X1179Y534D01*
X1205Y534D02*
X1287Y534D01*
X1334Y534D02*
X1376Y534D01*
X1419Y534D02*
X1461Y534D01*
X1488Y534D02*
X1597Y534D01*
X1738Y534D02*
X1755Y534D01*
X1774Y534D02*
X1911Y534D01*
X1929Y534D02*
X1946Y534D01*
X382Y533D02*
X424Y533D01*
X466Y533D02*
X508Y533D01*
X545Y533D02*
X649Y533D01*
X675Y533D02*
X805Y533D01*
X865Y533D02*
X907Y533D01*
X952Y533D02*
X1029Y533D01*
X1048Y533D02*
X1179Y533D01*
X1204Y533D02*
X1284Y533D01*
X1334Y533D02*
X1376Y533D01*
X1419Y533D02*
X1461Y533D01*
X1488Y533D02*
X1597Y533D01*
X1738Y533D02*
X1755Y533D01*
X1774Y533D02*
X1911Y533D01*
X1929Y533D02*
X1946Y533D01*
X382Y532D02*
X424Y532D01*
X466Y532D02*
X508Y532D01*
X547Y532D02*
X649Y532D01*
X675Y532D02*
X805Y532D01*
X865Y532D02*
X907Y532D01*
X952Y532D02*
X1029Y532D01*
X1048Y532D02*
X1179Y532D01*
X1204Y532D02*
X1282Y532D01*
X1334Y532D02*
X1376Y532D01*
X1419Y532D02*
X1461Y532D01*
X1489Y532D02*
X1597Y532D01*
X1738Y532D02*
X1755Y532D01*
X1774Y532D02*
X1911Y532D01*
X1929Y532D02*
X1946Y532D01*
X382Y531D02*
X424Y531D01*
X466Y531D02*
X508Y531D01*
X548Y531D02*
X649Y531D01*
X675Y531D02*
X805Y531D01*
X865Y531D02*
X907Y531D01*
X952Y531D02*
X1029Y531D01*
X1048Y531D02*
X1179Y531D01*
X1203Y531D02*
X1279Y531D01*
X1334Y531D02*
X1376Y531D01*
X1419Y531D02*
X1461Y531D01*
X1490Y531D02*
X1597Y531D01*
X1738Y531D02*
X1755Y531D01*
X1774Y531D02*
X1911Y531D01*
X1929Y531D02*
X1946Y531D01*
X382Y530D02*
X424Y530D01*
X466Y530D02*
X508Y530D01*
X550Y530D02*
X649Y530D01*
X675Y530D02*
X805Y530D01*
X865Y530D02*
X907Y530D01*
X952Y530D02*
X1029Y530D01*
X1048Y530D02*
X1179Y530D01*
X1203Y530D02*
X1276Y530D01*
X1334Y530D02*
X1376Y530D01*
X1418Y530D02*
X1461Y530D01*
X1491Y530D02*
X1597Y530D01*
X1738Y530D02*
X1755Y530D01*
X1774Y530D02*
X1911Y530D01*
X1929Y530D02*
X1946Y530D01*
X382Y529D02*
X424Y529D01*
X466Y529D02*
X508Y529D01*
X552Y529D02*
X649Y529D01*
X675Y529D02*
X805Y529D01*
X865Y529D02*
X907Y529D01*
X952Y529D02*
X1029Y529D01*
X1048Y529D02*
X1179Y529D01*
X1203Y529D02*
X1273Y529D01*
X1334Y529D02*
X1376Y529D01*
X1418Y529D02*
X1461Y529D01*
X1492Y529D02*
X1597Y529D01*
X1738Y529D02*
X1755Y529D01*
X1774Y529D02*
X1911Y529D01*
X1929Y529D02*
X1946Y529D01*
X382Y528D02*
X424Y528D01*
X466Y528D02*
X508Y528D01*
X554Y528D02*
X649Y528D01*
X675Y528D02*
X805Y528D01*
X865Y528D02*
X907Y528D01*
X952Y528D02*
X1029Y528D01*
X1048Y528D02*
X1179Y528D01*
X1202Y528D02*
X1269Y528D01*
X1334Y528D02*
X1376Y528D01*
X1418Y528D02*
X1461Y528D01*
X1493Y528D02*
X1597Y528D01*
X1738Y528D02*
X1755Y528D01*
X1774Y528D02*
X1911Y528D01*
X1929Y528D02*
X1946Y528D01*
X382Y527D02*
X424Y527D01*
X466Y527D02*
X508Y527D01*
X556Y527D02*
X649Y527D01*
X675Y527D02*
X805Y527D01*
X865Y527D02*
X907Y527D01*
X952Y527D02*
X1029Y527D01*
X1048Y527D02*
X1179Y527D01*
X1202Y527D02*
X1266Y527D01*
X1334Y527D02*
X1376Y527D01*
X1418Y527D02*
X1461Y527D01*
X1494Y527D02*
X1597Y527D01*
X1738Y527D02*
X1755Y527D01*
X1774Y527D02*
X1911Y527D01*
X1929Y527D02*
X1946Y527D01*
X382Y526D02*
X424Y526D01*
X466Y526D02*
X508Y526D01*
X555Y526D02*
X649Y526D01*
X675Y526D02*
X805Y526D01*
X865Y526D02*
X907Y526D01*
X952Y526D02*
X1029Y526D01*
X1048Y526D02*
X1179Y526D01*
X1202Y526D02*
X1263Y526D01*
X1334Y526D02*
X1376Y526D01*
X1418Y526D02*
X1461Y526D01*
X1495Y526D02*
X1597Y526D01*
X1738Y526D02*
X1755Y526D01*
X1774Y526D02*
X1911Y526D01*
X1929Y526D02*
X1946Y526D01*
X382Y525D02*
X424Y525D01*
X466Y525D02*
X508Y525D01*
X555Y525D02*
X649Y525D01*
X675Y525D02*
X717Y525D01*
X763Y525D02*
X805Y525D01*
X865Y525D02*
X907Y525D01*
X952Y525D02*
X1029Y525D01*
X1048Y525D02*
X1091Y525D01*
X1137Y525D02*
X1179Y525D01*
X1202Y525D02*
X1259Y525D01*
X1334Y525D02*
X1376Y525D01*
X1418Y525D02*
X1461Y525D01*
X1496Y525D02*
X1597Y525D01*
X1738Y525D02*
X1755Y525D01*
X1774Y525D02*
X1911Y525D01*
X1929Y525D02*
X1946Y525D01*
X382Y524D02*
X424Y524D01*
X465Y524D02*
X508Y524D01*
X554Y524D02*
X649Y524D01*
X675Y524D02*
X717Y524D01*
X763Y524D02*
X805Y524D01*
X865Y524D02*
X907Y524D01*
X952Y524D02*
X1029Y524D01*
X1048Y524D02*
X1091Y524D01*
X1137Y524D02*
X1179Y524D01*
X1202Y524D02*
X1256Y524D01*
X1334Y524D02*
X1377Y524D01*
X1418Y524D02*
X1460Y524D01*
X1497Y524D02*
X1597Y524D01*
X1738Y524D02*
X1755Y524D01*
X1774Y524D02*
X1911Y524D01*
X1929Y524D02*
X1946Y524D01*
X382Y523D02*
X424Y523D01*
X465Y523D02*
X508Y523D01*
X553Y523D02*
X649Y523D01*
X675Y523D02*
X717Y523D01*
X763Y523D02*
X805Y523D01*
X865Y523D02*
X907Y523D01*
X952Y523D02*
X1029Y523D01*
X1048Y523D02*
X1091Y523D01*
X1137Y523D02*
X1179Y523D01*
X1201Y523D02*
X1253Y523D01*
X1334Y523D02*
X1377Y523D01*
X1418Y523D02*
X1460Y523D01*
X1499Y523D02*
X1597Y523D01*
X1738Y523D02*
X1755Y523D01*
X1774Y523D02*
X1911Y523D01*
X1929Y523D02*
X1946Y523D01*
X382Y522D02*
X425Y522D01*
X465Y522D02*
X508Y522D01*
X553Y522D02*
X649Y522D01*
X675Y522D02*
X717Y522D01*
X763Y522D02*
X805Y522D01*
X865Y522D02*
X907Y522D01*
X952Y522D02*
X1029Y522D01*
X1048Y522D02*
X1091Y522D01*
X1137Y522D02*
X1179Y522D01*
X1201Y522D02*
X1250Y522D01*
X1334Y522D02*
X1377Y522D01*
X1417Y522D02*
X1460Y522D01*
X1500Y522D02*
X1597Y522D01*
X1738Y522D02*
X1755Y522D01*
X1774Y522D02*
X1911Y522D01*
X1929Y522D02*
X1946Y522D01*
X382Y521D02*
X425Y521D01*
X465Y521D02*
X508Y521D01*
X552Y521D02*
X649Y521D01*
X675Y521D02*
X717Y521D01*
X763Y521D02*
X805Y521D01*
X865Y521D02*
X907Y521D01*
X952Y521D02*
X1029Y521D01*
X1048Y521D02*
X1091Y521D01*
X1137Y521D02*
X1179Y521D01*
X1201Y521D02*
X1248Y521D01*
X1335Y521D02*
X1377Y521D01*
X1417Y521D02*
X1460Y521D01*
X1502Y521D02*
X1597Y521D01*
X1738Y521D02*
X1755Y521D01*
X1774Y521D02*
X1911Y521D01*
X1929Y521D02*
X1946Y521D01*
X382Y520D02*
X425Y520D01*
X464Y520D02*
X508Y520D01*
X551Y520D02*
X649Y520D01*
X675Y520D02*
X717Y520D01*
X763Y520D02*
X805Y520D01*
X865Y520D02*
X907Y520D01*
X952Y520D02*
X1029Y520D01*
X1048Y520D02*
X1091Y520D01*
X1137Y520D02*
X1179Y520D01*
X1201Y520D02*
X1246Y520D01*
X1335Y520D02*
X1377Y520D01*
X1417Y520D02*
X1460Y520D01*
X1503Y520D02*
X1597Y520D01*
X1738Y520D02*
X1755Y520D01*
X1774Y520D02*
X1911Y520D01*
X1929Y520D02*
X1946Y520D01*
X383Y519D02*
X425Y519D01*
X464Y519D02*
X508Y519D01*
X551Y519D02*
X649Y519D01*
X675Y519D02*
X717Y519D01*
X763Y519D02*
X805Y519D01*
X865Y519D02*
X907Y519D01*
X952Y519D02*
X1029Y519D01*
X1048Y519D02*
X1091Y519D01*
X1137Y519D02*
X1179Y519D01*
X1201Y519D02*
X1245Y519D01*
X1310Y519D02*
X1310Y519D01*
X1335Y519D02*
X1378Y519D01*
X1416Y519D02*
X1460Y519D01*
X1505Y519D02*
X1597Y519D01*
X1738Y519D02*
X1755Y519D01*
X1774Y519D02*
X1911Y519D01*
X1929Y519D02*
X1946Y519D01*
X383Y518D02*
X426Y518D01*
X464Y518D02*
X508Y518D01*
X550Y518D02*
X649Y518D01*
X675Y518D02*
X717Y518D01*
X763Y518D02*
X805Y518D01*
X865Y518D02*
X907Y518D01*
X952Y518D02*
X1029Y518D01*
X1048Y518D02*
X1091Y518D01*
X1137Y518D02*
X1179Y518D01*
X1201Y518D02*
X1244Y518D01*
X1308Y518D02*
X1310Y518D01*
X1335Y518D02*
X1378Y518D01*
X1416Y518D02*
X1460Y518D01*
X1507Y518D02*
X1597Y518D01*
X1738Y518D02*
X1755Y518D01*
X1774Y518D02*
X1911Y518D01*
X1929Y518D02*
X1946Y518D01*
X383Y517D02*
X426Y517D01*
X463Y517D02*
X508Y517D01*
X549Y517D02*
X649Y517D01*
X675Y517D02*
X717Y517D01*
X763Y517D02*
X805Y517D01*
X865Y517D02*
X907Y517D01*
X952Y517D02*
X1029Y517D01*
X1048Y517D02*
X1091Y517D01*
X1137Y517D02*
X1179Y517D01*
X1201Y517D02*
X1243Y517D01*
X1306Y517D02*
X1311Y517D01*
X1335Y517D02*
X1378Y517D01*
X1416Y517D02*
X1460Y517D01*
X1510Y517D02*
X1597Y517D01*
X1738Y517D02*
X1755Y517D01*
X1774Y517D02*
X1911Y517D01*
X1929Y517D02*
X1946Y517D01*
X383Y516D02*
X427Y516D01*
X463Y516D02*
X507Y516D01*
X549Y516D02*
X593Y516D01*
X597Y516D02*
X649Y516D01*
X675Y516D02*
X717Y516D01*
X763Y516D02*
X805Y516D01*
X865Y516D02*
X907Y516D01*
X952Y516D02*
X1029Y516D01*
X1048Y516D02*
X1091Y516D01*
X1137Y516D02*
X1179Y516D01*
X1201Y516D02*
X1243Y516D01*
X1304Y516D02*
X1311Y516D01*
X1335Y516D02*
X1379Y516D01*
X1415Y516D02*
X1460Y516D01*
X1513Y516D02*
X1597Y516D01*
X1738Y516D02*
X1755Y516D01*
X1774Y516D02*
X1911Y516D01*
X1929Y516D02*
X1946Y516D01*
X383Y515D02*
X427Y515D01*
X462Y515D02*
X507Y515D01*
X548Y515D02*
X592Y515D01*
X606Y515D02*
X649Y515D01*
X675Y515D02*
X717Y515D01*
X763Y515D02*
X805Y515D01*
X865Y515D02*
X907Y515D01*
X952Y515D02*
X1029Y515D01*
X1048Y515D02*
X1091Y515D01*
X1137Y515D02*
X1179Y515D01*
X1201Y515D02*
X1243Y515D01*
X1301Y515D02*
X1311Y515D01*
X1336Y515D02*
X1379Y515D01*
X1415Y515D02*
X1459Y515D01*
X1516Y515D02*
X1597Y515D01*
X1738Y515D02*
X1755Y515D01*
X1774Y515D02*
X1911Y515D01*
X1929Y515D02*
X1946Y515D01*
X384Y514D02*
X428Y514D01*
X461Y514D02*
X507Y514D01*
X548Y514D02*
X592Y514D01*
X606Y514D02*
X649Y514D01*
X675Y514D02*
X717Y514D01*
X763Y514D02*
X805Y514D01*
X865Y514D02*
X907Y514D01*
X952Y514D02*
X1029Y514D01*
X1048Y514D02*
X1091Y514D01*
X1137Y514D02*
X1179Y514D01*
X1201Y514D02*
X1243Y514D01*
X1298Y514D02*
X1311Y514D01*
X1336Y514D02*
X1380Y514D01*
X1414Y514D02*
X1459Y514D01*
X1520Y514D02*
X1597Y514D01*
X1738Y514D02*
X1755Y514D01*
X1774Y514D02*
X1911Y514D01*
X1929Y514D02*
X1946Y514D01*
X384Y513D02*
X428Y513D01*
X460Y513D02*
X507Y513D01*
X547Y513D02*
X591Y513D01*
X606Y513D02*
X649Y513D01*
X675Y513D02*
X717Y513D01*
X763Y513D02*
X805Y513D01*
X865Y513D02*
X907Y513D01*
X952Y513D02*
X1029Y513D01*
X1048Y513D02*
X1091Y513D01*
X1137Y513D02*
X1179Y513D01*
X1201Y513D02*
X1243Y513D01*
X1295Y513D02*
X1311Y513D01*
X1336Y513D02*
X1381Y513D01*
X1413Y513D02*
X1459Y513D01*
X1525Y513D02*
X1597Y513D01*
X1738Y513D02*
X1755Y513D01*
X1774Y513D02*
X1911Y513D01*
X1929Y513D02*
X1946Y513D01*
X384Y512D02*
X429Y512D01*
X459Y512D02*
X507Y512D01*
X546Y512D02*
X591Y512D01*
X606Y512D02*
X649Y512D01*
X675Y512D02*
X717Y512D01*
X763Y512D02*
X805Y512D01*
X865Y512D02*
X907Y512D01*
X952Y512D02*
X1029Y512D01*
X1048Y512D02*
X1091Y512D01*
X1137Y512D02*
X1179Y512D01*
X1202Y512D02*
X1243Y512D01*
X1292Y512D02*
X1312Y512D01*
X1336Y512D02*
X1382Y512D01*
X1412Y512D02*
X1459Y512D01*
X1533Y512D02*
X1597Y512D01*
X1738Y512D02*
X1755Y512D01*
X1774Y512D02*
X1911Y512D01*
X1929Y512D02*
X1946Y512D01*
X384Y511D02*
X430Y511D01*
X458Y511D02*
X506Y511D01*
X546Y511D02*
X590Y511D01*
X606Y511D02*
X649Y511D01*
X675Y511D02*
X717Y511D01*
X763Y511D02*
X805Y511D01*
X865Y511D02*
X907Y511D01*
X1048Y511D02*
X1091Y511D01*
X1137Y511D02*
X1179Y511D01*
X1202Y511D02*
X1244Y511D01*
X1289Y511D02*
X1312Y511D01*
X1337Y511D02*
X1383Y511D01*
X1411Y511D02*
X1459Y511D01*
X1554Y511D02*
X1597Y511D01*
X1738Y511D02*
X1755Y511D01*
X1774Y511D02*
X1911Y511D01*
X1929Y511D02*
X1946Y511D01*
X385Y510D02*
X432Y510D01*
X457Y510D02*
X506Y510D01*
X545Y510D02*
X590Y510D01*
X606Y510D02*
X649Y510D01*
X675Y510D02*
X717Y510D01*
X763Y510D02*
X805Y510D01*
X865Y510D02*
X907Y510D01*
X1048Y510D02*
X1091Y510D01*
X1137Y510D02*
X1179Y510D01*
X1202Y510D02*
X1245Y510D01*
X1285Y510D02*
X1312Y510D01*
X1337Y510D02*
X1384Y510D01*
X1410Y510D02*
X1458Y510D01*
X1554Y510D02*
X1597Y510D01*
X1738Y510D02*
X1755Y510D01*
X1774Y510D02*
X1911Y510D01*
X1929Y510D02*
X1946Y510D01*
X385Y509D02*
X434Y509D01*
X455Y509D02*
X506Y509D01*
X544Y509D02*
X589Y509D01*
X606Y509D02*
X649Y509D01*
X675Y509D02*
X717Y509D01*
X763Y509D02*
X805Y509D01*
X865Y509D02*
X907Y509D01*
X1048Y509D02*
X1091Y509D01*
X1137Y509D02*
X1179Y509D01*
X1202Y509D02*
X1246Y509D01*
X1281Y509D02*
X1312Y509D01*
X1337Y509D02*
X1386Y509D01*
X1408Y509D02*
X1458Y509D01*
X1554Y509D02*
X1597Y509D01*
X1738Y509D02*
X1755Y509D01*
X1774Y509D02*
X1911Y509D01*
X1929Y509D02*
X1946Y509D01*
X385Y508D02*
X438Y508D01*
X451Y508D02*
X506Y508D01*
X544Y508D02*
X588Y508D01*
X606Y508D02*
X649Y508D01*
X675Y508D02*
X717Y508D01*
X763Y508D02*
X805Y508D01*
X865Y508D02*
X907Y508D01*
X1048Y508D02*
X1091Y508D01*
X1137Y508D02*
X1179Y508D01*
X1202Y508D02*
X1248Y508D01*
X1275Y508D02*
X1312Y508D01*
X1338Y508D02*
X1390Y508D01*
X1405Y508D02*
X1458Y508D01*
X1554Y508D02*
X1597Y508D01*
X1738Y508D02*
X1755Y508D01*
X1774Y508D02*
X1911Y508D01*
X1929Y508D02*
X1946Y508D01*
X386Y507D02*
X505Y507D01*
X543Y507D02*
X588Y507D01*
X606Y507D02*
X649Y507D01*
X675Y507D02*
X717Y507D01*
X763Y507D02*
X805Y507D01*
X865Y507D02*
X907Y507D01*
X1048Y507D02*
X1091Y507D01*
X1137Y507D02*
X1179Y507D01*
X1202Y507D02*
X1254Y507D01*
X1267Y507D02*
X1312Y507D01*
X1338Y507D02*
X1457Y507D01*
X1554Y507D02*
X1597Y507D01*
X1738Y507D02*
X1755Y507D01*
X1773Y507D02*
X1911Y507D01*
X1929Y507D02*
X1946Y507D01*
X386Y506D02*
X505Y506D01*
X542Y506D02*
X587Y506D01*
X606Y506D02*
X649Y506D01*
X675Y506D02*
X717Y506D01*
X763Y506D02*
X805Y506D01*
X865Y506D02*
X907Y506D01*
X1048Y506D02*
X1091Y506D01*
X1137Y506D02*
X1179Y506D01*
X1203Y506D02*
X1313Y506D01*
X1338Y506D02*
X1457Y506D01*
X1554Y506D02*
X1597Y506D01*
X1738Y506D02*
X1755Y506D01*
X1773Y506D02*
X1807Y506D01*
X1825Y506D02*
X1859Y506D01*
X1877Y506D02*
X1911Y506D01*
X1929Y506D02*
X1946Y506D01*
X386Y505D02*
X505Y505D01*
X542Y505D02*
X587Y505D01*
X606Y505D02*
X649Y505D01*
X675Y505D02*
X717Y505D01*
X763Y505D02*
X805Y505D01*
X865Y505D02*
X907Y505D01*
X1048Y505D02*
X1091Y505D01*
X1137Y505D02*
X1179Y505D01*
X1203Y505D02*
X1313Y505D01*
X1339Y505D02*
X1457Y505D01*
X1554Y505D02*
X1597Y505D01*
X1738Y505D02*
X1755Y505D01*
X1773Y505D02*
X1807Y505D01*
X1825Y505D02*
X1859Y505D01*
X1877Y505D02*
X1911Y505D01*
X1929Y505D02*
X1946Y505D01*
X387Y504D02*
X504Y504D01*
X541Y504D02*
X586Y504D01*
X606Y504D02*
X649Y504D01*
X675Y504D02*
X717Y504D01*
X763Y504D02*
X805Y504D01*
X865Y504D02*
X907Y504D01*
X1048Y504D02*
X1091Y504D01*
X1137Y504D02*
X1179Y504D01*
X1203Y504D02*
X1313Y504D01*
X1339Y504D02*
X1456Y504D01*
X1554Y504D02*
X1597Y504D01*
X1738Y504D02*
X1755Y504D01*
X1773Y504D02*
X1807Y504D01*
X1825Y504D02*
X1859Y504D01*
X1877Y504D02*
X1911Y504D01*
X1929Y504D02*
X1946Y504D01*
X387Y503D02*
X504Y503D01*
X540Y503D02*
X585Y503D01*
X606Y503D02*
X649Y503D01*
X675Y503D02*
X717Y503D01*
X763Y503D02*
X805Y503D01*
X865Y503D02*
X907Y503D01*
X1048Y503D02*
X1091Y503D01*
X1137Y503D02*
X1179Y503D01*
X1204Y503D02*
X1313Y503D01*
X1339Y503D02*
X1456Y503D01*
X1554Y503D02*
X1597Y503D01*
X1738Y503D02*
X1755Y503D01*
X1773Y503D02*
X1807Y503D01*
X1825Y503D02*
X1859Y503D01*
X1877Y503D02*
X1911Y503D01*
X1929Y503D02*
X1946Y503D01*
X388Y502D02*
X503Y502D01*
X540Y502D02*
X585Y502D01*
X606Y502D02*
X649Y502D01*
X675Y502D02*
X717Y502D01*
X763Y502D02*
X805Y502D01*
X865Y502D02*
X907Y502D01*
X1048Y502D02*
X1091Y502D01*
X1137Y502D02*
X1179Y502D01*
X1204Y502D02*
X1313Y502D01*
X1340Y502D02*
X1456Y502D01*
X1554Y502D02*
X1597Y502D01*
X1738Y502D02*
X1755Y502D01*
X1773Y502D02*
X1807Y502D01*
X1825Y502D02*
X1859Y502D01*
X1877Y502D02*
X1911Y502D01*
X1929Y502D02*
X1946Y502D01*
X388Y501D02*
X503Y501D01*
X539Y501D02*
X584Y501D01*
X606Y501D02*
X649Y501D01*
X675Y501D02*
X717Y501D01*
X763Y501D02*
X805Y501D01*
X865Y501D02*
X907Y501D01*
X1048Y501D02*
X1091Y501D01*
X1137Y501D02*
X1179Y501D01*
X1204Y501D02*
X1314Y501D01*
X1340Y501D02*
X1455Y501D01*
X1554Y501D02*
X1597Y501D01*
X1738Y501D02*
X1755Y501D01*
X1773Y501D02*
X1807Y501D01*
X1825Y501D02*
X1859Y501D01*
X1877Y501D02*
X1911Y501D01*
X1929Y501D02*
X1946Y501D01*
X389Y500D02*
X502Y500D01*
X538Y500D02*
X584Y500D01*
X606Y500D02*
X649Y500D01*
X675Y500D02*
X717Y500D01*
X763Y500D02*
X803Y500D01*
X865Y500D02*
X907Y500D01*
X1048Y500D02*
X1091Y500D01*
X1137Y500D02*
X1179Y500D01*
X1205Y500D02*
X1314Y500D01*
X1341Y500D02*
X1455Y500D01*
X1554Y500D02*
X1597Y500D01*
X1738Y500D02*
X1755Y500D01*
X1773Y500D02*
X1807Y500D01*
X1825Y500D02*
X1859Y500D01*
X1877Y500D02*
X1911Y500D01*
X1929Y500D02*
X1946Y500D01*
X389Y499D02*
X502Y499D01*
X538Y499D02*
X583Y499D01*
X606Y499D02*
X649Y499D01*
X675Y499D02*
X717Y499D01*
X763Y499D02*
X798Y499D01*
X865Y499D02*
X907Y499D01*
X1048Y499D02*
X1091Y499D01*
X1137Y499D02*
X1179Y499D01*
X1205Y499D02*
X1314Y499D01*
X1341Y499D02*
X1454Y499D01*
X1554Y499D02*
X1597Y499D01*
X1738Y499D02*
X1755Y499D01*
X1773Y499D02*
X1807Y499D01*
X1825Y499D02*
X1859Y499D01*
X1877Y499D02*
X1911Y499D01*
X1929Y499D02*
X1946Y499D01*
X390Y498D02*
X501Y498D01*
X537Y498D02*
X583Y498D01*
X606Y498D02*
X649Y498D01*
X675Y498D02*
X717Y498D01*
X763Y498D02*
X795Y498D01*
X865Y498D02*
X907Y498D01*
X1048Y498D02*
X1091Y498D01*
X1137Y498D02*
X1178Y498D01*
X1208Y498D02*
X1314Y498D01*
X1342Y498D02*
X1454Y498D01*
X1554Y498D02*
X1597Y498D01*
X1738Y498D02*
X1755Y498D01*
X1773Y498D02*
X1807Y498D01*
X1825Y498D02*
X1859Y498D01*
X1877Y498D02*
X1911Y498D01*
X1929Y498D02*
X1946Y498D01*
X390Y497D02*
X501Y497D01*
X537Y497D02*
X582Y497D01*
X606Y497D02*
X649Y497D01*
X675Y497D02*
X717Y497D01*
X763Y497D02*
X792Y497D01*
X865Y497D02*
X907Y497D01*
X1048Y497D02*
X1091Y497D01*
X1137Y497D02*
X1175Y497D01*
X1210Y497D02*
X1314Y497D01*
X1343Y497D02*
X1453Y497D01*
X1554Y497D02*
X1597Y497D01*
X1738Y497D02*
X1755Y497D01*
X1773Y497D02*
X1807Y497D01*
X1825Y497D02*
X1859Y497D01*
X1877Y497D02*
X1911Y497D01*
X1929Y497D02*
X1946Y497D01*
X391Y496D02*
X500Y496D01*
X536Y496D02*
X581Y496D01*
X606Y496D02*
X649Y496D01*
X675Y496D02*
X717Y496D01*
X763Y496D02*
X790Y496D01*
X865Y496D02*
X907Y496D01*
X1048Y496D02*
X1091Y496D01*
X1137Y496D02*
X1173Y496D01*
X1213Y496D02*
X1314Y496D01*
X1343Y496D02*
X1452Y496D01*
X1554Y496D02*
X1597Y496D01*
X1738Y496D02*
X1755Y496D01*
X1773Y496D02*
X1807Y496D01*
X1825Y496D02*
X1859Y496D01*
X1877Y496D02*
X1911Y496D01*
X1929Y496D02*
X1946Y496D01*
X392Y495D02*
X500Y495D01*
X535Y495D02*
X581Y495D01*
X606Y495D02*
X649Y495D01*
X675Y495D02*
X717Y495D01*
X763Y495D02*
X788Y495D01*
X865Y495D02*
X907Y495D01*
X1048Y495D02*
X1091Y495D01*
X1137Y495D02*
X1171Y495D01*
X1215Y495D02*
X1315Y495D01*
X1344Y495D02*
X1452Y495D01*
X1554Y495D02*
X1597Y495D01*
X1738Y495D02*
X1755Y495D01*
X1773Y495D02*
X1807Y495D01*
X1825Y495D02*
X1859Y495D01*
X1877Y495D02*
X1911Y495D01*
X1929Y495D02*
X1946Y495D01*
X392Y494D02*
X499Y494D01*
X535Y494D02*
X580Y494D01*
X606Y494D02*
X649Y494D01*
X675Y494D02*
X717Y494D01*
X763Y494D02*
X787Y494D01*
X865Y494D02*
X907Y494D01*
X1048Y494D02*
X1091Y494D01*
X1137Y494D02*
X1169Y494D01*
X1216Y494D02*
X1315Y494D01*
X1345Y494D02*
X1451Y494D01*
X1554Y494D02*
X1597Y494D01*
X1738Y494D02*
X1755Y494D01*
X1773Y494D02*
X1807Y494D01*
X1825Y494D02*
X1859Y494D01*
X1877Y494D02*
X1911Y494D01*
X1929Y494D02*
X1946Y494D01*
X393Y493D02*
X498Y493D01*
X534Y493D02*
X580Y493D01*
X606Y493D02*
X649Y493D01*
X675Y493D02*
X717Y493D01*
X763Y493D02*
X785Y493D01*
X865Y493D02*
X907Y493D01*
X1048Y493D02*
X1091Y493D01*
X1137Y493D02*
X1168Y493D01*
X1218Y493D02*
X1315Y493D01*
X1345Y493D02*
X1450Y493D01*
X1554Y493D02*
X1597Y493D01*
X1738Y493D02*
X1755Y493D01*
X1773Y493D02*
X1807Y493D01*
X1825Y493D02*
X1859Y493D01*
X1877Y493D02*
X1911Y493D01*
X1929Y493D02*
X1946Y493D01*
X394Y492D02*
X498Y492D01*
X533Y492D02*
X579Y492D01*
X606Y492D02*
X649Y492D01*
X675Y492D02*
X717Y492D01*
X763Y492D02*
X783Y492D01*
X865Y492D02*
X907Y492D01*
X1048Y492D02*
X1091Y492D01*
X1137Y492D02*
X1166Y492D01*
X1219Y492D02*
X1315Y492D01*
X1346Y492D02*
X1450Y492D01*
X1554Y492D02*
X1597Y492D01*
X1738Y492D02*
X1755Y492D01*
X1773Y492D02*
X1807Y492D01*
X1825Y492D02*
X1859Y492D01*
X1877Y492D02*
X1911Y492D01*
X1929Y492D02*
X1946Y492D01*
X395Y491D02*
X497Y491D01*
X533Y491D02*
X578Y491D01*
X606Y491D02*
X649Y491D01*
X675Y491D02*
X717Y491D01*
X763Y491D02*
X782Y491D01*
X865Y491D02*
X907Y491D01*
X1048Y491D02*
X1091Y491D01*
X1137Y491D02*
X1165Y491D01*
X1221Y491D02*
X1315Y491D01*
X1347Y491D02*
X1449Y491D01*
X1554Y491D02*
X1597Y491D01*
X1738Y491D02*
X1755Y491D01*
X1773Y491D02*
X1807Y491D01*
X1825Y491D02*
X1859Y491D01*
X1877Y491D02*
X1911Y491D01*
X1929Y491D02*
X1946Y491D01*
X395Y490D02*
X496Y490D01*
X532Y490D02*
X578Y490D01*
X606Y490D02*
X649Y490D01*
X675Y490D02*
X717Y490D01*
X763Y490D02*
X781Y490D01*
X865Y490D02*
X907Y490D01*
X1048Y490D02*
X1091Y490D01*
X1137Y490D02*
X1164Y490D01*
X1222Y490D02*
X1316Y490D01*
X1348Y490D02*
X1448Y490D01*
X1554Y490D02*
X1597Y490D01*
X1738Y490D02*
X1755Y490D01*
X1773Y490D02*
X1807Y490D01*
X1825Y490D02*
X1859Y490D01*
X1877Y490D02*
X1911Y490D01*
X1929Y490D02*
X1946Y490D01*
X396Y489D02*
X495Y489D01*
X531Y489D02*
X577Y489D01*
X606Y489D02*
X649Y489D01*
X675Y489D02*
X717Y489D01*
X763Y489D02*
X780Y489D01*
X865Y489D02*
X907Y489D01*
X1048Y489D02*
X1091Y489D01*
X1137Y489D02*
X1162Y489D01*
X1223Y489D02*
X1316Y489D01*
X1349Y489D02*
X1447Y489D01*
X1554Y489D02*
X1597Y489D01*
X1738Y489D02*
X1755Y489D01*
X1773Y489D02*
X1807Y489D01*
X1825Y489D02*
X1859Y489D01*
X1877Y489D02*
X1911Y489D01*
X1929Y489D02*
X1946Y489D01*
X397Y488D02*
X494Y488D01*
X531Y488D02*
X577Y488D01*
X606Y488D02*
X649Y488D01*
X675Y488D02*
X717Y488D01*
X763Y488D02*
X779Y488D01*
X865Y488D02*
X907Y488D01*
X1048Y488D02*
X1091Y488D01*
X1137Y488D02*
X1161Y488D01*
X1224Y488D02*
X1316Y488D01*
X1350Y488D02*
X1446Y488D01*
X1554Y488D02*
X1597Y488D01*
X1738Y488D02*
X1755Y488D01*
X1773Y488D02*
X1807Y488D01*
X1825Y488D02*
X1859Y488D01*
X1877Y488D02*
X1911Y488D01*
X1929Y488D02*
X1946Y488D01*
X398Y487D02*
X493Y487D01*
X530Y487D02*
X576Y487D01*
X606Y487D02*
X649Y487D01*
X675Y487D02*
X717Y487D01*
X763Y487D02*
X778Y487D01*
X865Y487D02*
X907Y487D01*
X1048Y487D02*
X1091Y487D01*
X1137Y487D02*
X1160Y487D01*
X1225Y487D02*
X1316Y487D01*
X1351Y487D02*
X1445Y487D01*
X1554Y487D02*
X1597Y487D01*
X1738Y487D02*
X1755Y487D01*
X1773Y487D02*
X1807Y487D01*
X1825Y487D02*
X1859Y487D01*
X1877Y487D02*
X1911Y487D01*
X1929Y487D02*
X1946Y487D01*
X400Y486D02*
X492Y486D01*
X529Y486D02*
X575Y486D01*
X606Y486D02*
X649Y486D01*
X675Y486D02*
X717Y486D01*
X763Y486D02*
X777Y486D01*
X865Y486D02*
X907Y486D01*
X1048Y486D02*
X1091Y486D01*
X1137Y486D02*
X1159Y486D01*
X1226Y486D02*
X1316Y486D01*
X1352Y486D02*
X1444Y486D01*
X1554Y486D02*
X1597Y486D01*
X1738Y486D02*
X1755Y486D01*
X1773Y486D02*
X1807Y486D01*
X1825Y486D02*
X1859Y486D01*
X1877Y486D02*
X1911Y486D01*
X1929Y486D02*
X1946Y486D01*
X401Y485D02*
X491Y485D01*
X529Y485D02*
X575Y485D01*
X606Y485D02*
X649Y485D01*
X675Y485D02*
X717Y485D01*
X763Y485D02*
X776Y485D01*
X865Y485D02*
X907Y485D01*
X1048Y485D02*
X1091Y485D01*
X1137Y485D02*
X1159Y485D01*
X1227Y485D02*
X1317Y485D01*
X1353Y485D02*
X1443Y485D01*
X1554Y485D02*
X1597Y485D01*
X1738Y485D02*
X1755Y485D01*
X1773Y485D02*
X1807Y485D01*
X1825Y485D02*
X1859Y485D01*
X1877Y485D02*
X1911Y485D01*
X1929Y485D02*
X1946Y485D01*
X402Y484D02*
X489Y484D01*
X528Y484D02*
X574Y484D01*
X606Y484D02*
X649Y484D01*
X675Y484D02*
X717Y484D01*
X763Y484D02*
X775Y484D01*
X865Y484D02*
X907Y484D01*
X1048Y484D02*
X1091Y484D01*
X1137Y484D02*
X1158Y484D01*
X1228Y484D02*
X1316Y484D01*
X1354Y484D02*
X1441Y484D01*
X1554Y484D02*
X1597Y484D01*
X1738Y484D02*
X1755Y484D01*
X1773Y484D02*
X1807Y484D01*
X1825Y484D02*
X1859Y484D01*
X1877Y484D02*
X1911Y484D01*
X1929Y484D02*
X1946Y484D01*
X403Y483D02*
X488Y483D01*
X527Y483D02*
X574Y483D01*
X606Y483D02*
X649Y483D01*
X675Y483D02*
X717Y483D01*
X763Y483D02*
X774Y483D01*
X865Y483D02*
X907Y483D01*
X1048Y483D02*
X1091Y483D01*
X1137Y483D02*
X1157Y483D01*
X1228Y483D02*
X1314Y483D01*
X1356Y483D02*
X1440Y483D01*
X1554Y483D02*
X1597Y483D01*
X1738Y483D02*
X1755Y483D01*
X1773Y483D02*
X1807Y483D01*
X1825Y483D02*
X1859Y483D01*
X1877Y483D02*
X1911Y483D01*
X1929Y483D02*
X1946Y483D01*
X405Y482D02*
X487Y482D01*
X527Y482D02*
X573Y482D01*
X606Y482D02*
X649Y482D01*
X675Y482D02*
X717Y482D01*
X763Y482D02*
X774Y482D01*
X865Y482D02*
X907Y482D01*
X1048Y482D02*
X1091Y482D01*
X1137Y482D02*
X1156Y482D01*
X1229Y482D02*
X1312Y482D01*
X1357Y482D02*
X1439Y482D01*
X1554Y482D02*
X1597Y482D01*
X1738Y482D02*
X1755Y482D01*
X1773Y482D02*
X1807Y482D01*
X1825Y482D02*
X1859Y482D01*
X1877Y482D02*
X1911Y482D01*
X1929Y482D02*
X1946Y482D01*
X406Y481D02*
X485Y481D01*
X526Y481D02*
X573Y481D01*
X606Y481D02*
X649Y481D01*
X675Y481D02*
X717Y481D01*
X763Y481D02*
X773Y481D01*
X865Y481D02*
X907Y481D01*
X1048Y481D02*
X1091Y481D01*
X1137Y481D02*
X1156Y481D01*
X1230Y481D02*
X1310Y481D01*
X1359Y481D02*
X1437Y481D01*
X1554Y481D02*
X1597Y481D01*
X1738Y481D02*
X1755Y481D01*
X1773Y481D02*
X1807Y481D01*
X1825Y481D02*
X1859Y481D01*
X1877Y481D02*
X1911Y481D01*
X1929Y481D02*
X1946Y481D01*
X408Y480D02*
X483Y480D01*
X526Y480D02*
X572Y480D01*
X606Y480D02*
X649Y480D01*
X675Y480D02*
X717Y480D01*
X763Y480D02*
X772Y480D01*
X865Y480D02*
X907Y480D01*
X1048Y480D02*
X1091Y480D01*
X1137Y480D02*
X1155Y480D01*
X1231Y480D02*
X1307Y480D01*
X1360Y480D02*
X1435Y480D01*
X1554Y480D02*
X1597Y480D01*
X1738Y480D02*
X1755Y480D01*
X1773Y480D02*
X1807Y480D01*
X1825Y480D02*
X1859Y480D01*
X1877Y480D02*
X1911Y480D01*
X1929Y480D02*
X1946Y480D01*
X410Y479D02*
X481Y479D01*
X525Y479D02*
X571Y479D01*
X606Y479D02*
X649Y479D01*
X675Y479D02*
X717Y479D01*
X763Y479D02*
X772Y479D01*
X865Y479D02*
X907Y479D01*
X1048Y479D02*
X1091Y479D01*
X1137Y479D02*
X1154Y479D01*
X1231Y479D02*
X1305Y479D01*
X1362Y479D02*
X1433Y479D01*
X1554Y479D02*
X1597Y479D01*
X1738Y479D02*
X1755Y479D01*
X1773Y479D02*
X1807Y479D01*
X1825Y479D02*
X1859Y479D01*
X1877Y479D02*
X1911Y479D01*
X1929Y479D02*
X1946Y479D01*
X412Y478D02*
X479Y478D01*
X524Y478D02*
X571Y478D01*
X606Y478D02*
X649Y478D01*
X675Y478D02*
X717Y478D01*
X763Y478D02*
X771Y478D01*
X865Y478D02*
X907Y478D01*
X1048Y478D02*
X1091Y478D01*
X1137Y478D02*
X1154Y478D01*
X1232Y478D02*
X1302Y478D01*
X1364Y478D02*
X1431Y478D01*
X1554Y478D02*
X1597Y478D01*
X1738Y478D02*
X1755Y478D01*
X1773Y478D02*
X1807Y478D01*
X1825Y478D02*
X1859Y478D01*
X1877Y478D02*
X1911Y478D01*
X1929Y478D02*
X1946Y478D01*
X414Y477D02*
X477Y477D01*
X524Y477D02*
X570Y477D01*
X606Y477D02*
X649Y477D01*
X675Y477D02*
X717Y477D01*
X763Y477D02*
X770Y477D01*
X865Y477D02*
X907Y477D01*
X1048Y477D02*
X1091Y477D01*
X1137Y477D02*
X1153Y477D01*
X1232Y477D02*
X1298Y477D01*
X1367Y477D02*
X1429Y477D01*
X1554Y477D02*
X1597Y477D01*
X1738Y477D02*
X1755Y477D01*
X1773Y477D02*
X1807Y477D01*
X1825Y477D02*
X1859Y477D01*
X1877Y477D02*
X1911Y477D01*
X1929Y477D02*
X1946Y477D01*
X417Y476D02*
X474Y476D01*
X523Y476D02*
X570Y476D01*
X606Y476D02*
X649Y476D01*
X675Y476D02*
X717Y476D01*
X763Y476D02*
X770Y476D01*
X865Y476D02*
X907Y476D01*
X1048Y476D02*
X1091Y476D01*
X1137Y476D02*
X1153Y476D01*
X1233Y476D02*
X1295Y476D01*
X1369Y476D02*
X1426Y476D01*
X1554Y476D02*
X1597Y476D01*
X1738Y476D02*
X1755Y476D01*
X1773Y476D02*
X1807Y476D01*
X1825Y476D02*
X1859Y476D01*
X1877Y476D02*
X1911Y476D01*
X1929Y476D02*
X1946Y476D01*
X420Y475D02*
X471Y475D01*
X522Y475D02*
X569Y475D01*
X606Y475D02*
X649Y475D01*
X675Y475D02*
X717Y475D01*
X763Y475D02*
X769Y475D01*
X865Y475D02*
X907Y475D01*
X1048Y475D02*
X1091Y475D01*
X1137Y475D02*
X1152Y475D01*
X1235Y475D02*
X1291Y475D01*
X1372Y475D02*
X1423Y475D01*
X1554Y475D02*
X1597Y475D01*
X1738Y475D02*
X1755Y475D01*
X1773Y475D02*
X1807Y475D01*
X1825Y475D02*
X1859Y475D01*
X1877Y475D02*
X1911Y475D01*
X1929Y475D02*
X1946Y475D01*
X424Y474D02*
X467Y474D01*
X607Y474D02*
X648Y474D01*
X1239Y474D02*
X1286Y474D01*
X1376Y474D02*
X1419Y474D01*
X1738Y474D02*
X1755Y474D01*
X1773Y474D02*
X1807Y474D01*
X1825Y474D02*
X1859Y474D01*
X1877Y474D02*
X1911Y474D01*
X1929Y474D02*
X1946Y474D01*
X429Y473D02*
X462Y473D01*
X1244Y473D02*
X1280Y473D01*
X1381Y473D02*
X1414Y473D01*
X1738Y473D02*
X1755Y473D01*
X1773Y473D02*
X1807Y473D01*
X1825Y473D02*
X1859Y473D01*
X1877Y473D02*
X1911Y473D01*
X1929Y473D02*
X1946Y473D01*
X436Y472D02*
X455Y472D01*
X1252Y472D02*
X1271Y472D01*
X1388Y472D02*
X1407Y472D01*
X1738Y472D02*
X1755Y472D01*
X1773Y472D02*
X1807Y472D01*
X1825Y472D02*
X1859Y472D01*
X1877Y472D02*
X1911Y472D01*
X1929Y472D02*
X1946Y472D01*
X1738Y471D02*
X1755Y471D01*
X1773Y471D02*
X1807Y471D01*
X1825Y471D02*
X1859Y471D01*
X1877Y471D02*
X1911Y471D01*
X1929Y471D02*
X1946Y471D01*
X1738Y470D02*
X1755Y470D01*
X1773Y470D02*
X1807Y470D01*
X1825Y470D02*
X1859Y470D01*
X1877Y470D02*
X1911Y470D01*
X1929Y470D02*
X1946Y470D01*
X1738Y469D02*
X1755Y469D01*
X1773Y469D02*
X1807Y469D01*
X1825Y469D02*
X1859Y469D01*
X1877Y469D02*
X1911Y469D01*
X1929Y469D02*
X1946Y469D01*
X1738Y468D02*
X1755Y468D01*
X1773Y468D02*
X1807Y468D01*
X1825Y468D02*
X1859Y468D01*
X1877Y468D02*
X1911Y468D01*
X1929Y468D02*
X1946Y468D01*
X1738Y467D02*
X1755Y467D01*
X1773Y467D02*
X1807Y467D01*
X1825Y467D02*
X1859Y467D01*
X1877Y467D02*
X1911Y467D01*
X1929Y467D02*
X1946Y467D01*
X1738Y466D02*
X1755Y466D01*
X1773Y466D02*
X1807Y466D01*
X1825Y466D02*
X1859Y466D01*
X1877Y466D02*
X1911Y466D01*
X1929Y466D02*
X1946Y466D01*
X1738Y465D02*
X1755Y465D01*
X1773Y465D02*
X1807Y465D01*
X1825Y465D02*
X1859Y465D01*
X1877Y465D02*
X1911Y465D01*
X1929Y465D02*
X1946Y465D01*
X1738Y464D02*
X1755Y464D01*
X1773Y464D02*
X1807Y464D01*
X1825Y464D02*
X1859Y464D01*
X1877Y464D02*
X1911Y464D01*
X1929Y464D02*
X1946Y464D01*
X1738Y463D02*
X1755Y463D01*
X1773Y463D02*
X1807Y463D01*
X1825Y463D02*
X1859Y463D01*
X1877Y463D02*
X1911Y463D01*
X1929Y463D02*
X1946Y463D01*
X1738Y462D02*
X1755Y462D01*
X1773Y462D02*
X1807Y462D01*
X1825Y462D02*
X1859Y462D01*
X1877Y462D02*
X1911Y462D01*
X1929Y462D02*
X1946Y462D01*
X1738Y461D02*
X1755Y461D01*
X1773Y461D02*
X1807Y461D01*
X1825Y461D02*
X1859Y461D01*
X1877Y461D02*
X1911Y461D01*
X1929Y461D02*
X1946Y461D01*
X1738Y460D02*
X1755Y460D01*
X1773Y460D02*
X1807Y460D01*
X1825Y460D02*
X1859Y460D01*
X1877Y460D02*
X1911Y460D01*
X1929Y460D02*
X1946Y460D01*
X1738Y459D02*
X1755Y459D01*
X1773Y459D02*
X1807Y459D01*
X1825Y459D02*
X1859Y459D01*
X1877Y459D02*
X1911Y459D01*
X1929Y459D02*
X1946Y459D01*
X1738Y458D02*
X1755Y458D01*
X1773Y458D02*
X1807Y458D01*
X1825Y458D02*
X1859Y458D01*
X1877Y458D02*
X1911Y458D01*
X1929Y458D02*
X1946Y458D01*
X1738Y457D02*
X1755Y457D01*
X1773Y457D02*
X1807Y457D01*
X1825Y457D02*
X1859Y457D01*
X1877Y457D02*
X1911Y457D01*
X1929Y457D02*
X1946Y457D01*
X1738Y456D02*
X1755Y456D01*
X1773Y456D02*
X1807Y456D01*
X1825Y456D02*
X1859Y456D01*
X1877Y456D02*
X1911Y456D01*
X1929Y456D02*
X1946Y456D01*
X1738Y455D02*
X1755Y455D01*
X1773Y455D02*
X1807Y455D01*
X1825Y455D02*
X1859Y455D01*
X1877Y455D02*
X1911Y455D01*
X1929Y455D02*
X1946Y455D01*
X1738Y454D02*
X1755Y454D01*
X1773Y454D02*
X1807Y454D01*
X1825Y454D02*
X1859Y454D01*
X1877Y454D02*
X1911Y454D01*
X1929Y454D02*
X1946Y454D01*
X1738Y453D02*
X1755Y453D01*
X1773Y453D02*
X1807Y453D01*
X1825Y453D02*
X1859Y453D01*
X1877Y453D02*
X1911Y453D01*
X1929Y453D02*
X1946Y453D01*
X1738Y452D02*
X1755Y452D01*
X1773Y452D02*
X1807Y452D01*
X1825Y452D02*
X1859Y452D01*
X1877Y452D02*
X1911Y452D01*
X1929Y452D02*
X1946Y452D01*
X1738Y451D02*
X1755Y451D01*
X1773Y451D02*
X1807Y451D01*
X1825Y451D02*
X1859Y451D01*
X1877Y451D02*
X1911Y451D01*
X1929Y451D02*
X1946Y451D01*
X1738Y450D02*
X1755Y450D01*
X1773Y450D02*
X1807Y450D01*
X1825Y450D02*
X1859Y450D01*
X1877Y450D02*
X1911Y450D01*
X1929Y450D02*
X1946Y450D01*
X1738Y449D02*
X1755Y449D01*
X1773Y449D02*
X1807Y449D01*
X1825Y449D02*
X1859Y449D01*
X1877Y449D02*
X1911Y449D01*
X1929Y449D02*
X1946Y449D01*
X1738Y448D02*
X1755Y448D01*
X1773Y448D02*
X1807Y448D01*
X1825Y448D02*
X1859Y448D01*
X1877Y448D02*
X1911Y448D01*
X1929Y448D02*
X1946Y448D01*
X1738Y447D02*
X1755Y447D01*
X1773Y447D02*
X1807Y447D01*
X1825Y447D02*
X1859Y447D01*
X1877Y447D02*
X1911Y447D01*
X1929Y447D02*
X1946Y447D01*
X1738Y446D02*
X1755Y446D01*
X1773Y446D02*
X1807Y446D01*
X1825Y446D02*
X1859Y446D01*
X1877Y446D02*
X1911Y446D01*
X1929Y446D02*
X1946Y446D01*
X1738Y445D02*
X1755Y445D01*
X1773Y445D02*
X1807Y445D01*
X1825Y445D02*
X1859Y445D01*
X1877Y445D02*
X1911Y445D01*
X1929Y445D02*
X1946Y445D01*
X1738Y444D02*
X1755Y444D01*
X1773Y444D02*
X1807Y444D01*
X1825Y444D02*
X1859Y444D01*
X1877Y444D02*
X1911Y444D01*
X1929Y444D02*
X1946Y444D01*
X1738Y443D02*
X1755Y443D01*
X1773Y443D02*
X1807Y443D01*
X1825Y443D02*
X1859Y443D01*
X1877Y443D02*
X1911Y443D01*
X1929Y443D02*
X1946Y443D01*
X1738Y442D02*
X1755Y442D01*
X1773Y442D02*
X1807Y442D01*
X1825Y442D02*
X1859Y442D01*
X1877Y442D02*
X1911Y442D01*
X1929Y442D02*
X1946Y442D01*
X1738Y441D02*
X1755Y441D01*
X1773Y441D02*
X1807Y441D01*
X1825Y441D02*
X1859Y441D01*
X1877Y441D02*
X1911Y441D01*
X1929Y441D02*
X1946Y441D01*
X1738Y440D02*
X1755Y440D01*
X1773Y440D02*
X1807Y440D01*
X1825Y440D02*
X1859Y440D01*
X1877Y440D02*
X1911Y440D01*
X1929Y440D02*
X1946Y440D01*
X1738Y439D02*
X1755Y439D01*
X1773Y439D02*
X1807Y439D01*
X1825Y439D02*
X1859Y439D01*
X1877Y439D02*
X1911Y439D01*
X1929Y439D02*
X1946Y439D01*
X1738Y438D02*
X1755Y438D01*
X1773Y438D02*
X1807Y438D01*
X1825Y438D02*
X1859Y438D01*
X1877Y438D02*
X1911Y438D01*
X1929Y438D02*
X1946Y438D01*
X1738Y437D02*
X1755Y437D01*
X1773Y437D02*
X1807Y437D01*
X1825Y437D02*
X1859Y437D01*
X1877Y437D02*
X1911Y437D01*
X1929Y437D02*
X1946Y437D01*
X1738Y436D02*
X1755Y436D01*
X1773Y436D02*
X1807Y436D01*
X1825Y436D02*
X1859Y436D01*
X1877Y436D02*
X1911Y436D01*
X1929Y436D02*
X1946Y436D01*
X1738Y435D02*
X1755Y435D01*
X1773Y435D02*
X1807Y435D01*
X1825Y435D02*
X1859Y435D01*
X1877Y435D02*
X1911Y435D01*
X1929Y435D02*
X1946Y435D01*
X1738Y434D02*
X1755Y434D01*
X1773Y434D02*
X1807Y434D01*
X1825Y434D02*
X1859Y434D01*
X1877Y434D02*
X1911Y434D01*
X1929Y434D02*
X1946Y434D01*
X1738Y433D02*
X1755Y433D01*
X1773Y433D02*
X1807Y433D01*
X1825Y433D02*
X1859Y433D01*
X1877Y433D02*
X1911Y433D01*
X1929Y433D02*
X1946Y433D01*
X1738Y432D02*
X1755Y432D01*
X1773Y432D02*
X1807Y432D01*
X1825Y432D02*
X1859Y432D01*
X1877Y432D02*
X1911Y432D01*
X1929Y432D02*
X1946Y432D01*
X957Y431D02*
X974Y431D01*
X1738Y431D02*
X1755Y431D01*
X1773Y431D02*
X1807Y431D01*
X1825Y431D02*
X1859Y431D01*
X1877Y431D02*
X1911Y431D01*
X1929Y431D02*
X1946Y431D01*
X950Y430D02*
X981Y430D01*
X1738Y430D02*
X1755Y430D01*
X1773Y430D02*
X1807Y430D01*
X1825Y430D02*
X1859Y430D01*
X1877Y430D02*
X1911Y430D01*
X1929Y430D02*
X1946Y430D01*
X945Y429D02*
X986Y429D01*
X1738Y429D02*
X1755Y429D01*
X1773Y429D02*
X1807Y429D01*
X1825Y429D02*
X1859Y429D01*
X1877Y429D02*
X1911Y429D01*
X1929Y429D02*
X1946Y429D01*
X941Y428D02*
X989Y428D01*
X1738Y428D02*
X1755Y428D01*
X1773Y428D02*
X1807Y428D01*
X1825Y428D02*
X1859Y428D01*
X1877Y428D02*
X1911Y428D01*
X1929Y428D02*
X1946Y428D01*
X738Y427D02*
X776Y427D01*
X844Y427D02*
X872Y427D01*
X938Y427D02*
X993Y427D01*
X1051Y427D02*
X1159Y427D01*
X1227Y427D02*
X1311Y427D01*
X1329Y427D02*
X1371Y427D01*
X1414Y427D02*
X1456Y427D01*
X1514Y427D02*
X1596Y427D01*
X1738Y427D02*
X1755Y427D01*
X1773Y427D02*
X1807Y427D01*
X1825Y427D02*
X1859Y427D01*
X1877Y427D02*
X1911Y427D01*
X1929Y427D02*
X1946Y427D01*
X738Y426D02*
X777Y426D01*
X843Y426D02*
X872Y426D01*
X935Y426D02*
X995Y426D01*
X1051Y426D02*
X1160Y426D01*
X1226Y426D02*
X1311Y426D01*
X1329Y426D02*
X1371Y426D01*
X1414Y426D02*
X1456Y426D01*
X1508Y426D02*
X1596Y426D01*
X1738Y426D02*
X1755Y426D01*
X1773Y426D02*
X1807Y426D01*
X1825Y426D02*
X1859Y426D01*
X1877Y426D02*
X1911Y426D01*
X1929Y426D02*
X1946Y426D01*
X738Y425D02*
X777Y425D01*
X842Y425D02*
X872Y425D01*
X933Y425D02*
X998Y425D01*
X1051Y425D02*
X1161Y425D01*
X1225Y425D02*
X1311Y425D01*
X1329Y425D02*
X1371Y425D01*
X1414Y425D02*
X1456Y425D01*
X1503Y425D02*
X1596Y425D01*
X1738Y425D02*
X1755Y425D01*
X1773Y425D02*
X1807Y425D01*
X1825Y425D02*
X1859Y425D01*
X1877Y425D02*
X1911Y425D01*
X1929Y425D02*
X1946Y425D01*
X738Y424D02*
X777Y424D01*
X841Y424D02*
X872Y424D01*
X931Y424D02*
X1000Y424D01*
X1051Y424D02*
X1162Y424D01*
X1224Y424D02*
X1311Y424D01*
X1329Y424D02*
X1371Y424D01*
X1414Y424D02*
X1456Y424D01*
X1500Y424D02*
X1596Y424D01*
X1738Y424D02*
X1755Y424D01*
X1773Y424D02*
X1807Y424D01*
X1825Y424D02*
X1859Y424D01*
X1877Y424D02*
X1911Y424D01*
X1929Y424D02*
X1946Y424D01*
X738Y423D02*
X777Y423D01*
X840Y423D02*
X872Y423D01*
X929Y423D02*
X1002Y423D01*
X1051Y423D02*
X1163Y423D01*
X1223Y423D02*
X1311Y423D01*
X1329Y423D02*
X1371Y423D01*
X1414Y423D02*
X1456Y423D01*
X1497Y423D02*
X1596Y423D01*
X1738Y423D02*
X1755Y423D01*
X1773Y423D02*
X1807Y423D01*
X1825Y423D02*
X1859Y423D01*
X1877Y423D02*
X1911Y423D01*
X1929Y423D02*
X1946Y423D01*
X738Y422D02*
X777Y422D01*
X839Y422D02*
X872Y422D01*
X927Y422D02*
X1004Y422D01*
X1051Y422D02*
X1164Y422D01*
X1221Y422D02*
X1311Y422D01*
X1329Y422D02*
X1371Y422D01*
X1414Y422D02*
X1456Y422D01*
X1495Y422D02*
X1596Y422D01*
X1738Y422D02*
X1755Y422D01*
X1773Y422D02*
X1807Y422D01*
X1825Y422D02*
X1859Y422D01*
X1877Y422D02*
X1911Y422D01*
X1929Y422D02*
X1946Y422D01*
X738Y421D02*
X777Y421D01*
X837Y421D02*
X872Y421D01*
X925Y421D02*
X1006Y421D01*
X1051Y421D02*
X1165Y421D01*
X1220Y421D02*
X1311Y421D01*
X1329Y421D02*
X1371Y421D01*
X1414Y421D02*
X1456Y421D01*
X1493Y421D02*
X1596Y421D01*
X1738Y421D02*
X1755Y421D01*
X1773Y421D02*
X1807Y421D01*
X1825Y421D02*
X1859Y421D01*
X1877Y421D02*
X1911Y421D01*
X1929Y421D02*
X1946Y421D01*
X738Y420D02*
X777Y420D01*
X836Y420D02*
X872Y420D01*
X923Y420D02*
X1007Y420D01*
X1051Y420D02*
X1167Y420D01*
X1219Y420D02*
X1311Y420D01*
X1329Y420D02*
X1371Y420D01*
X1414Y420D02*
X1456Y420D01*
X1491Y420D02*
X1596Y420D01*
X1738Y420D02*
X1755Y420D01*
X1773Y420D02*
X1807Y420D01*
X1825Y420D02*
X1859Y420D01*
X1877Y420D02*
X1911Y420D01*
X1929Y420D02*
X1946Y420D01*
X738Y419D02*
X777Y419D01*
X834Y419D02*
X872Y419D01*
X922Y419D02*
X1009Y419D01*
X1051Y419D02*
X1168Y419D01*
X1217Y419D02*
X1311Y419D01*
X1329Y419D02*
X1371Y419D01*
X1414Y419D02*
X1456Y419D01*
X1490Y419D02*
X1596Y419D01*
X1738Y419D02*
X1755Y419D01*
X1773Y419D02*
X1807Y419D01*
X1825Y419D02*
X1859Y419D01*
X1877Y419D02*
X1911Y419D01*
X1929Y419D02*
X1946Y419D01*
X738Y418D02*
X777Y418D01*
X833Y418D02*
X872Y418D01*
X920Y418D02*
X1010Y418D01*
X1051Y418D02*
X1170Y418D01*
X1215Y418D02*
X1311Y418D01*
X1329Y418D02*
X1371Y418D01*
X1414Y418D02*
X1456Y418D01*
X1488Y418D02*
X1596Y418D01*
X1738Y418D02*
X1755Y418D01*
X1773Y418D02*
X1807Y418D01*
X1825Y418D02*
X1859Y418D01*
X1877Y418D02*
X1911Y418D01*
X1929Y418D02*
X1946Y418D01*
X738Y417D02*
X777Y417D01*
X831Y417D02*
X872Y417D01*
X919Y417D02*
X1012Y417D01*
X1051Y417D02*
X1172Y417D01*
X1214Y417D02*
X1311Y417D01*
X1329Y417D02*
X1371Y417D01*
X1414Y417D02*
X1456Y417D01*
X1487Y417D02*
X1596Y417D01*
X1738Y417D02*
X1755Y417D01*
X1773Y417D02*
X1807Y417D01*
X1825Y417D02*
X1859Y417D01*
X1877Y417D02*
X1911Y417D01*
X1929Y417D02*
X1946Y417D01*
X738Y416D02*
X777Y416D01*
X829Y416D02*
X872Y416D01*
X918Y416D02*
X1013Y416D01*
X1051Y416D02*
X1174Y416D01*
X1212Y416D02*
X1311Y416D01*
X1329Y416D02*
X1371Y416D01*
X1414Y416D02*
X1456Y416D01*
X1486Y416D02*
X1596Y416D01*
X1738Y416D02*
X1755Y416D01*
X1773Y416D02*
X1807Y416D01*
X1825Y416D02*
X1859Y416D01*
X1877Y416D02*
X1911Y416D01*
X1929Y416D02*
X1946Y416D01*
X738Y415D02*
X777Y415D01*
X827Y415D02*
X872Y415D01*
X916Y415D02*
X1014Y415D01*
X1051Y415D02*
X1176Y415D01*
X1209Y415D02*
X1311Y415D01*
X1329Y415D02*
X1371Y415D01*
X1414Y415D02*
X1456Y415D01*
X1485Y415D02*
X1596Y415D01*
X1738Y415D02*
X1755Y415D01*
X1773Y415D02*
X1807Y415D01*
X1825Y415D02*
X1859Y415D01*
X1877Y415D02*
X1911Y415D01*
X1929Y415D02*
X1946Y415D01*
X738Y414D02*
X777Y414D01*
X824Y414D02*
X872Y414D01*
X915Y414D02*
X1016Y414D01*
X1051Y414D02*
X1176Y414D01*
X1206Y414D02*
X1311Y414D01*
X1329Y414D02*
X1371Y414D01*
X1414Y414D02*
X1456Y414D01*
X1484Y414D02*
X1596Y414D01*
X1738Y414D02*
X1755Y414D01*
X1773Y414D02*
X1807Y414D01*
X1825Y414D02*
X1859Y414D01*
X1877Y414D02*
X1911Y414D01*
X1929Y414D02*
X1946Y414D01*
X738Y413D02*
X777Y413D01*
X820Y413D02*
X872Y413D01*
X914Y413D02*
X1017Y413D01*
X1051Y413D02*
X1176Y413D01*
X1203Y413D02*
X1311Y413D01*
X1329Y413D02*
X1371Y413D01*
X1414Y413D02*
X1456Y413D01*
X1483Y413D02*
X1596Y413D01*
X1738Y413D02*
X1755Y413D01*
X1773Y413D02*
X1807Y413D01*
X1825Y413D02*
X1859Y413D01*
X1877Y413D02*
X1911Y413D01*
X1929Y413D02*
X1946Y413D01*
X738Y412D02*
X777Y412D01*
X817Y412D02*
X872Y412D01*
X913Y412D02*
X1018Y412D01*
X1051Y412D02*
X1176Y412D01*
X1186Y412D02*
X1190Y412D01*
X1195Y412D02*
X1311Y412D01*
X1329Y412D02*
X1371Y412D01*
X1414Y412D02*
X1456Y412D01*
X1482Y412D02*
X1596Y412D01*
X1738Y412D02*
X1755Y412D01*
X1773Y412D02*
X1807Y412D01*
X1825Y412D02*
X1859Y412D01*
X1877Y412D02*
X1911Y412D01*
X1929Y412D02*
X1946Y412D01*
X738Y411D02*
X777Y411D01*
X816Y411D02*
X872Y411D01*
X912Y411D02*
X1019Y411D01*
X1051Y411D02*
X1176Y411D01*
X1186Y411D02*
X1311Y411D01*
X1329Y411D02*
X1371Y411D01*
X1414Y411D02*
X1456Y411D01*
X1482Y411D02*
X1596Y411D01*
X1738Y411D02*
X1755Y411D01*
X1773Y411D02*
X1807Y411D01*
X1825Y411D02*
X1859Y411D01*
X1877Y411D02*
X1911Y411D01*
X1929Y411D02*
X1946Y411D01*
X738Y410D02*
X777Y410D01*
X815Y410D02*
X872Y410D01*
X911Y410D02*
X1020Y410D01*
X1051Y410D02*
X1176Y410D01*
X1186Y410D02*
X1311Y410D01*
X1329Y410D02*
X1371Y410D01*
X1414Y410D02*
X1456Y410D01*
X1481Y410D02*
X1596Y410D01*
X1738Y410D02*
X1755Y410D01*
X1773Y410D02*
X1807Y410D01*
X1825Y410D02*
X1859Y410D01*
X1877Y410D02*
X1911Y410D01*
X1929Y410D02*
X1946Y410D01*
X738Y409D02*
X777Y409D01*
X815Y409D02*
X872Y409D01*
X910Y409D02*
X1021Y409D01*
X1051Y409D02*
X1176Y409D01*
X1186Y409D02*
X1311Y409D01*
X1329Y409D02*
X1371Y409D01*
X1414Y409D02*
X1456Y409D01*
X1481Y409D02*
X1596Y409D01*
X1738Y409D02*
X1755Y409D01*
X1773Y409D02*
X1807Y409D01*
X1825Y409D02*
X1859Y409D01*
X1877Y409D02*
X1911Y409D01*
X1929Y409D02*
X1946Y409D01*
X738Y408D02*
X777Y408D01*
X814Y408D02*
X872Y408D01*
X909Y408D02*
X1022Y408D01*
X1051Y408D02*
X1176Y408D01*
X1186Y408D02*
X1311Y408D01*
X1329Y408D02*
X1371Y408D01*
X1414Y408D02*
X1456Y408D01*
X1480Y408D02*
X1596Y408D01*
X1738Y408D02*
X1755Y408D01*
X1773Y408D02*
X1807Y408D01*
X1825Y408D02*
X1859Y408D01*
X1877Y408D02*
X1911Y408D01*
X1929Y408D02*
X1946Y408D01*
X738Y407D02*
X777Y407D01*
X813Y407D02*
X872Y407D01*
X909Y407D02*
X1023Y407D01*
X1051Y407D02*
X1176Y407D01*
X1186Y407D02*
X1311Y407D01*
X1329Y407D02*
X1371Y407D01*
X1414Y407D02*
X1456Y407D01*
X1480Y407D02*
X1596Y407D01*
X1738Y407D02*
X1755Y407D01*
X1773Y407D02*
X1807Y407D01*
X1825Y407D02*
X1859Y407D01*
X1877Y407D02*
X1911Y407D01*
X1929Y407D02*
X1946Y407D01*
X738Y406D02*
X777Y406D01*
X813Y406D02*
X872Y406D01*
X908Y406D02*
X1023Y406D01*
X1051Y406D02*
X1176Y406D01*
X1186Y406D02*
X1311Y406D01*
X1329Y406D02*
X1371Y406D01*
X1414Y406D02*
X1456Y406D01*
X1479Y406D02*
X1596Y406D01*
X1738Y406D02*
X1755Y406D01*
X1773Y406D02*
X1807Y406D01*
X1825Y406D02*
X1859Y406D01*
X1877Y406D02*
X1911Y406D01*
X1929Y406D02*
X1946Y406D01*
X738Y405D02*
X777Y405D01*
X812Y405D02*
X872Y405D01*
X907Y405D02*
X1024Y405D01*
X1051Y405D02*
X1176Y405D01*
X1186Y405D02*
X1311Y405D01*
X1329Y405D02*
X1371Y405D01*
X1414Y405D02*
X1456Y405D01*
X1479Y405D02*
X1596Y405D01*
X1738Y405D02*
X1755Y405D01*
X1773Y405D02*
X1807Y405D01*
X1825Y405D02*
X1859Y405D01*
X1877Y405D02*
X1911Y405D01*
X1929Y405D02*
X1946Y405D01*
X738Y404D02*
X777Y404D01*
X812Y404D02*
X872Y404D01*
X906Y404D02*
X1025Y404D01*
X1051Y404D02*
X1176Y404D01*
X1186Y404D02*
X1311Y404D01*
X1329Y404D02*
X1371Y404D01*
X1414Y404D02*
X1456Y404D01*
X1479Y404D02*
X1596Y404D01*
X1738Y404D02*
X1755Y404D01*
X1773Y404D02*
X1807Y404D01*
X1825Y404D02*
X1859Y404D01*
X1877Y404D02*
X1911Y404D01*
X1929Y404D02*
X1946Y404D01*
X738Y403D02*
X777Y403D01*
X811Y403D02*
X872Y403D01*
X906Y403D02*
X1026Y403D01*
X1051Y403D02*
X1176Y403D01*
X1186Y403D02*
X1311Y403D01*
X1329Y403D02*
X1371Y403D01*
X1414Y403D02*
X1456Y403D01*
X1478Y403D02*
X1596Y403D01*
X1738Y403D02*
X1755Y403D01*
X1773Y403D02*
X1806Y403D01*
X1825Y403D02*
X1858Y403D01*
X1877Y403D02*
X1910Y403D01*
X1929Y403D02*
X1946Y403D01*
X738Y402D02*
X777Y402D01*
X810Y402D02*
X872Y402D01*
X905Y402D02*
X1027Y402D01*
X1051Y402D02*
X1176Y402D01*
X1186Y402D02*
X1311Y402D01*
X1329Y402D02*
X1371Y402D01*
X1414Y402D02*
X1456Y402D01*
X1478Y402D02*
X1596Y402D01*
X1738Y402D02*
X1755Y402D01*
X1929Y402D02*
X1946Y402D01*
X738Y401D02*
X777Y401D01*
X810Y401D02*
X872Y401D01*
X904Y401D02*
X1027Y401D01*
X1051Y401D02*
X1176Y401D01*
X1186Y401D02*
X1311Y401D01*
X1329Y401D02*
X1371Y401D01*
X1414Y401D02*
X1456Y401D01*
X1478Y401D02*
X1596Y401D01*
X1738Y401D02*
X1755Y401D01*
X1929Y401D02*
X1946Y401D01*
X738Y400D02*
X777Y400D01*
X809Y400D02*
X872Y400D01*
X904Y400D02*
X1028Y400D01*
X1051Y400D02*
X1176Y400D01*
X1186Y400D02*
X1311Y400D01*
X1329Y400D02*
X1371Y400D01*
X1414Y400D02*
X1456Y400D01*
X1478Y400D02*
X1596Y400D01*
X1738Y400D02*
X1755Y400D01*
X1929Y400D02*
X1946Y400D01*
X738Y399D02*
X777Y399D01*
X808Y399D02*
X872Y399D01*
X903Y399D02*
X1029Y399D01*
X1051Y399D02*
X1176Y399D01*
X1186Y399D02*
X1311Y399D01*
X1329Y399D02*
X1371Y399D01*
X1414Y399D02*
X1456Y399D01*
X1478Y399D02*
X1596Y399D01*
X1738Y399D02*
X1755Y399D01*
X1929Y399D02*
X1946Y399D01*
X738Y398D02*
X777Y398D01*
X808Y398D02*
X872Y398D01*
X902Y398D02*
X1029Y398D01*
X1051Y398D02*
X1176Y398D01*
X1186Y398D02*
X1311Y398D01*
X1329Y398D02*
X1371Y398D01*
X1414Y398D02*
X1456Y398D01*
X1478Y398D02*
X1596Y398D01*
X1738Y398D02*
X1755Y398D01*
X1929Y398D02*
X1946Y398D01*
X738Y397D02*
X777Y397D01*
X807Y397D02*
X872Y397D01*
X902Y397D02*
X961Y397D01*
X973Y397D02*
X1030Y397D01*
X1051Y397D02*
X1176Y397D01*
X1186Y397D02*
X1311Y397D01*
X1329Y397D02*
X1371Y397D01*
X1414Y397D02*
X1456Y397D01*
X1477Y397D02*
X1531Y397D01*
X1556Y397D02*
X1596Y397D01*
X1738Y397D02*
X1755Y397D01*
X1929Y397D02*
X1946Y397D01*
X738Y396D02*
X777Y396D01*
X806Y396D02*
X872Y396D01*
X901Y396D02*
X956Y396D01*
X977Y396D02*
X1030Y396D01*
X1051Y396D02*
X1176Y396D01*
X1186Y396D02*
X1311Y396D01*
X1329Y396D02*
X1371Y396D01*
X1414Y396D02*
X1456Y396D01*
X1477Y396D02*
X1527Y396D01*
X1556Y396D02*
X1596Y396D01*
X1738Y396D02*
X1755Y396D01*
X1929Y396D02*
X1946Y396D01*
X738Y395D02*
X777Y395D01*
X806Y395D02*
X872Y395D01*
X901Y395D02*
X954Y395D01*
X979Y395D02*
X1031Y395D01*
X1051Y395D02*
X1176Y395D01*
X1186Y395D02*
X1311Y395D01*
X1329Y395D02*
X1371Y395D01*
X1414Y395D02*
X1456Y395D01*
X1477Y395D02*
X1525Y395D01*
X1556Y395D02*
X1596Y395D01*
X1738Y395D02*
X1755Y395D01*
X1929Y395D02*
X1946Y395D01*
X738Y394D02*
X777Y394D01*
X805Y394D02*
X872Y394D01*
X901Y394D02*
X951Y394D01*
X981Y394D02*
X1031Y394D01*
X1051Y394D02*
X1176Y394D01*
X1186Y394D02*
X1311Y394D01*
X1329Y394D02*
X1371Y394D01*
X1414Y394D02*
X1456Y394D01*
X1477Y394D02*
X1524Y394D01*
X1556Y394D02*
X1596Y394D01*
X1738Y394D02*
X1755Y394D01*
X1929Y394D02*
X1946Y394D01*
X738Y393D02*
X777Y393D01*
X805Y393D02*
X872Y393D01*
X900Y393D02*
X950Y393D01*
X983Y393D02*
X1032Y393D01*
X1051Y393D02*
X1176Y393D01*
X1186Y393D02*
X1311Y393D01*
X1329Y393D02*
X1371Y393D01*
X1414Y393D02*
X1456Y393D01*
X1477Y393D02*
X1523Y393D01*
X1556Y393D02*
X1596Y393D01*
X1738Y393D02*
X1755Y393D01*
X1929Y393D02*
X1946Y393D01*
X738Y392D02*
X777Y392D01*
X804Y392D02*
X872Y392D01*
X900Y392D02*
X948Y392D01*
X985Y392D02*
X1032Y392D01*
X1092Y392D02*
X1135Y392D01*
X1227Y392D02*
X1270Y392D01*
X1329Y392D02*
X1371Y392D01*
X1414Y392D02*
X1456Y392D01*
X1477Y392D02*
X1522Y392D01*
X1556Y392D02*
X1596Y392D01*
X1738Y392D02*
X1755Y392D01*
X1929Y392D02*
X1946Y392D01*
X738Y391D02*
X777Y391D01*
X803Y391D02*
X872Y391D01*
X899Y391D02*
X947Y391D01*
X986Y391D02*
X1033Y391D01*
X1092Y391D02*
X1135Y391D01*
X1227Y391D02*
X1270Y391D01*
X1329Y391D02*
X1371Y391D01*
X1414Y391D02*
X1456Y391D01*
X1477Y391D02*
X1521Y391D01*
X1556Y391D02*
X1596Y391D01*
X1738Y391D02*
X1755Y391D01*
X1929Y391D02*
X1946Y391D01*
X738Y390D02*
X777Y390D01*
X803Y390D02*
X872Y390D01*
X899Y390D02*
X946Y390D01*
X987Y390D02*
X1033Y390D01*
X1092Y390D02*
X1135Y390D01*
X1227Y390D02*
X1270Y390D01*
X1329Y390D02*
X1371Y390D01*
X1414Y390D02*
X1456Y390D01*
X1477Y390D02*
X1521Y390D01*
X1556Y390D02*
X1596Y390D01*
X1738Y390D02*
X1755Y390D01*
X1929Y390D02*
X1946Y390D01*
X738Y389D02*
X777Y389D01*
X802Y389D02*
X872Y389D01*
X898Y389D02*
X945Y389D01*
X988Y389D02*
X1034Y389D01*
X1092Y389D02*
X1135Y389D01*
X1227Y389D02*
X1270Y389D01*
X1329Y389D02*
X1371Y389D01*
X1414Y389D02*
X1456Y389D01*
X1477Y389D02*
X1520Y389D01*
X1556Y389D02*
X1596Y389D01*
X1738Y389D02*
X1755Y389D01*
X1929Y389D02*
X1946Y389D01*
X738Y388D02*
X777Y388D01*
X801Y388D02*
X872Y388D01*
X898Y388D02*
X944Y388D01*
X989Y388D02*
X1034Y388D01*
X1092Y388D02*
X1135Y388D01*
X1227Y388D02*
X1270Y388D01*
X1329Y388D02*
X1371Y388D01*
X1414Y388D02*
X1456Y388D01*
X1477Y388D02*
X1520Y388D01*
X1556Y388D02*
X1596Y388D01*
X1738Y388D02*
X1755Y388D01*
X1929Y388D02*
X1946Y388D01*
X738Y387D02*
X777Y387D01*
X801Y387D02*
X872Y387D01*
X898Y387D02*
X943Y387D01*
X989Y387D02*
X1035Y387D01*
X1092Y387D02*
X1135Y387D01*
X1227Y387D02*
X1270Y387D01*
X1329Y387D02*
X1371Y387D01*
X1414Y387D02*
X1456Y387D01*
X1478Y387D02*
X1520Y387D01*
X1556Y387D02*
X1596Y387D01*
X1738Y387D02*
X1755Y387D01*
X1929Y387D02*
X1946Y387D01*
X738Y386D02*
X777Y386D01*
X800Y386D02*
X872Y386D01*
X897Y386D02*
X943Y386D01*
X990Y386D02*
X1035Y386D01*
X1092Y386D02*
X1135Y386D01*
X1227Y386D02*
X1270Y386D01*
X1329Y386D02*
X1371Y386D01*
X1414Y386D02*
X1456Y386D01*
X1478Y386D02*
X1520Y386D01*
X1556Y386D02*
X1596Y386D01*
X1738Y386D02*
X1755Y386D01*
X1929Y386D02*
X1946Y386D01*
X738Y385D02*
X777Y385D01*
X800Y385D02*
X872Y385D01*
X897Y385D02*
X942Y385D01*
X991Y385D02*
X1035Y385D01*
X1092Y385D02*
X1135Y385D01*
X1227Y385D02*
X1270Y385D01*
X1329Y385D02*
X1371Y385D01*
X1414Y385D02*
X1456Y385D01*
X1478Y385D02*
X1520Y385D01*
X1556Y385D02*
X1596Y385D01*
X1738Y385D02*
X1755Y385D01*
X1929Y385D02*
X1946Y385D01*
X738Y384D02*
X777Y384D01*
X799Y384D02*
X872Y384D01*
X897Y384D02*
X941Y384D01*
X991Y384D02*
X1036Y384D01*
X1092Y384D02*
X1135Y384D01*
X1227Y384D02*
X1270Y384D01*
X1329Y384D02*
X1371Y384D01*
X1414Y384D02*
X1456Y384D01*
X1478Y384D02*
X1520Y384D01*
X1556Y384D02*
X1596Y384D01*
X1738Y384D02*
X1946Y384D01*
X738Y383D02*
X777Y383D01*
X798Y383D02*
X872Y383D01*
X897Y383D02*
X941Y383D01*
X992Y383D02*
X1036Y383D01*
X1092Y383D02*
X1135Y383D01*
X1227Y383D02*
X1270Y383D01*
X1329Y383D02*
X1371Y383D01*
X1414Y383D02*
X1456Y383D01*
X1478Y383D02*
X1520Y383D01*
X1556Y383D02*
X1596Y383D01*
X1738Y383D02*
X1946Y383D01*
X738Y382D02*
X777Y382D01*
X798Y382D02*
X872Y382D01*
X896Y382D02*
X940Y382D01*
X993Y382D02*
X1036Y382D01*
X1092Y382D02*
X1135Y382D01*
X1227Y382D02*
X1270Y382D01*
X1329Y382D02*
X1371Y382D01*
X1414Y382D02*
X1456Y382D01*
X1479Y382D02*
X1520Y382D01*
X1556Y382D02*
X1596Y382D01*
X1738Y382D02*
X1946Y382D01*
X738Y381D02*
X777Y381D01*
X797Y381D02*
X872Y381D01*
X896Y381D02*
X940Y381D01*
X993Y381D02*
X1037Y381D01*
X1092Y381D02*
X1135Y381D01*
X1227Y381D02*
X1270Y381D01*
X1329Y381D02*
X1371Y381D01*
X1414Y381D02*
X1456Y381D01*
X1479Y381D02*
X1520Y381D01*
X1556Y381D02*
X1596Y381D01*
X1738Y381D02*
X1946Y381D01*
X738Y380D02*
X777Y380D01*
X796Y380D02*
X872Y380D01*
X896Y380D02*
X939Y380D01*
X993Y380D02*
X1037Y380D01*
X1092Y380D02*
X1135Y380D01*
X1227Y380D02*
X1270Y380D01*
X1329Y380D02*
X1371Y380D01*
X1414Y380D02*
X1456Y380D01*
X1480Y380D02*
X1521Y380D01*
X1556Y380D02*
X1596Y380D01*
X1738Y380D02*
X1946Y380D01*
X738Y379D02*
X777Y379D01*
X796Y379D02*
X872Y379D01*
X896Y379D02*
X939Y379D01*
X994Y379D02*
X1037Y379D01*
X1092Y379D02*
X1135Y379D01*
X1227Y379D02*
X1270Y379D01*
X1329Y379D02*
X1371Y379D01*
X1414Y379D02*
X1456Y379D01*
X1480Y379D02*
X1521Y379D01*
X1556Y379D02*
X1596Y379D01*
X1738Y379D02*
X1946Y379D01*
X738Y378D02*
X777Y378D01*
X795Y378D02*
X872Y378D01*
X895Y378D02*
X938Y378D01*
X994Y378D02*
X1037Y378D01*
X1092Y378D02*
X1135Y378D01*
X1227Y378D02*
X1270Y378D01*
X1329Y378D02*
X1371Y378D01*
X1414Y378D02*
X1456Y378D01*
X1481Y378D02*
X1522Y378D01*
X1556Y378D02*
X1596Y378D01*
X1738Y378D02*
X1946Y378D01*
X738Y377D02*
X777Y377D01*
X795Y377D02*
X872Y377D01*
X895Y377D02*
X938Y377D01*
X994Y377D02*
X1038Y377D01*
X1092Y377D02*
X1135Y377D01*
X1227Y377D02*
X1270Y377D01*
X1329Y377D02*
X1371Y377D01*
X1414Y377D02*
X1456Y377D01*
X1481Y377D02*
X1522Y377D01*
X1556Y377D02*
X1596Y377D01*
X1738Y377D02*
X1946Y377D01*
X738Y376D02*
X777Y376D01*
X794Y376D02*
X872Y376D01*
X895Y376D02*
X938Y376D01*
X995Y376D02*
X1038Y376D01*
X1092Y376D02*
X1135Y376D01*
X1227Y376D02*
X1270Y376D01*
X1329Y376D02*
X1371Y376D01*
X1414Y376D02*
X1456Y376D01*
X1482Y376D02*
X1523Y376D01*
X1556Y376D02*
X1596Y376D01*
X1738Y376D02*
X1946Y376D01*
X95Y375D02*
X269Y375D01*
X738Y375D02*
X777Y375D01*
X793Y375D02*
X872Y375D01*
X895Y375D02*
X938Y375D01*
X995Y375D02*
X1038Y375D01*
X1092Y375D02*
X1135Y375D01*
X1227Y375D02*
X1270Y375D01*
X1329Y375D02*
X1371Y375D01*
X1414Y375D02*
X1456Y375D01*
X1483Y375D02*
X1524Y375D01*
X1556Y375D02*
X1596Y375D01*
X1738Y375D02*
X1946Y375D01*
X93Y374D02*
X272Y374D01*
X738Y374D02*
X777Y374D01*
X793Y374D02*
X872Y374D01*
X895Y374D02*
X937Y374D01*
X995Y374D02*
X1038Y374D01*
X1092Y374D02*
X1135Y374D01*
X1227Y374D02*
X1270Y374D01*
X1329Y374D02*
X1371Y374D01*
X1414Y374D02*
X1456Y374D01*
X1483Y374D02*
X1526Y374D01*
X1556Y374D02*
X1596Y374D01*
X1738Y374D02*
X1946Y374D01*
X91Y373D02*
X273Y373D01*
X738Y373D02*
X777Y373D01*
X792Y373D02*
X872Y373D01*
X895Y373D02*
X937Y373D01*
X996Y373D02*
X1038Y373D01*
X1092Y373D02*
X1135Y373D01*
X1227Y373D02*
X1270Y373D01*
X1329Y373D02*
X1371Y373D01*
X1414Y373D02*
X1456Y373D01*
X1484Y373D02*
X1528Y373D01*
X1556Y373D02*
X1596Y373D01*
X1738Y373D02*
X1946Y373D01*
X90Y372D02*
X274Y372D01*
X738Y372D02*
X777Y372D01*
X791Y372D02*
X872Y372D01*
X894Y372D02*
X937Y372D01*
X996Y372D02*
X1038Y372D01*
X1092Y372D02*
X1135Y372D01*
X1227Y372D02*
X1270Y372D01*
X1329Y372D02*
X1371Y372D01*
X1414Y372D02*
X1456Y372D01*
X1485Y372D02*
X1533Y372D01*
X1556Y372D02*
X1596Y372D01*
X1738Y372D02*
X1946Y372D01*
X90Y371D02*
X275Y371D01*
X738Y371D02*
X777Y371D01*
X791Y371D02*
X872Y371D01*
X894Y371D02*
X937Y371D01*
X996Y371D02*
X1039Y371D01*
X1092Y371D02*
X1135Y371D01*
X1227Y371D02*
X1270Y371D01*
X1329Y371D02*
X1371Y371D01*
X1414Y371D02*
X1456Y371D01*
X1487Y371D02*
X1596Y371D01*
X1738Y371D02*
X1946Y371D01*
X89Y370D02*
X276Y370D01*
X738Y370D02*
X777Y370D01*
X790Y370D02*
X872Y370D01*
X894Y370D02*
X936Y370D01*
X996Y370D02*
X1039Y370D01*
X1092Y370D02*
X1135Y370D01*
X1227Y370D02*
X1270Y370D01*
X1329Y370D02*
X1371Y370D01*
X1414Y370D02*
X1456Y370D01*
X1488Y370D02*
X1596Y370D01*
X1738Y370D02*
X1946Y370D01*
X89Y369D02*
X276Y369D01*
X738Y369D02*
X777Y369D01*
X789Y369D02*
X872Y369D01*
X894Y369D02*
X936Y369D01*
X996Y369D02*
X1039Y369D01*
X1092Y369D02*
X1135Y369D01*
X1227Y369D02*
X1270Y369D01*
X1329Y369D02*
X1371Y369D01*
X1414Y369D02*
X1456Y369D01*
X1489Y369D02*
X1596Y369D01*
X1738Y369D02*
X1946Y369D01*
X88Y368D02*
X276Y368D01*
X738Y368D02*
X777Y368D01*
X789Y368D02*
X872Y368D01*
X894Y368D02*
X936Y368D01*
X996Y368D02*
X1039Y368D01*
X1092Y368D02*
X1135Y368D01*
X1227Y368D02*
X1270Y368D01*
X1329Y368D02*
X1371Y368D01*
X1414Y368D02*
X1456Y368D01*
X1491Y368D02*
X1596Y368D01*
X1738Y368D02*
X1946Y368D01*
X88Y367D02*
X276Y367D01*
X738Y367D02*
X777Y367D01*
X788Y367D02*
X831Y367D01*
X833Y367D02*
X872Y367D01*
X894Y367D02*
X936Y367D01*
X997Y367D02*
X1039Y367D01*
X1092Y367D02*
X1135Y367D01*
X1227Y367D02*
X1270Y367D01*
X1329Y367D02*
X1371Y367D01*
X1414Y367D02*
X1456Y367D01*
X1492Y367D02*
X1596Y367D01*
X88Y366D02*
X277Y366D01*
X738Y366D02*
X777Y366D01*
X788Y366D02*
X830Y366D01*
X833Y366D02*
X872Y366D01*
X894Y366D02*
X936Y366D01*
X997Y366D02*
X1039Y366D01*
X1092Y366D02*
X1135Y366D01*
X1227Y366D02*
X1270Y366D01*
X1329Y366D02*
X1371Y366D01*
X1414Y366D02*
X1456Y366D01*
X1495Y366D02*
X1596Y366D01*
X88Y365D02*
X277Y365D01*
X738Y365D02*
X777Y365D01*
X787Y365D02*
X829Y365D01*
X833Y365D02*
X872Y365D01*
X894Y365D02*
X936Y365D01*
X997Y365D02*
X1039Y365D01*
X1092Y365D02*
X1135Y365D01*
X1227Y365D02*
X1270Y365D01*
X1329Y365D02*
X1371Y365D01*
X1414Y365D02*
X1456Y365D01*
X1497Y365D02*
X1596Y365D01*
X88Y364D02*
X277Y364D01*
X738Y364D02*
X777Y364D01*
X786Y364D02*
X829Y364D01*
X833Y364D02*
X872Y364D01*
X894Y364D02*
X936Y364D01*
X997Y364D02*
X1039Y364D01*
X1092Y364D02*
X1135Y364D01*
X1227Y364D02*
X1270Y364D01*
X1329Y364D02*
X1371Y364D01*
X1414Y364D02*
X1456Y364D01*
X1500Y364D02*
X1596Y364D01*
X88Y363D02*
X277Y363D01*
X738Y363D02*
X777Y363D01*
X786Y363D02*
X828Y363D01*
X833Y363D02*
X872Y363D01*
X894Y363D02*
X936Y363D01*
X997Y363D02*
X1039Y363D01*
X1092Y363D02*
X1135Y363D01*
X1227Y363D02*
X1270Y363D01*
X1329Y363D02*
X1371Y363D01*
X1414Y363D02*
X1456Y363D01*
X1502Y363D02*
X1596Y363D01*
X88Y362D02*
X277Y362D01*
X738Y362D02*
X777Y362D01*
X785Y362D02*
X827Y362D01*
X833Y362D02*
X872Y362D01*
X894Y362D02*
X936Y362D01*
X997Y362D02*
X1039Y362D01*
X1092Y362D02*
X1135Y362D01*
X1227Y362D02*
X1270Y362D01*
X1329Y362D02*
X1371Y362D01*
X1414Y362D02*
X1456Y362D01*
X1499Y362D02*
X1596Y362D01*
X88Y361D02*
X277Y361D01*
X738Y361D02*
X777Y361D01*
X784Y361D02*
X827Y361D01*
X833Y361D02*
X872Y361D01*
X894Y361D02*
X936Y361D01*
X997Y361D02*
X1039Y361D01*
X1092Y361D02*
X1135Y361D01*
X1227Y361D02*
X1270Y361D01*
X1329Y361D02*
X1371Y361D01*
X1414Y361D02*
X1456Y361D01*
X1496Y361D02*
X1596Y361D01*
X88Y360D02*
X277Y360D01*
X738Y360D02*
X777Y360D01*
X784Y360D02*
X826Y360D01*
X833Y360D02*
X872Y360D01*
X894Y360D02*
X936Y360D01*
X997Y360D02*
X1039Y360D01*
X1092Y360D02*
X1135Y360D01*
X1227Y360D02*
X1270Y360D01*
X1329Y360D02*
X1371Y360D01*
X1414Y360D02*
X1456Y360D01*
X1493Y360D02*
X1596Y360D01*
X88Y359D02*
X277Y359D01*
X738Y359D02*
X777Y359D01*
X783Y359D02*
X826Y359D01*
X833Y359D02*
X872Y359D01*
X894Y359D02*
X936Y359D01*
X997Y359D02*
X1040Y359D01*
X1092Y359D02*
X1135Y359D01*
X1227Y359D02*
X1270Y359D01*
X1329Y359D02*
X1371Y359D01*
X1414Y359D02*
X1456Y359D01*
X1491Y359D02*
X1596Y359D01*
X88Y358D02*
X277Y358D01*
X738Y358D02*
X777Y358D01*
X783Y358D02*
X825Y358D01*
X833Y358D02*
X872Y358D01*
X894Y358D02*
X936Y358D01*
X997Y358D02*
X1039Y358D01*
X1092Y358D02*
X1135Y358D01*
X1227Y358D02*
X1270Y358D01*
X1329Y358D02*
X1371Y358D01*
X1414Y358D02*
X1456Y358D01*
X1489Y358D02*
X1596Y358D01*
X88Y357D02*
X277Y357D01*
X738Y357D02*
X777Y357D01*
X782Y357D02*
X824Y357D01*
X833Y357D02*
X872Y357D01*
X894Y357D02*
X936Y357D01*
X997Y357D02*
X1039Y357D01*
X1092Y357D02*
X1135Y357D01*
X1227Y357D02*
X1270Y357D01*
X1329Y357D02*
X1371Y357D01*
X1414Y357D02*
X1456Y357D01*
X1487Y357D02*
X1596Y357D01*
X88Y356D02*
X277Y356D01*
X738Y356D02*
X777Y356D01*
X781Y356D02*
X824Y356D01*
X833Y356D02*
X872Y356D01*
X894Y356D02*
X936Y356D01*
X997Y356D02*
X1039Y356D01*
X1092Y356D02*
X1135Y356D01*
X1227Y356D02*
X1270Y356D01*
X1329Y356D02*
X1371Y356D01*
X1414Y356D02*
X1456Y356D01*
X1486Y356D02*
X1596Y356D01*
X88Y355D02*
X277Y355D01*
X738Y355D02*
X777Y355D01*
X781Y355D02*
X823Y355D01*
X833Y355D02*
X872Y355D01*
X894Y355D02*
X936Y355D01*
X997Y355D02*
X1039Y355D01*
X1092Y355D02*
X1135Y355D01*
X1227Y355D02*
X1270Y355D01*
X1329Y355D02*
X1371Y355D01*
X1414Y355D02*
X1456Y355D01*
X1484Y355D02*
X1596Y355D01*
X88Y354D02*
X277Y354D01*
X738Y354D02*
X777Y354D01*
X780Y354D02*
X822Y354D01*
X833Y354D02*
X872Y354D01*
X894Y354D02*
X936Y354D01*
X997Y354D02*
X1039Y354D01*
X1092Y354D02*
X1135Y354D01*
X1227Y354D02*
X1270Y354D01*
X1329Y354D02*
X1371Y354D01*
X1414Y354D02*
X1456Y354D01*
X1483Y354D02*
X1596Y354D01*
X88Y353D02*
X277Y353D01*
X738Y353D02*
X777Y353D01*
X779Y353D02*
X822Y353D01*
X833Y353D02*
X872Y353D01*
X894Y353D02*
X936Y353D01*
X997Y353D02*
X1039Y353D01*
X1092Y353D02*
X1135Y353D01*
X1227Y353D02*
X1270Y353D01*
X1329Y353D02*
X1371Y353D01*
X1414Y353D02*
X1456Y353D01*
X1482Y353D02*
X1596Y353D01*
X88Y352D02*
X277Y352D01*
X738Y352D02*
X777Y352D01*
X779Y352D02*
X821Y352D01*
X833Y352D02*
X872Y352D01*
X894Y352D02*
X936Y352D01*
X996Y352D02*
X1039Y352D01*
X1092Y352D02*
X1135Y352D01*
X1227Y352D02*
X1270Y352D01*
X1329Y352D02*
X1371Y352D01*
X1414Y352D02*
X1456Y352D01*
X1481Y352D02*
X1596Y352D01*
X88Y351D02*
X277Y351D01*
X738Y351D02*
X821Y351D01*
X833Y351D02*
X872Y351D01*
X894Y351D02*
X936Y351D01*
X996Y351D02*
X1039Y351D01*
X1092Y351D02*
X1135Y351D01*
X1227Y351D02*
X1270Y351D01*
X1329Y351D02*
X1371Y351D01*
X1414Y351D02*
X1456Y351D01*
X1480Y351D02*
X1596Y351D01*
X88Y350D02*
X277Y350D01*
X738Y350D02*
X820Y350D01*
X833Y350D02*
X872Y350D01*
X894Y350D02*
X936Y350D01*
X996Y350D02*
X1039Y350D01*
X1092Y350D02*
X1135Y350D01*
X1227Y350D02*
X1270Y350D01*
X1329Y350D02*
X1371Y350D01*
X1414Y350D02*
X1456Y350D01*
X1479Y350D02*
X1596Y350D01*
X88Y349D02*
X277Y349D01*
X738Y349D02*
X819Y349D01*
X833Y349D02*
X872Y349D01*
X894Y349D02*
X936Y349D01*
X996Y349D02*
X1039Y349D01*
X1092Y349D02*
X1135Y349D01*
X1227Y349D02*
X1270Y349D01*
X1329Y349D02*
X1371Y349D01*
X1414Y349D02*
X1456Y349D01*
X1479Y349D02*
X1596Y349D01*
X88Y348D02*
X277Y348D01*
X738Y348D02*
X819Y348D01*
X833Y348D02*
X872Y348D01*
X894Y348D02*
X937Y348D01*
X996Y348D02*
X1039Y348D01*
X1092Y348D02*
X1135Y348D01*
X1227Y348D02*
X1270Y348D01*
X1329Y348D02*
X1371Y348D01*
X1414Y348D02*
X1456Y348D01*
X1478Y348D02*
X1596Y348D01*
X88Y347D02*
X277Y347D01*
X738Y347D02*
X818Y347D01*
X833Y347D02*
X872Y347D01*
X895Y347D02*
X937Y347D01*
X996Y347D02*
X1039Y347D01*
X1092Y347D02*
X1135Y347D01*
X1227Y347D02*
X1270Y347D01*
X1329Y347D02*
X1371Y347D01*
X1414Y347D02*
X1456Y347D01*
X1477Y347D02*
X1530Y347D01*
X1556Y347D02*
X1596Y347D01*
X88Y346D02*
X277Y346D01*
X738Y346D02*
X818Y346D01*
X833Y346D02*
X872Y346D01*
X895Y346D02*
X937Y346D01*
X995Y346D02*
X1039Y346D01*
X1092Y346D02*
X1135Y346D01*
X1227Y346D02*
X1270Y346D01*
X1329Y346D02*
X1371Y346D01*
X1414Y346D02*
X1456Y346D01*
X1477Y346D02*
X1525Y346D01*
X1556Y346D02*
X1596Y346D01*
X1785Y346D02*
X1787Y346D01*
X88Y345D02*
X277Y345D01*
X738Y345D02*
X817Y345D01*
X833Y345D02*
X872Y345D01*
X895Y345D02*
X937Y345D01*
X995Y345D02*
X1038Y345D01*
X1092Y345D02*
X1135Y345D01*
X1227Y345D02*
X1270Y345D01*
X1329Y345D02*
X1371Y345D01*
X1414Y345D02*
X1456Y345D01*
X1476Y345D02*
X1522Y345D01*
X1556Y345D02*
X1596Y345D01*
X1743Y345D02*
X1751Y345D01*
X1781Y345D02*
X1792Y345D01*
X1834Y345D02*
X1841Y345D01*
X1852Y345D02*
X1857Y345D01*
X1871Y345D02*
X1876Y345D01*
X1886Y345D02*
X1897Y345D01*
X1908Y345D02*
X1919Y345D01*
X1930Y345D02*
X1938Y345D01*
X88Y344D02*
X277Y344D01*
X738Y344D02*
X816Y344D01*
X833Y344D02*
X872Y344D01*
X895Y344D02*
X937Y344D01*
X995Y344D02*
X1038Y344D01*
X1092Y344D02*
X1135Y344D01*
X1227Y344D02*
X1270Y344D01*
X1329Y344D02*
X1371Y344D01*
X1414Y344D02*
X1456Y344D01*
X1476Y344D02*
X1520Y344D01*
X1556Y344D02*
X1596Y344D01*
X1740Y344D02*
X1753Y344D01*
X1760Y344D02*
X1776Y344D01*
X1780Y344D02*
X1793Y344D01*
X1802Y344D02*
X1808Y344D01*
X1816Y344D02*
X1823Y344D01*
X1834Y344D02*
X1842Y344D01*
X1852Y344D02*
X1857Y344D01*
X1871Y344D02*
X1876Y344D01*
X1883Y344D02*
X1897Y344D01*
X1905Y344D02*
X1919Y344D01*
X1930Y344D02*
X1938Y344D01*
X88Y343D02*
X109Y343D01*
X115Y343D02*
X277Y343D01*
X738Y343D02*
X816Y343D01*
X833Y343D02*
X872Y343D01*
X895Y343D02*
X938Y343D01*
X995Y343D02*
X1038Y343D01*
X1092Y343D02*
X1135Y343D01*
X1227Y343D02*
X1270Y343D01*
X1329Y343D02*
X1371Y343D01*
X1413Y343D02*
X1456Y343D01*
X1475Y343D02*
X1519Y343D01*
X1556Y343D02*
X1596Y343D01*
X1740Y343D02*
X1755Y343D01*
X1760Y343D02*
X1776Y343D01*
X1780Y343D02*
X1795Y343D01*
X1802Y343D02*
X1808Y343D01*
X1815Y343D02*
X1823Y343D01*
X1834Y343D02*
X1842Y343D01*
X1852Y343D02*
X1857Y343D01*
X1871Y343D02*
X1876Y343D01*
X1882Y343D02*
X1897Y343D01*
X1904Y343D02*
X1919Y343D01*
X1930Y343D02*
X1938Y343D01*
X88Y342D02*
X108Y342D01*
X116Y342D02*
X277Y342D01*
X738Y342D02*
X815Y342D01*
X833Y342D02*
X872Y342D01*
X896Y342D02*
X938Y342D01*
X994Y342D02*
X1038Y342D01*
X1092Y342D02*
X1135Y342D01*
X1227Y342D02*
X1270Y342D01*
X1329Y342D02*
X1371Y342D01*
X1413Y342D02*
X1456Y342D01*
X1475Y342D02*
X1518Y342D01*
X1556Y342D02*
X1596Y342D01*
X1740Y342D02*
X1755Y342D01*
X1760Y342D02*
X1776Y342D01*
X1780Y342D02*
X1795Y342D01*
X1802Y342D02*
X1808Y342D01*
X1815Y342D02*
X1823Y342D01*
X1833Y342D02*
X1842Y342D01*
X1852Y342D02*
X1857Y342D01*
X1871Y342D02*
X1876Y342D01*
X1881Y342D02*
X1897Y342D01*
X1903Y342D02*
X1919Y342D01*
X1929Y342D02*
X1939Y342D01*
X88Y341D02*
X108Y341D01*
X117Y341D02*
X277Y341D01*
X738Y341D02*
X814Y341D01*
X833Y341D02*
X872Y341D01*
X896Y341D02*
X938Y341D01*
X994Y341D02*
X1038Y341D01*
X1092Y341D02*
X1135Y341D01*
X1227Y341D02*
X1270Y341D01*
X1329Y341D02*
X1372Y341D01*
X1413Y341D02*
X1456Y341D01*
X1475Y341D02*
X1517Y341D01*
X1556Y341D02*
X1596Y341D01*
X1740Y341D02*
X1756Y341D01*
X1760Y341D02*
X1776Y341D01*
X1781Y341D02*
X1796Y341D01*
X1802Y341D02*
X1808Y341D01*
X1814Y341D02*
X1823Y341D01*
X1833Y341D02*
X1843Y341D01*
X1852Y341D02*
X1857Y341D01*
X1871Y341D02*
X1876Y341D01*
X1881Y341D02*
X1897Y341D01*
X1903Y341D02*
X1919Y341D01*
X1929Y341D02*
X1939Y341D01*
X88Y340D02*
X107Y340D01*
X117Y340D02*
X145Y340D01*
X150Y340D02*
X277Y340D01*
X738Y340D02*
X814Y340D01*
X833Y340D02*
X872Y340D01*
X896Y340D02*
X939Y340D01*
X994Y340D02*
X1037Y340D01*
X1092Y340D02*
X1135Y340D01*
X1227Y340D02*
X1270Y340D01*
X1329Y340D02*
X1372Y340D01*
X1413Y340D02*
X1456Y340D01*
X1474Y340D02*
X1517Y340D01*
X1556Y340D02*
X1596Y340D01*
X1740Y340D02*
X1746Y340D01*
X1749Y340D02*
X1756Y340D01*
X1770Y340D02*
X1776Y340D01*
X1781Y340D02*
X1785Y340D01*
X1787Y340D02*
X1797Y340D01*
X1802Y340D02*
X1808Y340D01*
X1814Y340D02*
X1823Y340D01*
X1833Y340D02*
X1843Y340D01*
X1852Y340D02*
X1857Y340D01*
X1871Y340D02*
X1876Y340D01*
X1880Y340D02*
X1889Y340D01*
X1892Y340D02*
X1897Y340D01*
X1902Y340D02*
X1910Y340D01*
X1914Y340D02*
X1919Y340D01*
X1929Y340D02*
X1939Y340D01*
X88Y339D02*
X107Y339D01*
X117Y339D02*
X146Y339D01*
X155Y339D02*
X277Y339D01*
X738Y339D02*
X813Y339D01*
X833Y339D02*
X872Y339D01*
X896Y339D02*
X939Y339D01*
X993Y339D02*
X1037Y339D01*
X1092Y339D02*
X1135Y339D01*
X1227Y339D02*
X1270Y339D01*
X1330Y339D02*
X1372Y339D01*
X1413Y339D02*
X1456Y339D01*
X1474Y339D02*
X1516Y339D01*
X1556Y339D02*
X1596Y339D01*
X1741Y339D02*
X1741Y339D01*
X1750Y339D02*
X1756Y339D01*
X1770Y339D02*
X1776Y339D01*
X1790Y339D02*
X1797Y339D01*
X1802Y339D02*
X1808Y339D01*
X1813Y339D02*
X1823Y339D01*
X1832Y339D02*
X1837Y339D01*
X1839Y339D02*
X1844Y339D01*
X1852Y339D02*
X1857Y339D01*
X1871Y339D02*
X1876Y339D01*
X1880Y339D02*
X1887Y339D01*
X1892Y339D02*
X1897Y339D01*
X1902Y339D02*
X1908Y339D01*
X1914Y339D02*
X1919Y339D01*
X1928Y339D02*
X1933Y339D01*
X1935Y339D02*
X1940Y339D01*
X88Y338D02*
X107Y338D01*
X117Y338D02*
X146Y338D01*
X155Y338D02*
X277Y338D01*
X738Y338D02*
X813Y338D01*
X833Y338D02*
X872Y338D01*
X897Y338D02*
X940Y338D01*
X993Y338D02*
X1037Y338D01*
X1092Y338D02*
X1135Y338D01*
X1227Y338D02*
X1270Y338D01*
X1330Y338D02*
X1372Y338D01*
X1413Y338D02*
X1456Y338D01*
X1474Y338D02*
X1516Y338D01*
X1556Y338D02*
X1596Y338D01*
X1749Y338D02*
X1756Y338D01*
X1770Y338D02*
X1776Y338D01*
X1791Y338D02*
X1797Y338D01*
X1802Y338D02*
X1808Y338D01*
X1812Y338D02*
X1823Y338D01*
X1832Y338D02*
X1836Y338D01*
X1839Y338D02*
X1844Y338D01*
X1852Y338D02*
X1857Y338D01*
X1871Y338D02*
X1876Y338D01*
X1880Y338D02*
X1886Y338D01*
X1892Y338D02*
X1897Y338D01*
X1902Y338D02*
X1908Y338D01*
X1914Y338D02*
X1919Y338D01*
X1928Y338D02*
X1932Y338D01*
X1935Y338D02*
X1940Y338D01*
X88Y337D02*
X108Y337D01*
X117Y337D02*
X146Y337D01*
X154Y337D02*
X277Y337D01*
X738Y337D02*
X812Y337D01*
X833Y337D02*
X872Y337D01*
X897Y337D02*
X940Y337D01*
X992Y337D02*
X1037Y337D01*
X1092Y337D02*
X1135Y337D01*
X1227Y337D02*
X1270Y337D01*
X1330Y337D02*
X1372Y337D01*
X1412Y337D02*
X1456Y337D01*
X1474Y337D02*
X1516Y337D01*
X1556Y337D02*
X1596Y337D01*
X1746Y337D02*
X1756Y337D01*
X1762Y337D02*
X1776Y337D01*
X1792Y337D02*
X1797Y337D01*
X1802Y337D02*
X1808Y337D01*
X1812Y337D02*
X1823Y337D01*
X1832Y337D02*
X1836Y337D01*
X1839Y337D02*
X1844Y337D01*
X1852Y337D02*
X1857Y337D01*
X1871Y337D02*
X1876Y337D01*
X1880Y337D02*
X1886Y337D01*
X1892Y337D02*
X1897Y337D01*
X1902Y337D02*
X1908Y337D01*
X1914Y337D02*
X1919Y337D01*
X1928Y337D02*
X1932Y337D01*
X1935Y337D02*
X1940Y337D01*
X88Y336D02*
X108Y336D01*
X116Y336D02*
X146Y336D01*
X154Y336D02*
X277Y336D01*
X738Y336D02*
X811Y336D01*
X833Y336D02*
X872Y336D01*
X897Y336D02*
X941Y336D01*
X992Y336D02*
X1037Y336D01*
X1092Y336D02*
X1135Y336D01*
X1227Y336D02*
X1270Y336D01*
X1330Y336D02*
X1373Y336D01*
X1412Y336D02*
X1455Y336D01*
X1473Y336D02*
X1516Y336D01*
X1556Y336D02*
X1596Y336D01*
X1743Y336D02*
X1756Y336D01*
X1762Y336D02*
X1776Y336D01*
X1792Y336D02*
X1798Y336D01*
X1802Y336D02*
X1808Y336D01*
X1811Y336D02*
X1823Y336D01*
X1831Y336D02*
X1836Y336D01*
X1839Y336D02*
X1845Y336D01*
X1852Y336D02*
X1857Y336D01*
X1871Y336D02*
X1876Y336D01*
X1880Y336D02*
X1886Y336D01*
X1892Y336D02*
X1897Y336D01*
X1902Y336D02*
X1908Y336D01*
X1914Y336D02*
X1919Y336D01*
X1927Y336D02*
X1932Y336D01*
X1936Y336D02*
X1941Y336D01*
X88Y335D02*
X109Y335D01*
X115Y335D02*
X146Y335D01*
X154Y335D02*
X277Y335D01*
X738Y335D02*
X811Y335D01*
X833Y335D02*
X872Y335D01*
X897Y335D02*
X941Y335D01*
X991Y335D02*
X1036Y335D01*
X1092Y335D02*
X1135Y335D01*
X1227Y335D02*
X1270Y335D01*
X1330Y335D02*
X1373Y335D01*
X1411Y335D02*
X1455Y335D01*
X1473Y335D02*
X1516Y335D01*
X1556Y335D02*
X1596Y335D01*
X1741Y335D02*
X1755Y335D01*
X1762Y335D02*
X1776Y335D01*
X1792Y335D02*
X1798Y335D01*
X1802Y335D02*
X1808Y335D01*
X1810Y335D02*
X1823Y335D01*
X1831Y335D02*
X1835Y335D01*
X1840Y335D02*
X1845Y335D01*
X1852Y335D02*
X1857Y335D01*
X1871Y335D02*
X1876Y335D01*
X1880Y335D02*
X1887Y335D01*
X1892Y335D02*
X1897Y335D01*
X1902Y335D02*
X1908Y335D01*
X1914Y335D02*
X1919Y335D01*
X1927Y335D02*
X1931Y335D01*
X1936Y335D02*
X1941Y335D01*
X88Y334D02*
X146Y334D01*
X154Y334D02*
X277Y334D01*
X738Y334D02*
X810Y334D01*
X833Y334D02*
X872Y334D01*
X898Y334D02*
X942Y334D01*
X990Y334D02*
X1036Y334D01*
X1092Y334D02*
X1135Y334D01*
X1227Y334D02*
X1270Y334D01*
X1330Y334D02*
X1373Y334D01*
X1411Y334D02*
X1455Y334D01*
X1473Y334D02*
X1516Y334D01*
X1556Y334D02*
X1596Y334D01*
X1740Y334D02*
X1754Y334D01*
X1762Y334D02*
X1776Y334D01*
X1792Y334D02*
X1798Y334D01*
X1802Y334D02*
X1808Y334D01*
X1810Y334D02*
X1815Y334D01*
X1817Y334D02*
X1823Y334D01*
X1831Y334D02*
X1835Y334D01*
X1840Y334D02*
X1845Y334D01*
X1852Y334D02*
X1857Y334D01*
X1871Y334D02*
X1876Y334D01*
X1881Y334D02*
X1897Y334D01*
X1903Y334D02*
X1919Y334D01*
X1927Y334D02*
X1931Y334D01*
X1936Y334D02*
X1942Y334D01*
X88Y333D02*
X147Y333D01*
X155Y333D02*
X277Y333D01*
X738Y333D02*
X810Y333D01*
X833Y333D02*
X872Y333D01*
X898Y333D02*
X943Y333D01*
X990Y333D02*
X1036Y333D01*
X1092Y333D02*
X1135Y333D01*
X1227Y333D02*
X1270Y333D01*
X1330Y333D02*
X1374Y333D01*
X1411Y333D02*
X1455Y333D01*
X1473Y333D02*
X1516Y333D01*
X1556Y333D02*
X1596Y333D01*
X1739Y333D02*
X1753Y333D01*
X1762Y333D02*
X1776Y333D01*
X1792Y333D02*
X1797Y333D01*
X1802Y333D02*
X1814Y333D01*
X1817Y333D02*
X1823Y333D01*
X1830Y333D02*
X1835Y333D01*
X1840Y333D02*
X1846Y333D01*
X1852Y333D02*
X1857Y333D01*
X1871Y333D02*
X1876Y333D01*
X1881Y333D02*
X1897Y333D01*
X1903Y333D02*
X1919Y333D01*
X1926Y333D02*
X1931Y333D01*
X1936Y333D02*
X1942Y333D01*
X88Y332D02*
X147Y332D01*
X155Y332D02*
X236Y332D01*
X246Y332D02*
X277Y332D01*
X738Y332D02*
X809Y332D01*
X833Y332D02*
X872Y332D01*
X899Y332D02*
X943Y332D01*
X989Y332D02*
X1035Y332D01*
X1092Y332D02*
X1135Y332D01*
X1227Y332D02*
X1270Y332D01*
X1331Y332D02*
X1374Y332D01*
X1410Y332D02*
X1455Y332D01*
X1473Y332D02*
X1516Y332D01*
X1556Y332D02*
X1596Y332D01*
X1739Y332D02*
X1750Y332D01*
X1762Y332D02*
X1776Y332D01*
X1792Y332D02*
X1797Y332D01*
X1802Y332D02*
X1814Y332D01*
X1817Y332D02*
X1823Y332D01*
X1830Y332D02*
X1846Y332D01*
X1852Y332D02*
X1857Y332D01*
X1871Y332D02*
X1876Y332D01*
X1882Y332D02*
X1897Y332D01*
X1904Y332D02*
X1919Y332D01*
X1926Y332D02*
X1942Y332D01*
X88Y331D02*
X124Y331D01*
X128Y331D02*
X132Y331D01*
X141Y331D02*
X144Y331D01*
X155Y331D02*
X227Y331D01*
X234Y331D02*
X236Y331D01*
X246Y331D02*
X277Y331D01*
X738Y331D02*
X808Y331D01*
X833Y331D02*
X872Y331D01*
X899Y331D02*
X944Y331D01*
X988Y331D02*
X1035Y331D01*
X1092Y331D02*
X1135Y331D01*
X1227Y331D02*
X1270Y331D01*
X1331Y331D02*
X1375Y331D01*
X1410Y331D02*
X1455Y331D01*
X1473Y331D02*
X1516Y331D01*
X1556Y331D02*
X1596Y331D01*
X1739Y331D02*
X1747Y331D01*
X1770Y331D02*
X1776Y331D01*
X1791Y331D02*
X1797Y331D01*
X1802Y331D02*
X1813Y331D01*
X1817Y331D02*
X1823Y331D01*
X1830Y331D02*
X1846Y331D01*
X1852Y331D02*
X1857Y331D01*
X1871Y331D02*
X1876Y331D01*
X1883Y331D02*
X1897Y331D01*
X1905Y331D02*
X1919Y331D01*
X1926Y331D02*
X1943Y331D01*
X88Y330D02*
X122Y330D01*
X130Y330D02*
X132Y330D01*
X142Y330D02*
X144Y330D01*
X156Y330D02*
X168Y330D01*
X173Y330D02*
X204Y330D01*
X211Y330D02*
X225Y330D01*
X236Y330D02*
X236Y330D01*
X247Y330D02*
X277Y330D01*
X738Y330D02*
X808Y330D01*
X833Y330D02*
X872Y330D01*
X899Y330D02*
X945Y330D01*
X987Y330D02*
X1035Y330D01*
X1092Y330D02*
X1135Y330D01*
X1227Y330D02*
X1270Y330D01*
X1331Y330D02*
X1375Y330D01*
X1409Y330D02*
X1454Y330D01*
X1473Y330D02*
X1516Y330D01*
X1556Y330D02*
X1596Y330D01*
X1739Y330D02*
X1745Y330D01*
X1755Y330D02*
X1755Y330D01*
X1770Y330D02*
X1776Y330D01*
X1781Y330D02*
X1781Y330D01*
X1790Y330D02*
X1797Y330D01*
X1802Y330D02*
X1812Y330D01*
X1817Y330D02*
X1823Y330D01*
X1829Y330D02*
X1847Y330D01*
X1852Y330D02*
X1857Y330D01*
X1871Y330D02*
X1876Y330D01*
X1885Y330D02*
X1897Y330D01*
X1908Y330D02*
X1919Y330D01*
X1925Y330D02*
X1943Y330D01*
X88Y329D02*
X110Y329D01*
X119Y329D02*
X122Y329D01*
X132Y329D02*
X132Y329D01*
X142Y329D02*
X144Y329D01*
X157Y329D02*
X166Y329D01*
X177Y329D02*
X177Y329D01*
X187Y329D02*
X193Y329D01*
X214Y329D02*
X224Y329D01*
X247Y329D02*
X277Y329D01*
X738Y329D02*
X807Y329D01*
X833Y329D02*
X872Y329D01*
X900Y329D02*
X946Y329D01*
X986Y329D02*
X1034Y329D01*
X1092Y329D02*
X1135Y329D01*
X1227Y329D02*
X1270Y329D01*
X1331Y329D02*
X1376Y329D01*
X1408Y329D02*
X1454Y329D01*
X1473Y329D02*
X1517Y329D01*
X1556Y329D02*
X1596Y329D01*
X1739Y329D02*
X1746Y329D01*
X1751Y329D02*
X1756Y329D01*
X1770Y329D02*
X1776Y329D01*
X1781Y329D02*
X1784Y329D01*
X1788Y329D02*
X1796Y329D01*
X1802Y329D02*
X1812Y329D01*
X1817Y329D02*
X1823Y329D01*
X1829Y329D02*
X1847Y329D01*
X1852Y329D02*
X1857Y329D01*
X1862Y329D02*
X1876Y329D01*
X1892Y329D02*
X1897Y329D01*
X1914Y329D02*
X1919Y329D01*
X1925Y329D02*
X1943Y329D01*
X88Y328D02*
X110Y328D01*
X120Y328D02*
X121Y328D01*
X142Y328D02*
X148Y328D01*
X158Y328D02*
X165Y328D01*
X187Y328D02*
X193Y328D01*
X215Y328D02*
X224Y328D01*
X247Y328D02*
X277Y328D01*
X738Y328D02*
X806Y328D01*
X833Y328D02*
X872Y328D01*
X900Y328D02*
X947Y328D01*
X985Y328D02*
X1034Y328D01*
X1092Y328D02*
X1135Y328D01*
X1227Y328D02*
X1270Y328D01*
X1332Y328D02*
X1377Y328D01*
X1407Y328D02*
X1454Y328D01*
X1473Y328D02*
X1517Y328D01*
X1556Y328D02*
X1596Y328D01*
X1739Y328D02*
X1756Y328D01*
X1760Y328D02*
X1776Y328D01*
X1781Y328D02*
X1796Y328D01*
X1802Y328D02*
X1811Y328D01*
X1817Y328D02*
X1823Y328D01*
X1829Y328D02*
X1834Y328D01*
X1842Y328D02*
X1848Y328D01*
X1852Y328D02*
X1857Y328D01*
X1862Y328D02*
X1876Y328D01*
X1892Y328D02*
X1897Y328D01*
X1914Y328D02*
X1919Y328D01*
X1925Y328D02*
X1930Y328D01*
X1938Y328D02*
X1944Y328D01*
X88Y327D02*
X110Y327D01*
X120Y327D02*
X121Y327D01*
X142Y327D02*
X148Y327D01*
X158Y327D02*
X164Y327D01*
X187Y327D02*
X193Y327D01*
X205Y327D02*
X205Y327D01*
X216Y327D02*
X223Y327D01*
X234Y327D02*
X234Y327D01*
X247Y327D02*
X277Y327D01*
X738Y327D02*
X806Y327D01*
X833Y327D02*
X872Y327D01*
X901Y327D02*
X948Y327D01*
X984Y327D02*
X1033Y327D01*
X1092Y327D02*
X1135Y327D01*
X1227Y327D02*
X1270Y327D01*
X1332Y327D02*
X1378Y327D01*
X1406Y327D02*
X1454Y327D01*
X1473Y327D02*
X1518Y327D01*
X1556Y327D02*
X1596Y327D01*
X1740Y327D02*
X1756Y327D01*
X1760Y327D02*
X1776Y327D01*
X1780Y327D02*
X1795Y327D01*
X1802Y327D02*
X1811Y327D01*
X1817Y327D02*
X1823Y327D01*
X1828Y327D02*
X1834Y327D01*
X1843Y327D02*
X1848Y327D01*
X1852Y327D02*
X1857Y327D01*
X1862Y327D02*
X1876Y327D01*
X1892Y327D02*
X1897Y327D01*
X1914Y327D02*
X1919Y327D01*
X1924Y327D02*
X1930Y327D01*
X1939Y327D02*
X1944Y327D01*
X88Y326D02*
X110Y326D01*
X120Y326D02*
X121Y326D01*
X130Y326D02*
X130Y326D01*
X142Y326D02*
X148Y326D01*
X156Y326D02*
X164Y326D01*
X188Y326D02*
X193Y326D01*
X204Y326D02*
X207Y326D01*
X217Y326D02*
X223Y326D01*
X233Y326D02*
X237Y326D01*
X247Y326D02*
X277Y326D01*
X738Y326D02*
X805Y326D01*
X833Y326D02*
X872Y326D01*
X901Y326D02*
X950Y326D01*
X983Y326D02*
X1033Y326D01*
X1092Y326D02*
X1135Y326D01*
X1227Y326D02*
X1270Y326D01*
X1332Y326D02*
X1379Y326D01*
X1404Y326D02*
X1454Y326D01*
X1473Y326D02*
X1519Y326D01*
X1556Y326D02*
X1596Y326D01*
X1741Y326D02*
X1756Y326D01*
X1760Y326D02*
X1776Y326D01*
X1780Y326D02*
X1794Y326D01*
X1802Y326D02*
X1810Y326D01*
X1817Y326D02*
X1823Y326D01*
X1828Y326D02*
X1833Y326D01*
X1843Y326D02*
X1848Y326D01*
X1852Y326D02*
X1857Y326D01*
X1862Y326D02*
X1876Y326D01*
X1892Y326D02*
X1897Y326D01*
X1914Y326D02*
X1919Y326D01*
X1924Y326D02*
X1930Y326D01*
X1939Y326D02*
X1944Y326D01*
X88Y325D02*
X110Y325D01*
X120Y325D02*
X121Y325D01*
X129Y325D02*
X132Y325D01*
X143Y325D02*
X149Y325D01*
X157Y325D02*
X164Y325D01*
X175Y325D02*
X176Y325D01*
X188Y325D02*
X193Y325D01*
X203Y325D02*
X208Y325D01*
X218Y325D02*
X223Y325D01*
X232Y325D02*
X238Y325D01*
X248Y325D02*
X277Y325D01*
X738Y325D02*
X805Y325D01*
X833Y325D02*
X872Y325D01*
X902Y325D02*
X951Y325D01*
X981Y325D02*
X1032Y325D01*
X1092Y325D02*
X1135Y325D01*
X1227Y325D02*
X1270Y325D01*
X1332Y325D02*
X1382Y325D01*
X1402Y325D02*
X1453Y325D01*
X1473Y325D02*
X1520Y325D01*
X1556Y325D02*
X1596Y325D01*
X1742Y325D02*
X1756Y325D01*
X1760Y325D02*
X1776Y325D01*
X1780Y325D02*
X1793Y325D01*
X1802Y325D02*
X1809Y325D01*
X1817Y325D02*
X1823Y325D01*
X1828Y325D02*
X1833Y325D01*
X1843Y325D02*
X1849Y325D01*
X1852Y325D02*
X1857Y325D01*
X1862Y325D02*
X1876Y325D01*
X1892Y325D02*
X1897Y325D01*
X1914Y325D02*
X1919Y325D01*
X1924Y325D02*
X1929Y325D01*
X1939Y325D02*
X1945Y325D01*
X88Y324D02*
X110Y324D01*
X120Y324D02*
X122Y324D01*
X129Y324D02*
X133Y324D01*
X143Y324D02*
X149Y324D01*
X157Y324D02*
X164Y324D01*
X174Y324D02*
X177Y324D01*
X188Y324D02*
X194Y324D01*
X204Y324D02*
X209Y324D01*
X218Y324D02*
X223Y324D01*
X232Y324D02*
X238Y324D01*
X248Y324D02*
X277Y324D01*
X738Y324D02*
X804Y324D01*
X833Y324D02*
X872Y324D01*
X902Y324D02*
X953Y324D01*
X979Y324D02*
X1032Y324D01*
X1092Y324D02*
X1135Y324D01*
X1227Y324D02*
X1270Y324D01*
X1333Y324D02*
X1385Y324D01*
X1399Y324D02*
X1453Y324D01*
X1473Y324D02*
X1522Y324D01*
X1556Y324D02*
X1596Y324D01*
X1744Y324D02*
X1753Y324D01*
X1760Y324D02*
X1776Y324D01*
X1782Y324D02*
X1790Y324D01*
X1802Y324D02*
X1809Y324D01*
X1817Y324D02*
X1823Y324D01*
X1828Y324D02*
X1832Y324D01*
X1844Y324D02*
X1848Y324D01*
X1852Y324D02*
X1857Y324D01*
X1862Y324D02*
X1876Y324D01*
X1892Y324D02*
X1897Y324D01*
X1914Y324D02*
X1919Y324D01*
X1924Y324D02*
X1929Y324D01*
X1940Y324D02*
X1945Y324D01*
X88Y323D02*
X111Y323D01*
X121Y323D02*
X123Y323D01*
X128Y323D02*
X133Y323D01*
X143Y323D02*
X149Y323D01*
X157Y323D02*
X164Y323D01*
X174Y323D02*
X178Y323D01*
X188Y323D02*
X194Y323D01*
X204Y323D02*
X209Y323D01*
X219Y323D02*
X223Y323D01*
X232Y323D02*
X238Y323D01*
X248Y323D02*
X277Y323D01*
X738Y323D02*
X803Y323D01*
X833Y323D02*
X872Y323D01*
X903Y323D02*
X956Y323D01*
X976Y323D02*
X1032Y323D01*
X1092Y323D02*
X1135Y323D01*
X1227Y323D02*
X1270Y323D01*
X1333Y323D02*
X1453Y323D01*
X1474Y323D02*
X1524Y323D01*
X1556Y323D02*
X1596Y323D01*
X88Y322D02*
X111Y322D01*
X121Y322D02*
X133Y322D01*
X143Y322D02*
X149Y322D01*
X157Y322D02*
X164Y322D01*
X174Y322D02*
X179Y322D01*
X188Y322D02*
X194Y322D01*
X204Y322D02*
X210Y322D01*
X220Y322D02*
X223Y322D01*
X232Y322D02*
X239Y322D01*
X248Y322D02*
X277Y322D01*
X738Y322D02*
X803Y322D01*
X833Y322D02*
X872Y322D01*
X903Y322D02*
X960Y322D01*
X972Y322D02*
X1031Y322D01*
X1092Y322D02*
X1135Y322D01*
X1227Y322D02*
X1270Y322D01*
X1333Y322D02*
X1452Y322D01*
X1474Y322D02*
X1529Y322D01*
X1556Y322D02*
X1596Y322D01*
X88Y321D02*
X111Y321D01*
X121Y321D02*
X134Y321D01*
X143Y321D02*
X150Y321D01*
X158Y321D02*
X164Y321D01*
X174Y321D02*
X179Y321D01*
X189Y321D02*
X194Y321D01*
X204Y321D02*
X211Y321D01*
X220Y321D02*
X223Y321D01*
X232Y321D02*
X239Y321D01*
X249Y321D02*
X277Y321D01*
X738Y321D02*
X802Y321D01*
X833Y321D02*
X872Y321D01*
X904Y321D02*
X1031Y321D01*
X1092Y321D02*
X1135Y321D01*
X1227Y321D02*
X1270Y321D01*
X1334Y321D02*
X1452Y321D01*
X1474Y321D02*
X1596Y321D01*
X88Y320D02*
X111Y320D01*
X121Y320D02*
X134Y320D01*
X144Y320D02*
X150Y320D01*
X158Y320D02*
X164Y320D01*
X174Y320D02*
X180Y320D01*
X189Y320D02*
X194Y320D01*
X205Y320D02*
X211Y320D01*
X221Y320D02*
X223Y320D01*
X232Y320D02*
X239Y320D01*
X249Y320D02*
X277Y320D01*
X738Y320D02*
X802Y320D01*
X833Y320D02*
X872Y320D01*
X905Y320D02*
X1030Y320D01*
X1092Y320D02*
X1135Y320D01*
X1227Y320D02*
X1270Y320D01*
X1334Y320D02*
X1452Y320D01*
X1474Y320D02*
X1596Y320D01*
X88Y319D02*
X111Y319D01*
X121Y319D02*
X134Y319D01*
X144Y319D02*
X150Y319D01*
X158Y319D02*
X164Y319D01*
X174Y319D02*
X180Y319D01*
X189Y319D02*
X195Y319D01*
X205Y319D02*
X211Y319D01*
X221Y319D02*
X223Y319D01*
X232Y319D02*
X239Y319D01*
X249Y319D02*
X277Y319D01*
X738Y319D02*
X801Y319D01*
X833Y319D02*
X872Y319D01*
X905Y319D02*
X1029Y319D01*
X1092Y319D02*
X1135Y319D01*
X1227Y319D02*
X1270Y319D01*
X1335Y319D02*
X1451Y319D01*
X1474Y319D02*
X1596Y319D01*
X88Y318D02*
X112Y318D01*
X122Y318D02*
X134Y318D01*
X144Y318D02*
X150Y318D01*
X158Y318D02*
X164Y318D01*
X174Y318D02*
X180Y318D01*
X189Y318D02*
X195Y318D01*
X205Y318D02*
X212Y318D01*
X221Y318D02*
X223Y318D01*
X232Y318D02*
X240Y318D01*
X249Y318D02*
X277Y318D01*
X738Y318D02*
X800Y318D01*
X833Y318D02*
X872Y318D01*
X906Y318D02*
X1029Y318D01*
X1092Y318D02*
X1135Y318D01*
X1227Y318D02*
X1270Y318D01*
X1335Y318D02*
X1451Y318D01*
X1475Y318D02*
X1596Y318D01*
X88Y317D02*
X112Y317D01*
X122Y317D02*
X134Y317D01*
X144Y317D02*
X150Y317D01*
X158Y317D02*
X165Y317D01*
X175Y317D02*
X180Y317D01*
X189Y317D02*
X195Y317D01*
X205Y317D02*
X212Y317D01*
X222Y317D02*
X223Y317D01*
X233Y317D02*
X240Y317D01*
X249Y317D02*
X277Y317D01*
X738Y317D02*
X800Y317D01*
X833Y317D02*
X872Y317D01*
X906Y317D02*
X1028Y317D01*
X1092Y317D02*
X1135Y317D01*
X1227Y317D02*
X1270Y317D01*
X1336Y317D02*
X1450Y317D01*
X1475Y317D02*
X1596Y317D01*
X88Y316D02*
X112Y316D01*
X122Y316D02*
X135Y316D01*
X144Y316D02*
X151Y316D01*
X159Y316D02*
X165Y316D01*
X175Y316D02*
X181Y316D01*
X190Y316D02*
X195Y316D01*
X206Y316D02*
X212Y316D01*
X222Y316D02*
X223Y316D01*
X233Y316D02*
X240Y316D01*
X250Y316D02*
X277Y316D01*
X738Y316D02*
X799Y316D01*
X833Y316D02*
X872Y316D01*
X907Y316D02*
X1027Y316D01*
X1092Y316D02*
X1135Y316D01*
X1227Y316D02*
X1270Y316D01*
X1336Y316D02*
X1450Y316D01*
X1475Y316D02*
X1596Y316D01*
X88Y315D02*
X112Y315D01*
X122Y315D02*
X135Y315D01*
X145Y315D02*
X151Y315D01*
X159Y315D02*
X165Y315D01*
X175Y315D02*
X181Y315D01*
X190Y315D02*
X195Y315D01*
X206Y315D02*
X212Y315D01*
X222Y315D02*
X223Y315D01*
X233Y315D02*
X240Y315D01*
X250Y315D02*
X277Y315D01*
X738Y315D02*
X798Y315D01*
X833Y315D02*
X872Y315D01*
X908Y315D02*
X1027Y315D01*
X1092Y315D02*
X1135Y315D01*
X1227Y315D02*
X1270Y315D01*
X1337Y315D02*
X1449Y315D01*
X1476Y315D02*
X1596Y315D01*
X88Y314D02*
X112Y314D01*
X122Y314D02*
X135Y314D01*
X145Y314D02*
X151Y314D01*
X159Y314D02*
X165Y314D01*
X175Y314D02*
X181Y314D01*
X190Y314D02*
X196Y314D01*
X206Y314D02*
X212Y314D01*
X222Y314D02*
X224Y314D01*
X233Y314D02*
X240Y314D01*
X250Y314D02*
X277Y314D01*
X738Y314D02*
X798Y314D01*
X833Y314D02*
X872Y314D01*
X909Y314D02*
X1026Y314D01*
X1092Y314D02*
X1135Y314D01*
X1227Y314D02*
X1270Y314D01*
X1337Y314D02*
X1449Y314D01*
X1476Y314D02*
X1596Y314D01*
X88Y313D02*
X113Y313D01*
X123Y313D02*
X135Y313D01*
X145Y313D02*
X151Y313D01*
X159Y313D02*
X165Y313D01*
X175Y313D02*
X181Y313D01*
X190Y313D02*
X196Y313D01*
X206Y313D02*
X213Y313D01*
X223Y313D02*
X224Y313D01*
X234Y313D02*
X241Y313D01*
X250Y313D02*
X277Y313D01*
X738Y313D02*
X797Y313D01*
X833Y313D02*
X872Y313D01*
X910Y313D02*
X1025Y313D01*
X1092Y313D02*
X1135Y313D01*
X1227Y313D02*
X1270Y313D01*
X1338Y313D02*
X1448Y313D01*
X1476Y313D02*
X1596Y313D01*
X88Y312D02*
X113Y312D01*
X123Y312D02*
X135Y312D01*
X145Y312D02*
X151Y312D01*
X160Y312D02*
X166Y312D01*
X176Y312D02*
X181Y312D01*
X190Y312D02*
X196Y312D01*
X207Y312D02*
X213Y312D01*
X223Y312D02*
X224Y312D01*
X234Y312D02*
X241Y312D01*
X250Y312D02*
X277Y312D01*
X738Y312D02*
X797Y312D01*
X833Y312D02*
X872Y312D01*
X910Y312D02*
X1024Y312D01*
X1092Y312D02*
X1135Y312D01*
X1227Y312D02*
X1270Y312D01*
X1338Y312D02*
X1448Y312D01*
X1477Y312D02*
X1596Y312D01*
X88Y311D02*
X113Y311D01*
X123Y311D02*
X136Y311D01*
X146Y311D02*
X152Y311D01*
X160Y311D02*
X166Y311D01*
X176Y311D02*
X182Y311D01*
X191Y311D02*
X196Y311D01*
X207Y311D02*
X213Y311D01*
X223Y311D02*
X224Y311D01*
X235Y311D02*
X241Y311D01*
X251Y311D02*
X277Y311D01*
X738Y311D02*
X796Y311D01*
X833Y311D02*
X872Y311D01*
X911Y311D02*
X1024Y311D01*
X1092Y311D02*
X1135Y311D01*
X1227Y311D02*
X1270Y311D01*
X1339Y311D02*
X1447Y311D01*
X1477Y311D02*
X1596Y311D01*
X88Y310D02*
X113Y310D01*
X123Y310D02*
X136Y310D01*
X146Y310D02*
X152Y310D01*
X160Y310D02*
X166Y310D01*
X176Y310D02*
X182Y310D01*
X191Y310D02*
X196Y310D01*
X207Y310D02*
X213Y310D01*
X223Y310D02*
X225Y310D01*
X235Y310D02*
X241Y310D01*
X251Y310D02*
X277Y310D01*
X738Y310D02*
X795Y310D01*
X833Y310D02*
X872Y310D01*
X912Y310D02*
X1023Y310D01*
X1092Y310D02*
X1135Y310D01*
X1227Y310D02*
X1270Y310D01*
X1340Y310D02*
X1446Y310D01*
X1478Y310D02*
X1596Y310D01*
X88Y309D02*
X114Y309D01*
X123Y309D02*
X136Y309D01*
X147Y309D02*
X152Y309D01*
X161Y309D02*
X166Y309D01*
X176Y309D02*
X182Y309D01*
X191Y309D02*
X197Y309D01*
X208Y309D02*
X213Y309D01*
X223Y309D02*
X225Y309D01*
X236Y309D02*
X241Y309D01*
X251Y309D02*
X277Y309D01*
X738Y309D02*
X795Y309D01*
X833Y309D02*
X872Y309D01*
X913Y309D02*
X1022Y309D01*
X1092Y309D02*
X1135Y309D01*
X1227Y309D02*
X1270Y309D01*
X1341Y309D02*
X1446Y309D01*
X1478Y309D02*
X1596Y309D01*
X88Y308D02*
X114Y308D01*
X123Y308D02*
X136Y308D01*
X148Y308D02*
X152Y308D01*
X161Y308D02*
X166Y308D01*
X176Y308D02*
X182Y308D01*
X192Y308D02*
X196Y308D01*
X208Y308D02*
X212Y308D01*
X223Y308D02*
X226Y308D01*
X237Y308D02*
X241Y308D01*
X251Y308D02*
X277Y308D01*
X738Y308D02*
X794Y308D01*
X833Y308D02*
X872Y308D01*
X914Y308D02*
X1021Y308D01*
X1092Y308D02*
X1135Y308D01*
X1227Y308D02*
X1270Y308D01*
X1341Y308D02*
X1445Y308D01*
X1479Y308D02*
X1596Y308D01*
X88Y307D02*
X113Y307D01*
X123Y307D02*
X136Y307D01*
X150Y307D02*
X150Y307D01*
X162Y307D02*
X166Y307D01*
X176Y307D02*
X182Y307D01*
X193Y307D02*
X196Y307D01*
X209Y307D02*
X212Y307D01*
X223Y307D02*
X227Y307D01*
X238Y307D02*
X241Y307D01*
X252Y307D02*
X277Y307D01*
X738Y307D02*
X794Y307D01*
X833Y307D02*
X872Y307D01*
X915Y307D02*
X1020Y307D01*
X1092Y307D02*
X1135Y307D01*
X1227Y307D02*
X1270Y307D01*
X1342Y307D02*
X1444Y307D01*
X1480Y307D02*
X1596Y307D01*
X88Y306D02*
X109Y306D01*
X123Y306D02*
X137Y306D01*
X163Y306D02*
X165Y306D01*
X176Y306D02*
X183Y306D01*
X194Y306D02*
X195Y306D01*
X222Y306D02*
X227Y306D01*
X252Y306D02*
X277Y306D01*
X738Y306D02*
X793Y306D01*
X833Y306D02*
X872Y306D01*
X916Y306D02*
X1019Y306D01*
X1092Y306D02*
X1135Y306D01*
X1227Y306D02*
X1270Y306D01*
X1343Y306D02*
X1443Y306D01*
X1481Y306D02*
X1596Y306D01*
X88Y305D02*
X110Y305D01*
X123Y305D02*
X137Y305D01*
X176Y305D02*
X183Y305D01*
X222Y305D02*
X228Y305D01*
X252Y305D02*
X277Y305D01*
X738Y305D02*
X792Y305D01*
X833Y305D02*
X872Y305D01*
X918Y305D02*
X1018Y305D01*
X1092Y305D02*
X1135Y305D01*
X1227Y305D02*
X1270Y305D01*
X1344Y305D02*
X1442Y305D01*
X1482Y305D02*
X1596Y305D01*
X88Y304D02*
X110Y304D01*
X123Y304D02*
X137Y304D01*
X161Y304D02*
X161Y304D01*
X175Y304D02*
X183Y304D01*
X206Y304D02*
X206Y304D01*
X222Y304D02*
X229Y304D01*
X252Y304D02*
X277Y304D01*
X738Y304D02*
X792Y304D01*
X833Y304D02*
X872Y304D01*
X919Y304D02*
X1016Y304D01*
X1092Y304D02*
X1135Y304D01*
X1227Y304D02*
X1270Y304D01*
X1345Y304D02*
X1441Y304D01*
X1483Y304D02*
X1596Y304D01*
X88Y303D02*
X111Y303D01*
X123Y303D02*
X137Y303D01*
X147Y303D02*
X147Y303D01*
X160Y303D02*
X162Y303D01*
X175Y303D02*
X183Y303D01*
X205Y303D02*
X207Y303D01*
X221Y303D02*
X230Y303D01*
X252Y303D02*
X277Y303D01*
X738Y303D02*
X791Y303D01*
X833Y303D02*
X872Y303D01*
X920Y303D02*
X1015Y303D01*
X1092Y303D02*
X1135Y303D01*
X1227Y303D02*
X1270Y303D01*
X1346Y303D02*
X1440Y303D01*
X1484Y303D02*
X1596Y303D01*
X88Y302D02*
X112Y302D01*
X122Y302D02*
X137Y302D01*
X147Y302D02*
X148Y302D01*
X159Y302D02*
X163Y302D01*
X174Y302D02*
X183Y302D01*
X193Y302D02*
X194Y302D01*
X204Y302D02*
X208Y302D01*
X220Y302D02*
X232Y302D01*
X243Y302D02*
X243Y302D01*
X253Y302D02*
X277Y302D01*
X738Y302D02*
X790Y302D01*
X833Y302D02*
X872Y302D01*
X921Y302D02*
X1014Y302D01*
X1092Y302D02*
X1135Y302D01*
X1227Y302D02*
X1270Y302D01*
X1347Y302D02*
X1439Y302D01*
X1485Y302D02*
X1596Y302D01*
X88Y301D02*
X113Y301D01*
X120Y301D02*
X138Y301D01*
X147Y301D02*
X151Y301D01*
X158Y301D02*
X166Y301D01*
X172Y301D02*
X184Y301D01*
X193Y301D02*
X195Y301D01*
X203Y301D02*
X209Y301D01*
X219Y301D02*
X235Y301D01*
X239Y301D02*
X243Y301D01*
X253Y301D02*
X277Y301D01*
X738Y301D02*
X790Y301D01*
X833Y301D02*
X872Y301D01*
X923Y301D02*
X1013Y301D01*
X1092Y301D02*
X1135Y301D01*
X1227Y301D02*
X1270Y301D01*
X1348Y301D02*
X1438Y301D01*
X1486Y301D02*
X1596Y301D01*
X88Y300D02*
X213Y300D01*
X216Y300D02*
X243Y300D01*
X253Y300D02*
X277Y300D01*
X738Y300D02*
X789Y300D01*
X833Y300D02*
X872Y300D01*
X924Y300D02*
X1011Y300D01*
X1092Y300D02*
X1135Y300D01*
X1227Y300D02*
X1270Y300D01*
X1350Y300D02*
X1437Y300D01*
X1487Y300D02*
X1596Y300D01*
X88Y299D02*
X244Y299D01*
X253Y299D02*
X277Y299D01*
X738Y299D02*
X789Y299D01*
X833Y299D02*
X872Y299D01*
X926Y299D02*
X1010Y299D01*
X1092Y299D02*
X1135Y299D01*
X1227Y299D02*
X1270Y299D01*
X1351Y299D02*
X1435Y299D01*
X1489Y299D02*
X1596Y299D01*
X88Y298D02*
X244Y298D01*
X253Y298D02*
X277Y298D01*
X738Y298D02*
X788Y298D01*
X833Y298D02*
X872Y298D01*
X927Y298D02*
X1008Y298D01*
X1092Y298D02*
X1135Y298D01*
X1227Y298D02*
X1270Y298D01*
X1352Y298D02*
X1434Y298D01*
X1491Y298D02*
X1596Y298D01*
X88Y297D02*
X244Y297D01*
X254Y297D02*
X277Y297D01*
X738Y297D02*
X787Y297D01*
X833Y297D02*
X872Y297D01*
X929Y297D02*
X1006Y297D01*
X1092Y297D02*
X1135Y297D01*
X1227Y297D02*
X1270Y297D01*
X1354Y297D02*
X1432Y297D01*
X1493Y297D02*
X1596Y297D01*
X88Y296D02*
X244Y296D01*
X254Y296D02*
X277Y296D01*
X738Y296D02*
X787Y296D01*
X833Y296D02*
X872Y296D01*
X931Y296D02*
X1004Y296D01*
X1092Y296D02*
X1135Y296D01*
X1227Y296D02*
X1270Y296D01*
X1356Y296D02*
X1430Y296D01*
X1495Y296D02*
X1596Y296D01*
X88Y295D02*
X244Y295D01*
X254Y295D02*
X277Y295D01*
X738Y295D02*
X786Y295D01*
X833Y295D02*
X872Y295D01*
X933Y295D02*
X1002Y295D01*
X1092Y295D02*
X1135Y295D01*
X1227Y295D02*
X1270Y295D01*
X1358Y295D02*
X1429Y295D01*
X1498Y295D02*
X1596Y295D01*
X88Y294D02*
X245Y294D01*
X254Y294D02*
X277Y294D01*
X738Y294D02*
X785Y294D01*
X833Y294D02*
X872Y294D01*
X935Y294D02*
X1000Y294D01*
X1092Y294D02*
X1135Y294D01*
X1227Y294D02*
X1270Y294D01*
X1360Y294D02*
X1426Y294D01*
X1501Y294D02*
X1596Y294D01*
X88Y293D02*
X245Y293D01*
X255Y293D02*
X277Y293D01*
X738Y293D02*
X785Y293D01*
X833Y293D02*
X872Y293D01*
X938Y293D02*
X998Y293D01*
X1092Y293D02*
X1135Y293D01*
X1227Y293D02*
X1270Y293D01*
X1362Y293D02*
X1424Y293D01*
X1505Y293D02*
X1596Y293D01*
X88Y292D02*
X245Y292D01*
X255Y292D02*
X277Y292D01*
X738Y292D02*
X784Y292D01*
X833Y292D02*
X872Y292D01*
X941Y292D02*
X995Y292D01*
X1092Y292D02*
X1135Y292D01*
X1227Y292D02*
X1270Y292D01*
X1365Y292D02*
X1421Y292D01*
X1510Y292D02*
X1596Y292D01*
X88Y291D02*
X245Y291D01*
X255Y291D02*
X277Y291D01*
X738Y291D02*
X784Y291D01*
X833Y291D02*
X872Y291D01*
X944Y291D02*
X992Y291D01*
X1092Y291D02*
X1135Y291D01*
X1227Y291D02*
X1270Y291D01*
X1368Y291D02*
X1418Y291D01*
X1519Y291D02*
X1596Y291D01*
X88Y290D02*
X245Y290D01*
X255Y290D02*
X277Y290D01*
X738Y290D02*
X783Y290D01*
X947Y290D02*
X988Y290D01*
X1371Y290D02*
X1414Y290D01*
X88Y289D02*
X246Y289D01*
X255Y289D02*
X277Y289D01*
X952Y289D02*
X983Y289D01*
X1376Y289D02*
X1409Y289D01*
X88Y288D02*
X250Y288D01*
X256Y288D02*
X277Y288D01*
X959Y288D02*
X976Y288D01*
X1384Y288D02*
X1402Y288D01*
X88Y287D02*
X253Y287D01*
X256Y287D02*
X277Y287D01*
X88Y286D02*
X277Y286D01*
X88Y285D02*
X277Y285D01*
X88Y284D02*
X277Y284D01*
X88Y283D02*
X277Y283D01*
X88Y282D02*
X277Y282D01*
X88Y281D02*
X167Y281D01*
X172Y281D02*
X277Y281D01*
X88Y280D02*
X167Y280D01*
X172Y280D02*
X277Y280D01*
X88Y279D02*
X168Y279D01*
X172Y279D02*
X277Y279D01*
X88Y278D02*
X160Y278D01*
X162Y278D02*
X168Y278D01*
X172Y278D02*
X277Y278D01*
X88Y277D02*
X159Y277D01*
X164Y277D02*
X168Y277D01*
X172Y277D02*
X277Y277D01*
X88Y276D02*
X112Y276D01*
X117Y276D02*
X159Y276D01*
X164Y276D02*
X168Y276D01*
X173Y276D02*
X277Y276D01*
X88Y275D02*
X112Y275D01*
X117Y275D02*
X159Y275D01*
X164Y275D02*
X168Y275D01*
X173Y275D02*
X277Y275D01*
X88Y274D02*
X112Y274D01*
X117Y274D02*
X161Y274D01*
X163Y274D02*
X168Y274D01*
X173Y274D02*
X277Y274D01*
X88Y273D02*
X112Y273D01*
X117Y273D02*
X169Y273D01*
X173Y273D02*
X277Y273D01*
X88Y272D02*
X112Y272D01*
X117Y272D02*
X169Y272D01*
X173Y272D02*
X277Y272D01*
X88Y271D02*
X112Y271D01*
X117Y271D02*
X169Y271D01*
X173Y271D02*
X277Y271D01*
X88Y270D02*
X112Y270D01*
X117Y270D02*
X169Y270D01*
X173Y270D02*
X210Y270D01*
X214Y270D02*
X277Y270D01*
X88Y269D02*
X110Y269D01*
X118Y269D02*
X125Y269D01*
X131Y269D02*
X131Y269D01*
X136Y269D02*
X140Y269D01*
X145Y269D02*
X146Y269D01*
X154Y269D02*
X169Y269D01*
X173Y269D02*
X184Y269D01*
X187Y269D02*
X190Y269D01*
X193Y269D02*
X201Y269D01*
X206Y269D02*
X209Y269D01*
X220Y269D02*
X229Y269D01*
X237Y269D02*
X246Y269D01*
X253Y269D02*
X277Y269D01*
X88Y268D02*
X109Y268D01*
X119Y268D02*
X123Y268D01*
X136Y268D02*
X140Y268D01*
X155Y268D02*
X160Y268D01*
X165Y268D02*
X169Y268D01*
X174Y268D02*
X181Y268D01*
X194Y268D02*
X200Y268D01*
X208Y268D02*
X208Y268D01*
X220Y268D02*
X227Y268D01*
X239Y268D02*
X245Y268D01*
X255Y268D02*
X277Y268D01*
X88Y267D02*
X110Y267D01*
X120Y267D02*
X123Y267D01*
X136Y267D02*
X140Y267D01*
X156Y267D02*
X160Y267D01*
X165Y267D02*
X169Y267D01*
X174Y267D02*
X180Y267D01*
X194Y267D02*
X199Y267D01*
X220Y267D02*
X226Y267D01*
X240Y267D02*
X244Y267D01*
X256Y267D02*
X277Y267D01*
X88Y266D02*
X110Y266D01*
X120Y266D02*
X122Y266D01*
X127Y266D02*
X129Y266D01*
X136Y266D02*
X140Y266D01*
X148Y266D02*
X151Y266D01*
X157Y266D02*
X160Y266D01*
X165Y266D02*
X169Y266D01*
X174Y266D02*
X179Y266D01*
X194Y266D02*
X199Y266D01*
X204Y266D02*
X205Y266D01*
X212Y266D02*
X215Y266D01*
X221Y266D02*
X225Y266D01*
X233Y266D02*
X234Y266D01*
X241Y266D02*
X244Y266D01*
X257Y266D02*
X277Y266D01*
X88Y265D02*
X113Y265D01*
X118Y265D02*
X122Y265D01*
X126Y265D02*
X131Y265D01*
X136Y265D02*
X140Y265D01*
X147Y265D02*
X152Y265D01*
X157Y265D02*
X161Y265D01*
X165Y265D02*
X169Y265D01*
X174Y265D02*
X178Y265D01*
X184Y265D02*
X187Y265D01*
X195Y265D02*
X198Y265D01*
X203Y265D02*
X206Y265D01*
X212Y265D02*
X215Y265D01*
X221Y265D02*
X225Y265D01*
X231Y265D02*
X236Y265D01*
X242Y265D02*
X244Y265D01*
X247Y265D02*
X252Y265D01*
X257Y265D02*
X277Y265D01*
X88Y264D02*
X113Y264D01*
X118Y264D02*
X122Y264D01*
X126Y264D02*
X131Y264D01*
X137Y264D02*
X140Y264D01*
X146Y264D02*
X152Y264D01*
X158Y264D02*
X161Y264D01*
X165Y264D02*
X169Y264D01*
X174Y264D02*
X178Y264D01*
X183Y264D02*
X189Y264D01*
X195Y264D02*
X198Y264D01*
X203Y264D02*
X207Y264D01*
X212Y264D02*
X216Y264D01*
X221Y264D02*
X224Y264D01*
X230Y264D02*
X237Y264D01*
X242Y264D02*
X244Y264D01*
X246Y264D02*
X253Y264D01*
X258Y264D02*
X277Y264D01*
X88Y263D02*
X113Y263D01*
X118Y263D02*
X122Y263D01*
X126Y263D02*
X131Y263D01*
X137Y263D02*
X140Y263D01*
X146Y263D02*
X153Y263D01*
X158Y263D02*
X161Y263D01*
X165Y263D02*
X169Y263D01*
X174Y263D02*
X177Y263D01*
X182Y263D02*
X189Y263D01*
X195Y263D02*
X199Y263D01*
X203Y263D02*
X207Y263D01*
X212Y263D02*
X216Y263D01*
X221Y263D02*
X224Y263D01*
X229Y263D02*
X237Y263D01*
X242Y263D02*
X253Y263D01*
X258Y263D02*
X277Y263D01*
X88Y262D02*
X113Y262D01*
X118Y262D02*
X122Y262D01*
X126Y262D02*
X132Y262D01*
X137Y262D02*
X141Y262D01*
X146Y262D02*
X153Y262D01*
X158Y262D02*
X161Y262D01*
X166Y262D02*
X170Y262D01*
X174Y262D02*
X177Y262D01*
X182Y262D02*
X190Y262D01*
X195Y262D02*
X199Y262D01*
X203Y262D02*
X207Y262D01*
X212Y262D02*
X216Y262D01*
X221Y262D02*
X224Y262D01*
X229Y262D02*
X238Y262D01*
X243Y262D02*
X254Y262D01*
X258Y262D02*
X277Y262D01*
X88Y261D02*
X113Y261D01*
X119Y261D02*
X122Y261D01*
X126Y261D02*
X132Y261D01*
X137Y261D02*
X141Y261D01*
X146Y261D02*
X153Y261D01*
X158Y261D02*
X161Y261D01*
X166Y261D02*
X170Y261D01*
X174Y261D02*
X177Y261D01*
X182Y261D02*
X190Y261D01*
X195Y261D02*
X199Y261D01*
X203Y261D02*
X208Y261D01*
X212Y261D02*
X216Y261D01*
X221Y261D02*
X224Y261D01*
X229Y261D02*
X238Y261D01*
X243Y261D02*
X254Y261D01*
X258Y261D02*
X277Y261D01*
X88Y260D02*
X113Y260D01*
X119Y260D02*
X122Y260D01*
X127Y260D02*
X132Y260D01*
X137Y260D02*
X141Y260D01*
X146Y260D02*
X153Y260D01*
X158Y260D02*
X161Y260D01*
X166Y260D02*
X170Y260D01*
X175Y260D02*
X177Y260D01*
X182Y260D02*
X190Y260D01*
X195Y260D02*
X199Y260D01*
X203Y260D02*
X208Y260D01*
X212Y260D02*
X216Y260D01*
X221Y260D02*
X224Y260D01*
X229Y260D02*
X238Y260D01*
X242Y260D02*
X254Y260D01*
X258Y260D02*
X277Y260D01*
X88Y259D02*
X114Y259D01*
X119Y259D02*
X122Y259D01*
X127Y259D02*
X132Y259D01*
X137Y259D02*
X141Y259D01*
X146Y259D02*
X153Y259D01*
X158Y259D02*
X161Y259D01*
X166Y259D02*
X170Y259D01*
X175Y259D02*
X177Y259D01*
X183Y259D02*
X190Y259D01*
X195Y259D02*
X199Y259D01*
X204Y259D02*
X208Y259D01*
X212Y259D02*
X216Y259D01*
X222Y259D02*
X224Y259D01*
X230Y259D02*
X237Y259D01*
X242Y259D02*
X254Y259D01*
X258Y259D02*
X277Y259D01*
X88Y258D02*
X114Y258D01*
X119Y258D02*
X122Y258D01*
X127Y258D02*
X132Y258D01*
X137Y258D02*
X141Y258D01*
X147Y258D02*
X152Y258D01*
X158Y258D02*
X161Y258D01*
X166Y258D02*
X170Y258D01*
X175Y258D02*
X178Y258D01*
X183Y258D02*
X190Y258D01*
X195Y258D02*
X199Y258D01*
X204Y258D02*
X208Y258D01*
X213Y258D02*
X216Y258D01*
X222Y258D02*
X225Y258D01*
X230Y258D02*
X237Y258D01*
X242Y258D02*
X253Y258D01*
X258Y258D02*
X277Y258D01*
X88Y257D02*
X114Y257D01*
X119Y257D02*
X122Y257D01*
X127Y257D02*
X133Y257D01*
X137Y257D02*
X141Y257D01*
X149Y257D02*
X151Y257D01*
X157Y257D02*
X162Y257D01*
X166Y257D02*
X170Y257D01*
X175Y257D02*
X178Y257D01*
X184Y257D02*
X189Y257D01*
X195Y257D02*
X199Y257D01*
X204Y257D02*
X208Y257D01*
X213Y257D02*
X217Y257D01*
X222Y257D02*
X225Y257D01*
X232Y257D02*
X236Y257D01*
X242Y257D02*
X253Y257D01*
X257Y257D02*
X277Y257D01*
X88Y256D02*
X114Y256D01*
X119Y256D02*
X122Y256D01*
X127Y256D02*
X133Y256D01*
X138Y256D02*
X141Y256D01*
X157Y256D02*
X162Y256D01*
X166Y256D02*
X170Y256D01*
X175Y256D02*
X179Y256D01*
X187Y256D02*
X187Y256D01*
X196Y256D02*
X199Y256D01*
X204Y256D02*
X208Y256D01*
X213Y256D02*
X217Y256D01*
X222Y256D02*
X226Y256D01*
X241Y256D02*
X246Y256D01*
X250Y256D02*
X252Y256D01*
X257Y256D02*
X277Y256D01*
X88Y255D02*
X114Y255D01*
X119Y255D02*
X122Y255D01*
X127Y255D02*
X133Y255D01*
X138Y255D02*
X142Y255D01*
X156Y255D02*
X162Y255D01*
X166Y255D02*
X170Y255D01*
X175Y255D02*
X180Y255D01*
X196Y255D02*
X199Y255D01*
X204Y255D02*
X208Y255D01*
X213Y255D02*
X217Y255D01*
X222Y255D02*
X227Y255D01*
X240Y255D02*
X246Y255D01*
X256Y255D02*
X277Y255D01*
X88Y254D02*
X114Y254D01*
X119Y254D02*
X123Y254D01*
X127Y254D02*
X133Y254D01*
X138Y254D02*
X142Y254D01*
X146Y254D02*
X147Y254D01*
X155Y254D02*
X162Y254D01*
X166Y254D02*
X181Y254D01*
X190Y254D02*
X191Y254D01*
X196Y254D02*
X200Y254D01*
X204Y254D02*
X229Y254D01*
X238Y254D02*
X246Y254D01*
X255Y254D02*
X277Y254D01*
X88Y253D02*
X183Y253D01*
X188Y253D02*
X191Y253D01*
X196Y253D02*
X247Y253D01*
X253Y253D02*
X277Y253D01*
X88Y252D02*
X191Y252D01*
X196Y252D02*
X277Y252D01*
X88Y251D02*
X191Y251D01*
X196Y251D02*
X277Y251D01*
X88Y250D02*
X191Y250D01*
X196Y250D02*
X277Y250D01*
X88Y249D02*
X191Y249D01*
X196Y249D02*
X277Y249D01*
X88Y248D02*
X191Y248D01*
X197Y248D02*
X277Y248D01*
X88Y247D02*
X191Y247D01*
X197Y247D02*
X277Y247D01*
X88Y246D02*
X192Y246D01*
X197Y246D02*
X277Y246D01*
X88Y245D02*
X192Y245D01*
X197Y245D02*
X277Y245D01*
X88Y244D02*
X277Y244D01*
X88Y243D02*
X277Y243D01*
X88Y242D02*
X213Y242D01*
X218Y242D02*
X277Y242D01*
X88Y241D02*
X214Y241D01*
X218Y241D02*
X277Y241D01*
X88Y240D02*
X214Y240D01*
X218Y240D02*
X277Y240D01*
X88Y239D02*
X170Y239D01*
X174Y239D02*
X214Y239D01*
X218Y239D02*
X277Y239D01*
X88Y238D02*
X170Y238D01*
X174Y238D02*
X214Y238D01*
X218Y238D02*
X277Y238D01*
X88Y237D02*
X170Y237D01*
X174Y237D02*
X214Y237D01*
X219Y237D02*
X277Y237D01*
X88Y236D02*
X170Y236D01*
X174Y236D02*
X214Y236D01*
X219Y236D02*
X277Y236D01*
X88Y235D02*
X214Y235D01*
X219Y235D02*
X277Y235D01*
X1502Y235D02*
X1517Y235D01*
X1561Y235D02*
X1570Y235D01*
X1580Y235D02*
X1582Y235D01*
X1594Y235D02*
X1597Y235D01*
X88Y234D02*
X214Y234D01*
X219Y234D02*
X277Y234D01*
X1502Y234D02*
X1518Y234D01*
X1561Y234D02*
X1571Y234D01*
X1580Y234D02*
X1582Y234D01*
X1594Y234D02*
X1597Y234D01*
X88Y233D02*
X215Y233D01*
X219Y233D02*
X277Y233D01*
X1501Y233D02*
X1518Y233D01*
X1561Y233D02*
X1570Y233D01*
X1580Y233D02*
X1582Y233D01*
X1594Y233D02*
X1597Y233D01*
X88Y232D02*
X215Y232D01*
X219Y232D02*
X277Y232D01*
X1501Y232D02*
X1504Y232D01*
X1515Y232D02*
X1518Y232D01*
X1561Y232D02*
X1564Y232D01*
X1580Y232D02*
X1582Y232D01*
X1594Y232D02*
X1597Y232D01*
X88Y231D02*
X215Y231D01*
X219Y231D02*
X277Y231D01*
X1501Y231D02*
X1504Y231D01*
X1515Y231D02*
X1518Y231D01*
X1561Y231D02*
X1563Y231D01*
X1580Y231D02*
X1582Y231D01*
X1594Y231D02*
X1597Y231D01*
X88Y230D02*
X141Y230D01*
X150Y230D02*
X156Y230D01*
X165Y230D02*
X171Y230D01*
X175Y230D02*
X177Y230D01*
X183Y230D02*
X190Y230D01*
X194Y230D02*
X200Y230D01*
X208Y230D02*
X215Y230D01*
X219Y230D02*
X221Y230D01*
X229Y230D02*
X277Y230D01*
X1501Y230D02*
X1504Y230D01*
X1515Y230D02*
X1518Y230D01*
X1561Y230D02*
X1563Y230D01*
X1580Y230D02*
X1582Y230D01*
X1594Y230D02*
X1597Y230D01*
X88Y229D02*
X139Y229D01*
X151Y229D02*
X155Y229D01*
X166Y229D02*
X171Y229D01*
X176Y229D02*
X178Y229D01*
X184Y229D02*
X189Y229D01*
X194Y229D02*
X198Y229D01*
X209Y229D02*
X215Y229D01*
X230Y229D02*
X277Y229D01*
X1501Y229D02*
X1504Y229D01*
X1515Y229D02*
X1518Y229D01*
X1561Y229D02*
X1563Y229D01*
X1580Y229D02*
X1582Y229D01*
X1594Y229D02*
X1597Y229D01*
X88Y228D02*
X138Y228D01*
X152Y228D02*
X154Y228D01*
X167Y228D02*
X171Y228D01*
X176Y228D02*
X179Y228D01*
X184Y228D02*
X189Y228D01*
X194Y228D02*
X197Y228D01*
X210Y228D02*
X215Y228D01*
X231Y228D02*
X277Y228D01*
X1501Y228D02*
X1504Y228D01*
X1515Y228D02*
X1518Y228D01*
X1561Y228D02*
X1563Y228D01*
X1580Y228D02*
X1583Y228D01*
X1594Y228D02*
X1597Y228D01*
X88Y227D02*
X138Y227D01*
X144Y227D02*
X146Y227D01*
X153Y227D02*
X154Y227D01*
X158Y227D02*
X162Y227D01*
X168Y227D02*
X171Y227D01*
X176Y227D02*
X179Y227D01*
X184Y227D02*
X189Y227D01*
X194Y227D02*
X197Y227D01*
X202Y227D02*
X206Y227D01*
X211Y227D02*
X215Y227D01*
X223Y227D02*
X225Y227D01*
X232Y227D02*
X277Y227D01*
X1501Y227D02*
X1504Y227D01*
X1515Y227D02*
X1518Y227D01*
X1561Y227D02*
X1563Y227D01*
X1580Y227D02*
X1583Y227D01*
X1594Y227D02*
X1597Y227D01*
X88Y226D02*
X137Y226D01*
X142Y226D02*
X147Y226D01*
X153Y226D02*
X154Y226D01*
X157Y226D02*
X163Y226D01*
X168Y226D02*
X171Y226D01*
X176Y226D02*
X180Y226D01*
X185Y226D02*
X189Y226D01*
X193Y226D02*
X196Y226D01*
X201Y226D02*
X206Y226D01*
X211Y226D02*
X215Y226D01*
X221Y226D02*
X227Y226D01*
X233Y226D02*
X277Y226D01*
X1501Y226D02*
X1504Y226D01*
X1515Y226D02*
X1518Y226D01*
X1561Y226D02*
X1563Y226D01*
X1580Y226D02*
X1583Y226D01*
X1593Y226D02*
X1596Y226D01*
X88Y225D02*
X137Y225D01*
X142Y225D02*
X148Y225D01*
X154Y225D02*
X164Y225D01*
X169Y225D02*
X171Y225D01*
X176Y225D02*
X180Y225D01*
X185Y225D02*
X188Y225D01*
X193Y225D02*
X196Y225D01*
X201Y225D02*
X206Y225D01*
X212Y225D02*
X216Y225D01*
X221Y225D02*
X227Y225D01*
X233Y225D02*
X277Y225D01*
X1501Y225D02*
X1504Y225D01*
X1515Y225D02*
X1518Y225D01*
X1561Y225D02*
X1563Y225D01*
X1581Y225D02*
X1584Y225D01*
X1593Y225D02*
X1596Y225D01*
X88Y224D02*
X137Y224D01*
X154Y224D02*
X164Y224D01*
X169Y224D02*
X172Y224D01*
X176Y224D02*
X181Y224D01*
X186Y224D02*
X188Y224D01*
X193Y224D02*
X196Y224D01*
X212Y224D02*
X216Y224D01*
X220Y224D02*
X228Y224D01*
X233Y224D02*
X277Y224D01*
X1501Y224D02*
X1504Y224D01*
X1515Y224D02*
X1518Y224D01*
X1561Y224D02*
X1563Y224D01*
X1581Y224D02*
X1584Y224D01*
X1593Y224D02*
X1595Y224D01*
X88Y223D02*
X137Y223D01*
X154Y223D02*
X164Y223D01*
X169Y223D02*
X172Y223D01*
X176Y223D02*
X182Y223D01*
X187Y223D02*
X188Y223D01*
X192Y223D02*
X195Y223D01*
X212Y223D02*
X216Y223D01*
X220Y223D02*
X228Y223D01*
X233Y223D02*
X277Y223D01*
X1501Y223D02*
X1504Y223D01*
X1515Y223D02*
X1518Y223D01*
X1561Y223D02*
X1563Y223D01*
X1582Y223D02*
X1585Y223D01*
X1592Y223D02*
X1595Y223D01*
X88Y222D02*
X137Y222D01*
X155Y222D02*
X164Y222D01*
X169Y222D02*
X172Y222D01*
X176Y222D02*
X182Y222D01*
X187Y222D02*
X187Y222D01*
X192Y222D02*
X195Y222D01*
X212Y222D02*
X216Y222D01*
X220Y222D02*
X228Y222D01*
X233Y222D02*
X277Y222D01*
X1501Y222D02*
X1504Y222D01*
X1515Y222D02*
X1518Y222D01*
X1561Y222D02*
X1563Y222D01*
X1582Y222D02*
X1585Y222D01*
X1592Y222D02*
X1595Y222D01*
X88Y221D02*
X149Y221D01*
X155Y221D02*
X164Y221D01*
X169Y221D02*
X172Y221D01*
X176Y221D02*
X183Y221D01*
X192Y221D02*
X207Y221D01*
X212Y221D02*
X216Y221D01*
X221Y221D02*
X228Y221D01*
X233Y221D02*
X277Y221D01*
X1501Y221D02*
X1504Y221D01*
X1515Y221D02*
X1518Y221D01*
X1561Y221D02*
X1563Y221D01*
X1582Y221D02*
X1585Y221D01*
X1591Y221D02*
X1594Y221D01*
X88Y220D02*
X149Y220D01*
X154Y220D02*
X164Y220D01*
X169Y220D02*
X172Y220D01*
X176Y220D02*
X183Y220D01*
X191Y220D02*
X207Y220D01*
X212Y220D02*
X216Y220D01*
X221Y220D02*
X228Y220D01*
X233Y220D02*
X277Y220D01*
X1501Y220D02*
X1504Y220D01*
X1515Y220D02*
X1518Y220D01*
X1554Y220D02*
X1556Y220D01*
X1561Y220D02*
X1563Y220D01*
X1583Y220D02*
X1586Y220D01*
X1591Y220D02*
X1594Y220D01*
X88Y219D02*
X148Y219D01*
X154Y219D02*
X163Y219D01*
X169Y219D02*
X172Y219D01*
X177Y219D02*
X184Y219D01*
X191Y219D02*
X207Y219D01*
X212Y219D02*
X216Y219D01*
X222Y219D02*
X228Y219D01*
X233Y219D02*
X277Y219D01*
X1501Y219D02*
X1504Y219D01*
X1515Y219D02*
X1518Y219D01*
X1535Y219D02*
X1537Y219D01*
X1554Y219D02*
X1556Y219D01*
X1561Y219D02*
X1563Y219D01*
X1583Y219D02*
X1586Y219D01*
X1591Y219D02*
X1594Y219D01*
X88Y218D02*
X139Y218D01*
X144Y218D02*
X147Y218D01*
X154Y218D02*
X155Y218D01*
X158Y218D02*
X162Y218D01*
X168Y218D02*
X172Y218D01*
X177Y218D02*
X185Y218D01*
X191Y218D02*
X198Y218D01*
X203Y218D02*
X205Y218D01*
X211Y218D02*
X217Y218D01*
X223Y218D02*
X227Y218D01*
X232Y218D02*
X277Y218D01*
X1501Y218D02*
X1504Y218D01*
X1515Y218D02*
X1518Y218D01*
X1533Y218D02*
X1539Y218D01*
X1554Y218D02*
X1556Y218D01*
X1561Y218D02*
X1563Y218D01*
X1584Y218D02*
X1586Y218D01*
X1590Y218D02*
X1593Y218D01*
X88Y217D02*
X139Y217D01*
X153Y217D02*
X155Y217D01*
X167Y217D02*
X172Y217D01*
X177Y217D02*
X185Y217D01*
X190Y217D02*
X198Y217D01*
X211Y217D02*
X217Y217D01*
X231Y217D02*
X277Y217D01*
X1501Y217D02*
X1504Y217D01*
X1515Y217D02*
X1518Y217D01*
X1533Y217D02*
X1539Y217D01*
X1554Y217D02*
X1556Y217D01*
X1561Y217D02*
X1563Y217D01*
X1584Y217D02*
X1587Y217D01*
X1590Y217D02*
X1593Y217D01*
X88Y216D02*
X140Y216D01*
X152Y216D02*
X156Y216D01*
X167Y216D02*
X173Y216D01*
X177Y216D02*
X186Y216D01*
X190Y216D02*
X199Y216D01*
X210Y216D02*
X217Y216D01*
X221Y216D02*
X222Y216D01*
X230Y216D02*
X277Y216D01*
X1501Y216D02*
X1504Y216D01*
X1515Y216D02*
X1518Y216D01*
X1533Y216D02*
X1539Y216D01*
X1554Y216D02*
X1556Y216D01*
X1561Y216D02*
X1563Y216D01*
X1584Y216D02*
X1587Y216D01*
X1589Y216D02*
X1592Y216D01*
X88Y215D02*
X142Y215D01*
X151Y215D02*
X156Y215D01*
X165Y215D02*
X173Y215D01*
X177Y215D02*
X186Y215D01*
X189Y215D02*
X200Y215D01*
X208Y215D02*
X223Y215D01*
X228Y215D02*
X277Y215D01*
X1501Y215D02*
X1504Y215D01*
X1515Y215D02*
X1518Y215D01*
X1533Y215D02*
X1539Y215D01*
X1554Y215D02*
X1556Y215D01*
X1561Y215D02*
X1563Y215D01*
X1585Y215D02*
X1592Y215D01*
X88Y214D02*
X145Y214D01*
X148Y214D02*
X187Y214D01*
X189Y214D02*
X277Y214D01*
X1501Y214D02*
X1504Y214D01*
X1515Y214D02*
X1518Y214D01*
X1533Y214D02*
X1539Y214D01*
X1554Y214D02*
X1556Y214D01*
X1561Y214D02*
X1563Y214D01*
X1585Y214D02*
X1592Y214D01*
X88Y213D02*
X277Y213D01*
X1501Y213D02*
X1504Y213D01*
X1515Y213D02*
X1518Y213D01*
X1533Y213D02*
X1539Y213D01*
X1554Y213D02*
X1556Y213D01*
X1561Y213D02*
X1563Y213D01*
X1585Y213D02*
X1591Y213D01*
X88Y212D02*
X277Y212D01*
X1501Y212D02*
X1504Y212D01*
X1515Y212D02*
X1518Y212D01*
X1554Y212D02*
X1556Y212D01*
X1561Y212D02*
X1563Y212D01*
X1586Y212D02*
X1591Y212D01*
X88Y211D02*
X277Y211D01*
X1501Y211D02*
X1518Y211D01*
X1554Y211D02*
X1570Y211D01*
X1586Y211D02*
X1590Y211D01*
X88Y210D02*
X277Y210D01*
X1501Y210D02*
X1518Y210D01*
X1554Y210D02*
X1570Y210D01*
X1587Y210D02*
X1590Y210D01*
X88Y209D02*
X277Y209D01*
X1502Y209D02*
X1517Y209D01*
X1554Y209D02*
X1571Y209D01*
X1587Y209D02*
X1590Y209D01*
X88Y208D02*
X277Y208D01*
X1503Y208D02*
X1516Y208D01*
X1554Y208D02*
X1570Y208D01*
X1588Y208D02*
X1589Y208D01*
X88Y207D02*
X277Y207D01*
X88Y206D02*
X277Y206D01*
X88Y205D02*
X277Y205D01*
X88Y204D02*
X277Y204D01*
X88Y203D02*
X277Y203D01*
X88Y202D02*
X277Y202D01*
X88Y201D02*
X277Y201D01*
X88Y200D02*
X277Y200D01*
X88Y199D02*
X277Y199D01*
X88Y198D02*
X277Y198D01*
X88Y197D02*
X277Y197D01*
X88Y196D02*
X277Y196D01*
X88Y195D02*
X277Y195D01*
X88Y194D02*
X276Y194D01*
X88Y193D02*
X276Y193D01*
X88Y192D02*
X276Y192D01*
X89Y191D02*
X276Y191D01*
X89Y190D02*
X275Y190D01*
X90Y189D02*
X274Y189D01*
X91Y188D02*
X273Y188D01*
X93Y187D02*
X272Y187D01*
X97Y186D02*
X268Y186D01*
D02*
G04 End of Silk0*
M02*