G04 MADE WITH FRITZING*
G04 WWW.FRITZING.ORG*
G04 DOUBLE SIDED*
G04 HOLES PLATED*
G04 CONTOUR ON CENTER OF CONTOUR VECTOR*
%ASAXBY*%
%FSLAX23Y23*%
%MOIN*%
%OFA0B0*%
%SFA1.0B1.0*%
%ADD10C,0.133333X0.105555*%
%ADD11C,0.013889*%
%ADD12C,0.066667X0.0388887*%
%ADD10C,0.008*%
%LNCONTOUR*%
G90*
G70*
G54D10*
G54D11*
G01X1962Y103D02*
G75*
G03X1962Y103I-60J0D01*
G01*
G01X163Y103D02*
G75*
G03X163Y103I-60J0D01*
G01*
G01X1962Y803D02*
G75*
G03X1962Y803I-60J0D01*
G01*
G01X163Y803D02*
G75*
G03X163Y803I-60J0D01*
G01*
G01X1779Y853D02*
G75*
G03X1779Y853I-26J0D01*
G01*
G01X1679Y853D02*
G75*
G03X1679Y853I-26J0D01*
G01*
G01X1579Y853D02*
G75*
G03X1579Y853I-26J0D01*
G01*
G01X1479Y853D02*
G75*
G03X1479Y853I-26J0D01*
G01*
G01X1379Y853D02*
G75*
G03X1379Y853I-26J0D01*
G01*
G01X1279Y853D02*
G75*
G03X1279Y853I-26J0D01*
G01*
G01X1179Y853D02*
G75*
G03X1179Y853I-26J0D01*
G01*
G01X1079Y853D02*
G75*
G03X1079Y853I-26J0D01*
G01*
G01X979Y853D02*
G75*
G03X979Y853I-26J0D01*
G01*
G01X879Y853D02*
G75*
G03X879Y853I-26J0D01*
G01*
G01X779Y853D02*
G75*
G03X779Y853I-26J0D01*
G01*
G01X679Y853D02*
G75*
G03X679Y853I-26J0D01*
G01*
G01X579Y853D02*
G75*
G03X579Y853I-26J0D01*
G01*
G01X479Y853D02*
G75*
G03X479Y853I-26J0D01*
G01*
G01X379Y853D02*
G75*
G03X379Y853I-26J0D01*
G01*
G01X279Y853D02*
G75*
G03X279Y853I-26J0D01*
G01*
G01X679Y53D02*
G75*
G03X679Y53I-26J0D01*
G01*
G01X779Y53D02*
G75*
G03X779Y53I-26J0D01*
G01*
G01X879Y53D02*
G75*
G03X879Y53I-26J0D01*
G01*
G01X979Y53D02*
G75*
G03X979Y53I-26J0D01*
G01*
G01X1079Y53D02*
G75*
G03X1079Y53I-26J0D01*
G01*
G01X1179Y53D02*
G75*
G03X1179Y53I-26J0D01*
G01*
G01X1279Y53D02*
G75*
G03X1279Y53I-26J0D01*
G01*
G01X1379Y53D02*
G75*
G03X1379Y53I-26J0D01*
G01*
G01X1479Y53D02*
G75*
G03X1479Y53I-26J0D01*
G01*
G01X1579Y53D02*
G75*
G03X1579Y53I-26J0D01*
G01*
G01X1679Y53D02*
G75*
G03X1679Y53I-26J0D01*
G01*
G01X1779Y53D02*
G75*
G03X1779Y53I-26J0D01*
G01*
X94Y899D02*
X95Y899D01*
X96Y899D01*
X97Y899D01*
X98Y899D01*
X99Y899D01*
X100Y899D01*
X101Y899D01*
X102Y899D01*
X103Y899D01*
X104Y899D01*
X105Y899D01*
X106Y899D01*
X107Y899D01*
X108Y899D01*
X109Y899D01*
X110Y899D01*
X111Y899D01*
X112Y899D01*
X113Y899D01*
X114Y899D01*
X115Y899D01*
X116Y899D01*
X117Y899D01*
X118Y899D01*
X119Y899D01*
X120Y899D01*
X121Y899D01*
X122Y899D01*
X123Y899D01*
X124Y899D01*
X125Y899D01*
X126Y899D01*
X127Y899D01*
X128Y899D01*
X129Y899D01*
X130Y899D01*
X131Y899D01*
X132Y899D01*
X133Y899D01*
X134Y899D01*
X135Y899D01*
X136Y899D01*
X137Y899D01*
X138Y899D01*
X139Y899D01*
X140Y899D01*
X141Y899D01*
X142Y899D01*
X143Y899D01*
X144Y899D01*
X145Y899D01*
X146Y899D01*
X147Y899D01*
X148Y899D01*
X149Y899D01*
X150Y899D01*
X151Y899D01*
X152Y899D01*
X153Y899D01*
X154Y899D01*
X155Y899D01*
X156Y899D01*
X157Y899D01*
X158Y899D01*
X159Y899D01*
X160Y899D01*
X161Y899D01*
X162Y899D01*
X163Y899D01*
X164Y899D01*
X165Y899D01*
X166Y899D01*
X167Y899D01*
X168Y899D01*
X169Y899D01*
X170Y899D01*
X171Y899D01*
X172Y899D01*
X173Y899D01*
X174Y899D01*
X175Y899D01*
X176Y899D01*
X177Y899D01*
X178Y899D01*
X179Y899D01*
X180Y899D01*
X181Y899D01*
X182Y899D01*
X183Y899D01*
X184Y899D01*
X185Y899D01*
X186Y899D01*
X187Y899D01*
X188Y899D01*
X189Y899D01*
X190Y899D01*
X191Y899D01*
X192Y899D01*
X193Y899D01*
X194Y899D01*
X195Y899D01*
X196Y899D01*
X197Y899D01*
X198Y899D01*
X199Y899D01*
X200Y899D01*
X201Y899D01*
X202Y899D01*
X203Y899D01*
X204Y899D01*
X205Y899D01*
X206Y899D01*
X207Y899D01*
X208Y899D01*
X209Y899D01*
X210Y899D01*
X211Y899D01*
X212Y899D01*
X213Y899D01*
X214Y899D01*
X215Y899D01*
X216Y899D01*
X217Y899D01*
X218Y899D01*
X219Y899D01*
X220Y899D01*
X221Y899D01*
X222Y899D01*
X223Y899D01*
X224Y899D01*
X225Y899D01*
X226Y899D01*
X227Y899D01*
X228Y899D01*
X229Y899D01*
X230Y899D01*
X231Y899D01*
X232Y899D01*
X233Y899D01*
X234Y899D01*
X235Y899D01*
X236Y899D01*
X237Y899D01*
X238Y899D01*
X239Y899D01*
X240Y899D01*
X241Y899D01*
X242Y899D01*
X243Y899D01*
X244Y899D01*
X245Y899D01*
X246Y899D01*
X247Y899D01*
X248Y899D01*
X249Y899D01*
X250Y899D01*
X251Y899D01*
X252Y899D01*
X253Y899D01*
X254Y899D01*
X255Y899D01*
X256Y899D01*
X257Y899D01*
X258Y899D01*
X259Y899D01*
X260Y899D01*
X261Y899D01*
X262Y899D01*
X263Y899D01*
X264Y899D01*
X265Y899D01*
X266Y899D01*
X267Y899D01*
X268Y899D01*
X269Y899D01*
X270Y899D01*
X271Y899D01*
X272Y899D01*
X273Y899D01*
X274Y899D01*
X275Y899D01*
X276Y899D01*
X277Y899D01*
X278Y899D01*
X279Y899D01*
X280Y899D01*
X281Y899D01*
X282Y899D01*
X283Y899D01*
X284Y899D01*
X285Y899D01*
X286Y899D01*
X287Y899D01*
X288Y899D01*
X289Y899D01*
X290Y899D01*
X291Y899D01*
X292Y899D01*
X293Y899D01*
X294Y899D01*
X295Y899D01*
X296Y899D01*
X297Y899D01*
X298Y899D01*
X299Y899D01*
X300Y899D01*
X301Y899D01*
X302Y899D01*
X303Y899D01*
X304Y899D01*
X305Y899D01*
X306Y899D01*
X307Y899D01*
X308Y899D01*
X309Y899D01*
X310Y899D01*
X311Y899D01*
X312Y899D01*
X313Y899D01*
X314Y899D01*
X315Y899D01*
X316Y899D01*
X317Y899D01*
X318Y899D01*
X319Y899D01*
X320Y899D01*
X321Y899D01*
X322Y899D01*
X323Y899D01*
X324Y899D01*
X325Y899D01*
X326Y899D01*
X327Y899D01*
X328Y899D01*
X329Y899D01*
X330Y899D01*
X331Y899D01*
X332Y899D01*
X333Y899D01*
X334Y899D01*
X335Y899D01*
X336Y899D01*
X337Y899D01*
X338Y899D01*
X339Y899D01*
X340Y899D01*
X341Y899D01*
X342Y899D01*
X343Y899D01*
X344Y899D01*
X345Y899D01*
X346Y899D01*
X347Y899D01*
X348Y899D01*
X349Y899D01*
X350Y899D01*
X351Y899D01*
X352Y899D01*
X353Y899D01*
X354Y899D01*
X355Y899D01*
X356Y899D01*
X357Y899D01*
X358Y899D01*
X359Y899D01*
X360Y899D01*
X361Y899D01*
X362Y899D01*
X363Y899D01*
X364Y899D01*
X365Y899D01*
X366Y899D01*
X367Y899D01*
X368Y899D01*
X369Y899D01*
X370Y899D01*
X371Y899D01*
X372Y899D01*
X373Y899D01*
X374Y899D01*
X375Y899D01*
X376Y899D01*
X377Y899D01*
X378Y899D01*
X379Y899D01*
X380Y899D01*
X381Y899D01*
X382Y899D01*
X383Y899D01*
X384Y899D01*
X385Y899D01*
X386Y899D01*
X387Y899D01*
X388Y899D01*
X389Y899D01*
X390Y899D01*
X391Y899D01*
X392Y899D01*
X393Y899D01*
X394Y899D01*
X395Y899D01*
X396Y899D01*
X397Y899D01*
X398Y899D01*
X399Y899D01*
X400Y899D01*
X401Y899D01*
X402Y899D01*
X403Y899D01*
X404Y899D01*
X405Y899D01*
X406Y899D01*
X407Y899D01*
X408Y899D01*
X409Y899D01*
X410Y899D01*
X411Y899D01*
X412Y899D01*
X413Y899D01*
X414Y899D01*
X415Y899D01*
X416Y899D01*
X417Y899D01*
X418Y899D01*
X419Y899D01*
X420Y899D01*
X421Y899D01*
X422Y899D01*
X423Y899D01*
X424Y899D01*
X425Y899D01*
X426Y899D01*
X427Y899D01*
X428Y899D01*
X429Y899D01*
X430Y899D01*
X431Y899D01*
X432Y899D01*
X433Y899D01*
X434Y899D01*
X435Y899D01*
X436Y899D01*
X437Y899D01*
X438Y899D01*
X439Y899D01*
X440Y899D01*
X441Y899D01*
X442Y899D01*
X443Y899D01*
X444Y899D01*
X445Y899D01*
X446Y899D01*
X447Y899D01*
X448Y899D01*
X449Y899D01*
X450Y899D01*
X451Y899D01*
X452Y899D01*
X453Y899D01*
X454Y899D01*
X455Y899D01*
X456Y899D01*
X457Y899D01*
X458Y899D01*
X459Y899D01*
X460Y899D01*
X461Y899D01*
X462Y899D01*
X463Y899D01*
X464Y899D01*
X465Y899D01*
X466Y899D01*
X467Y899D01*
X468Y899D01*
X469Y899D01*
X470Y899D01*
X471Y899D01*
X472Y899D01*
X473Y899D01*
X474Y899D01*
X475Y899D01*
X476Y899D01*
X477Y899D01*
X478Y899D01*
X479Y899D01*
X480Y899D01*
X481Y899D01*
X482Y899D01*
X483Y899D01*
X484Y899D01*
X485Y899D01*
X486Y899D01*
X487Y899D01*
X488Y899D01*
X489Y899D01*
X490Y899D01*
X491Y899D01*
X492Y899D01*
X493Y899D01*
X494Y899D01*
X495Y899D01*
X496Y899D01*
X497Y899D01*
X498Y899D01*
X499Y899D01*
X500Y899D01*
X501Y899D01*
X502Y899D01*
X503Y899D01*
X504Y899D01*
X505Y899D01*
X506Y899D01*
X507Y899D01*
X508Y899D01*
X509Y899D01*
X510Y899D01*
X511Y899D01*
X512Y899D01*
X513Y899D01*
X514Y899D01*
X515Y899D01*
X516Y899D01*
X517Y899D01*
X518Y899D01*
X519Y899D01*
X520Y899D01*
X521Y899D01*
X522Y899D01*
X523Y899D01*
X524Y899D01*
X525Y899D01*
X526Y899D01*
X527Y899D01*
X528Y899D01*
X529Y899D01*
X530Y899D01*
X531Y899D01*
X532Y899D01*
X533Y899D01*
X534Y899D01*
X535Y899D01*
X536Y899D01*
X537Y899D01*
X538Y899D01*
X539Y899D01*
X540Y899D01*
X541Y899D01*
X542Y899D01*
X543Y899D01*
X544Y899D01*
X545Y899D01*
X546Y899D01*
X547Y899D01*
X548Y899D01*
X549Y899D01*
X550Y899D01*
X551Y899D01*
X552Y899D01*
X553Y899D01*
X554Y899D01*
X555Y899D01*
X556Y899D01*
X557Y899D01*
X558Y899D01*
X559Y899D01*
X560Y899D01*
X561Y899D01*
X562Y899D01*
X563Y899D01*
X564Y899D01*
X565Y899D01*
X566Y899D01*
X567Y899D01*
X568Y899D01*
X569Y899D01*
X570Y899D01*
X571Y899D01*
X572Y899D01*
X573Y899D01*
X574Y899D01*
X575Y899D01*
X576Y899D01*
X577Y899D01*
X578Y899D01*
X579Y899D01*
X580Y899D01*
X581Y899D01*
X582Y899D01*
X583Y899D01*
X584Y899D01*
X585Y899D01*
X586Y899D01*
X587Y899D01*
X588Y899D01*
X589Y899D01*
X590Y899D01*
X591Y899D01*
X592Y899D01*
X593Y899D01*
X594Y899D01*
X595Y899D01*
X596Y899D01*
X597Y899D01*
X598Y899D01*
X599Y899D01*
X600Y899D01*
X601Y899D01*
X602Y899D01*
X603Y899D01*
X604Y899D01*
X605Y899D01*
X606Y899D01*
X607Y899D01*
X608Y899D01*
X609Y899D01*
X610Y899D01*
X611Y899D01*
X612Y899D01*
X613Y899D01*
X614Y899D01*
X615Y899D01*
X616Y899D01*
X617Y899D01*
X618Y899D01*
X619Y899D01*
X620Y899D01*
X621Y899D01*
X622Y899D01*
X623Y899D01*
X624Y899D01*
X625Y899D01*
X626Y899D01*
X627Y899D01*
X628Y899D01*
X629Y899D01*
X630Y899D01*
X631Y899D01*
X632Y899D01*
X633Y899D01*
X634Y899D01*
X635Y899D01*
X636Y899D01*
X637Y899D01*
X638Y899D01*
X639Y899D01*
X640Y899D01*
X641Y899D01*
X642Y899D01*
X643Y899D01*
X644Y899D01*
X645Y899D01*
X646Y899D01*
X647Y899D01*
X648Y899D01*
X649Y899D01*
X650Y899D01*
X651Y899D01*
X652Y899D01*
X653Y899D01*
X654Y899D01*
X655Y899D01*
X656Y899D01*
X657Y899D01*
X658Y899D01*
X659Y899D01*
X660Y899D01*
X661Y899D01*
X662Y899D01*
X663Y899D01*
X664Y899D01*
X665Y899D01*
X666Y899D01*
X667Y899D01*
X668Y899D01*
X669Y899D01*
X670Y899D01*
X671Y899D01*
X672Y899D01*
X673Y899D01*
X674Y899D01*
X675Y899D01*
X676Y899D01*
X677Y899D01*
X678Y899D01*
X679Y899D01*
X680Y899D01*
X681Y899D01*
X682Y899D01*
X683Y899D01*
X684Y899D01*
X685Y899D01*
X686Y899D01*
X687Y899D01*
X688Y899D01*
X689Y899D01*
X690Y899D01*
X691Y899D01*
X692Y899D01*
X693Y899D01*
X694Y899D01*
X695Y899D01*
X696Y899D01*
X697Y899D01*
X698Y899D01*
X699Y899D01*
X700Y899D01*
X701Y899D01*
X702Y899D01*
X703Y899D01*
X704Y899D01*
X705Y899D01*
X706Y899D01*
X707Y899D01*
X708Y899D01*
X709Y899D01*
X710Y899D01*
X711Y899D01*
X712Y899D01*
X713Y899D01*
X714Y899D01*
X715Y899D01*
X716Y899D01*
X717Y899D01*
X718Y899D01*
X719Y899D01*
X720Y899D01*
X721Y899D01*
X722Y899D01*
X723Y899D01*
X724Y899D01*
X725Y899D01*
X726Y899D01*
X727Y899D01*
X728Y899D01*
X729Y899D01*
X730Y899D01*
X731Y899D01*
X732Y899D01*
X733Y899D01*
X734Y899D01*
X735Y899D01*
X736Y899D01*
X737Y899D01*
X738Y899D01*
X739Y899D01*
X740Y899D01*
X741Y899D01*
X742Y899D01*
X743Y899D01*
X744Y899D01*
X745Y899D01*
X746Y899D01*
X747Y899D01*
X748Y899D01*
X749Y899D01*
X750Y899D01*
X751Y899D01*
X752Y899D01*
X753Y899D01*
X754Y899D01*
X755Y899D01*
X756Y899D01*
X757Y899D01*
X758Y899D01*
X759Y899D01*
X760Y899D01*
X761Y899D01*
X762Y899D01*
X763Y899D01*
X764Y899D01*
X765Y899D01*
X766Y899D01*
X767Y899D01*
X768Y899D01*
X769Y899D01*
X770Y899D01*
X771Y899D01*
X772Y899D01*
X773Y899D01*
X774Y899D01*
X775Y899D01*
X776Y899D01*
X777Y899D01*
X778Y899D01*
X779Y899D01*
X780Y899D01*
X781Y899D01*
X782Y899D01*
X783Y899D01*
X784Y899D01*
X785Y899D01*
X786Y899D01*
X787Y899D01*
X788Y899D01*
X789Y899D01*
X790Y899D01*
X791Y899D01*
X792Y899D01*
X793Y899D01*
X794Y899D01*
X795Y899D01*
X796Y899D01*
X797Y899D01*
X798Y899D01*
X799Y899D01*
X800Y899D01*
X801Y899D01*
X802Y899D01*
X803Y899D01*
X804Y899D01*
X805Y899D01*
X806Y899D01*
X807Y899D01*
X808Y899D01*
X809Y899D01*
X810Y899D01*
X811Y899D01*
X812Y899D01*
X813Y899D01*
X814Y899D01*
X815Y899D01*
X816Y899D01*
X817Y899D01*
X818Y899D01*
X819Y899D01*
X820Y899D01*
X821Y899D01*
X822Y899D01*
X823Y899D01*
X824Y899D01*
X825Y899D01*
X826Y899D01*
X827Y899D01*
X828Y899D01*
X829Y899D01*
X830Y899D01*
X831Y899D01*
X832Y899D01*
X833Y899D01*
X834Y899D01*
X835Y899D01*
X836Y899D01*
X837Y899D01*
X838Y899D01*
X839Y899D01*
X840Y899D01*
X841Y899D01*
X842Y899D01*
X843Y899D01*
X844Y899D01*
X845Y899D01*
X846Y899D01*
X847Y899D01*
X848Y899D01*
X849Y899D01*
X850Y899D01*
X851Y899D01*
X852Y899D01*
X853Y899D01*
X854Y899D01*
X855Y899D01*
X856Y899D01*
X857Y899D01*
X858Y899D01*
X859Y899D01*
X860Y899D01*
X861Y899D01*
X862Y899D01*
X863Y899D01*
X864Y899D01*
X865Y899D01*
X866Y899D01*
X867Y899D01*
X868Y899D01*
X869Y899D01*
X870Y899D01*
X871Y899D01*
X872Y899D01*
X873Y899D01*
X874Y899D01*
X875Y899D01*
X876Y899D01*
X877Y899D01*
X878Y899D01*
X879Y899D01*
X880Y899D01*
X881Y899D01*
X882Y899D01*
X883Y899D01*
X884Y899D01*
X885Y899D01*
X886Y899D01*
X887Y899D01*
X888Y899D01*
X889Y899D01*
X890Y899D01*
X891Y899D01*
X892Y899D01*
X893Y899D01*
X894Y899D01*
X895Y899D01*
X896Y899D01*
X897Y899D01*
X898Y899D01*
X899Y899D01*
X900Y899D01*
X901Y899D01*
X902Y899D01*
X903Y899D01*
X904Y899D01*
X905Y899D01*
X906Y899D01*
X907Y899D01*
X908Y899D01*
X909Y899D01*
X910Y899D01*
X911Y899D01*
X912Y899D01*
X913Y899D01*
X914Y899D01*
X915Y899D01*
X916Y899D01*
X917Y899D01*
X918Y899D01*
X919Y899D01*
X920Y899D01*
X921Y899D01*
X922Y899D01*
X923Y899D01*
X924Y899D01*
X925Y899D01*
X926Y899D01*
X927Y899D01*
X928Y899D01*
X929Y899D01*
X930Y899D01*
X931Y899D01*
X932Y899D01*
X933Y899D01*
X934Y899D01*
X935Y899D01*
X936Y899D01*
X937Y899D01*
X938Y899D01*
X939Y899D01*
X940Y899D01*
X941Y899D01*
X942Y899D01*
X943Y899D01*
X944Y899D01*
X945Y899D01*
X946Y899D01*
X947Y899D01*
X948Y899D01*
X949Y899D01*
X950Y899D01*
X951Y899D01*
X952Y899D01*
X953Y899D01*
X954Y899D01*
X955Y899D01*
X956Y899D01*
X957Y899D01*
X958Y899D01*
X959Y899D01*
X960Y899D01*
X961Y899D01*
X962Y899D01*
X963Y899D01*
X964Y899D01*
X965Y899D01*
X966Y899D01*
X967Y899D01*
X968Y899D01*
X969Y899D01*
X970Y899D01*
X971Y899D01*
X972Y899D01*
X973Y899D01*
X974Y899D01*
X975Y899D01*
X976Y899D01*
X977Y899D01*
X978Y899D01*
X979Y899D01*
X980Y899D01*
X981Y899D01*
X982Y899D01*
X983Y899D01*
X984Y899D01*
X985Y899D01*
X986Y899D01*
X987Y899D01*
X988Y899D01*
X989Y899D01*
X990Y899D01*
X991Y899D01*
X992Y899D01*
X993Y899D01*
X994Y899D01*
X995Y899D01*
X996Y899D01*
X997Y899D01*
X998Y899D01*
X999Y899D01*
X1000Y899D01*
X1001Y899D01*
X1002Y899D01*
X1003Y899D01*
X1004Y899D01*
X1005Y899D01*
X1006Y899D01*
X1007Y899D01*
X1008Y899D01*
X1009Y899D01*
X1010Y899D01*
X1011Y899D01*
X1012Y899D01*
X1013Y899D01*
X1014Y899D01*
X1015Y899D01*
X1016Y899D01*
X1017Y899D01*
X1018Y899D01*
X1019Y899D01*
X1020Y899D01*
X1021Y899D01*
X1022Y899D01*
X1023Y899D01*
X1024Y899D01*
X1025Y899D01*
X1026Y899D01*
X1027Y899D01*
X1028Y899D01*
X1029Y899D01*
X1030Y899D01*
X1031Y899D01*
X1032Y899D01*
X1033Y899D01*
X1034Y899D01*
X1035Y899D01*
X1036Y899D01*
X1037Y899D01*
X1038Y899D01*
X1039Y899D01*
X1040Y899D01*
X1041Y899D01*
X1042Y899D01*
X1043Y899D01*
X1044Y899D01*
X1045Y899D01*
X1046Y899D01*
X1047Y899D01*
X1048Y899D01*
X1049Y899D01*
X1050Y899D01*
X1051Y899D01*
X1052Y899D01*
X1053Y899D01*
X1054Y899D01*
X1055Y899D01*
X1056Y899D01*
X1057Y899D01*
X1058Y899D01*
X1059Y899D01*
X1060Y899D01*
X1061Y899D01*
X1062Y899D01*
X1063Y899D01*
X1064Y899D01*
X1065Y899D01*
X1066Y899D01*
X1067Y899D01*
X1068Y899D01*
X1069Y899D01*
X1070Y899D01*
X1071Y899D01*
X1072Y899D01*
X1073Y899D01*
X1074Y899D01*
X1075Y899D01*
X1076Y899D01*
X1077Y899D01*
X1078Y899D01*
X1079Y899D01*
X1080Y899D01*
X1081Y899D01*
X1082Y899D01*
X1083Y899D01*
X1084Y899D01*
X1085Y899D01*
X1086Y899D01*
X1087Y899D01*
X1088Y899D01*
X1089Y899D01*
X1090Y899D01*
X1091Y899D01*
X1092Y899D01*
X1093Y899D01*
X1094Y899D01*
X1095Y899D01*
X1096Y899D01*
X1097Y899D01*
X1098Y899D01*
X1099Y899D01*
X1100Y899D01*
X1101Y899D01*
X1102Y899D01*
X1103Y899D01*
X1104Y899D01*
X1105Y899D01*
X1106Y899D01*
X1107Y899D01*
X1108Y899D01*
X1109Y899D01*
X1110Y899D01*
X1111Y899D01*
X1112Y899D01*
X1113Y899D01*
X1114Y899D01*
X1115Y899D01*
X1116Y899D01*
X1117Y899D01*
X1118Y899D01*
X1119Y899D01*
X1120Y899D01*
X1121Y899D01*
X1122Y899D01*
X1123Y899D01*
X1124Y899D01*
X1125Y899D01*
X1126Y899D01*
X1127Y899D01*
X1128Y899D01*
X1129Y899D01*
X1130Y899D01*
X1131Y899D01*
X1132Y899D01*
X1133Y899D01*
X1134Y899D01*
X1135Y899D01*
X1136Y899D01*
X1137Y899D01*
X1138Y899D01*
X1139Y899D01*
X1140Y899D01*
X1141Y899D01*
X1142Y899D01*
X1143Y899D01*
X1144Y899D01*
X1145Y899D01*
X1146Y899D01*
X1147Y899D01*
X1148Y899D01*
X1149Y899D01*
X1150Y899D01*
X1151Y899D01*
X1152Y899D01*
X1153Y899D01*
X1154Y899D01*
X1155Y899D01*
X1156Y899D01*
X1157Y899D01*
X1158Y899D01*
X1159Y899D01*
X1160Y899D01*
X1161Y899D01*
X1162Y899D01*
X1163Y899D01*
X1164Y899D01*
X1165Y899D01*
X1166Y899D01*
X1167Y899D01*
X1168Y899D01*
X1169Y899D01*
X1170Y899D01*
X1171Y899D01*
X1172Y899D01*
X1173Y899D01*
X1174Y899D01*
X1175Y899D01*
X1176Y899D01*
X1177Y899D01*
X1178Y899D01*
X1179Y899D01*
X1180Y899D01*
X1181Y899D01*
X1182Y899D01*
X1183Y899D01*
X1184Y899D01*
X1185Y899D01*
X1186Y899D01*
X1187Y899D01*
X1188Y899D01*
X1189Y899D01*
X1190Y899D01*
X1191Y899D01*
X1192Y899D01*
X1193Y899D01*
X1194Y899D01*
X1195Y899D01*
X1196Y899D01*
X1197Y899D01*
X1198Y899D01*
X1199Y899D01*
X1200Y899D01*
X1201Y899D01*
X1202Y899D01*
X1203Y899D01*
X1204Y899D01*
X1205Y899D01*
X1206Y899D01*
X1207Y899D01*
X1208Y899D01*
X1209Y899D01*
X1210Y899D01*
X1211Y899D01*
X1212Y899D01*
X1213Y899D01*
X1214Y899D01*
X1215Y899D01*
X1216Y899D01*
X1217Y899D01*
X1218Y899D01*
X1219Y899D01*
X1220Y899D01*
X1221Y899D01*
X1222Y899D01*
X1223Y899D01*
X1224Y899D01*
X1225Y899D01*
X1226Y899D01*
X1227Y899D01*
X1228Y899D01*
X1229Y899D01*
X1230Y899D01*
X1231Y899D01*
X1232Y899D01*
X1233Y899D01*
X1234Y899D01*
X1235Y899D01*
X1236Y899D01*
X1237Y899D01*
X1238Y899D01*
X1239Y899D01*
X1240Y899D01*
X1241Y899D01*
X1242Y899D01*
X1243Y899D01*
X1244Y899D01*
X1245Y899D01*
X1246Y899D01*
X1247Y899D01*
X1248Y899D01*
X1249Y899D01*
X1250Y899D01*
X1251Y899D01*
X1252Y899D01*
X1253Y899D01*
X1254Y899D01*
X1255Y899D01*
X1256Y899D01*
X1257Y899D01*
X1258Y899D01*
X1259Y899D01*
X1260Y899D01*
X1261Y899D01*
X1262Y899D01*
X1263Y899D01*
X1264Y899D01*
X1265Y899D01*
X1266Y899D01*
X1267Y899D01*
X1268Y899D01*
X1269Y899D01*
X1270Y899D01*
X1271Y899D01*
X1272Y899D01*
X1273Y899D01*
X1274Y899D01*
X1275Y899D01*
X1276Y899D01*
X1277Y899D01*
X1278Y899D01*
X1279Y899D01*
X1280Y899D01*
X1281Y899D01*
X1282Y899D01*
X1283Y899D01*
X1284Y899D01*
X1285Y899D01*
X1286Y899D01*
X1287Y899D01*
X1288Y899D01*
X1289Y899D01*
X1290Y899D01*
X1291Y899D01*
X1292Y899D01*
X1293Y899D01*
X1294Y899D01*
X1295Y899D01*
X1296Y899D01*
X1297Y899D01*
X1298Y899D01*
X1299Y899D01*
X1300Y899D01*
X1301Y899D01*
X1302Y899D01*
X1303Y899D01*
X1304Y899D01*
X1305Y899D01*
X1306Y899D01*
X1307Y899D01*
X1308Y899D01*
X1309Y899D01*
X1310Y899D01*
X1311Y899D01*
X1312Y899D01*
X1313Y899D01*
X1314Y899D01*
X1315Y899D01*
X1316Y899D01*
X1317Y899D01*
X1318Y899D01*
X1319Y899D01*
X1320Y899D01*
X1321Y899D01*
X1322Y899D01*
X1323Y899D01*
X1324Y899D01*
X1325Y899D01*
X1326Y899D01*
X1327Y899D01*
X1328Y899D01*
X1329Y899D01*
X1330Y899D01*
X1331Y899D01*
X1332Y899D01*
X1333Y899D01*
X1334Y899D01*
X1335Y899D01*
X1336Y899D01*
X1337Y899D01*
X1338Y899D01*
X1339Y899D01*
X1340Y899D01*
X1341Y899D01*
X1342Y899D01*
X1343Y899D01*
X1344Y899D01*
X1345Y899D01*
X1346Y899D01*
X1347Y899D01*
X1348Y899D01*
X1349Y899D01*
X1350Y899D01*
X1351Y899D01*
X1352Y899D01*
X1353Y899D01*
X1354Y899D01*
X1355Y899D01*
X1356Y899D01*
X1357Y899D01*
X1358Y899D01*
X1359Y899D01*
X1360Y899D01*
X1361Y899D01*
X1362Y899D01*
X1363Y899D01*
X1364Y899D01*
X1365Y899D01*
X1366Y899D01*
X1367Y899D01*
X1368Y899D01*
X1369Y899D01*
X1370Y899D01*
X1371Y899D01*
X1372Y899D01*
X1373Y899D01*
X1374Y899D01*
X1375Y899D01*
X1376Y899D01*
X1377Y899D01*
X1378Y899D01*
X1379Y899D01*
X1380Y899D01*
X1381Y899D01*
X1382Y899D01*
X1383Y899D01*
X1384Y899D01*
X1385Y899D01*
X1386Y899D01*
X1387Y899D01*
X1388Y899D01*
X1389Y899D01*
X1390Y899D01*
X1391Y899D01*
X1392Y899D01*
X1393Y899D01*
X1394Y899D01*
X1395Y899D01*
X1396Y899D01*
X1397Y899D01*
X1398Y899D01*
X1399Y899D01*
X1400Y899D01*
X1401Y899D01*
X1402Y899D01*
X1403Y899D01*
X1404Y899D01*
X1405Y899D01*
X1406Y899D01*
X1407Y899D01*
X1408Y899D01*
X1409Y899D01*
X1410Y899D01*
X1411Y899D01*
X1412Y899D01*
X1413Y899D01*
X1414Y899D01*
X1415Y899D01*
X1416Y899D01*
X1417Y899D01*
X1418Y899D01*
X1419Y899D01*
X1420Y899D01*
X1421Y899D01*
X1422Y899D01*
X1423Y899D01*
X1424Y899D01*
X1425Y899D01*
X1426Y899D01*
X1427Y899D01*
X1428Y899D01*
X1429Y899D01*
X1430Y899D01*
X1431Y899D01*
X1432Y899D01*
X1433Y899D01*
X1434Y899D01*
X1435Y899D01*
X1436Y899D01*
X1437Y899D01*
X1438Y899D01*
X1439Y899D01*
X1440Y899D01*
X1441Y899D01*
X1442Y899D01*
X1443Y899D01*
X1444Y899D01*
X1445Y899D01*
X1446Y899D01*
X1447Y899D01*
X1448Y899D01*
X1449Y899D01*
X1450Y899D01*
X1451Y899D01*
X1452Y899D01*
X1453Y899D01*
X1454Y899D01*
X1455Y899D01*
X1456Y899D01*
X1457Y899D01*
X1458Y899D01*
X1459Y899D01*
X1460Y899D01*
X1461Y899D01*
X1462Y899D01*
X1463Y899D01*
X1464Y899D01*
X1465Y899D01*
X1466Y899D01*
X1467Y899D01*
X1468Y899D01*
X1469Y899D01*
X1470Y899D01*
X1471Y899D01*
X1472Y899D01*
X1473Y899D01*
X1474Y899D01*
X1475Y899D01*
X1476Y899D01*
X1477Y899D01*
X1478Y899D01*
X1479Y899D01*
X1480Y899D01*
X1481Y899D01*
X1482Y899D01*
X1483Y899D01*
X1484Y899D01*
X1485Y899D01*
X1486Y899D01*
X1487Y899D01*
X1488Y899D01*
X1489Y899D01*
X1490Y899D01*
X1491Y899D01*
X1492Y899D01*
X1493Y899D01*
X1494Y899D01*
X1495Y899D01*
X1496Y899D01*
X1497Y899D01*
X1498Y899D01*
X1499Y899D01*
X1500Y899D01*
X1501Y899D01*
X1502Y899D01*
X1503Y899D01*
X1504Y899D01*
X1505Y899D01*
X1506Y899D01*
X1507Y899D01*
X1508Y899D01*
X1509Y899D01*
X1510Y899D01*
X1511Y899D01*
X1512Y899D01*
X1513Y899D01*
X1514Y899D01*
X1515Y899D01*
X1516Y899D01*
X1517Y899D01*
X1518Y899D01*
X1519Y899D01*
X1520Y899D01*
X1521Y899D01*
X1522Y899D01*
X1523Y899D01*
X1524Y899D01*
X1525Y899D01*
X1526Y899D01*
X1527Y899D01*
X1528Y899D01*
X1529Y899D01*
X1530Y899D01*
X1531Y899D01*
X1532Y899D01*
X1533Y899D01*
X1534Y899D01*
X1535Y899D01*
X1536Y899D01*
X1537Y899D01*
X1538Y899D01*
X1539Y899D01*
X1540Y899D01*
X1541Y899D01*
X1542Y899D01*
X1543Y899D01*
X1544Y899D01*
X1545Y899D01*
X1546Y899D01*
X1547Y899D01*
X1548Y899D01*
X1549Y899D01*
X1550Y899D01*
X1551Y899D01*
X1552Y899D01*
X1553Y899D01*
X1554Y899D01*
X1555Y899D01*
X1556Y899D01*
X1557Y899D01*
X1558Y899D01*
X1559Y899D01*
X1560Y899D01*
X1561Y899D01*
X1562Y899D01*
X1563Y899D01*
X1564Y899D01*
X1565Y899D01*
X1566Y899D01*
X1567Y899D01*
X1568Y899D01*
X1569Y899D01*
X1570Y899D01*
X1571Y899D01*
X1572Y899D01*
X1573Y899D01*
X1574Y899D01*
X1575Y899D01*
X1576Y899D01*
X1577Y899D01*
X1578Y899D01*
X1579Y899D01*
X1580Y899D01*
X1581Y899D01*
X1582Y899D01*
X1583Y899D01*
X1584Y899D01*
X1585Y899D01*
X1586Y899D01*
X1587Y899D01*
X1588Y899D01*
X1589Y899D01*
X1590Y899D01*
X1591Y899D01*
X1592Y899D01*
X1593Y899D01*
X1594Y899D01*
X1595Y899D01*
X1596Y899D01*
X1597Y899D01*
X1598Y899D01*
X1599Y899D01*
X1600Y899D01*
X1601Y899D01*
X1602Y899D01*
X1603Y899D01*
X1604Y899D01*
X1605Y899D01*
X1606Y899D01*
X1607Y899D01*
X1608Y899D01*
X1609Y899D01*
X1610Y899D01*
X1611Y899D01*
X1612Y899D01*
X1613Y899D01*
X1614Y899D01*
X1615Y899D01*
X1616Y899D01*
X1617Y899D01*
X1618Y899D01*
X1619Y899D01*
X1620Y899D01*
X1621Y899D01*
X1622Y899D01*
X1623Y899D01*
X1624Y899D01*
X1625Y899D01*
X1626Y899D01*
X1627Y899D01*
X1628Y899D01*
X1629Y899D01*
X1630Y899D01*
X1631Y899D01*
X1632Y899D01*
X1633Y899D01*
X1634Y899D01*
X1635Y899D01*
X1636Y899D01*
X1637Y899D01*
X1638Y899D01*
X1639Y899D01*
X1640Y899D01*
X1641Y899D01*
X1642Y899D01*
X1643Y899D01*
X1644Y899D01*
X1645Y899D01*
X1646Y899D01*
X1647Y899D01*
X1648Y899D01*
X1649Y899D01*
X1650Y899D01*
X1651Y899D01*
X1652Y899D01*
X1653Y899D01*
X1654Y899D01*
X1655Y899D01*
X1656Y899D01*
X1657Y899D01*
X1658Y899D01*
X1659Y899D01*
X1660Y899D01*
X1661Y899D01*
X1662Y899D01*
X1663Y899D01*
X1664Y899D01*
X1665Y899D01*
X1666Y899D01*
X1667Y899D01*
X1668Y899D01*
X1669Y899D01*
X1670Y899D01*
X1671Y899D01*
X1672Y899D01*
X1673Y899D01*
X1674Y899D01*
X1675Y899D01*
X1676Y899D01*
X1677Y899D01*
X1678Y899D01*
X1679Y899D01*
X1680Y899D01*
X1681Y899D01*
X1682Y899D01*
X1683Y899D01*
X1684Y899D01*
X1685Y899D01*
X1686Y899D01*
X1687Y899D01*
X1688Y899D01*
X1689Y899D01*
X1690Y899D01*
X1691Y899D01*
X1692Y899D01*
X1693Y899D01*
X1694Y899D01*
X1695Y899D01*
X1696Y899D01*
X1697Y899D01*
X1698Y899D01*
X1699Y899D01*
X1700Y899D01*
X1701Y899D01*
X1702Y899D01*
X1703Y899D01*
X1704Y899D01*
X1705Y899D01*
X1706Y899D01*
X1707Y899D01*
X1708Y899D01*
X1709Y899D01*
X1710Y899D01*
X1711Y899D01*
X1712Y899D01*
X1713Y899D01*
X1714Y899D01*
X1715Y899D01*
X1716Y899D01*
X1717Y899D01*
X1718Y899D01*
X1719Y899D01*
X1720Y899D01*
X1721Y899D01*
X1722Y899D01*
X1723Y899D01*
X1724Y899D01*
X1725Y899D01*
X1726Y899D01*
X1727Y899D01*
X1728Y899D01*
X1729Y899D01*
X1730Y899D01*
X1731Y899D01*
X1732Y899D01*
X1733Y899D01*
X1734Y899D01*
X1735Y899D01*
X1736Y899D01*
X1737Y899D01*
X1738Y899D01*
X1739Y899D01*
X1740Y899D01*
X1741Y899D01*
X1742Y899D01*
X1743Y899D01*
X1744Y899D01*
X1745Y899D01*
X1746Y899D01*
X1747Y899D01*
X1748Y899D01*
X1749Y899D01*
X1750Y899D01*
X1751Y899D01*
X1752Y899D01*
X1753Y899D01*
X1754Y899D01*
X1755Y899D01*
X1756Y899D01*
X1757Y899D01*
X1758Y899D01*
X1759Y899D01*
X1760Y899D01*
X1761Y899D01*
X1762Y899D01*
X1763Y899D01*
X1764Y899D01*
X1765Y899D01*
X1766Y899D01*
X1767Y899D01*
X1768Y899D01*
X1769Y899D01*
X1770Y899D01*
X1771Y899D01*
X1772Y899D01*
X1773Y899D01*
X1774Y899D01*
X1775Y899D01*
X1776Y899D01*
X1777Y899D01*
X1778Y899D01*
X1779Y899D01*
X1780Y899D01*
X1781Y899D01*
X1782Y899D01*
X1783Y899D01*
X1784Y899D01*
X1785Y899D01*
X1786Y899D01*
X1787Y899D01*
X1788Y899D01*
X1789Y899D01*
X1790Y899D01*
X1791Y899D01*
X1792Y899D01*
X1793Y899D01*
X1794Y899D01*
X1795Y899D01*
X1796Y899D01*
X1797Y899D01*
X1798Y899D01*
X1799Y899D01*
X1800Y899D01*
X1801Y899D01*
X1802Y899D01*
X1803Y899D01*
X1804Y899D01*
X1805Y899D01*
X1806Y899D01*
X1807Y899D01*
X1808Y899D01*
X1809Y899D01*
X1810Y899D01*
X1811Y899D01*
X1812Y899D01*
X1813Y899D01*
X1814Y899D01*
X1815Y899D01*
X1816Y899D01*
X1817Y899D01*
X1818Y899D01*
X1819Y899D01*
X1820Y899D01*
X1821Y899D01*
X1822Y899D01*
X1823Y899D01*
X1824Y899D01*
X1825Y899D01*
X1826Y899D01*
X1827Y899D01*
X1828Y899D01*
X1829Y899D01*
X1830Y899D01*
X1831Y899D01*
X1832Y899D01*
X1833Y899D01*
X1834Y899D01*
X1835Y899D01*
X1836Y899D01*
X1837Y899D01*
X1838Y899D01*
X1839Y899D01*
X1840Y899D01*
X1841Y899D01*
X1842Y899D01*
X1843Y899D01*
X1844Y899D01*
X1845Y899D01*
X1846Y899D01*
X1847Y899D01*
X1848Y899D01*
X1849Y899D01*
X1850Y899D01*
X1851Y899D01*
X1852Y899D01*
X1853Y899D01*
X1854Y899D01*
X1855Y899D01*
X1856Y899D01*
X1857Y899D01*
X1858Y899D01*
X1859Y899D01*
X1860Y899D01*
X1861Y899D01*
X1862Y899D01*
X1863Y899D01*
X1864Y899D01*
X1865Y899D01*
X1866Y899D01*
X1867Y899D01*
X1868Y899D01*
X1869Y899D01*
X1870Y899D01*
X1871Y899D01*
X1872Y899D01*
X1873Y899D01*
X1874Y899D01*
X1875Y899D01*
X1876Y899D01*
X1877Y899D01*
X1878Y899D01*
X1879Y899D01*
X1880Y899D01*
X1881Y899D01*
X1882Y899D01*
X1883Y899D01*
X1884Y899D01*
X1885Y899D01*
X1886Y899D01*
X1887Y899D01*
X1888Y899D01*
X1889Y899D01*
X1890Y899D01*
X1891Y899D01*
X1892Y899D01*
X1893Y899D01*
X1894Y899D01*
X1895Y899D01*
X1896Y899D01*
X1897Y899D01*
X1898Y899D01*
X1899Y899D01*
X1900Y899D01*
X1901Y899D01*
X1902Y899D01*
X1903Y899D01*
X1904Y899D01*
X1905Y899D01*
X1906Y899D01*
X1907Y899D01*
X1908Y899D01*
X1909Y899D01*
X1910Y899D01*
X1911Y899D01*
X1912Y899D01*
X1913Y899D01*
X1914Y898D01*
X1915Y898D01*
X1916Y898D01*
X1917Y898D01*
X1918Y898D01*
X1919Y898D01*
X1920Y898D01*
X1921Y897D01*
X1922Y897D01*
X1923Y897D01*
X1924Y897D01*
X1925Y897D01*
X1926Y896D01*
X1927Y896D01*
X1928Y896D01*
X1929Y895D01*
X1930Y895D01*
X1931Y895D01*
X1932Y895D01*
X1933Y894D01*
X1934Y894D01*
X1935Y894D01*
X1936Y893D01*
X1937Y893D01*
X1938Y892D01*
X1939Y892D01*
X1940Y892D01*
X1941Y891D01*
X1942Y891D01*
X1943Y890D01*
X1944Y890D01*
X1945Y889D01*
X1946Y889D01*
X1947Y888D01*
X1948Y888D01*
X1949Y887D01*
X1950Y887D01*
X1951Y886D01*
X1952Y885D01*
X1953Y885D01*
X1954Y884D01*
X1955Y883D01*
X1956Y883D01*
X1957Y882D01*
X1958Y882D01*
X1959Y881D01*
X1960Y880D01*
X1961Y879D01*
X1962Y878D01*
X1963Y878D01*
X1964Y877D01*
X1965Y876D01*
X1966Y875D01*
X1967Y874D01*
X1968Y873D01*
X1969Y872D01*
X1970Y871D01*
X1971Y870D01*
X1972Y869D01*
X1973Y868D01*
X1974Y867D01*
X1975Y866D01*
X1976Y865D01*
X1977Y864D01*
X1977Y863D01*
X1978Y862D01*
X1979Y861D01*
X1980Y860D01*
X1980Y859D01*
X1981Y858D01*
X1982Y857D01*
X1982Y856D01*
X1983Y855D01*
X1984Y854D01*
X1984Y853D01*
X1985Y852D01*
X1985Y851D01*
X1986Y850D01*
X1987Y849D01*
X1987Y848D01*
X1988Y847D01*
X1988Y846D01*
X1989Y845D01*
X1989Y844D01*
X1990Y843D01*
X1990Y841D01*
X1991Y840D01*
X1991Y839D01*
X1992Y838D01*
X1992Y836D01*
X1993Y835D01*
X1993Y833D01*
X1994Y832D01*
X1994Y830D01*
X1995Y829D01*
X1995Y826D01*
X1996Y825D01*
X1996Y821D01*
X1997Y820D01*
X1997Y815D01*
X1998Y814D01*
X1998Y94D01*
X1997Y93D01*
X1997Y88D01*
X1996Y87D01*
X1996Y83D01*
X1995Y82D01*
X1995Y79D01*
X1994Y78D01*
X1994Y76D01*
X1993Y75D01*
X1993Y73D01*
X1992Y72D01*
X1992Y70D01*
X1991Y69D01*
X1991Y68D01*
X1990Y67D01*
X1990Y66D01*
X1989Y65D01*
X1989Y63D01*
X1988Y62D01*
X1987Y61D01*
X1987Y60D01*
X1986Y59D01*
X1986Y58D01*
X1985Y57D01*
X1985Y56D01*
X1984Y55D01*
X1983Y54D01*
X1983Y53D01*
X1982Y52D01*
X1981Y51D01*
X1981Y50D01*
X1980Y49D01*
X1979Y48D01*
X1979Y47D01*
X1978Y46D01*
X1977Y45D01*
X1976Y44D01*
X1975Y43D01*
X1975Y42D01*
X1974Y41D01*
X1973Y40D01*
X1972Y39D01*
X1971Y38D01*
X1970Y37D01*
X1969Y36D01*
X1968Y35D01*
X1967Y34D01*
X1966Y33D01*
X1965Y33D01*
X1964Y32D01*
X1963Y31D01*
X1962Y30D01*
X1961Y29D01*
X1960Y28D01*
X1959Y28D01*
X1958Y27D01*
X1957Y26D01*
X1956Y26D01*
X1955Y25D01*
X1954Y24D01*
X1953Y24D01*
X1952Y23D01*
X1951Y22D01*
X1950Y22D01*
X1949Y21D01*
X1948Y21D01*
X1947Y20D01*
X1946Y20D01*
X1945Y19D01*
X1944Y19D01*
X1943Y18D01*
X1942Y18D01*
X1941Y17D01*
X1940Y17D01*
X1939Y17D01*
X1938Y16D01*
X1937Y16D01*
X1936Y15D01*
X1935Y15D01*
X1934Y15D01*
X1933Y14D01*
X1932Y14D01*
X1931Y14D01*
X1930Y13D01*
X1929Y13D01*
X1928Y13D01*
X1927Y12D01*
X1926Y12D01*
X1925Y12D01*
X1924Y12D01*
X1923Y11D01*
X1922Y11D01*
X1921Y11D01*
X1920Y11D01*
X1919Y11D01*
X1918Y10D01*
X1917Y10D01*
X1916Y10D01*
X1915Y10D01*
X1914Y10D01*
X1913Y10D01*
X1912Y10D01*
X1911Y9D01*
X1910Y9D01*
X1909Y9D01*
X1908Y9D01*
X1907Y9D01*
X1906Y9D01*
X1905Y9D01*
X1904Y9D01*
X1903Y9D01*
X1902Y9D01*
X1901Y9D01*
X1900Y9D01*
X1899Y9D01*
X1898Y9D01*
X1897Y9D01*
X1896Y9D01*
X1895Y9D01*
X1894Y9D01*
X1893Y9D01*
X1892Y9D01*
X1891Y9D01*
X1890Y9D01*
X1889Y9D01*
X1888Y9D01*
X1887Y9D01*
X1886Y9D01*
X1885Y9D01*
X1884Y9D01*
X1883Y9D01*
X1882Y9D01*
X1881Y9D01*
X1880Y9D01*
X1879Y9D01*
X1878Y9D01*
X1877Y9D01*
X1876Y9D01*
X1875Y9D01*
X1874Y9D01*
X1873Y9D01*
X1872Y9D01*
X1871Y9D01*
X1870Y9D01*
X1869Y9D01*
X1868Y9D01*
X1867Y9D01*
X1866Y9D01*
X1865Y9D01*
X1864Y9D01*
X1863Y9D01*
X1862Y9D01*
X1861Y9D01*
X1860Y9D01*
X1859Y9D01*
X1858Y9D01*
X1857Y9D01*
X1856Y9D01*
X1855Y9D01*
X1854Y9D01*
X1853Y9D01*
X1852Y9D01*
X1851Y9D01*
X1850Y9D01*
X1849Y9D01*
X1848Y9D01*
X1847Y9D01*
X1846Y9D01*
X1845Y9D01*
X1844Y9D01*
X1843Y9D01*
X1842Y9D01*
X1841Y9D01*
X1840Y9D01*
X1839Y9D01*
X1838Y9D01*
X1837Y9D01*
X1836Y9D01*
X1835Y9D01*
X1834Y9D01*
X1833Y9D01*
X1832Y9D01*
X1831Y9D01*
X1830Y9D01*
X1829Y9D01*
X1828Y9D01*
X1827Y9D01*
X1826Y9D01*
X1825Y9D01*
X1824Y9D01*
X1823Y9D01*
X1822Y9D01*
X1821Y9D01*
X1820Y9D01*
X1819Y9D01*
X1818Y9D01*
X1817Y9D01*
X1816Y9D01*
X1815Y9D01*
X1814Y9D01*
X1813Y9D01*
X1812Y9D01*
X1811Y9D01*
X1810Y9D01*
X1809Y9D01*
X1808Y9D01*
X1807Y9D01*
X1806Y9D01*
X1805Y9D01*
X1804Y9D01*
X1803Y9D01*
X1802Y9D01*
X1801Y9D01*
X1800Y9D01*
X1799Y9D01*
X1798Y9D01*
X1797Y9D01*
X1796Y9D01*
X1795Y9D01*
X1794Y9D01*
X1793Y9D01*
X1792Y9D01*
X1791Y9D01*
X1790Y9D01*
X1789Y9D01*
X1788Y9D01*
X1787Y9D01*
X1786Y9D01*
X1785Y9D01*
X1784Y9D01*
X1783Y9D01*
X1782Y9D01*
X1781Y9D01*
X1780Y9D01*
X1779Y9D01*
X1778Y9D01*
X1777Y9D01*
X1776Y9D01*
X1775Y9D01*
X1774Y9D01*
X1773Y9D01*
X1772Y9D01*
X1771Y9D01*
X1770Y9D01*
X1769Y9D01*
X1768Y9D01*
X1767Y9D01*
X1766Y9D01*
X1765Y9D01*
X1764Y9D01*
X1763Y9D01*
X1762Y9D01*
X1761Y9D01*
X1760Y9D01*
X1759Y9D01*
X1758Y9D01*
X1757Y9D01*
X1756Y9D01*
X1755Y9D01*
X1754Y9D01*
X1753Y9D01*
X1752Y9D01*
X1751Y9D01*
X1750Y9D01*
X1749Y9D01*
X1748Y9D01*
X1747Y9D01*
X1746Y9D01*
X1745Y9D01*
X1744Y9D01*
X1743Y9D01*
X1742Y9D01*
X1741Y9D01*
X1740Y9D01*
X1739Y9D01*
X1738Y9D01*
X1737Y9D01*
X1736Y9D01*
X1735Y9D01*
X1734Y9D01*
X1733Y9D01*
X1732Y9D01*
X1731Y9D01*
X1730Y9D01*
X1729Y9D01*
X1728Y9D01*
X1727Y9D01*
X1726Y9D01*
X1725Y9D01*
X1724Y9D01*
X1723Y9D01*
X1722Y9D01*
X1721Y9D01*
X1720Y9D01*
X1719Y9D01*
X1718Y9D01*
X1717Y9D01*
X1716Y9D01*
X1715Y9D01*
X1714Y9D01*
X1713Y9D01*
X1712Y9D01*
X1711Y9D01*
X1710Y9D01*
X1709Y9D01*
X1708Y9D01*
X1707Y9D01*
X1706Y9D01*
X1705Y9D01*
X1704Y9D01*
X1703Y9D01*
X1702Y9D01*
X1701Y9D01*
X1700Y9D01*
X1699Y9D01*
X1698Y9D01*
X1697Y9D01*
X1696Y9D01*
X1695Y9D01*
X1694Y9D01*
X1693Y9D01*
X1692Y9D01*
X1691Y9D01*
X1690Y9D01*
X1689Y9D01*
X1688Y9D01*
X1687Y9D01*
X1686Y9D01*
X1685Y9D01*
X1684Y9D01*
X1683Y9D01*
X1682Y9D01*
X1681Y9D01*
X1680Y9D01*
X1679Y9D01*
X1678Y9D01*
X1677Y9D01*
X1676Y9D01*
X1675Y9D01*
X1674Y9D01*
X1673Y9D01*
X1672Y9D01*
X1671Y9D01*
X1670Y9D01*
X1669Y9D01*
X1668Y9D01*
X1667Y9D01*
X1666Y9D01*
X1665Y9D01*
X1664Y9D01*
X1663Y9D01*
X1662Y9D01*
X1661Y9D01*
X1660Y9D01*
X1659Y9D01*
X1658Y9D01*
X1657Y9D01*
X1656Y9D01*
X1655Y9D01*
X1654Y9D01*
X1653Y9D01*
X1652Y9D01*
X1651Y9D01*
X1650Y9D01*
X1649Y9D01*
X1648Y9D01*
X1647Y9D01*
X1646Y9D01*
X1645Y9D01*
X1644Y9D01*
X1643Y9D01*
X1642Y9D01*
X1641Y9D01*
X1640Y9D01*
X1639Y9D01*
X1638Y9D01*
X1637Y9D01*
X1636Y9D01*
X1635Y9D01*
X1634Y9D01*
X1633Y9D01*
X1632Y9D01*
X1631Y9D01*
X1630Y9D01*
X1629Y9D01*
X1628Y9D01*
X1627Y9D01*
X1626Y9D01*
X1625Y9D01*
X1624Y9D01*
X1623Y9D01*
X1622Y9D01*
X1621Y9D01*
X1620Y9D01*
X1619Y9D01*
X1618Y9D01*
X1617Y9D01*
X1616Y9D01*
X1615Y9D01*
X1614Y9D01*
X1613Y9D01*
X1612Y9D01*
X1611Y9D01*
X1610Y9D01*
X1609Y9D01*
X1608Y9D01*
X1607Y9D01*
X1606Y9D01*
X1605Y9D01*
X1604Y9D01*
X1603Y9D01*
X1602Y9D01*
X1601Y9D01*
X1600Y9D01*
X1599Y9D01*
X1598Y9D01*
X1597Y9D01*
X1596Y9D01*
X1595Y9D01*
X1594Y9D01*
X1593Y9D01*
X1592Y9D01*
X1591Y9D01*
X1590Y9D01*
X1589Y9D01*
X1588Y9D01*
X1587Y9D01*
X1586Y9D01*
X1585Y9D01*
X1584Y9D01*
X1583Y9D01*
X1582Y9D01*
X1581Y9D01*
X1580Y9D01*
X1579Y9D01*
X1578Y9D01*
X1577Y9D01*
X1576Y9D01*
X1575Y9D01*
X1574Y9D01*
X1573Y9D01*
X1572Y9D01*
X1571Y9D01*
X1570Y9D01*
X1569Y9D01*
X1568Y9D01*
X1567Y9D01*
X1566Y9D01*
X1565Y9D01*
X1564Y9D01*
X1563Y9D01*
X1562Y9D01*
X1561Y9D01*
X1560Y9D01*
X1559Y9D01*
X1558Y9D01*
X1557Y9D01*
X1556Y9D01*
X1555Y9D01*
X1554Y9D01*
X1553Y9D01*
X1552Y9D01*
X1551Y9D01*
X1550Y9D01*
X1549Y9D01*
X1548Y9D01*
X1547Y9D01*
X1546Y9D01*
X1545Y9D01*
X1544Y9D01*
X1543Y9D01*
X1542Y9D01*
X1541Y9D01*
X1540Y9D01*
X1539Y9D01*
X1538Y9D01*
X1537Y9D01*
X1536Y9D01*
X1535Y9D01*
X1534Y9D01*
X1533Y9D01*
X1532Y9D01*
X1531Y9D01*
X1530Y9D01*
X1529Y9D01*
X1528Y9D01*
X1527Y9D01*
X1526Y9D01*
X1525Y9D01*
X1524Y9D01*
X1523Y9D01*
X1522Y9D01*
X1521Y9D01*
X1520Y9D01*
X1519Y9D01*
X1518Y9D01*
X1517Y9D01*
X1516Y9D01*
X1515Y9D01*
X1514Y9D01*
X1513Y9D01*
X1512Y9D01*
X1511Y9D01*
X1510Y9D01*
X1509Y9D01*
X1508Y9D01*
X1507Y9D01*
X1506Y9D01*
X1505Y9D01*
X1504Y9D01*
X1503Y9D01*
X1502Y9D01*
X1501Y9D01*
X1500Y9D01*
X1499Y9D01*
X1498Y9D01*
X1497Y9D01*
X1496Y9D01*
X1495Y9D01*
X1494Y9D01*
X1493Y9D01*
X1492Y9D01*
X1491Y9D01*
X1490Y9D01*
X1489Y9D01*
X1488Y9D01*
X1487Y9D01*
X1486Y9D01*
X1485Y9D01*
X1484Y9D01*
X1483Y9D01*
X1482Y9D01*
X1481Y9D01*
X1480Y9D01*
X1479Y9D01*
X1478Y9D01*
X1477Y9D01*
X1476Y9D01*
X1475Y9D01*
X1474Y9D01*
X1473Y9D01*
X1472Y9D01*
X1471Y9D01*
X1470Y9D01*
X1469Y9D01*
X1468Y9D01*
X1467Y9D01*
X1466Y9D01*
X1465Y9D01*
X1464Y9D01*
X1463Y9D01*
X1462Y9D01*
X1461Y9D01*
X1460Y9D01*
X1459Y9D01*
X1458Y9D01*
X1457Y9D01*
X1456Y9D01*
X1455Y9D01*
X1454Y9D01*
X1453Y9D01*
X1452Y9D01*
X1451Y9D01*
X1450Y9D01*
X1449Y9D01*
X1448Y9D01*
X1447Y9D01*
X1446Y9D01*
X1445Y9D01*
X1444Y9D01*
X1443Y9D01*
X1442Y9D01*
X1441Y9D01*
X1440Y9D01*
X1439Y9D01*
X1438Y9D01*
X1437Y9D01*
X1436Y9D01*
X1435Y9D01*
X1434Y9D01*
X1433Y9D01*
X1432Y9D01*
X1431Y9D01*
X1430Y9D01*
X1429Y9D01*
X1428Y9D01*
X1427Y9D01*
X1426Y9D01*
X1425Y9D01*
X1424Y9D01*
X1423Y9D01*
X1422Y9D01*
X1421Y9D01*
X1420Y9D01*
X1419Y9D01*
X1418Y9D01*
X1417Y9D01*
X1416Y9D01*
X1415Y9D01*
X1414Y9D01*
X1413Y9D01*
X1412Y9D01*
X1411Y9D01*
X1410Y9D01*
X1409Y9D01*
X1408Y9D01*
X1407Y9D01*
X1406Y9D01*
X1405Y9D01*
X1404Y9D01*
X1403Y9D01*
X1402Y9D01*
X1401Y9D01*
X1400Y9D01*
X1399Y9D01*
X1398Y9D01*
X1397Y9D01*
X1396Y9D01*
X1395Y9D01*
X1394Y9D01*
X1393Y9D01*
X1392Y9D01*
X1391Y9D01*
X1390Y9D01*
X1389Y9D01*
X1388Y9D01*
X1387Y9D01*
X1386Y9D01*
X1385Y9D01*
X1384Y9D01*
X1383Y9D01*
X1382Y9D01*
X1381Y9D01*
X1380Y9D01*
X1379Y9D01*
X1378Y9D01*
X1377Y9D01*
X1376Y9D01*
X1375Y9D01*
X1374Y9D01*
X1373Y9D01*
X1372Y9D01*
X1371Y9D01*
X1370Y9D01*
X1369Y9D01*
X1368Y9D01*
X1367Y9D01*
X1366Y9D01*
X1365Y9D01*
X1364Y9D01*
X1363Y9D01*
X1362Y9D01*
X1361Y9D01*
X1360Y9D01*
X1359Y9D01*
X1358Y9D01*
X1357Y9D01*
X1356Y9D01*
X1355Y9D01*
X1354Y9D01*
X1353Y9D01*
X1352Y9D01*
X1351Y9D01*
X1350Y9D01*
X1349Y9D01*
X1348Y9D01*
X1347Y9D01*
X1346Y9D01*
X1345Y9D01*
X1344Y9D01*
X1343Y9D01*
X1342Y9D01*
X1341Y9D01*
X1340Y9D01*
X1339Y9D01*
X1338Y9D01*
X1337Y9D01*
X1336Y9D01*
X1335Y9D01*
X1334Y9D01*
X1333Y9D01*
X1332Y9D01*
X1331Y9D01*
X1330Y9D01*
X1329Y9D01*
X1328Y9D01*
X1327Y9D01*
X1326Y9D01*
X1325Y9D01*
X1324Y9D01*
X1323Y9D01*
X1322Y9D01*
X1321Y9D01*
X1320Y9D01*
X1319Y9D01*
X1318Y9D01*
X1317Y9D01*
X1316Y9D01*
X1315Y9D01*
X1314Y9D01*
X1313Y9D01*
X1312Y9D01*
X1311Y9D01*
X1310Y9D01*
X1309Y9D01*
X1308Y9D01*
X1307Y9D01*
X1306Y9D01*
X1305Y9D01*
X1304Y9D01*
X1303Y9D01*
X1302Y9D01*
X1301Y9D01*
X1300Y9D01*
X1299Y9D01*
X1298Y9D01*
X1297Y9D01*
X1296Y9D01*
X1295Y9D01*
X1294Y9D01*
X1293Y9D01*
X1292Y9D01*
X1291Y9D01*
X1290Y9D01*
X1289Y9D01*
X1288Y9D01*
X1287Y9D01*
X1286Y9D01*
X1285Y9D01*
X1284Y9D01*
X1283Y9D01*
X1282Y9D01*
X1281Y9D01*
X1280Y9D01*
X1279Y9D01*
X1278Y9D01*
X1277Y9D01*
X1276Y9D01*
X1275Y9D01*
X1274Y9D01*
X1273Y9D01*
X1272Y9D01*
X1271Y9D01*
X1270Y9D01*
X1269Y9D01*
X1268Y9D01*
X1267Y9D01*
X1266Y9D01*
X1265Y9D01*
X1264Y9D01*
X1263Y9D01*
X1262Y9D01*
X1261Y9D01*
X1260Y9D01*
X1259Y9D01*
X1258Y9D01*
X1257Y9D01*
X1256Y9D01*
X1255Y9D01*
X1254Y9D01*
X1253Y9D01*
X1252Y9D01*
X1251Y9D01*
X1250Y9D01*
X1249Y9D01*
X1248Y9D01*
X1247Y9D01*
X1246Y9D01*
X1245Y9D01*
X1244Y9D01*
X1243Y9D01*
X1242Y9D01*
X1241Y9D01*
X1240Y9D01*
X1239Y9D01*
X1238Y9D01*
X1237Y9D01*
X1236Y9D01*
X1235Y9D01*
X1234Y9D01*
X1233Y9D01*
X1232Y9D01*
X1231Y9D01*
X1230Y9D01*
X1229Y9D01*
X1228Y9D01*
X1227Y9D01*
X1226Y9D01*
X1225Y9D01*
X1224Y9D01*
X1223Y9D01*
X1222Y9D01*
X1221Y9D01*
X1220Y9D01*
X1219Y9D01*
X1218Y9D01*
X1217Y9D01*
X1216Y9D01*
X1215Y9D01*
X1214Y9D01*
X1213Y9D01*
X1212Y9D01*
X1211Y9D01*
X1210Y9D01*
X1209Y9D01*
X1208Y9D01*
X1207Y9D01*
X1206Y9D01*
X1205Y9D01*
X1204Y9D01*
X1203Y9D01*
X1202Y9D01*
X1201Y9D01*
X1200Y9D01*
X1199Y9D01*
X1198Y9D01*
X1197Y9D01*
X1196Y9D01*
X1195Y9D01*
X1194Y9D01*
X1193Y9D01*
X1192Y9D01*
X1191Y9D01*
X1190Y9D01*
X1189Y9D01*
X1188Y9D01*
X1187Y9D01*
X1186Y9D01*
X1185Y9D01*
X1184Y9D01*
X1183Y9D01*
X1182Y9D01*
X1181Y9D01*
X1180Y9D01*
X1179Y9D01*
X1178Y9D01*
X1177Y9D01*
X1176Y9D01*
X1175Y9D01*
X1174Y9D01*
X1173Y9D01*
X1172Y9D01*
X1171Y9D01*
X1170Y9D01*
X1169Y9D01*
X1168Y9D01*
X1167Y9D01*
X1166Y9D01*
X1165Y9D01*
X1164Y9D01*
X1163Y9D01*
X1162Y9D01*
X1161Y9D01*
X1160Y9D01*
X1159Y9D01*
X1158Y9D01*
X1157Y9D01*
X1156Y9D01*
X1155Y9D01*
X1154Y9D01*
X1153Y9D01*
X1152Y9D01*
X1151Y9D01*
X1150Y9D01*
X1149Y9D01*
X1148Y9D01*
X1147Y9D01*
X1146Y9D01*
X1145Y9D01*
X1144Y9D01*
X1143Y9D01*
X1142Y9D01*
X1141Y9D01*
X1140Y9D01*
X1139Y9D01*
X1138Y9D01*
X1137Y9D01*
X1136Y9D01*
X1135Y9D01*
X1134Y9D01*
X1133Y9D01*
X1132Y9D01*
X1131Y9D01*
X1130Y9D01*
X1129Y9D01*
X1128Y9D01*
X1127Y9D01*
X1126Y9D01*
X1125Y9D01*
X1124Y9D01*
X1123Y9D01*
X1122Y9D01*
X1121Y9D01*
X1120Y9D01*
X1119Y9D01*
X1118Y9D01*
X1117Y9D01*
X1116Y9D01*
X1115Y9D01*
X1114Y9D01*
X1113Y9D01*
X1112Y9D01*
X1111Y9D01*
X1110Y9D01*
X1109Y9D01*
X1108Y9D01*
X1107Y9D01*
X1106Y9D01*
X1105Y9D01*
X1104Y9D01*
X1103Y9D01*
X1102Y9D01*
X1101Y9D01*
X1100Y9D01*
X1099Y9D01*
X1098Y9D01*
X1097Y9D01*
X1096Y9D01*
X1095Y9D01*
X1094Y9D01*
X1093Y9D01*
X1092Y9D01*
X1091Y9D01*
X1090Y9D01*
X1089Y9D01*
X1088Y9D01*
X1087Y9D01*
X1086Y9D01*
X1085Y9D01*
X1084Y9D01*
X1083Y9D01*
X1082Y9D01*
X1081Y9D01*
X1080Y9D01*
X1079Y9D01*
X1078Y9D01*
X1077Y9D01*
X1076Y9D01*
X1075Y9D01*
X1074Y9D01*
X1073Y9D01*
X1072Y9D01*
X1071Y9D01*
X1070Y9D01*
X1069Y9D01*
X1068Y9D01*
X1067Y9D01*
X1066Y9D01*
X1065Y9D01*
X1064Y9D01*
X1063Y9D01*
X1062Y9D01*
X1061Y9D01*
X1060Y9D01*
X1059Y9D01*
X1058Y9D01*
X1057Y9D01*
X1056Y9D01*
X1055Y9D01*
X1054Y9D01*
X1053Y9D01*
X1052Y9D01*
X1051Y9D01*
X1050Y9D01*
X1049Y9D01*
X1048Y9D01*
X1047Y9D01*
X1046Y9D01*
X1045Y9D01*
X1044Y9D01*
X1043Y9D01*
X1042Y9D01*
X1041Y9D01*
X1040Y9D01*
X1039Y9D01*
X1038Y9D01*
X1037Y9D01*
X1036Y9D01*
X1035Y9D01*
X1034Y9D01*
X1033Y9D01*
X1032Y9D01*
X1031Y9D01*
X1030Y9D01*
X1029Y9D01*
X1028Y9D01*
X1027Y9D01*
X1026Y9D01*
X1025Y9D01*
X1024Y9D01*
X1023Y9D01*
X1022Y9D01*
X1021Y9D01*
X1020Y9D01*
X1019Y9D01*
X1018Y9D01*
X1017Y9D01*
X1016Y9D01*
X1015Y9D01*
X1014Y9D01*
X1013Y9D01*
X1012Y9D01*
X1011Y9D01*
X1010Y9D01*
X1009Y9D01*
X1008Y9D01*
X1007Y9D01*
X1006Y9D01*
X1005Y9D01*
X1004Y9D01*
X1003Y9D01*
X1002Y9D01*
X1001Y9D01*
X1000Y9D01*
X999Y9D01*
X998Y9D01*
X997Y9D01*
X996Y9D01*
X995Y9D01*
X994Y9D01*
X993Y9D01*
X992Y9D01*
X991Y9D01*
X990Y9D01*
X989Y9D01*
X988Y9D01*
X987Y9D01*
X986Y9D01*
X985Y9D01*
X984Y9D01*
X983Y9D01*
X982Y9D01*
X981Y9D01*
X980Y9D01*
X979Y9D01*
X978Y9D01*
X977Y9D01*
X976Y9D01*
X975Y9D01*
X974Y9D01*
X973Y9D01*
X972Y9D01*
X971Y9D01*
X970Y9D01*
X969Y9D01*
X968Y9D01*
X967Y9D01*
X966Y9D01*
X965Y9D01*
X964Y9D01*
X963Y9D01*
X962Y9D01*
X961Y9D01*
X960Y9D01*
X959Y9D01*
X958Y9D01*
X957Y9D01*
X956Y9D01*
X955Y9D01*
X954Y9D01*
X953Y9D01*
X952Y9D01*
X951Y9D01*
X950Y9D01*
X949Y9D01*
X948Y9D01*
X947Y9D01*
X946Y9D01*
X945Y9D01*
X944Y9D01*
X943Y9D01*
X942Y9D01*
X941Y9D01*
X940Y9D01*
X939Y9D01*
X938Y9D01*
X937Y9D01*
X936Y9D01*
X935Y9D01*
X934Y9D01*
X933Y9D01*
X932Y9D01*
X931Y9D01*
X930Y9D01*
X929Y9D01*
X928Y9D01*
X927Y9D01*
X926Y9D01*
X925Y9D01*
X924Y9D01*
X923Y9D01*
X922Y9D01*
X921Y9D01*
X920Y9D01*
X919Y9D01*
X918Y9D01*
X917Y9D01*
X916Y9D01*
X915Y9D01*
X914Y9D01*
X913Y9D01*
X912Y9D01*
X911Y9D01*
X910Y9D01*
X909Y9D01*
X908Y9D01*
X907Y9D01*
X906Y9D01*
X905Y9D01*
X904Y9D01*
X903Y9D01*
X902Y9D01*
X901Y9D01*
X900Y9D01*
X899Y9D01*
X898Y9D01*
X897Y9D01*
X896Y9D01*
X895Y9D01*
X894Y9D01*
X893Y9D01*
X892Y9D01*
X891Y9D01*
X890Y9D01*
X889Y9D01*
X888Y9D01*
X887Y9D01*
X886Y9D01*
X885Y9D01*
X884Y9D01*
X883Y9D01*
X882Y9D01*
X881Y9D01*
X880Y9D01*
X879Y9D01*
X878Y9D01*
X877Y9D01*
X876Y9D01*
X875Y9D01*
X874Y9D01*
X873Y9D01*
X872Y9D01*
X871Y9D01*
X870Y9D01*
X869Y9D01*
X868Y9D01*
X867Y9D01*
X866Y9D01*
X865Y9D01*
X864Y9D01*
X863Y9D01*
X862Y9D01*
X861Y9D01*
X860Y9D01*
X859Y9D01*
X858Y9D01*
X857Y9D01*
X856Y9D01*
X855Y9D01*
X854Y9D01*
X853Y9D01*
X852Y9D01*
X851Y9D01*
X850Y9D01*
X849Y9D01*
X848Y9D01*
X847Y9D01*
X846Y9D01*
X845Y9D01*
X844Y9D01*
X843Y9D01*
X842Y9D01*
X841Y9D01*
X840Y9D01*
X839Y9D01*
X838Y9D01*
X837Y9D01*
X836Y9D01*
X835Y9D01*
X834Y9D01*
X833Y9D01*
X832Y9D01*
X831Y9D01*
X830Y9D01*
X829Y9D01*
X828Y9D01*
X827Y9D01*
X826Y9D01*
X825Y9D01*
X824Y9D01*
X823Y9D01*
X822Y9D01*
X821Y9D01*
X820Y9D01*
X819Y9D01*
X818Y9D01*
X817Y9D01*
X816Y9D01*
X815Y9D01*
X814Y9D01*
X813Y9D01*
X812Y9D01*
X811Y9D01*
X810Y9D01*
X809Y9D01*
X808Y9D01*
X807Y9D01*
X806Y9D01*
X805Y9D01*
X804Y9D01*
X803Y9D01*
X802Y9D01*
X801Y9D01*
X800Y9D01*
X799Y9D01*
X798Y9D01*
X797Y9D01*
X796Y9D01*
X795Y9D01*
X794Y9D01*
X793Y9D01*
X792Y9D01*
X791Y9D01*
X790Y9D01*
X789Y9D01*
X788Y9D01*
X787Y9D01*
X786Y9D01*
X785Y9D01*
X784Y9D01*
X783Y9D01*
X782Y9D01*
X781Y9D01*
X780Y9D01*
X779Y9D01*
X778Y9D01*
X777Y9D01*
X776Y9D01*
X775Y9D01*
X774Y9D01*
X773Y9D01*
X772Y9D01*
X771Y9D01*
X770Y9D01*
X769Y9D01*
X768Y9D01*
X767Y9D01*
X766Y9D01*
X765Y9D01*
X764Y9D01*
X763Y9D01*
X762Y9D01*
X761Y9D01*
X760Y9D01*
X759Y9D01*
X758Y9D01*
X757Y9D01*
X756Y9D01*
X755Y9D01*
X754Y9D01*
X753Y9D01*
X752Y9D01*
X751Y9D01*
X750Y9D01*
X749Y9D01*
X748Y9D01*
X747Y9D01*
X746Y9D01*
X745Y9D01*
X744Y9D01*
X743Y9D01*
X742Y9D01*
X741Y9D01*
X740Y9D01*
X739Y9D01*
X738Y9D01*
X737Y9D01*
X736Y9D01*
X735Y9D01*
X734Y9D01*
X733Y9D01*
X732Y9D01*
X731Y9D01*
X730Y9D01*
X729Y9D01*
X728Y9D01*
X727Y9D01*
X726Y9D01*
X725Y9D01*
X724Y9D01*
X723Y9D01*
X722Y9D01*
X721Y9D01*
X720Y9D01*
X719Y9D01*
X718Y9D01*
X717Y9D01*
X716Y9D01*
X715Y9D01*
X714Y9D01*
X713Y9D01*
X712Y9D01*
X711Y9D01*
X710Y9D01*
X709Y9D01*
X708Y9D01*
X707Y9D01*
X706Y9D01*
X705Y9D01*
X704Y9D01*
X703Y9D01*
X702Y9D01*
X701Y9D01*
X700Y9D01*
X699Y9D01*
X698Y9D01*
X697Y9D01*
X696Y9D01*
X695Y9D01*
X694Y9D01*
X693Y9D01*
X692Y9D01*
X691Y9D01*
X690Y9D01*
X689Y9D01*
X688Y9D01*
X687Y9D01*
X686Y9D01*
X685Y9D01*
X684Y9D01*
X683Y9D01*
X682Y9D01*
X681Y9D01*
X680Y9D01*
X679Y9D01*
X678Y9D01*
X677Y9D01*
X676Y9D01*
X675Y9D01*
X674Y9D01*
X673Y9D01*
X672Y9D01*
X671Y9D01*
X670Y9D01*
X669Y9D01*
X668Y9D01*
X667Y9D01*
X666Y9D01*
X665Y9D01*
X664Y9D01*
X663Y9D01*
X662Y9D01*
X661Y9D01*
X660Y9D01*
X659Y9D01*
X658Y9D01*
X657Y9D01*
X656Y9D01*
X655Y9D01*
X654Y9D01*
X653Y9D01*
X652Y9D01*
X651Y9D01*
X650Y9D01*
X649Y9D01*
X648Y9D01*
X647Y9D01*
X646Y9D01*
X645Y9D01*
X644Y9D01*
X643Y9D01*
X642Y9D01*
X641Y9D01*
X640Y9D01*
X639Y9D01*
X638Y9D01*
X637Y9D01*
X636Y9D01*
X635Y9D01*
X634Y9D01*
X633Y9D01*
X632Y9D01*
X631Y9D01*
X630Y9D01*
X629Y9D01*
X628Y9D01*
X627Y9D01*
X626Y9D01*
X625Y9D01*
X624Y9D01*
X623Y9D01*
X622Y9D01*
X621Y9D01*
X620Y9D01*
X619Y9D01*
X618Y9D01*
X617Y9D01*
X616Y9D01*
X615Y9D01*
X614Y9D01*
X613Y9D01*
X612Y9D01*
X611Y9D01*
X610Y9D01*
X609Y9D01*
X608Y9D01*
X607Y9D01*
X606Y9D01*
X605Y9D01*
X604Y9D01*
X603Y9D01*
X602Y9D01*
X601Y9D01*
X600Y9D01*
X599Y9D01*
X598Y9D01*
X597Y9D01*
X596Y9D01*
X595Y9D01*
X594Y9D01*
X593Y9D01*
X592Y9D01*
X591Y9D01*
X590Y9D01*
X589Y9D01*
X588Y9D01*
X587Y9D01*
X586Y9D01*
X585Y9D01*
X584Y9D01*
X583Y9D01*
X582Y9D01*
X581Y9D01*
X580Y9D01*
X579Y9D01*
X578Y9D01*
X577Y9D01*
X576Y9D01*
X575Y9D01*
X574Y9D01*
X573Y9D01*
X572Y9D01*
X571Y9D01*
X570Y9D01*
X569Y9D01*
X568Y9D01*
X567Y9D01*
X566Y9D01*
X565Y9D01*
X564Y9D01*
X563Y9D01*
X562Y9D01*
X561Y9D01*
X560Y9D01*
X559Y9D01*
X558Y9D01*
X557Y9D01*
X556Y9D01*
X555Y9D01*
X554Y9D01*
X553Y9D01*
X552Y9D01*
X551Y9D01*
X550Y9D01*
X549Y9D01*
X548Y9D01*
X547Y9D01*
X546Y9D01*
X545Y9D01*
X544Y9D01*
X543Y9D01*
X542Y9D01*
X541Y9D01*
X540Y9D01*
X539Y9D01*
X538Y9D01*
X537Y9D01*
X536Y9D01*
X535Y9D01*
X534Y9D01*
X533Y9D01*
X532Y9D01*
X531Y9D01*
X530Y9D01*
X529Y9D01*
X528Y9D01*
X527Y9D01*
X526Y9D01*
X525Y9D01*
X524Y9D01*
X523Y9D01*
X522Y9D01*
X521Y9D01*
X520Y9D01*
X519Y9D01*
X518Y9D01*
X517Y9D01*
X516Y9D01*
X515Y9D01*
X514Y9D01*
X513Y9D01*
X512Y9D01*
X511Y9D01*
X510Y9D01*
X509Y9D01*
X508Y9D01*
X507Y9D01*
X506Y9D01*
X505Y9D01*
X504Y9D01*
X503Y9D01*
X502Y9D01*
X501Y9D01*
X500Y9D01*
X499Y9D01*
X498Y9D01*
X497Y9D01*
X496Y9D01*
X495Y9D01*
X494Y9D01*
X493Y9D01*
X492Y9D01*
X491Y9D01*
X490Y9D01*
X489Y9D01*
X488Y9D01*
X487Y9D01*
X486Y9D01*
X485Y9D01*
X484Y9D01*
X483Y9D01*
X482Y9D01*
X481Y9D01*
X480Y9D01*
X479Y9D01*
X478Y9D01*
X477Y9D01*
X476Y9D01*
X475Y9D01*
X474Y9D01*
X473Y9D01*
X472Y9D01*
X471Y9D01*
X470Y9D01*
X469Y9D01*
X468Y9D01*
X467Y9D01*
X466Y9D01*
X465Y9D01*
X464Y9D01*
X463Y9D01*
X462Y9D01*
X461Y9D01*
X460Y9D01*
X459Y9D01*
X458Y9D01*
X457Y9D01*
X456Y9D01*
X455Y9D01*
X454Y9D01*
X453Y9D01*
X452Y9D01*
X451Y9D01*
X450Y9D01*
X449Y9D01*
X448Y9D01*
X447Y9D01*
X446Y9D01*
X445Y9D01*
X444Y9D01*
X443Y9D01*
X442Y9D01*
X441Y9D01*
X440Y9D01*
X439Y9D01*
X438Y9D01*
X437Y9D01*
X436Y9D01*
X435Y9D01*
X434Y9D01*
X433Y9D01*
X432Y9D01*
X431Y9D01*
X430Y9D01*
X429Y9D01*
X428Y9D01*
X427Y9D01*
X426Y9D01*
X425Y9D01*
X424Y9D01*
X423Y9D01*
X422Y9D01*
X421Y9D01*
X420Y9D01*
X419Y9D01*
X418Y9D01*
X417Y9D01*
X416Y9D01*
X415Y9D01*
X414Y9D01*
X413Y9D01*
X412Y9D01*
X411Y9D01*
X410Y9D01*
X409Y9D01*
X408Y9D01*
X407Y9D01*
X406Y9D01*
X405Y9D01*
X404Y9D01*
X403Y9D01*
X402Y9D01*
X401Y9D01*
X400Y9D01*
X399Y9D01*
X398Y9D01*
X397Y9D01*
X396Y9D01*
X395Y9D01*
X394Y9D01*
X393Y9D01*
X392Y9D01*
X391Y9D01*
X390Y9D01*
X389Y9D01*
X388Y9D01*
X387Y9D01*
X386Y9D01*
X385Y9D01*
X384Y9D01*
X383Y9D01*
X382Y9D01*
X381Y9D01*
X380Y9D01*
X379Y9D01*
X378Y9D01*
X377Y9D01*
X376Y9D01*
X375Y9D01*
X374Y9D01*
X373Y9D01*
X372Y9D01*
X371Y9D01*
X370Y9D01*
X369Y9D01*
X368Y9D01*
X367Y9D01*
X366Y9D01*
X365Y9D01*
X364Y9D01*
X363Y9D01*
X362Y9D01*
X361Y9D01*
X360Y9D01*
X359Y9D01*
X358Y9D01*
X357Y9D01*
X356Y9D01*
X355Y9D01*
X354Y9D01*
X353Y9D01*
X352Y9D01*
X351Y9D01*
X350Y9D01*
X349Y9D01*
X348Y9D01*
X347Y9D01*
X346Y9D01*
X345Y9D01*
X344Y9D01*
X343Y9D01*
X342Y9D01*
X341Y9D01*
X340Y9D01*
X339Y9D01*
X338Y9D01*
X337Y9D01*
X336Y9D01*
X335Y9D01*
X334Y9D01*
X333Y9D01*
X332Y9D01*
X331Y9D01*
X330Y9D01*
X329Y9D01*
X328Y9D01*
X327Y9D01*
X326Y9D01*
X325Y9D01*
X324Y9D01*
X323Y9D01*
X322Y9D01*
X321Y9D01*
X320Y9D01*
X319Y9D01*
X318Y9D01*
X317Y9D01*
X316Y9D01*
X315Y9D01*
X314Y9D01*
X313Y9D01*
X312Y9D01*
X311Y9D01*
X310Y9D01*
X309Y9D01*
X308Y9D01*
X307Y9D01*
X306Y9D01*
X305Y9D01*
X304Y9D01*
X303Y9D01*
X302Y9D01*
X301Y9D01*
X300Y9D01*
X299Y9D01*
X298Y9D01*
X297Y9D01*
X296Y9D01*
X295Y9D01*
X294Y9D01*
X293Y9D01*
X292Y9D01*
X291Y9D01*
X290Y9D01*
X289Y9D01*
X288Y9D01*
X287Y9D01*
X286Y9D01*
X285Y9D01*
X284Y9D01*
X283Y9D01*
X282Y9D01*
X281Y9D01*
X280Y9D01*
X279Y9D01*
X278Y9D01*
X277Y9D01*
X276Y9D01*
X275Y9D01*
X274Y9D01*
X273Y9D01*
X272Y9D01*
X271Y9D01*
X270Y9D01*
X269Y9D01*
X268Y9D01*
X267Y9D01*
X266Y9D01*
X265Y9D01*
X264Y9D01*
X263Y9D01*
X262Y9D01*
X261Y9D01*
X260Y9D01*
X259Y9D01*
X258Y9D01*
X257Y9D01*
X256Y9D01*
X255Y9D01*
X254Y9D01*
X253Y9D01*
X252Y9D01*
X251Y9D01*
X250Y9D01*
X249Y9D01*
X248Y9D01*
X247Y9D01*
X246Y9D01*
X245Y9D01*
X244Y9D01*
X243Y9D01*
X242Y9D01*
X241Y9D01*
X240Y9D01*
X239Y9D01*
X238Y9D01*
X237Y9D01*
X236Y9D01*
X235Y9D01*
X234Y9D01*
X233Y9D01*
X232Y9D01*
X231Y9D01*
X230Y9D01*
X229Y9D01*
X228Y9D01*
X227Y9D01*
X226Y9D01*
X225Y9D01*
X224Y9D01*
X223Y9D01*
X222Y9D01*
X221Y9D01*
X220Y9D01*
X219Y9D01*
X218Y9D01*
X217Y9D01*
X216Y9D01*
X215Y9D01*
X214Y9D01*
X213Y9D01*
X212Y9D01*
X211Y9D01*
X210Y9D01*
X209Y9D01*
X208Y9D01*
X207Y9D01*
X206Y9D01*
X205Y9D01*
X204Y9D01*
X203Y9D01*
X202Y9D01*
X201Y9D01*
X200Y9D01*
X199Y9D01*
X198Y9D01*
X197Y9D01*
X196Y9D01*
X195Y9D01*
X194Y9D01*
X193Y9D01*
X192Y9D01*
X191Y9D01*
X190Y9D01*
X189Y9D01*
X188Y9D01*
X187Y9D01*
X186Y9D01*
X185Y9D01*
X184Y9D01*
X183Y9D01*
X182Y9D01*
X181Y9D01*
X180Y9D01*
X179Y9D01*
X178Y9D01*
X177Y9D01*
X176Y9D01*
X175Y9D01*
X174Y9D01*
X173Y9D01*
X172Y9D01*
X171Y9D01*
X170Y9D01*
X169Y9D01*
X168Y9D01*
X167Y9D01*
X166Y9D01*
X165Y9D01*
X164Y9D01*
X163Y9D01*
X162Y9D01*
X161Y9D01*
X160Y9D01*
X159Y9D01*
X158Y9D01*
X157Y9D01*
X156Y9D01*
X155Y9D01*
X154Y9D01*
X153Y9D01*
X152Y9D01*
X151Y9D01*
X150Y9D01*
X149Y9D01*
X148Y9D01*
X147Y9D01*
X146Y9D01*
X145Y9D01*
X144Y9D01*
X143Y9D01*
X142Y9D01*
X141Y9D01*
X140Y9D01*
X139Y9D01*
X138Y9D01*
X137Y9D01*
X136Y9D01*
X135Y9D01*
X134Y9D01*
X133Y9D01*
X132Y9D01*
X131Y9D01*
X130Y9D01*
X129Y9D01*
X128Y9D01*
X127Y9D01*
X126Y9D01*
X125Y9D01*
X124Y9D01*
X123Y9D01*
X122Y9D01*
X121Y9D01*
X120Y9D01*
X119Y9D01*
X118Y9D01*
X117Y9D01*
X116Y9D01*
X115Y9D01*
X114Y9D01*
X113Y9D01*
X112Y9D01*
X111Y9D01*
X110Y9D01*
X109Y9D01*
X108Y9D01*
X107Y9D01*
X106Y9D01*
X105Y9D01*
X104Y9D01*
X103Y9D01*
X102Y9D01*
X101Y9D01*
X100Y9D01*
X99Y9D01*
X98Y9D01*
X97Y9D01*
X96Y9D01*
X95Y9D01*
X94Y9D01*
X93Y9D01*
X92Y9D01*
X91Y10D01*
X90Y10D01*
X89Y10D01*
X88Y10D01*
X87Y10D01*
X86Y10D01*
X85Y10D01*
X84Y11D01*
X83Y11D01*
X82Y11D01*
X81Y11D01*
X80Y11D01*
X79Y12D01*
X78Y12D01*
X77Y12D01*
X76Y13D01*
X75Y13D01*
X74Y13D01*
X73Y13D01*
X72Y14D01*
X71Y14D01*
X70Y14D01*
X69Y15D01*
X68Y15D01*
X67Y16D01*
X66Y16D01*
X65Y16D01*
X64Y17D01*
X63Y17D01*
X62Y18D01*
X61Y18D01*
X60Y19D01*
X59Y19D01*
X58Y20D01*
X57Y20D01*
X56Y21D01*
X55Y21D01*
X54Y22D01*
X53Y23D01*
X52Y23D01*
X51Y24D01*
X50Y25D01*
X49Y25D01*
X48Y26D01*
X47Y26D01*
X46Y27D01*
X45Y28D01*
X44Y29D01*
X43Y30D01*
X42Y30D01*
X41Y31D01*
X40Y32D01*
X39Y33D01*
X38Y34D01*
X37Y35D01*
X36Y36D01*
X35Y37D01*
X34Y38D01*
X33Y39D01*
X32Y40D01*
X31Y41D01*
X30Y42D01*
X29Y43D01*
X28Y44D01*
X28Y45D01*
X27Y46D01*
X26Y47D01*
X25Y48D01*
X25Y49D01*
X24Y50D01*
X23Y51D01*
X23Y52D01*
X22Y53D01*
X21Y54D01*
X21Y55D01*
X20Y56D01*
X20Y57D01*
X19Y58D01*
X18Y59D01*
X18Y60D01*
X17Y61D01*
X17Y62D01*
X16Y63D01*
X16Y64D01*
X15Y65D01*
X15Y67D01*
X14Y68D01*
X14Y69D01*
X13Y70D01*
X13Y72D01*
X12Y73D01*
X12Y75D01*
X11Y76D01*
X11Y78D01*
X10Y79D01*
X10Y82D01*
X9Y83D01*
X9Y87D01*
X8Y88D01*
X8Y93D01*
X7Y94D01*
X7Y814D01*
X8Y815D01*
X8Y820D01*
X9Y821D01*
X9Y825D01*
X10Y826D01*
X10Y829D01*
X11Y830D01*
X11Y832D01*
X12Y833D01*
X12Y835D01*
X13Y836D01*
X13Y838D01*
X14Y839D01*
X14Y840D01*
X15Y841D01*
X15Y842D01*
X16Y843D01*
X16Y845D01*
X17Y846D01*
X18Y847D01*
X18Y848D01*
X19Y849D01*
X19Y850D01*
X20Y851D01*
X20Y852D01*
X21Y853D01*
X22Y854D01*
X22Y855D01*
X23Y856D01*
X24Y857D01*
X24Y858D01*
X25Y859D01*
X26Y860D01*
X26Y861D01*
X27Y862D01*
X28Y863D01*
X29Y864D01*
X30Y865D01*
X30Y866D01*
X31Y867D01*
X32Y868D01*
X33Y869D01*
X34Y870D01*
X35Y871D01*
X36Y872D01*
X37Y873D01*
X38Y874D01*
X39Y875D01*
X40Y875D01*
X41Y876D01*
X42Y877D01*
X43Y878D01*
X44Y879D01*
X45Y880D01*
X46Y880D01*
X47Y881D01*
X48Y882D01*
X49Y882D01*
X50Y883D01*
X51Y884D01*
X52Y884D01*
X53Y885D01*
X54Y886D01*
X55Y886D01*
X56Y887D01*
X57Y887D01*
X58Y888D01*
X59Y888D01*
X60Y889D01*
X61Y889D01*
X62Y890D01*
X63Y890D01*
X64Y891D01*
X65Y891D01*
X66Y891D01*
X67Y892D01*
X68Y892D01*
X69Y893D01*
X70Y893D01*
X71Y893D01*
X72Y894D01*
X73Y894D01*
X74Y894D01*
X75Y895D01*
X76Y895D01*
X77Y895D01*
X78Y896D01*
X79Y896D01*
X80Y896D01*
X81Y896D01*
X82Y897D01*
X83Y897D01*
X84Y897D01*
X85Y897D01*
X86Y897D01*
X87Y898D01*
X88Y898D01*
X89Y898D01*
X90Y898D01*
X91Y898D01*
X92Y898D01*
X93Y898D01*
X94Y899D01*
D02*
G04 End of contour*
M02*