G04 MADE WITH FRITZING*
G04 WWW.FRITZING.ORG*
G04 DOUBLE SIDED*
G04 HOLES PLATED*
G04 CONTOUR ON CENTER OF CONTOUR VECTOR*
%ASAXBY*%
%FSLAX23Y23*%
%MOIN*%
%OFA0B0*%
%SFA1.0B1.0*%
%ADD10C,0.010000*%
%ADD11R,0.001000X0.001000*%
%LNSILK1*%
G90*
G70*
G54D10*
X711Y542D02*
X711Y342D01*
D02*
X711Y342D02*
X645Y342D01*
D02*
X645Y342D02*
X645Y542D01*
D02*
X645Y542D02*
X711Y542D01*
D02*
X461Y542D02*
X461Y342D01*
D02*
X461Y342D02*
X395Y342D01*
D02*
X395Y342D02*
X395Y542D01*
D02*
X395Y542D02*
X461Y542D01*
D02*
X586Y542D02*
X586Y342D01*
D02*
X586Y342D02*
X520Y342D01*
D02*
X520Y342D02*
X520Y542D01*
D02*
X520Y542D02*
X586Y542D01*
D02*
X1361Y542D02*
X1361Y342D01*
D02*
X1361Y342D02*
X1295Y342D01*
D02*
X1295Y342D02*
X1295Y542D01*
D02*
X1295Y542D02*
X1361Y542D01*
G54D11*
X94Y906D02*
X1913Y906D01*
X87Y905D02*
X1920Y905D01*
X82Y904D02*
X1925Y904D01*
X78Y903D02*
X1929Y903D01*
X74Y902D02*
X1932Y902D01*
X71Y901D02*
X1935Y901D01*
X68Y900D02*
X1938Y900D01*
X66Y899D02*
X1941Y899D01*
X63Y898D02*
X1943Y898D01*
X61Y897D02*
X1945Y897D01*
X59Y896D02*
X1947Y896D01*
X57Y895D02*
X1949Y895D01*
X55Y894D02*
X1951Y894D01*
X53Y893D02*
X1953Y893D01*
X51Y892D02*
X92Y892D01*
X1914Y892D02*
X1955Y892D01*
X49Y891D02*
X86Y891D01*
X1921Y891D02*
X1956Y891D01*
X48Y890D02*
X81Y890D01*
X1925Y890D02*
X1958Y890D01*
X46Y889D02*
X77Y889D01*
X1929Y889D02*
X1959Y889D01*
X45Y888D02*
X74Y888D01*
X1932Y888D02*
X1961Y888D01*
X43Y887D02*
X71Y887D01*
X1935Y887D02*
X1962Y887D01*
X42Y886D02*
X69Y886D01*
X1937Y886D02*
X1964Y886D01*
X41Y885D02*
X67Y885D01*
X1940Y885D02*
X1965Y885D01*
X39Y884D02*
X64Y884D01*
X1942Y884D02*
X1966Y884D01*
X38Y883D02*
X62Y883D01*
X1944Y883D02*
X1967Y883D01*
X37Y882D02*
X60Y882D01*
X1946Y882D02*
X1969Y882D01*
X36Y881D02*
X59Y881D01*
X1947Y881D02*
X1970Y881D01*
X34Y880D02*
X57Y880D01*
X1949Y880D02*
X1971Y880D01*
X33Y879D02*
X55Y879D01*
X1951Y879D02*
X1972Y879D01*
X32Y878D02*
X54Y878D01*
X1952Y878D02*
X1973Y878D01*
X31Y877D02*
X52Y877D01*
X1954Y877D02*
X1974Y877D01*
X30Y876D02*
X51Y876D01*
X1955Y876D02*
X1975Y876D01*
X29Y875D02*
X49Y875D01*
X1956Y875D02*
X1976Y875D01*
X28Y874D02*
X48Y874D01*
X1958Y874D02*
X1977Y874D01*
X27Y873D02*
X47Y873D01*
X1959Y873D02*
X1978Y873D01*
X26Y872D02*
X46Y872D01*
X1960Y872D02*
X1979Y872D01*
X26Y871D02*
X44Y871D01*
X1961Y871D02*
X1980Y871D01*
X25Y870D02*
X43Y870D01*
X1962Y870D02*
X1981Y870D01*
X24Y869D02*
X42Y869D01*
X1963Y869D02*
X1981Y869D01*
X23Y868D02*
X41Y868D01*
X1964Y868D02*
X1982Y868D01*
X22Y867D02*
X40Y867D01*
X1966Y867D02*
X1983Y867D01*
X22Y866D02*
X39Y866D01*
X1967Y866D02*
X1984Y866D01*
X21Y865D02*
X38Y865D01*
X1968Y865D02*
X1985Y865D01*
X20Y864D02*
X37Y864D01*
X1968Y864D02*
X1985Y864D01*
X19Y863D02*
X36Y863D01*
X1969Y863D02*
X1986Y863D01*
X19Y862D02*
X35Y862D01*
X1970Y862D02*
X1987Y862D01*
X18Y861D02*
X34Y861D01*
X1971Y861D02*
X1987Y861D01*
X17Y860D02*
X33Y860D01*
X1972Y860D02*
X1988Y860D01*
X17Y859D02*
X33Y859D01*
X1973Y859D02*
X1989Y859D01*
X16Y858D02*
X32Y858D01*
X1974Y858D02*
X1989Y858D01*
X15Y857D02*
X31Y857D01*
X1974Y857D02*
X1990Y857D01*
X15Y856D02*
X30Y856D01*
X1975Y856D02*
X1990Y856D01*
X14Y855D02*
X29Y855D01*
X1976Y855D02*
X1991Y855D01*
X14Y854D02*
X29Y854D01*
X1976Y854D02*
X1992Y854D01*
X13Y853D02*
X28Y853D01*
X1977Y853D02*
X1992Y853D01*
X13Y852D02*
X27Y852D01*
X1978Y852D02*
X1993Y852D01*
X12Y851D02*
X27Y851D01*
X1979Y851D02*
X1993Y851D01*
X11Y850D02*
X26Y850D01*
X1979Y850D02*
X1994Y850D01*
X11Y849D02*
X25Y849D01*
X1980Y849D02*
X1994Y849D01*
X10Y848D02*
X25Y848D01*
X1980Y848D02*
X1995Y848D01*
X10Y847D02*
X24Y847D01*
X1981Y847D02*
X1995Y847D01*
X9Y846D02*
X24Y846D01*
X1981Y846D02*
X1996Y846D01*
X9Y845D02*
X23Y845D01*
X1982Y845D02*
X1996Y845D01*
X9Y844D02*
X23Y844D01*
X1983Y844D02*
X1997Y844D01*
X8Y843D02*
X22Y843D01*
X1983Y843D02*
X1997Y843D01*
X8Y842D02*
X22Y842D01*
X1983Y842D02*
X1997Y842D01*
X7Y841D02*
X21Y841D01*
X1984Y841D02*
X1998Y841D01*
X7Y840D02*
X21Y840D01*
X1984Y840D02*
X1998Y840D01*
X6Y839D02*
X20Y839D01*
X1985Y839D02*
X1999Y839D01*
X6Y838D02*
X20Y838D01*
X1985Y838D02*
X1999Y838D01*
X6Y837D02*
X19Y837D01*
X1986Y837D02*
X1999Y837D01*
X5Y836D02*
X19Y836D01*
X1986Y836D02*
X2000Y836D01*
X5Y835D02*
X19Y835D01*
X1987Y835D02*
X2000Y835D01*
X5Y834D02*
X18Y834D01*
X1987Y834D02*
X2000Y834D01*
X4Y833D02*
X18Y833D01*
X1987Y833D02*
X2001Y833D01*
X4Y832D02*
X18Y832D01*
X1988Y832D02*
X2001Y832D01*
X4Y831D02*
X17Y831D01*
X1988Y831D02*
X2001Y831D01*
X4Y830D02*
X17Y830D01*
X1988Y830D02*
X2001Y830D01*
X3Y829D02*
X17Y829D01*
X1989Y829D02*
X2002Y829D01*
X3Y828D02*
X16Y828D01*
X1989Y828D02*
X2002Y828D01*
X3Y827D02*
X16Y827D01*
X1989Y827D02*
X2002Y827D01*
X3Y826D02*
X16Y826D01*
X1989Y826D02*
X2002Y826D01*
X2Y825D02*
X15Y825D01*
X1990Y825D02*
X2003Y825D01*
X2Y824D02*
X15Y824D01*
X1990Y824D02*
X2003Y824D01*
X2Y823D02*
X15Y823D01*
X1990Y823D02*
X2003Y823D01*
X2Y822D02*
X15Y822D01*
X1990Y822D02*
X2003Y822D01*
X2Y821D02*
X15Y821D01*
X1990Y821D02*
X2003Y821D01*
X1Y820D02*
X14Y820D01*
X1991Y820D02*
X2004Y820D01*
X1Y819D02*
X14Y819D01*
X1991Y819D02*
X2004Y819D01*
X1Y818D02*
X14Y818D01*
X1991Y818D02*
X2004Y818D01*
X1Y817D02*
X14Y817D01*
X1991Y817D02*
X2004Y817D01*
X1Y816D02*
X14Y816D01*
X1991Y816D02*
X2004Y816D01*
X1Y815D02*
X14Y815D01*
X1991Y815D02*
X2004Y815D01*
X0Y814D02*
X13Y814D01*
X1992Y814D02*
X2004Y814D01*
X0Y813D02*
X13Y813D01*
X1992Y813D02*
X2005Y813D01*
X0Y812D02*
X13Y812D01*
X1992Y812D02*
X2005Y812D01*
X0Y811D02*
X13Y811D01*
X1992Y811D02*
X2005Y811D01*
X0Y810D02*
X13Y810D01*
X1992Y810D02*
X2005Y810D01*
X0Y809D02*
X13Y809D01*
X1992Y809D02*
X2005Y809D01*
X0Y808D02*
X13Y808D01*
X1992Y808D02*
X2005Y808D01*
X0Y807D02*
X13Y807D01*
X1992Y807D02*
X2005Y807D01*
X0Y806D02*
X13Y806D01*
X1992Y806D02*
X2005Y806D01*
X0Y805D02*
X13Y805D01*
X1992Y805D02*
X2005Y805D01*
X0Y804D02*
X13Y804D01*
X1992Y804D02*
X2005Y804D01*
X0Y803D02*
X13Y803D01*
X1992Y803D02*
X2005Y803D01*
X0Y802D02*
X13Y802D01*
X1992Y802D02*
X2005Y802D01*
X0Y801D02*
X13Y801D01*
X1992Y801D02*
X2005Y801D01*
X0Y800D02*
X13Y800D01*
X1992Y800D02*
X2005Y800D01*
X0Y799D02*
X13Y799D01*
X1992Y799D02*
X2005Y799D01*
X0Y798D02*
X13Y798D01*
X1992Y798D02*
X2005Y798D01*
X0Y797D02*
X13Y797D01*
X1992Y797D02*
X2005Y797D01*
X0Y796D02*
X13Y796D01*
X1992Y796D02*
X2005Y796D01*
X0Y795D02*
X13Y795D01*
X1992Y795D02*
X2005Y795D01*
X0Y794D02*
X13Y794D01*
X1992Y794D02*
X2005Y794D01*
X0Y793D02*
X13Y793D01*
X1992Y793D02*
X2005Y793D01*
X0Y792D02*
X13Y792D01*
X1992Y792D02*
X2005Y792D01*
X0Y791D02*
X13Y791D01*
X1992Y791D02*
X2005Y791D01*
X0Y790D02*
X13Y790D01*
X1992Y790D02*
X2005Y790D01*
X0Y789D02*
X13Y789D01*
X1992Y789D02*
X2005Y789D01*
X0Y788D02*
X13Y788D01*
X1992Y788D02*
X2005Y788D01*
X0Y787D02*
X13Y787D01*
X1992Y787D02*
X2005Y787D01*
X0Y786D02*
X13Y786D01*
X1992Y786D02*
X2005Y786D01*
X0Y785D02*
X13Y785D01*
X1992Y785D02*
X2005Y785D01*
X0Y784D02*
X13Y784D01*
X1992Y784D02*
X2005Y784D01*
X0Y783D02*
X13Y783D01*
X1992Y783D02*
X2005Y783D01*
X0Y782D02*
X13Y782D01*
X1992Y782D02*
X2005Y782D01*
X0Y781D02*
X13Y781D01*
X1992Y781D02*
X2005Y781D01*
X0Y780D02*
X13Y780D01*
X1992Y780D02*
X2005Y780D01*
X0Y779D02*
X13Y779D01*
X1992Y779D02*
X2005Y779D01*
X0Y778D02*
X13Y778D01*
X1992Y778D02*
X2005Y778D01*
X0Y777D02*
X13Y777D01*
X1992Y777D02*
X2005Y777D01*
X0Y776D02*
X13Y776D01*
X1992Y776D02*
X2005Y776D01*
X0Y775D02*
X13Y775D01*
X1992Y775D02*
X2005Y775D01*
X0Y774D02*
X13Y774D01*
X1992Y774D02*
X2005Y774D01*
X0Y773D02*
X13Y773D01*
X1992Y773D02*
X2005Y773D01*
X0Y772D02*
X13Y772D01*
X1992Y772D02*
X2005Y772D01*
X0Y771D02*
X13Y771D01*
X1992Y771D02*
X2005Y771D01*
X0Y770D02*
X13Y770D01*
X1992Y770D02*
X2005Y770D01*
X0Y769D02*
X13Y769D01*
X1992Y769D02*
X2005Y769D01*
X0Y768D02*
X13Y768D01*
X1992Y768D02*
X2005Y768D01*
X0Y767D02*
X13Y767D01*
X1992Y767D02*
X2005Y767D01*
X0Y766D02*
X13Y766D01*
X1992Y766D02*
X2005Y766D01*
X0Y765D02*
X13Y765D01*
X1992Y765D02*
X2005Y765D01*
X0Y764D02*
X13Y764D01*
X1992Y764D02*
X2005Y764D01*
X0Y763D02*
X13Y763D01*
X1992Y763D02*
X2005Y763D01*
X0Y762D02*
X13Y762D01*
X1992Y762D02*
X2005Y762D01*
X0Y761D02*
X13Y761D01*
X1992Y761D02*
X2005Y761D01*
X0Y760D02*
X13Y760D01*
X1992Y760D02*
X2005Y760D01*
X0Y759D02*
X13Y759D01*
X1992Y759D02*
X2005Y759D01*
X0Y758D02*
X13Y758D01*
X1992Y758D02*
X2005Y758D01*
X0Y757D02*
X13Y757D01*
X1992Y757D02*
X2005Y757D01*
X0Y756D02*
X13Y756D01*
X1992Y756D02*
X2005Y756D01*
X0Y755D02*
X13Y755D01*
X1992Y755D02*
X2005Y755D01*
X0Y754D02*
X13Y754D01*
X1992Y754D02*
X2005Y754D01*
X0Y753D02*
X13Y753D01*
X1992Y753D02*
X2005Y753D01*
X0Y752D02*
X13Y752D01*
X1992Y752D02*
X2005Y752D01*
X0Y751D02*
X13Y751D01*
X1992Y751D02*
X2005Y751D01*
X0Y750D02*
X13Y750D01*
X1992Y750D02*
X2005Y750D01*
X0Y749D02*
X13Y749D01*
X1992Y749D02*
X2005Y749D01*
X0Y748D02*
X13Y748D01*
X1992Y748D02*
X2005Y748D01*
X0Y747D02*
X13Y747D01*
X1992Y747D02*
X2005Y747D01*
X0Y746D02*
X13Y746D01*
X1992Y746D02*
X2005Y746D01*
X0Y745D02*
X13Y745D01*
X1992Y745D02*
X2005Y745D01*
X0Y744D02*
X13Y744D01*
X1992Y744D02*
X2005Y744D01*
X0Y743D02*
X13Y743D01*
X1992Y743D02*
X2005Y743D01*
X0Y742D02*
X13Y742D01*
X1992Y742D02*
X2005Y742D01*
X0Y741D02*
X13Y741D01*
X1992Y741D02*
X2005Y741D01*
X0Y740D02*
X13Y740D01*
X1992Y740D02*
X2005Y740D01*
X0Y739D02*
X13Y739D01*
X1992Y739D02*
X2005Y739D01*
X0Y738D02*
X13Y738D01*
X1992Y738D02*
X2005Y738D01*
X0Y737D02*
X13Y737D01*
X1992Y737D02*
X2005Y737D01*
X0Y736D02*
X13Y736D01*
X1992Y736D02*
X2005Y736D01*
X0Y735D02*
X13Y735D01*
X1992Y735D02*
X2005Y735D01*
X0Y734D02*
X13Y734D01*
X1992Y734D02*
X2005Y734D01*
X0Y733D02*
X13Y733D01*
X1992Y733D02*
X2005Y733D01*
X0Y732D02*
X13Y732D01*
X1992Y732D02*
X2005Y732D01*
X0Y731D02*
X13Y731D01*
X1992Y731D02*
X2005Y731D01*
X0Y730D02*
X13Y730D01*
X1992Y730D02*
X2005Y730D01*
X0Y729D02*
X13Y729D01*
X1992Y729D02*
X2005Y729D01*
X0Y728D02*
X13Y728D01*
X1992Y728D02*
X2005Y728D01*
X0Y727D02*
X13Y727D01*
X1992Y727D02*
X2005Y727D01*
X0Y726D02*
X13Y726D01*
X1992Y726D02*
X2005Y726D01*
X0Y725D02*
X13Y725D01*
X1992Y725D02*
X2005Y725D01*
X0Y724D02*
X13Y724D01*
X1992Y724D02*
X2005Y724D01*
X0Y723D02*
X13Y723D01*
X1992Y723D02*
X2005Y723D01*
X0Y722D02*
X13Y722D01*
X1992Y722D02*
X2005Y722D01*
X0Y721D02*
X13Y721D01*
X1992Y721D02*
X2005Y721D01*
X0Y720D02*
X13Y720D01*
X1992Y720D02*
X2005Y720D01*
X0Y719D02*
X13Y719D01*
X1992Y719D02*
X2005Y719D01*
X0Y718D02*
X13Y718D01*
X1992Y718D02*
X2005Y718D01*
X0Y717D02*
X13Y717D01*
X1992Y717D02*
X2005Y717D01*
X0Y716D02*
X13Y716D01*
X1992Y716D02*
X2005Y716D01*
X0Y715D02*
X13Y715D01*
X1992Y715D02*
X2005Y715D01*
X0Y714D02*
X13Y714D01*
X1992Y714D02*
X2005Y714D01*
X0Y713D02*
X13Y713D01*
X1992Y713D02*
X2005Y713D01*
X0Y712D02*
X13Y712D01*
X1992Y712D02*
X2005Y712D01*
X0Y711D02*
X13Y711D01*
X1992Y711D02*
X2005Y711D01*
X0Y710D02*
X13Y710D01*
X1992Y710D02*
X2005Y710D01*
X0Y709D02*
X13Y709D01*
X791Y709D02*
X854Y709D01*
X1151Y709D02*
X1215Y709D01*
X1992Y709D02*
X2005Y709D01*
X0Y708D02*
X13Y708D01*
X785Y708D02*
X854Y708D01*
X1151Y708D02*
X1221Y708D01*
X1992Y708D02*
X2005Y708D01*
X0Y707D02*
X13Y707D01*
X781Y707D02*
X854Y707D01*
X1151Y707D02*
X1225Y707D01*
X1992Y707D02*
X2005Y707D01*
X0Y706D02*
X13Y706D01*
X778Y706D02*
X854Y706D01*
X1151Y706D02*
X1228Y706D01*
X1992Y706D02*
X2005Y706D01*
X0Y705D02*
X13Y705D01*
X776Y705D02*
X854Y705D01*
X1151Y705D02*
X1230Y705D01*
X1992Y705D02*
X2005Y705D01*
X0Y704D02*
X13Y704D01*
X774Y704D02*
X854Y704D01*
X1151Y704D02*
X1232Y704D01*
X1992Y704D02*
X2005Y704D01*
X0Y703D02*
X13Y703D01*
X772Y703D02*
X854Y703D01*
X1151Y703D02*
X1234Y703D01*
X1992Y703D02*
X2005Y703D01*
X0Y702D02*
X13Y702D01*
X770Y702D02*
X854Y702D01*
X1151Y702D02*
X1236Y702D01*
X1992Y702D02*
X2005Y702D01*
X0Y701D02*
X13Y701D01*
X768Y701D02*
X854Y701D01*
X1151Y701D02*
X1237Y701D01*
X1992Y701D02*
X2005Y701D01*
X0Y700D02*
X13Y700D01*
X767Y700D02*
X854Y700D01*
X1151Y700D02*
X1239Y700D01*
X1992Y700D02*
X2005Y700D01*
X0Y699D02*
X13Y699D01*
X765Y699D02*
X788Y699D01*
X1218Y699D02*
X1240Y699D01*
X1992Y699D02*
X2005Y699D01*
X0Y698D02*
X13Y698D01*
X764Y698D02*
X783Y698D01*
X1223Y698D02*
X1242Y698D01*
X1992Y698D02*
X2005Y698D01*
X0Y697D02*
X13Y697D01*
X763Y697D02*
X780Y697D01*
X1226Y697D02*
X1243Y697D01*
X1992Y697D02*
X2005Y697D01*
X0Y696D02*
X13Y696D01*
X762Y696D02*
X778Y696D01*
X1228Y696D02*
X1244Y696D01*
X1992Y696D02*
X2005Y696D01*
X0Y695D02*
X13Y695D01*
X761Y695D02*
X776Y695D01*
X1230Y695D02*
X1245Y695D01*
X1992Y695D02*
X2005Y695D01*
X0Y694D02*
X13Y694D01*
X760Y694D02*
X774Y694D01*
X1232Y694D02*
X1246Y694D01*
X1992Y694D02*
X2005Y694D01*
X0Y693D02*
X13Y693D01*
X759Y693D02*
X772Y693D01*
X1233Y693D02*
X1247Y693D01*
X1992Y693D02*
X2005Y693D01*
X0Y692D02*
X13Y692D01*
X758Y692D02*
X771Y692D01*
X1235Y692D02*
X1248Y692D01*
X1992Y692D02*
X2005Y692D01*
X0Y691D02*
X13Y691D01*
X757Y691D02*
X770Y691D01*
X1236Y691D02*
X1248Y691D01*
X1992Y691D02*
X2005Y691D01*
X0Y690D02*
X13Y690D01*
X757Y690D02*
X769Y690D01*
X1237Y690D02*
X1249Y690D01*
X1666Y690D02*
X1675Y690D01*
X1992Y690D02*
X2005Y690D01*
X0Y689D02*
X13Y689D01*
X756Y689D02*
X768Y689D01*
X1238Y689D02*
X1250Y689D01*
X1649Y689D02*
X1693Y689D01*
X1992Y689D02*
X2005Y689D01*
X0Y688D02*
X13Y688D01*
X755Y688D02*
X766Y688D01*
X1239Y688D02*
X1251Y688D01*
X1640Y688D02*
X1701Y688D01*
X1992Y688D02*
X2005Y688D01*
X0Y687D02*
X13Y687D01*
X755Y687D02*
X766Y687D01*
X1240Y687D02*
X1251Y687D01*
X1633Y687D02*
X1708Y687D01*
X1992Y687D02*
X2005Y687D01*
X0Y686D02*
X13Y686D01*
X754Y686D02*
X765Y686D01*
X1241Y686D02*
X1252Y686D01*
X1628Y686D02*
X1714Y686D01*
X1992Y686D02*
X2005Y686D01*
X0Y685D02*
X13Y685D01*
X753Y685D02*
X764Y685D01*
X1242Y685D02*
X1252Y685D01*
X1623Y685D02*
X1719Y685D01*
X1992Y685D02*
X2005Y685D01*
X0Y684D02*
X13Y684D01*
X753Y684D02*
X763Y684D01*
X1243Y684D02*
X1253Y684D01*
X1618Y684D02*
X1723Y684D01*
X1992Y684D02*
X2005Y684D01*
X0Y683D02*
X13Y683D01*
X752Y683D02*
X762Y683D01*
X1243Y683D02*
X1254Y683D01*
X1614Y683D02*
X1664Y683D01*
X1677Y683D02*
X1728Y683D01*
X1992Y683D02*
X2005Y683D01*
X0Y682D02*
X13Y682D01*
X752Y682D02*
X762Y682D01*
X1244Y682D02*
X1254Y682D01*
X1610Y682D02*
X1647Y682D01*
X1694Y682D02*
X1731Y682D01*
X1992Y682D02*
X2005Y682D01*
X0Y681D02*
X13Y681D01*
X751Y681D02*
X761Y681D01*
X1245Y681D02*
X1255Y681D01*
X1607Y681D02*
X1639Y681D01*
X1702Y681D02*
X1735Y681D01*
X1992Y681D02*
X2005Y681D01*
X0Y680D02*
X13Y680D01*
X751Y680D02*
X760Y680D01*
X1245Y680D02*
X1255Y680D01*
X1603Y680D02*
X1632Y680D01*
X1709Y680D02*
X1738Y680D01*
X1992Y680D02*
X2005Y680D01*
X0Y679D02*
X13Y679D01*
X750Y679D02*
X760Y679D01*
X1246Y679D02*
X1255Y679D01*
X1600Y679D02*
X1627Y679D01*
X1715Y679D02*
X1742Y679D01*
X1992Y679D02*
X2005Y679D01*
X0Y678D02*
X13Y678D01*
X750Y678D02*
X759Y678D01*
X1246Y678D02*
X1256Y678D01*
X1597Y678D02*
X1622Y678D01*
X1720Y678D02*
X1745Y678D01*
X1992Y678D02*
X2005Y678D01*
X0Y677D02*
X13Y677D01*
X750Y677D02*
X759Y677D01*
X1247Y677D02*
X1256Y677D01*
X1594Y677D02*
X1618Y677D01*
X1724Y677D02*
X1747Y677D01*
X1992Y677D02*
X2005Y677D01*
X0Y676D02*
X13Y676D01*
X749Y676D02*
X758Y676D01*
X1247Y676D02*
X1257Y676D01*
X1591Y676D02*
X1613Y676D01*
X1728Y676D02*
X1750Y676D01*
X1992Y676D02*
X2005Y676D01*
X0Y675D02*
X13Y675D01*
X749Y675D02*
X758Y675D01*
X1248Y675D02*
X1257Y675D01*
X1589Y675D02*
X1610Y675D01*
X1732Y675D02*
X1753Y675D01*
X1992Y675D02*
X2005Y675D01*
X0Y674D02*
X13Y674D01*
X749Y674D02*
X758Y674D01*
X1248Y674D02*
X1257Y674D01*
X1586Y674D02*
X1606Y674D01*
X1736Y674D02*
X1756Y674D01*
X1992Y674D02*
X2005Y674D01*
X0Y673D02*
X13Y673D01*
X748Y673D02*
X757Y673D01*
X1249Y673D02*
X1257Y673D01*
X1584Y673D02*
X1603Y673D01*
X1739Y673D02*
X1758Y673D01*
X1992Y673D02*
X2005Y673D01*
X0Y672D02*
X13Y672D01*
X748Y672D02*
X757Y672D01*
X1249Y672D02*
X1258Y672D01*
X1581Y672D02*
X1599Y672D01*
X1742Y672D02*
X1761Y672D01*
X1992Y672D02*
X2005Y672D01*
X0Y671D02*
X13Y671D01*
X748Y671D02*
X757Y671D01*
X1249Y671D02*
X1258Y671D01*
X1579Y671D02*
X1597Y671D01*
X1745Y671D02*
X1763Y671D01*
X1992Y671D02*
X2005Y671D01*
X0Y670D02*
X13Y670D01*
X748Y670D02*
X756Y670D01*
X1249Y670D02*
X1258Y670D01*
X1576Y670D02*
X1594Y670D01*
X1748Y670D02*
X1765Y670D01*
X1992Y670D02*
X2005Y670D01*
X0Y669D02*
X13Y669D01*
X748Y669D02*
X756Y669D01*
X1250Y669D02*
X1258Y669D01*
X1574Y669D02*
X1591Y669D01*
X1751Y669D02*
X1767Y669D01*
X1992Y669D02*
X2005Y669D01*
X0Y668D02*
X13Y668D01*
X747Y668D02*
X756Y668D01*
X1250Y668D02*
X1259Y668D01*
X1572Y668D02*
X1588Y668D01*
X1753Y668D02*
X1770Y668D01*
X1992Y668D02*
X2005Y668D01*
X0Y667D02*
X13Y667D01*
X747Y667D02*
X756Y667D01*
X1250Y667D02*
X1259Y667D01*
X1570Y667D02*
X1586Y667D01*
X1756Y667D02*
X1772Y667D01*
X1992Y667D02*
X2005Y667D01*
X0Y666D02*
X13Y666D01*
X747Y666D02*
X756Y666D01*
X1250Y666D02*
X1259Y666D01*
X1568Y666D02*
X1583Y666D01*
X1759Y666D02*
X1774Y666D01*
X1992Y666D02*
X2005Y666D01*
X0Y665D02*
X13Y665D01*
X747Y665D02*
X756Y665D01*
X1250Y665D02*
X1259Y665D01*
X1566Y665D02*
X1581Y665D01*
X1761Y665D02*
X1776Y665D01*
X1992Y665D02*
X2005Y665D01*
X0Y664D02*
X13Y664D01*
X747Y664D02*
X756Y664D01*
X1250Y664D02*
X1259Y664D01*
X1564Y664D02*
X1578Y664D01*
X1763Y664D02*
X1778Y664D01*
X1992Y664D02*
X2005Y664D01*
X0Y663D02*
X13Y663D01*
X747Y663D02*
X755Y663D01*
X1250Y663D02*
X1259Y663D01*
X1562Y663D02*
X1576Y663D01*
X1765Y663D02*
X1780Y663D01*
X1992Y663D02*
X2005Y663D01*
X0Y662D02*
X13Y662D01*
X747Y662D02*
X755Y662D01*
X1250Y662D02*
X1259Y662D01*
X1560Y662D02*
X1574Y662D01*
X1768Y662D02*
X1782Y662D01*
X1992Y662D02*
X2005Y662D01*
X0Y661D02*
X13Y661D01*
X747Y661D02*
X755Y661D01*
X1251Y661D02*
X1259Y661D01*
X1558Y661D02*
X1572Y661D01*
X1770Y661D02*
X1783Y661D01*
X1992Y661D02*
X2005Y661D01*
X0Y660D02*
X13Y660D01*
X747Y660D02*
X755Y660D01*
X1251Y660D02*
X1259Y660D01*
X1556Y660D02*
X1570Y660D01*
X1772Y660D02*
X1785Y660D01*
X1992Y660D02*
X2005Y660D01*
X0Y659D02*
X13Y659D01*
X747Y659D02*
X755Y659D01*
X1251Y659D02*
X1259Y659D01*
X1555Y659D02*
X1568Y659D01*
X1774Y659D02*
X1787Y659D01*
X1992Y659D02*
X2005Y659D01*
X0Y658D02*
X13Y658D01*
X747Y658D02*
X755Y658D01*
X1251Y658D02*
X1259Y658D01*
X1553Y658D02*
X1566Y658D01*
X1776Y658D02*
X1789Y658D01*
X1992Y658D02*
X2005Y658D01*
X0Y657D02*
X13Y657D01*
X747Y657D02*
X755Y657D01*
X1251Y657D02*
X1259Y657D01*
X1551Y657D02*
X1564Y657D01*
X1778Y657D02*
X1790Y657D01*
X1992Y657D02*
X2005Y657D01*
X0Y656D02*
X13Y656D01*
X747Y656D02*
X755Y656D01*
X1251Y656D02*
X1259Y656D01*
X1550Y656D02*
X1562Y656D01*
X1780Y656D02*
X1792Y656D01*
X1992Y656D02*
X2005Y656D01*
X0Y655D02*
X13Y655D01*
X747Y655D02*
X755Y655D01*
X1251Y655D02*
X1259Y655D01*
X1548Y655D02*
X1560Y655D01*
X1782Y655D02*
X1794Y655D01*
X1992Y655D02*
X2005Y655D01*
X0Y654D02*
X13Y654D01*
X747Y654D02*
X755Y654D01*
X1251Y654D02*
X1259Y654D01*
X1546Y654D02*
X1558Y654D01*
X1783Y654D02*
X1795Y654D01*
X1992Y654D02*
X2005Y654D01*
X0Y653D02*
X13Y653D01*
X747Y653D02*
X755Y653D01*
X1251Y653D02*
X1259Y653D01*
X1545Y653D02*
X1557Y653D01*
X1785Y653D02*
X1797Y653D01*
X1992Y653D02*
X2005Y653D01*
X0Y652D02*
X13Y652D01*
X747Y652D02*
X755Y652D01*
X1251Y652D02*
X1259Y652D01*
X1543Y652D02*
X1555Y652D01*
X1787Y652D02*
X1798Y652D01*
X1992Y652D02*
X2005Y652D01*
X0Y651D02*
X13Y651D01*
X747Y651D02*
X755Y651D01*
X1251Y651D02*
X1259Y651D01*
X1542Y651D02*
X1553Y651D01*
X1789Y651D02*
X1800Y651D01*
X1992Y651D02*
X2005Y651D01*
X0Y650D02*
X13Y650D01*
X747Y650D02*
X755Y650D01*
X1251Y650D02*
X1259Y650D01*
X1540Y650D02*
X1551Y650D01*
X1790Y650D02*
X1801Y650D01*
X1992Y650D02*
X2005Y650D01*
X0Y649D02*
X13Y649D01*
X747Y649D02*
X755Y649D01*
X1251Y649D02*
X1259Y649D01*
X1539Y649D02*
X1550Y649D01*
X1792Y649D02*
X1803Y649D01*
X1992Y649D02*
X2005Y649D01*
X0Y648D02*
X13Y648D01*
X747Y648D02*
X755Y648D01*
X1251Y648D02*
X1259Y648D01*
X1537Y648D02*
X1548Y648D01*
X1793Y648D02*
X1804Y648D01*
X1992Y648D02*
X2005Y648D01*
X0Y647D02*
X13Y647D01*
X747Y647D02*
X755Y647D01*
X1251Y647D02*
X1259Y647D01*
X1536Y647D02*
X1547Y647D01*
X1795Y647D02*
X1806Y647D01*
X1992Y647D02*
X2005Y647D01*
X0Y646D02*
X13Y646D01*
X747Y646D02*
X755Y646D01*
X1251Y646D02*
X1259Y646D01*
X1534Y646D02*
X1545Y646D01*
X1797Y646D02*
X1807Y646D01*
X1992Y646D02*
X2005Y646D01*
X0Y645D02*
X13Y645D01*
X747Y645D02*
X755Y645D01*
X1251Y645D02*
X1259Y645D01*
X1533Y645D02*
X1543Y645D01*
X1798Y645D02*
X1809Y645D01*
X1992Y645D02*
X2005Y645D01*
X0Y644D02*
X13Y644D01*
X747Y644D02*
X755Y644D01*
X1251Y644D02*
X1259Y644D01*
X1532Y644D02*
X1542Y644D01*
X1800Y644D02*
X1810Y644D01*
X1992Y644D02*
X2005Y644D01*
X0Y643D02*
X13Y643D01*
X747Y643D02*
X755Y643D01*
X1251Y643D02*
X1259Y643D01*
X1530Y643D02*
X1541Y643D01*
X1801Y643D02*
X1811Y643D01*
X1992Y643D02*
X2005Y643D01*
X0Y642D02*
X13Y642D01*
X747Y642D02*
X755Y642D01*
X1251Y642D02*
X1259Y642D01*
X1529Y642D02*
X1539Y642D01*
X1802Y642D02*
X1813Y642D01*
X1992Y642D02*
X2005Y642D01*
X0Y641D02*
X13Y641D01*
X747Y641D02*
X755Y641D01*
X1251Y641D02*
X1259Y641D01*
X1528Y641D02*
X1538Y641D01*
X1804Y641D02*
X1814Y641D01*
X1992Y641D02*
X2005Y641D01*
X0Y640D02*
X13Y640D01*
X747Y640D02*
X755Y640D01*
X1251Y640D02*
X1259Y640D01*
X1526Y640D02*
X1536Y640D01*
X1805Y640D02*
X1815Y640D01*
X1992Y640D02*
X2005Y640D01*
X0Y639D02*
X13Y639D01*
X747Y639D02*
X755Y639D01*
X1251Y639D02*
X1259Y639D01*
X1525Y639D02*
X1535Y639D01*
X1807Y639D02*
X1816Y639D01*
X1992Y639D02*
X2005Y639D01*
X0Y638D02*
X13Y638D01*
X747Y638D02*
X755Y638D01*
X1251Y638D02*
X1259Y638D01*
X1524Y638D02*
X1533Y638D01*
X1808Y638D02*
X1818Y638D01*
X1992Y638D02*
X2005Y638D01*
X0Y637D02*
X13Y637D01*
X747Y637D02*
X755Y637D01*
X1251Y637D02*
X1259Y637D01*
X1523Y637D02*
X1532Y637D01*
X1809Y637D02*
X1819Y637D01*
X1992Y637D02*
X2005Y637D01*
X0Y636D02*
X13Y636D01*
X747Y636D02*
X755Y636D01*
X1251Y636D02*
X1259Y636D01*
X1521Y636D02*
X1531Y636D01*
X1811Y636D02*
X1820Y636D01*
X1992Y636D02*
X2005Y636D01*
X0Y635D02*
X13Y635D01*
X747Y635D02*
X755Y635D01*
X1251Y635D02*
X1259Y635D01*
X1520Y635D02*
X1530Y635D01*
X1812Y635D02*
X1821Y635D01*
X1992Y635D02*
X2005Y635D01*
X0Y634D02*
X13Y634D01*
X747Y634D02*
X755Y634D01*
X1251Y634D02*
X1259Y634D01*
X1519Y634D02*
X1528Y634D01*
X1813Y634D02*
X1823Y634D01*
X1992Y634D02*
X2005Y634D01*
X0Y633D02*
X13Y633D01*
X747Y633D02*
X755Y633D01*
X1251Y633D02*
X1259Y633D01*
X1518Y633D02*
X1527Y633D01*
X1815Y633D02*
X1824Y633D01*
X1992Y633D02*
X2005Y633D01*
X0Y632D02*
X13Y632D01*
X747Y632D02*
X755Y632D01*
X1251Y632D02*
X1259Y632D01*
X1517Y632D02*
X1526Y632D01*
X1816Y632D02*
X1825Y632D01*
X1992Y632D02*
X2005Y632D01*
X0Y631D02*
X13Y631D01*
X747Y631D02*
X755Y631D01*
X1251Y631D02*
X1259Y631D01*
X1516Y631D02*
X1525Y631D01*
X1817Y631D02*
X1826Y631D01*
X1992Y631D02*
X2005Y631D01*
X0Y630D02*
X13Y630D01*
X747Y630D02*
X755Y630D01*
X1251Y630D02*
X1259Y630D01*
X1514Y630D02*
X1523Y630D01*
X1818Y630D02*
X1827Y630D01*
X1992Y630D02*
X2005Y630D01*
X0Y629D02*
X13Y629D01*
X747Y629D02*
X755Y629D01*
X1251Y629D02*
X1259Y629D01*
X1513Y629D02*
X1522Y629D01*
X1819Y629D02*
X1828Y629D01*
X1992Y629D02*
X2005Y629D01*
X0Y628D02*
X13Y628D01*
X747Y628D02*
X755Y628D01*
X1251Y628D02*
X1259Y628D01*
X1512Y628D02*
X1521Y628D01*
X1821Y628D02*
X1829Y628D01*
X1992Y628D02*
X2005Y628D01*
X0Y627D02*
X13Y627D01*
X747Y627D02*
X755Y627D01*
X1251Y627D02*
X1259Y627D01*
X1511Y627D02*
X1520Y627D01*
X1822Y627D02*
X1830Y627D01*
X1992Y627D02*
X2005Y627D01*
X0Y626D02*
X13Y626D01*
X747Y626D02*
X755Y626D01*
X1251Y626D02*
X1259Y626D01*
X1510Y626D02*
X1519Y626D01*
X1823Y626D02*
X1832Y626D01*
X1992Y626D02*
X2005Y626D01*
X0Y625D02*
X13Y625D01*
X747Y625D02*
X755Y625D01*
X1251Y625D02*
X1259Y625D01*
X1509Y625D02*
X1518Y625D01*
X1824Y625D02*
X1833Y625D01*
X1992Y625D02*
X2005Y625D01*
X0Y624D02*
X13Y624D01*
X747Y624D02*
X755Y624D01*
X1251Y624D02*
X1259Y624D01*
X1508Y624D02*
X1516Y624D01*
X1825Y624D02*
X1834Y624D01*
X1992Y624D02*
X2005Y624D01*
X0Y623D02*
X13Y623D01*
X747Y623D02*
X755Y623D01*
X1251Y623D02*
X1259Y623D01*
X1507Y623D02*
X1515Y623D01*
X1826Y623D02*
X1835Y623D01*
X1992Y623D02*
X2005Y623D01*
X0Y622D02*
X13Y622D01*
X747Y622D02*
X755Y622D01*
X1251Y622D02*
X1259Y622D01*
X1506Y622D02*
X1514Y622D01*
X1827Y622D02*
X1836Y622D01*
X1992Y622D02*
X2005Y622D01*
X0Y621D02*
X13Y621D01*
X747Y621D02*
X755Y621D01*
X1251Y621D02*
X1259Y621D01*
X1505Y621D02*
X1513Y621D01*
X1828Y621D02*
X1837Y621D01*
X1992Y621D02*
X2005Y621D01*
X0Y620D02*
X13Y620D01*
X747Y620D02*
X755Y620D01*
X1251Y620D02*
X1259Y620D01*
X1504Y620D02*
X1512Y620D01*
X1829Y620D02*
X1838Y620D01*
X1992Y620D02*
X2005Y620D01*
X0Y619D02*
X13Y619D01*
X747Y619D02*
X755Y619D01*
X1251Y619D02*
X1259Y619D01*
X1503Y619D02*
X1511Y619D01*
X1830Y619D02*
X1839Y619D01*
X1992Y619D02*
X2005Y619D01*
X0Y618D02*
X13Y618D01*
X747Y618D02*
X755Y618D01*
X1251Y618D02*
X1259Y618D01*
X1502Y618D02*
X1510Y618D01*
X1832Y618D02*
X1840Y618D01*
X1992Y618D02*
X2005Y618D01*
X0Y617D02*
X13Y617D01*
X747Y617D02*
X755Y617D01*
X1251Y617D02*
X1259Y617D01*
X1501Y617D02*
X1509Y617D01*
X1833Y617D02*
X1841Y617D01*
X1992Y617D02*
X2005Y617D01*
X0Y616D02*
X13Y616D01*
X747Y616D02*
X755Y616D01*
X1251Y616D02*
X1259Y616D01*
X1500Y616D02*
X1508Y616D01*
X1834Y616D02*
X1842Y616D01*
X1992Y616D02*
X2005Y616D01*
X0Y615D02*
X13Y615D01*
X747Y615D02*
X755Y615D01*
X1251Y615D02*
X1259Y615D01*
X1499Y615D02*
X1507Y615D01*
X1835Y615D02*
X1843Y615D01*
X1992Y615D02*
X2005Y615D01*
X0Y614D02*
X13Y614D01*
X747Y614D02*
X755Y614D01*
X1251Y614D02*
X1259Y614D01*
X1498Y614D02*
X1506Y614D01*
X1836Y614D02*
X1843Y614D01*
X1992Y614D02*
X2005Y614D01*
X0Y613D02*
X13Y613D01*
X747Y613D02*
X755Y613D01*
X1251Y613D02*
X1259Y613D01*
X1497Y613D02*
X1505Y613D01*
X1836Y613D02*
X1844Y613D01*
X1992Y613D02*
X2005Y613D01*
X0Y612D02*
X13Y612D01*
X747Y612D02*
X755Y612D01*
X1251Y612D02*
X1259Y612D01*
X1496Y612D02*
X1504Y612D01*
X1837Y612D02*
X1845Y612D01*
X1992Y612D02*
X2005Y612D01*
X0Y611D02*
X13Y611D01*
X747Y611D02*
X755Y611D01*
X1251Y611D02*
X1259Y611D01*
X1495Y611D02*
X1503Y611D01*
X1838Y611D02*
X1846Y611D01*
X1992Y611D02*
X2005Y611D01*
X0Y610D02*
X13Y610D01*
X423Y610D02*
X424Y610D01*
X430Y610D02*
X432Y610D01*
X548Y610D02*
X549Y610D01*
X555Y610D02*
X557Y610D01*
X672Y610D02*
X674Y610D01*
X680Y610D02*
X682Y610D01*
X747Y610D02*
X755Y610D01*
X1251Y610D02*
X1259Y610D01*
X1322Y610D02*
X1324Y610D01*
X1329Y610D02*
X1331Y610D01*
X1495Y610D02*
X1502Y610D01*
X1839Y610D02*
X1847Y610D01*
X1992Y610D02*
X2005Y610D01*
X0Y609D02*
X13Y609D01*
X423Y609D02*
X432Y609D01*
X548Y609D02*
X557Y609D01*
X672Y609D02*
X682Y609D01*
X747Y609D02*
X755Y609D01*
X1251Y609D02*
X1259Y609D01*
X1322Y609D02*
X1331Y609D01*
X1494Y609D02*
X1501Y609D01*
X1840Y609D02*
X1848Y609D01*
X1992Y609D02*
X2005Y609D01*
X0Y608D02*
X13Y608D01*
X423Y608D02*
X432Y608D01*
X548Y608D02*
X557Y608D01*
X672Y608D02*
X682Y608D01*
X747Y608D02*
X755Y608D01*
X1251Y608D02*
X1259Y608D01*
X1322Y608D02*
X1331Y608D01*
X1493Y608D02*
X1500Y608D01*
X1841Y608D02*
X1849Y608D01*
X1992Y608D02*
X2005Y608D01*
X0Y607D02*
X13Y607D01*
X423Y607D02*
X432Y607D01*
X548Y607D02*
X557Y607D01*
X672Y607D02*
X682Y607D01*
X747Y607D02*
X755Y607D01*
X1251Y607D02*
X1259Y607D01*
X1322Y607D02*
X1331Y607D01*
X1492Y607D02*
X1499Y607D01*
X1842Y607D02*
X1850Y607D01*
X1992Y607D02*
X2005Y607D01*
X0Y606D02*
X13Y606D01*
X423Y606D02*
X432Y606D01*
X548Y606D02*
X557Y606D01*
X672Y606D02*
X682Y606D01*
X747Y606D02*
X755Y606D01*
X1251Y606D02*
X1259Y606D01*
X1322Y606D02*
X1331Y606D01*
X1491Y606D02*
X1499Y606D01*
X1843Y606D02*
X1851Y606D01*
X1992Y606D02*
X2005Y606D01*
X0Y605D02*
X13Y605D01*
X423Y605D02*
X432Y605D01*
X548Y605D02*
X557Y605D01*
X672Y605D02*
X682Y605D01*
X747Y605D02*
X755Y605D01*
X1251Y605D02*
X1259Y605D01*
X1322Y605D02*
X1331Y605D01*
X1490Y605D02*
X1498Y605D01*
X1844Y605D02*
X1851Y605D01*
X1992Y605D02*
X2005Y605D01*
X0Y604D02*
X13Y604D01*
X423Y604D02*
X432Y604D01*
X548Y604D02*
X557Y604D01*
X672Y604D02*
X682Y604D01*
X747Y604D02*
X755Y604D01*
X1251Y604D02*
X1259Y604D01*
X1322Y604D02*
X1331Y604D01*
X1489Y604D02*
X1497Y604D01*
X1845Y604D02*
X1852Y604D01*
X1992Y604D02*
X2005Y604D01*
X0Y603D02*
X13Y603D01*
X423Y603D02*
X432Y603D01*
X548Y603D02*
X557Y603D01*
X672Y603D02*
X682Y603D01*
X747Y603D02*
X755Y603D01*
X1251Y603D02*
X1259Y603D01*
X1322Y603D02*
X1331Y603D01*
X1489Y603D02*
X1496Y603D01*
X1846Y603D02*
X1853Y603D01*
X1992Y603D02*
X2005Y603D01*
X0Y602D02*
X13Y602D01*
X423Y602D02*
X432Y602D01*
X548Y602D02*
X557Y602D01*
X672Y602D02*
X682Y602D01*
X747Y602D02*
X755Y602D01*
X1251Y602D02*
X1259Y602D01*
X1322Y602D02*
X1331Y602D01*
X1488Y602D02*
X1495Y602D01*
X1846Y602D02*
X1854Y602D01*
X1992Y602D02*
X2005Y602D01*
X0Y601D02*
X13Y601D01*
X423Y601D02*
X432Y601D01*
X548Y601D02*
X557Y601D01*
X672Y601D02*
X682Y601D01*
X747Y601D02*
X755Y601D01*
X1251Y601D02*
X1259Y601D01*
X1322Y601D02*
X1331Y601D01*
X1487Y601D02*
X1494Y601D01*
X1847Y601D02*
X1855Y601D01*
X1992Y601D02*
X2005Y601D01*
X0Y600D02*
X13Y600D01*
X194Y600D02*
X201Y600D01*
X423Y600D02*
X432Y600D01*
X548Y600D02*
X557Y600D01*
X672Y600D02*
X682Y600D01*
X747Y600D02*
X755Y600D01*
X1251Y600D02*
X1259Y600D01*
X1322Y600D02*
X1331Y600D01*
X1486Y600D02*
X1493Y600D01*
X1848Y600D02*
X1855Y600D01*
X1992Y600D02*
X2005Y600D01*
X0Y599D02*
X13Y599D01*
X180Y599D02*
X214Y599D01*
X423Y599D02*
X432Y599D01*
X548Y599D02*
X557Y599D01*
X672Y599D02*
X682Y599D01*
X747Y599D02*
X755Y599D01*
X1251Y599D02*
X1259Y599D01*
X1322Y599D02*
X1331Y599D01*
X1485Y599D02*
X1493Y599D01*
X1849Y599D02*
X1856Y599D01*
X1992Y599D02*
X2005Y599D01*
X0Y598D02*
X13Y598D01*
X173Y598D02*
X221Y598D01*
X423Y598D02*
X432Y598D01*
X548Y598D02*
X557Y598D01*
X672Y598D02*
X682Y598D01*
X747Y598D02*
X755Y598D01*
X1251Y598D02*
X1259Y598D01*
X1322Y598D02*
X1331Y598D01*
X1485Y598D02*
X1492Y598D01*
X1850Y598D02*
X1857Y598D01*
X1992Y598D02*
X2005Y598D01*
X0Y597D02*
X13Y597D01*
X168Y597D02*
X226Y597D01*
X423Y597D02*
X432Y597D01*
X548Y597D02*
X557Y597D01*
X672Y597D02*
X682Y597D01*
X747Y597D02*
X755Y597D01*
X1251Y597D02*
X1259Y597D01*
X1322Y597D02*
X1331Y597D01*
X1484Y597D02*
X1491Y597D01*
X1851Y597D02*
X1858Y597D01*
X1992Y597D02*
X2005Y597D01*
X0Y596D02*
X13Y596D01*
X164Y596D02*
X231Y596D01*
X423Y596D02*
X432Y596D01*
X548Y596D02*
X557Y596D01*
X672Y596D02*
X682Y596D01*
X747Y596D02*
X755Y596D01*
X1251Y596D02*
X1259Y596D01*
X1322Y596D02*
X1331Y596D01*
X1483Y596D02*
X1490Y596D01*
X1851Y596D02*
X1859Y596D01*
X1992Y596D02*
X2005Y596D01*
X0Y595D02*
X13Y595D01*
X160Y595D02*
X235Y595D01*
X423Y595D02*
X432Y595D01*
X548Y595D02*
X557Y595D01*
X672Y595D02*
X682Y595D01*
X747Y595D02*
X755Y595D01*
X1251Y595D02*
X1259Y595D01*
X1322Y595D02*
X1331Y595D01*
X1482Y595D02*
X1489Y595D01*
X1852Y595D02*
X1859Y595D01*
X1992Y595D02*
X2005Y595D01*
X0Y594D02*
X13Y594D01*
X156Y594D02*
X238Y594D01*
X423Y594D02*
X432Y594D01*
X548Y594D02*
X557Y594D01*
X672Y594D02*
X682Y594D01*
X747Y594D02*
X755Y594D01*
X1251Y594D02*
X1259Y594D01*
X1322Y594D02*
X1331Y594D01*
X1481Y594D02*
X1489Y594D01*
X1853Y594D02*
X1860Y594D01*
X1992Y594D02*
X2005Y594D01*
X0Y593D02*
X13Y593D01*
X153Y593D02*
X241Y593D01*
X423Y593D02*
X432Y593D01*
X548Y593D02*
X557Y593D01*
X672Y593D02*
X682Y593D01*
X747Y593D02*
X755Y593D01*
X1251Y593D02*
X1259Y593D01*
X1322Y593D02*
X1331Y593D01*
X1481Y593D02*
X1488Y593D01*
X1854Y593D02*
X1861Y593D01*
X1992Y593D02*
X2005Y593D01*
X0Y592D02*
X13Y592D01*
X150Y592D02*
X244Y592D01*
X423Y592D02*
X432Y592D01*
X548Y592D02*
X557Y592D01*
X672Y592D02*
X682Y592D01*
X747Y592D02*
X755Y592D01*
X1251Y592D02*
X1259Y592D01*
X1322Y592D02*
X1331Y592D01*
X1480Y592D02*
X1487Y592D01*
X1854Y592D02*
X1862Y592D01*
X1992Y592D02*
X2005Y592D01*
X0Y591D02*
X13Y591D01*
X147Y591D02*
X247Y591D01*
X423Y591D02*
X432Y591D01*
X548Y591D02*
X557Y591D01*
X672Y591D02*
X682Y591D01*
X747Y591D02*
X755Y591D01*
X1251Y591D02*
X1259Y591D01*
X1322Y591D02*
X1331Y591D01*
X1479Y591D02*
X1486Y591D01*
X1855Y591D02*
X1862Y591D01*
X1992Y591D02*
X2005Y591D01*
X0Y590D02*
X13Y590D01*
X145Y590D02*
X250Y590D01*
X423Y590D02*
X432Y590D01*
X548Y590D02*
X557Y590D01*
X672Y590D02*
X682Y590D01*
X747Y590D02*
X755Y590D01*
X1251Y590D02*
X1259Y590D01*
X1322Y590D02*
X1331Y590D01*
X1479Y590D02*
X1486Y590D01*
X1856Y590D02*
X1863Y590D01*
X1992Y590D02*
X2005Y590D01*
X0Y589D02*
X13Y589D01*
X142Y589D02*
X252Y589D01*
X423Y589D02*
X432Y589D01*
X548Y589D02*
X557Y589D01*
X672Y589D02*
X682Y589D01*
X747Y589D02*
X755Y589D01*
X1251Y589D02*
X1259Y589D01*
X1322Y589D02*
X1331Y589D01*
X1478Y589D02*
X1485Y589D01*
X1857Y589D02*
X1864Y589D01*
X1992Y589D02*
X2005Y589D01*
X0Y588D02*
X13Y588D01*
X140Y588D02*
X180Y588D01*
X214Y588D02*
X255Y588D01*
X423Y588D02*
X432Y588D01*
X548Y588D02*
X557Y588D01*
X672Y588D02*
X682Y588D01*
X747Y588D02*
X755Y588D01*
X1251Y588D02*
X1259Y588D01*
X1322Y588D02*
X1331Y588D01*
X1477Y588D02*
X1484Y588D01*
X1857Y588D02*
X1864Y588D01*
X1992Y588D02*
X2005Y588D01*
X0Y587D02*
X13Y587D01*
X137Y587D02*
X173Y587D01*
X221Y587D02*
X257Y587D01*
X423Y587D02*
X432Y587D01*
X548Y587D02*
X557Y587D01*
X672Y587D02*
X682Y587D01*
X747Y587D02*
X755Y587D01*
X1251Y587D02*
X1259Y587D01*
X1322Y587D02*
X1331Y587D01*
X1476Y587D02*
X1483Y587D01*
X1858Y587D02*
X1865Y587D01*
X1992Y587D02*
X2005Y587D01*
X0Y586D02*
X13Y586D01*
X135Y586D02*
X168Y586D01*
X226Y586D02*
X259Y586D01*
X423Y586D02*
X432Y586D01*
X548Y586D02*
X557Y586D01*
X672Y586D02*
X682Y586D01*
X747Y586D02*
X755Y586D01*
X1251Y586D02*
X1259Y586D01*
X1322Y586D02*
X1331Y586D01*
X1476Y586D02*
X1483Y586D01*
X1859Y586D02*
X1866Y586D01*
X1992Y586D02*
X2005Y586D01*
X0Y585D02*
X13Y585D01*
X133Y585D02*
X164Y585D01*
X231Y585D02*
X261Y585D01*
X423Y585D02*
X432Y585D01*
X548Y585D02*
X557Y585D01*
X672Y585D02*
X682Y585D01*
X747Y585D02*
X755Y585D01*
X1251Y585D02*
X1259Y585D01*
X1322Y585D02*
X1331Y585D01*
X1475Y585D02*
X1482Y585D01*
X1860Y585D02*
X1867Y585D01*
X1992Y585D02*
X2005Y585D01*
X0Y584D02*
X13Y584D01*
X131Y584D02*
X160Y584D01*
X234Y584D02*
X263Y584D01*
X423Y584D02*
X432Y584D01*
X548Y584D02*
X557Y584D01*
X672Y584D02*
X682Y584D01*
X747Y584D02*
X755Y584D01*
X1251Y584D02*
X1259Y584D01*
X1322Y584D02*
X1331Y584D01*
X1474Y584D02*
X1481Y584D01*
X1860Y584D02*
X1867Y584D01*
X1992Y584D02*
X2005Y584D01*
X0Y583D02*
X13Y583D01*
X129Y583D02*
X156Y583D01*
X238Y583D02*
X265Y583D01*
X423Y583D02*
X432Y583D01*
X548Y583D02*
X557Y583D01*
X672Y583D02*
X682Y583D01*
X747Y583D02*
X755Y583D01*
X1251Y583D02*
X1259Y583D01*
X1322Y583D02*
X1331Y583D01*
X1474Y583D02*
X1481Y583D01*
X1861Y583D02*
X1868Y583D01*
X1992Y583D02*
X2005Y583D01*
X0Y582D02*
X13Y582D01*
X127Y582D02*
X153Y582D01*
X241Y582D02*
X267Y582D01*
X423Y582D02*
X432Y582D01*
X548Y582D02*
X557Y582D01*
X672Y582D02*
X682Y582D01*
X747Y582D02*
X755Y582D01*
X1251Y582D02*
X1259Y582D01*
X1322Y582D02*
X1331Y582D01*
X1473Y582D02*
X1480Y582D01*
X1862Y582D02*
X1868Y582D01*
X1992Y582D02*
X2005Y582D01*
X0Y581D02*
X13Y581D01*
X126Y581D02*
X150Y581D01*
X244Y581D02*
X269Y581D01*
X423Y581D02*
X432Y581D01*
X548Y581D02*
X557Y581D01*
X672Y581D02*
X682Y581D01*
X747Y581D02*
X755Y581D01*
X1251Y581D02*
X1259Y581D01*
X1322Y581D02*
X1331Y581D01*
X1473Y581D02*
X1479Y581D01*
X1862Y581D02*
X1869Y581D01*
X1992Y581D02*
X2005Y581D01*
X0Y580D02*
X13Y580D01*
X124Y580D02*
X147Y580D01*
X247Y580D02*
X270Y580D01*
X423Y580D02*
X432Y580D01*
X548Y580D02*
X557Y580D01*
X672Y580D02*
X682Y580D01*
X747Y580D02*
X755Y580D01*
X1251Y580D02*
X1259Y580D01*
X1322Y580D02*
X1331Y580D01*
X1472Y580D02*
X1479Y580D01*
X1863Y580D02*
X1870Y580D01*
X1992Y580D02*
X2005Y580D01*
X0Y579D02*
X13Y579D01*
X122Y579D02*
X145Y579D01*
X249Y579D02*
X272Y579D01*
X423Y579D02*
X432Y579D01*
X548Y579D02*
X557Y579D01*
X672Y579D02*
X682Y579D01*
X747Y579D02*
X755Y579D01*
X1251Y579D02*
X1259Y579D01*
X1322Y579D02*
X1331Y579D01*
X1471Y579D02*
X1478Y579D01*
X1864Y579D02*
X1870Y579D01*
X1992Y579D02*
X2005Y579D01*
X0Y578D02*
X13Y578D01*
X120Y578D02*
X143Y578D01*
X251Y578D02*
X274Y578D01*
X423Y578D02*
X432Y578D01*
X548Y578D02*
X557Y578D01*
X672Y578D02*
X682Y578D01*
X747Y578D02*
X755Y578D01*
X1251Y578D02*
X1259Y578D01*
X1322Y578D02*
X1331Y578D01*
X1471Y578D02*
X1477Y578D01*
X1864Y578D02*
X1871Y578D01*
X1992Y578D02*
X2005Y578D01*
X0Y577D02*
X13Y577D01*
X119Y577D02*
X140Y577D01*
X254Y577D02*
X275Y577D01*
X423Y577D02*
X432Y577D01*
X548Y577D02*
X557Y577D01*
X672Y577D02*
X682Y577D01*
X747Y577D02*
X755Y577D01*
X1251Y577D02*
X1259Y577D01*
X1322Y577D02*
X1331Y577D01*
X1470Y577D02*
X1477Y577D01*
X1865Y577D02*
X1872Y577D01*
X1992Y577D02*
X2005Y577D01*
X0Y576D02*
X13Y576D01*
X117Y576D02*
X138Y576D01*
X256Y576D02*
X277Y576D01*
X423Y576D02*
X432Y576D01*
X548Y576D02*
X557Y576D01*
X672Y576D02*
X682Y576D01*
X747Y576D02*
X755Y576D01*
X1251Y576D02*
X1259Y576D01*
X1322Y576D02*
X1331Y576D01*
X1469Y576D02*
X1476Y576D01*
X1866Y576D02*
X1872Y576D01*
X1992Y576D02*
X2005Y576D01*
X0Y575D02*
X13Y575D01*
X116Y575D02*
X136Y575D01*
X258Y575D02*
X278Y575D01*
X423Y575D02*
X432Y575D01*
X548Y575D02*
X557Y575D01*
X672Y575D02*
X682Y575D01*
X747Y575D02*
X755Y575D01*
X1251Y575D02*
X1259Y575D01*
X1322Y575D02*
X1331Y575D01*
X1469Y575D02*
X1475Y575D01*
X1866Y575D02*
X1873Y575D01*
X1992Y575D02*
X2005Y575D01*
X0Y574D02*
X13Y574D01*
X114Y574D02*
X134Y574D01*
X260Y574D02*
X280Y574D01*
X423Y574D02*
X432Y574D01*
X548Y574D02*
X557Y574D01*
X672Y574D02*
X682Y574D01*
X747Y574D02*
X755Y574D01*
X1251Y574D02*
X1259Y574D01*
X1322Y574D02*
X1331Y574D01*
X1468Y574D02*
X1475Y574D01*
X1867Y574D02*
X1873Y574D01*
X1992Y574D02*
X2005Y574D01*
X0Y573D02*
X13Y573D01*
X113Y573D02*
X132Y573D01*
X262Y573D02*
X281Y573D01*
X423Y573D02*
X432Y573D01*
X548Y573D02*
X557Y573D01*
X672Y573D02*
X682Y573D01*
X747Y573D02*
X755Y573D01*
X1251Y573D02*
X1259Y573D01*
X1322Y573D02*
X1331Y573D01*
X1468Y573D02*
X1474Y573D01*
X1867Y573D02*
X1874Y573D01*
X1992Y573D02*
X2005Y573D01*
X0Y572D02*
X13Y572D01*
X112Y572D02*
X130Y572D01*
X264Y572D02*
X283Y572D01*
X423Y572D02*
X432Y572D01*
X548Y572D02*
X557Y572D01*
X672Y572D02*
X682Y572D01*
X747Y572D02*
X755Y572D01*
X1251Y572D02*
X1259Y572D01*
X1322Y572D02*
X1331Y572D01*
X1467Y572D02*
X1474Y572D01*
X1868Y572D02*
X1875Y572D01*
X1992Y572D02*
X2005Y572D01*
X0Y571D02*
X13Y571D01*
X110Y571D02*
X128Y571D01*
X265Y571D02*
X284Y571D01*
X423Y571D02*
X432Y571D01*
X548Y571D02*
X557Y571D01*
X672Y571D02*
X682Y571D01*
X747Y571D02*
X755Y571D01*
X1251Y571D02*
X1259Y571D01*
X1322Y571D02*
X1331Y571D01*
X1466Y571D02*
X1473Y571D01*
X1869Y571D02*
X1875Y571D01*
X1992Y571D02*
X2005Y571D01*
X0Y570D02*
X13Y570D01*
X109Y570D02*
X127Y570D01*
X267Y570D02*
X285Y570D01*
X423Y570D02*
X432Y570D01*
X548Y570D02*
X557Y570D01*
X672Y570D02*
X682Y570D01*
X747Y570D02*
X755Y570D01*
X1251Y570D02*
X1259Y570D01*
X1322Y570D02*
X1331Y570D01*
X1466Y570D02*
X1472Y570D01*
X1869Y570D02*
X1876Y570D01*
X1992Y570D02*
X2005Y570D01*
X0Y569D02*
X13Y569D01*
X107Y569D02*
X125Y569D01*
X269Y569D02*
X287Y569D01*
X423Y569D02*
X432Y569D01*
X548Y569D02*
X557Y569D01*
X672Y569D02*
X682Y569D01*
X747Y569D02*
X755Y569D01*
X1251Y569D02*
X1259Y569D01*
X1322Y569D02*
X1331Y569D01*
X1465Y569D02*
X1472Y569D01*
X1870Y569D02*
X1876Y569D01*
X1992Y569D02*
X2005Y569D01*
X0Y568D02*
X13Y568D01*
X106Y568D02*
X123Y568D01*
X270Y568D02*
X288Y568D01*
X423Y568D02*
X432Y568D01*
X548Y568D02*
X557Y568D01*
X672Y568D02*
X682Y568D01*
X747Y568D02*
X755Y568D01*
X1251Y568D02*
X1259Y568D01*
X1322Y568D02*
X1331Y568D01*
X1465Y568D02*
X1471Y568D01*
X1870Y568D02*
X1877Y568D01*
X1992Y568D02*
X2005Y568D01*
X0Y567D02*
X13Y567D01*
X105Y567D02*
X122Y567D01*
X272Y567D02*
X289Y567D01*
X423Y567D02*
X432Y567D01*
X548Y567D02*
X557Y567D01*
X672Y567D02*
X682Y567D01*
X747Y567D02*
X755Y567D01*
X1251Y567D02*
X1259Y567D01*
X1322Y567D02*
X1331Y567D01*
X1464Y567D02*
X1471Y567D01*
X1871Y567D02*
X1878Y567D01*
X1992Y567D02*
X2005Y567D01*
X0Y566D02*
X13Y566D01*
X104Y566D02*
X120Y566D01*
X273Y566D02*
X290Y566D01*
X423Y566D02*
X432Y566D01*
X548Y566D02*
X557Y566D01*
X672Y566D02*
X682Y566D01*
X747Y566D02*
X755Y566D01*
X1251Y566D02*
X1259Y566D01*
X1322Y566D02*
X1331Y566D01*
X1464Y566D02*
X1470Y566D01*
X1871Y566D02*
X1878Y566D01*
X1992Y566D02*
X2005Y566D01*
X0Y565D02*
X13Y565D01*
X103Y565D02*
X119Y565D01*
X275Y565D02*
X292Y565D01*
X423Y565D02*
X432Y565D01*
X548Y565D02*
X557Y565D01*
X672Y565D02*
X682Y565D01*
X747Y565D02*
X755Y565D01*
X1251Y565D02*
X1259Y565D01*
X1322Y565D02*
X1331Y565D01*
X1463Y565D02*
X1470Y565D01*
X1872Y565D02*
X1879Y565D01*
X1992Y565D02*
X2005Y565D01*
X0Y564D02*
X13Y564D01*
X101Y564D02*
X118Y564D01*
X276Y564D02*
X293Y564D01*
X423Y564D02*
X432Y564D01*
X548Y564D02*
X557Y564D01*
X672Y564D02*
X682Y564D01*
X747Y564D02*
X755Y564D01*
X1251Y564D02*
X1259Y564D01*
X1322Y564D02*
X1331Y564D01*
X1462Y564D02*
X1469Y564D01*
X1873Y564D02*
X1879Y564D01*
X1992Y564D02*
X2005Y564D01*
X0Y563D02*
X13Y563D01*
X100Y563D02*
X116Y563D01*
X278Y563D02*
X294Y563D01*
X423Y563D02*
X432Y563D01*
X548Y563D02*
X557Y563D01*
X672Y563D02*
X682Y563D01*
X747Y563D02*
X755Y563D01*
X1251Y563D02*
X1259Y563D01*
X1322Y563D02*
X1331Y563D01*
X1462Y563D02*
X1468Y563D01*
X1873Y563D02*
X1880Y563D01*
X1992Y563D02*
X2005Y563D01*
X0Y562D02*
X13Y562D01*
X99Y562D02*
X115Y562D01*
X279Y562D02*
X295Y562D01*
X423Y562D02*
X432Y562D01*
X548Y562D02*
X557Y562D01*
X672Y562D02*
X682Y562D01*
X747Y562D02*
X755Y562D01*
X1251Y562D02*
X1259Y562D01*
X1322Y562D02*
X1331Y562D01*
X1461Y562D02*
X1468Y562D01*
X1874Y562D02*
X1880Y562D01*
X1992Y562D02*
X2005Y562D01*
X0Y561D02*
X13Y561D01*
X98Y561D02*
X113Y561D01*
X280Y561D02*
X296Y561D01*
X423Y561D02*
X432Y561D01*
X548Y561D02*
X557Y561D01*
X672Y561D02*
X682Y561D01*
X747Y561D02*
X755Y561D01*
X1251Y561D02*
X1259Y561D01*
X1322Y561D02*
X1331Y561D01*
X1461Y561D02*
X1467Y561D01*
X1874Y561D02*
X1881Y561D01*
X1992Y561D02*
X2005Y561D01*
X0Y560D02*
X13Y560D01*
X97Y560D02*
X112Y560D01*
X282Y560D02*
X297Y560D01*
X423Y560D02*
X432Y560D01*
X548Y560D02*
X557Y560D01*
X672Y560D02*
X682Y560D01*
X747Y560D02*
X755Y560D01*
X1251Y560D02*
X1259Y560D01*
X1322Y560D02*
X1331Y560D01*
X1460Y560D02*
X1467Y560D01*
X1875Y560D02*
X1881Y560D01*
X1992Y560D02*
X2005Y560D01*
X0Y559D02*
X13Y559D01*
X96Y559D02*
X111Y559D01*
X283Y559D02*
X298Y559D01*
X423Y559D02*
X432Y559D01*
X548Y559D02*
X557Y559D01*
X672Y559D02*
X682Y559D01*
X747Y559D02*
X755Y559D01*
X1251Y559D02*
X1259Y559D01*
X1322Y559D02*
X1331Y559D01*
X1460Y559D02*
X1466Y559D01*
X1875Y559D02*
X1882Y559D01*
X1992Y559D02*
X2005Y559D01*
X0Y558D02*
X13Y558D01*
X95Y558D02*
X110Y558D01*
X284Y558D02*
X299Y558D01*
X423Y558D02*
X432Y558D01*
X548Y558D02*
X557Y558D01*
X672Y558D02*
X682Y558D01*
X747Y558D02*
X755Y558D01*
X1251Y558D02*
X1259Y558D01*
X1322Y558D02*
X1331Y558D01*
X1459Y558D02*
X1466Y558D01*
X1876Y558D02*
X1882Y558D01*
X1992Y558D02*
X2005Y558D01*
X0Y557D02*
X13Y557D01*
X94Y557D02*
X108Y557D01*
X285Y557D02*
X300Y557D01*
X423Y557D02*
X432Y557D01*
X548Y557D02*
X557Y557D01*
X672Y557D02*
X682Y557D01*
X747Y557D02*
X755Y557D01*
X1251Y557D02*
X1259Y557D01*
X1322Y557D02*
X1331Y557D01*
X1459Y557D02*
X1465Y557D01*
X1876Y557D02*
X1883Y557D01*
X1992Y557D02*
X2005Y557D01*
X0Y556D02*
X13Y556D01*
X93Y556D02*
X107Y556D01*
X286Y556D02*
X301Y556D01*
X423Y556D02*
X432Y556D01*
X548Y556D02*
X557Y556D01*
X672Y556D02*
X682Y556D01*
X747Y556D02*
X755Y556D01*
X1251Y556D02*
X1259Y556D01*
X1322Y556D02*
X1331Y556D01*
X1458Y556D02*
X1465Y556D01*
X1877Y556D02*
X1883Y556D01*
X1992Y556D02*
X2005Y556D01*
X0Y555D02*
X13Y555D01*
X92Y555D02*
X106Y555D01*
X288Y555D02*
X302Y555D01*
X423Y555D02*
X432Y555D01*
X548Y555D02*
X557Y555D01*
X672Y555D02*
X682Y555D01*
X747Y555D02*
X755Y555D01*
X1251Y555D02*
X1259Y555D01*
X1322Y555D02*
X1331Y555D01*
X1458Y555D02*
X1464Y555D01*
X1877Y555D02*
X1884Y555D01*
X1992Y555D02*
X2005Y555D01*
X0Y554D02*
X13Y554D01*
X91Y554D02*
X105Y554D01*
X188Y554D02*
X191Y554D01*
X289Y554D02*
X303Y554D01*
X423Y554D02*
X432Y554D01*
X548Y554D02*
X557Y554D01*
X672Y554D02*
X682Y554D01*
X747Y554D02*
X755Y554D01*
X1251Y554D02*
X1259Y554D01*
X1322Y554D02*
X1331Y554D01*
X1457Y554D02*
X1464Y554D01*
X1878Y554D02*
X1884Y554D01*
X1992Y554D02*
X2005Y554D01*
X0Y553D02*
X13Y553D01*
X90Y553D02*
X104Y553D01*
X185Y553D02*
X194Y553D01*
X290Y553D02*
X304Y553D01*
X423Y553D02*
X432Y553D01*
X548Y553D02*
X557Y553D01*
X672Y553D02*
X682Y553D01*
X747Y553D02*
X755Y553D01*
X1251Y553D02*
X1259Y553D01*
X1322Y553D02*
X1331Y553D01*
X1457Y553D02*
X1463Y553D01*
X1878Y553D02*
X1885Y553D01*
X1992Y553D02*
X2005Y553D01*
X0Y552D02*
X13Y552D01*
X89Y552D02*
X103Y552D01*
X183Y552D02*
X196Y552D01*
X291Y552D02*
X305Y552D01*
X423Y552D02*
X432Y552D01*
X548Y552D02*
X557Y552D01*
X672Y552D02*
X682Y552D01*
X747Y552D02*
X755Y552D01*
X1251Y552D02*
X1259Y552D01*
X1322Y552D02*
X1331Y552D01*
X1457Y552D02*
X1463Y552D01*
X1879Y552D02*
X1885Y552D01*
X1992Y552D02*
X2005Y552D01*
X0Y551D02*
X13Y551D01*
X88Y551D02*
X102Y551D01*
X181Y551D02*
X198Y551D01*
X292Y551D02*
X306Y551D01*
X423Y551D02*
X432Y551D01*
X548Y551D02*
X557Y551D01*
X672Y551D02*
X682Y551D01*
X747Y551D02*
X755Y551D01*
X1251Y551D02*
X1259Y551D01*
X1322Y551D02*
X1331Y551D01*
X1456Y551D02*
X1462Y551D01*
X1879Y551D02*
X1886Y551D01*
X1992Y551D02*
X2005Y551D01*
X0Y550D02*
X13Y550D01*
X87Y550D02*
X101Y550D01*
X179Y550D02*
X188Y550D01*
X191Y550D02*
X200Y550D01*
X293Y550D02*
X307Y550D01*
X423Y550D02*
X432Y550D01*
X548Y550D02*
X557Y550D01*
X672Y550D02*
X682Y550D01*
X747Y550D02*
X755Y550D01*
X1251Y550D02*
X1259Y550D01*
X1322Y550D02*
X1331Y550D01*
X1456Y550D02*
X1462Y550D01*
X1880Y550D02*
X1886Y550D01*
X1992Y550D02*
X2005Y550D01*
X0Y549D02*
X13Y549D01*
X86Y549D02*
X100Y549D01*
X177Y549D02*
X185Y549D01*
X193Y549D02*
X202Y549D01*
X294Y549D02*
X308Y549D01*
X423Y549D02*
X432Y549D01*
X548Y549D02*
X557Y549D01*
X672Y549D02*
X682Y549D01*
X747Y549D02*
X755Y549D01*
X1251Y549D02*
X1259Y549D01*
X1322Y549D02*
X1331Y549D01*
X1455Y549D02*
X1462Y549D01*
X1880Y549D02*
X1886Y549D01*
X1992Y549D02*
X2005Y549D01*
X0Y548D02*
X13Y548D01*
X85Y548D02*
X99Y548D01*
X176Y548D02*
X183Y548D01*
X195Y548D02*
X203Y548D01*
X295Y548D02*
X309Y548D01*
X423Y548D02*
X432Y548D01*
X548Y548D02*
X557Y548D01*
X672Y548D02*
X682Y548D01*
X747Y548D02*
X755Y548D01*
X1251Y548D02*
X1259Y548D01*
X1322Y548D02*
X1331Y548D01*
X1455Y548D02*
X1461Y548D01*
X1881Y548D02*
X1887Y548D01*
X1992Y548D02*
X2005Y548D01*
X0Y547D02*
X13Y547D01*
X85Y547D02*
X98Y547D01*
X175Y547D02*
X181Y547D01*
X197Y547D02*
X204Y547D01*
X296Y547D02*
X310Y547D01*
X423Y547D02*
X432Y547D01*
X548Y547D02*
X557Y547D01*
X672Y547D02*
X682Y547D01*
X747Y547D02*
X755Y547D01*
X1251Y547D02*
X1259Y547D01*
X1322Y547D02*
X1331Y547D01*
X1454Y547D02*
X1461Y547D01*
X1881Y547D02*
X1887Y547D01*
X1992Y547D02*
X2005Y547D01*
X0Y546D02*
X13Y546D01*
X84Y546D02*
X97Y546D01*
X174Y546D02*
X179Y546D01*
X199Y546D02*
X204Y546D01*
X297Y546D02*
X310Y546D01*
X423Y546D02*
X432Y546D01*
X548Y546D02*
X557Y546D01*
X672Y546D02*
X682Y546D01*
X747Y546D02*
X755Y546D01*
X1251Y546D02*
X1259Y546D01*
X1322Y546D02*
X1331Y546D01*
X1454Y546D02*
X1460Y546D01*
X1881Y546D02*
X1888Y546D01*
X1992Y546D02*
X2005Y546D01*
X0Y545D02*
X13Y545D01*
X83Y545D02*
X96Y545D01*
X174Y545D02*
X178Y545D01*
X201Y545D02*
X205Y545D01*
X298Y545D02*
X311Y545D01*
X423Y545D02*
X432Y545D01*
X548Y545D02*
X557Y545D01*
X672Y545D02*
X682Y545D01*
X747Y545D02*
X755Y545D01*
X1251Y545D02*
X1259Y545D01*
X1322Y545D02*
X1331Y545D01*
X1453Y545D02*
X1460Y545D01*
X1882Y545D02*
X1888Y545D01*
X1992Y545D02*
X2005Y545D01*
X0Y544D02*
X13Y544D01*
X82Y544D02*
X95Y544D01*
X174Y544D02*
X177Y544D01*
X202Y544D02*
X205Y544D01*
X299Y544D02*
X312Y544D01*
X423Y544D02*
X432Y544D01*
X548Y544D02*
X557Y544D01*
X672Y544D02*
X682Y544D01*
X747Y544D02*
X755Y544D01*
X1251Y544D02*
X1259Y544D01*
X1322Y544D02*
X1331Y544D01*
X1453Y544D02*
X1459Y544D01*
X1882Y544D02*
X1889Y544D01*
X1992Y544D02*
X2005Y544D01*
X0Y543D02*
X13Y543D01*
X81Y543D02*
X94Y543D01*
X174Y543D02*
X177Y543D01*
X202Y543D02*
X205Y543D01*
X300Y543D02*
X313Y543D01*
X423Y543D02*
X431Y543D01*
X548Y543D02*
X556Y543D01*
X673Y543D02*
X681Y543D01*
X747Y543D02*
X755Y543D01*
X1251Y543D02*
X1259Y543D01*
X1323Y543D02*
X1331Y543D01*
X1453Y543D02*
X1459Y543D01*
X1883Y543D02*
X1889Y543D01*
X1992Y543D02*
X2005Y543D01*
X0Y542D02*
X13Y542D01*
X80Y542D02*
X93Y542D01*
X174Y542D02*
X177Y542D01*
X202Y542D02*
X205Y542D01*
X300Y542D02*
X314Y542D01*
X747Y542D02*
X755Y542D01*
X1251Y542D02*
X1259Y542D01*
X1452Y542D02*
X1458Y542D01*
X1883Y542D02*
X1889Y542D01*
X1992Y542D02*
X2005Y542D01*
X0Y541D02*
X13Y541D01*
X80Y541D02*
X93Y541D01*
X174Y541D02*
X205Y541D01*
X301Y541D02*
X314Y541D01*
X747Y541D02*
X755Y541D01*
X1251Y541D02*
X1259Y541D01*
X1452Y541D02*
X1458Y541D01*
X1884Y541D02*
X1890Y541D01*
X1992Y541D02*
X2005Y541D01*
X0Y540D02*
X13Y540D01*
X79Y540D02*
X92Y540D01*
X174Y540D02*
X205Y540D01*
X302Y540D02*
X315Y540D01*
X747Y540D02*
X755Y540D01*
X1251Y540D02*
X1259Y540D01*
X1451Y540D02*
X1458Y540D01*
X1884Y540D02*
X1890Y540D01*
X1992Y540D02*
X2005Y540D01*
X0Y539D02*
X13Y539D01*
X78Y539D02*
X91Y539D01*
X174Y539D02*
X205Y539D01*
X303Y539D02*
X316Y539D01*
X747Y539D02*
X755Y539D01*
X1251Y539D02*
X1259Y539D01*
X1451Y539D02*
X1457Y539D01*
X1884Y539D02*
X1891Y539D01*
X1992Y539D02*
X2005Y539D01*
X0Y538D02*
X13Y538D01*
X77Y538D02*
X90Y538D01*
X174Y538D02*
X205Y538D01*
X304Y538D02*
X317Y538D01*
X747Y538D02*
X755Y538D01*
X1251Y538D02*
X1259Y538D01*
X1451Y538D02*
X1457Y538D01*
X1885Y538D02*
X1891Y538D01*
X1992Y538D02*
X2005Y538D01*
X0Y537D02*
X13Y537D01*
X77Y537D02*
X89Y537D01*
X174Y537D02*
X177Y537D01*
X202Y537D02*
X205Y537D01*
X305Y537D02*
X317Y537D01*
X747Y537D02*
X755Y537D01*
X1251Y537D02*
X1259Y537D01*
X1450Y537D02*
X1456Y537D01*
X1885Y537D02*
X1891Y537D01*
X1992Y537D02*
X2005Y537D01*
X0Y536D02*
X13Y536D01*
X76Y536D02*
X88Y536D01*
X174Y536D02*
X177Y536D01*
X202Y536D02*
X205Y536D01*
X305Y536D02*
X318Y536D01*
X747Y536D02*
X755Y536D01*
X1251Y536D02*
X1259Y536D01*
X1450Y536D02*
X1456Y536D01*
X1886Y536D02*
X1892Y536D01*
X1992Y536D02*
X2005Y536D01*
X0Y535D02*
X13Y535D01*
X75Y535D02*
X88Y535D01*
X174Y535D02*
X177Y535D01*
X202Y535D02*
X205Y535D01*
X306Y535D02*
X319Y535D01*
X747Y535D02*
X755Y535D01*
X1251Y535D02*
X1259Y535D01*
X1449Y535D02*
X1456Y535D01*
X1886Y535D02*
X1892Y535D01*
X1992Y535D02*
X2005Y535D01*
X0Y534D02*
X13Y534D01*
X75Y534D02*
X87Y534D01*
X175Y534D02*
X176Y534D01*
X203Y534D02*
X204Y534D01*
X307Y534D02*
X319Y534D01*
X747Y534D02*
X755Y534D01*
X1251Y534D02*
X1259Y534D01*
X1449Y534D02*
X1455Y534D01*
X1886Y534D02*
X1893Y534D01*
X1992Y534D02*
X2005Y534D01*
X0Y533D02*
X13Y533D01*
X74Y533D02*
X86Y533D01*
X308Y533D02*
X320Y533D01*
X747Y533D02*
X755Y533D01*
X1251Y533D02*
X1259Y533D01*
X1449Y533D02*
X1455Y533D01*
X1887Y533D02*
X1893Y533D01*
X1992Y533D02*
X2005Y533D01*
X0Y532D02*
X13Y532D01*
X73Y532D02*
X86Y532D01*
X308Y532D02*
X320Y532D01*
X747Y532D02*
X755Y532D01*
X992Y532D02*
X1021Y532D01*
X1251Y532D02*
X1259Y532D01*
X1448Y532D02*
X1455Y532D01*
X1887Y532D02*
X1893Y532D01*
X1992Y532D02*
X2005Y532D01*
X0Y531D02*
X13Y531D01*
X73Y531D02*
X85Y531D01*
X309Y531D02*
X320Y531D01*
X567Y531D02*
X569Y531D01*
X747Y531D02*
X755Y531D01*
X992Y531D02*
X1021Y531D01*
X1251Y531D02*
X1259Y531D01*
X1448Y531D02*
X1454Y531D01*
X1887Y531D02*
X1894Y531D01*
X1992Y531D02*
X2005Y531D01*
X0Y530D02*
X13Y530D01*
X72Y530D02*
X84Y530D01*
X310Y530D02*
X320Y530D01*
X566Y530D02*
X570Y530D01*
X747Y530D02*
X755Y530D01*
X992Y530D02*
X1021Y530D01*
X1251Y530D02*
X1259Y530D01*
X1448Y530D02*
X1454Y530D01*
X1888Y530D02*
X1894Y530D01*
X1992Y530D02*
X2005Y530D01*
X0Y529D02*
X13Y529D01*
X72Y529D02*
X83Y529D01*
X310Y529D02*
X320Y529D01*
X441Y529D02*
X444Y529D01*
X548Y529D02*
X550Y529D01*
X565Y529D02*
X570Y529D01*
X747Y529D02*
X755Y529D01*
X993Y529D02*
X1021Y529D01*
X1251Y529D02*
X1259Y529D01*
X1447Y529D02*
X1453Y529D01*
X1888Y529D02*
X1894Y529D01*
X1992Y529D02*
X2005Y529D01*
X0Y528D02*
X13Y528D01*
X71Y528D02*
X83Y528D01*
X310Y528D02*
X320Y528D01*
X423Y528D02*
X433Y528D01*
X441Y528D02*
X444Y528D01*
X547Y528D02*
X551Y528D01*
X565Y528D02*
X569Y528D01*
X747Y528D02*
X755Y528D01*
X1014Y528D02*
X1021Y528D01*
X1251Y528D02*
X1259Y528D01*
X1447Y528D02*
X1453Y528D01*
X1888Y528D02*
X1895Y528D01*
X1992Y528D02*
X2005Y528D01*
X0Y527D02*
X13Y527D01*
X70Y527D02*
X82Y527D01*
X310Y527D02*
X320Y527D01*
X420Y527D02*
X436Y527D01*
X441Y527D02*
X444Y527D01*
X547Y527D02*
X552Y527D01*
X564Y527D02*
X568Y527D01*
X747Y527D02*
X755Y527D01*
X1012Y527D02*
X1021Y527D01*
X1251Y527D02*
X1259Y527D01*
X1447Y527D02*
X1453Y527D01*
X1889Y527D02*
X1895Y527D01*
X1992Y527D02*
X2005Y527D01*
X0Y526D02*
X13Y526D01*
X70Y526D02*
X81Y526D01*
X310Y526D02*
X320Y526D01*
X417Y526D02*
X438Y526D01*
X441Y526D02*
X444Y526D01*
X548Y526D02*
X552Y526D01*
X563Y526D02*
X567Y526D01*
X747Y526D02*
X755Y526D01*
X1010Y526D02*
X1019Y526D01*
X1251Y526D02*
X1259Y526D01*
X1446Y526D02*
X1452Y526D01*
X1889Y526D02*
X1895Y526D01*
X1992Y526D02*
X2005Y526D01*
X0Y525D02*
X13Y525D01*
X69Y525D02*
X81Y525D01*
X310Y525D02*
X320Y525D01*
X416Y525D02*
X439Y525D01*
X441Y525D02*
X444Y525D01*
X549Y525D02*
X553Y525D01*
X562Y525D02*
X567Y525D01*
X747Y525D02*
X755Y525D01*
X1007Y525D02*
X1016Y525D01*
X1251Y525D02*
X1259Y525D01*
X1446Y525D02*
X1452Y525D01*
X1889Y525D02*
X1896Y525D01*
X1992Y525D02*
X2005Y525D01*
X0Y524D02*
X13Y524D01*
X69Y524D02*
X80Y524D01*
X175Y524D02*
X175Y524D01*
X203Y524D02*
X204Y524D01*
X310Y524D02*
X320Y524D01*
X415Y524D02*
X423Y524D01*
X433Y524D02*
X444Y524D01*
X550Y524D02*
X554Y524D01*
X561Y524D02*
X566Y524D01*
X747Y524D02*
X755Y524D01*
X1005Y524D02*
X1014Y524D01*
X1251Y524D02*
X1259Y524D01*
X1446Y524D02*
X1452Y524D01*
X1660Y524D02*
X1667Y524D01*
X1682Y524D02*
X1685Y524D01*
X1890Y524D02*
X1896Y524D01*
X1992Y524D02*
X2005Y524D01*
X0Y523D02*
X13Y523D01*
X68Y523D02*
X80Y523D01*
X174Y523D02*
X177Y523D01*
X202Y523D02*
X205Y523D01*
X310Y523D02*
X320Y523D01*
X414Y523D02*
X419Y523D01*
X437Y523D02*
X444Y523D01*
X550Y523D02*
X555Y523D01*
X560Y523D02*
X565Y523D01*
X747Y523D02*
X755Y523D01*
X1003Y523D02*
X1012Y523D01*
X1251Y523D02*
X1259Y523D01*
X1445Y523D02*
X1451Y523D01*
X1659Y523D02*
X1668Y523D01*
X1680Y523D02*
X1685Y523D01*
X1890Y523D02*
X1896Y523D01*
X1992Y523D02*
X2005Y523D01*
X0Y522D02*
X13Y522D01*
X67Y522D02*
X79Y522D01*
X174Y522D02*
X177Y522D01*
X202Y522D02*
X205Y522D01*
X310Y522D02*
X320Y522D01*
X413Y522D02*
X417Y522D01*
X439Y522D02*
X444Y522D01*
X551Y522D02*
X556Y522D01*
X560Y522D02*
X564Y522D01*
X747Y522D02*
X755Y522D01*
X1000Y522D02*
X1009Y522D01*
X1251Y522D02*
X1259Y522D01*
X1445Y522D02*
X1451Y522D01*
X1658Y522D02*
X1669Y522D01*
X1679Y522D02*
X1684Y522D01*
X1890Y522D02*
X1897Y522D01*
X1992Y522D02*
X2005Y522D01*
X0Y521D02*
X13Y521D01*
X67Y521D02*
X78Y521D01*
X174Y521D02*
X177Y521D01*
X202Y521D02*
X205Y521D01*
X310Y521D02*
X320Y521D01*
X413Y521D02*
X416Y521D01*
X440Y521D02*
X444Y521D01*
X552Y521D02*
X557Y521D01*
X559Y521D02*
X563Y521D01*
X747Y521D02*
X755Y521D01*
X998Y521D02*
X1007Y521D01*
X1251Y521D02*
X1259Y521D01*
X1445Y521D02*
X1451Y521D01*
X1658Y521D02*
X1661Y521D01*
X1666Y521D02*
X1669Y521D01*
X1677Y521D02*
X1683Y521D01*
X1891Y521D02*
X1897Y521D01*
X1992Y521D02*
X2005Y521D01*
X0Y520D02*
X13Y520D01*
X66Y520D02*
X78Y520D01*
X174Y520D02*
X177Y520D01*
X202Y520D02*
X205Y520D01*
X310Y520D02*
X320Y520D01*
X413Y520D02*
X415Y520D01*
X441Y520D02*
X444Y520D01*
X553Y520D02*
X562Y520D01*
X747Y520D02*
X755Y520D01*
X996Y520D02*
X1005Y520D01*
X1251Y520D02*
X1259Y520D01*
X1444Y520D02*
X1451Y520D01*
X1658Y520D02*
X1660Y520D01*
X1667Y520D02*
X1669Y520D01*
X1675Y520D02*
X1682Y520D01*
X1891Y520D02*
X1897Y520D01*
X1992Y520D02*
X2005Y520D01*
X0Y519D02*
X13Y519D01*
X66Y519D02*
X77Y519D01*
X174Y519D02*
X177Y519D01*
X202Y519D02*
X205Y519D01*
X310Y519D02*
X320Y519D01*
X412Y519D02*
X415Y519D01*
X554Y519D02*
X561Y519D01*
X747Y519D02*
X755Y519D01*
X994Y519D02*
X1003Y519D01*
X1251Y519D02*
X1259Y519D01*
X1444Y519D02*
X1450Y519D01*
X1658Y519D02*
X1660Y519D01*
X1667Y519D02*
X1669Y519D01*
X1673Y519D02*
X1680Y519D01*
X1891Y519D02*
X1897Y519D01*
X1992Y519D02*
X2005Y519D01*
X0Y518D02*
X13Y518D01*
X65Y518D02*
X77Y518D01*
X174Y518D02*
X177Y518D01*
X202Y518D02*
X205Y518D01*
X310Y518D02*
X320Y518D01*
X412Y518D02*
X414Y518D01*
X555Y518D02*
X561Y518D01*
X747Y518D02*
X755Y518D01*
X992Y518D02*
X1000Y518D01*
X1251Y518D02*
X1259Y518D01*
X1444Y518D02*
X1450Y518D01*
X1658Y518D02*
X1660Y518D01*
X1667Y518D02*
X1669Y518D01*
X1672Y518D02*
X1678Y518D01*
X1892Y518D02*
X1898Y518D01*
X1992Y518D02*
X2005Y518D01*
X0Y517D02*
X13Y517D01*
X65Y517D02*
X76Y517D01*
X174Y517D02*
X177Y517D01*
X202Y517D02*
X205Y517D01*
X310Y517D02*
X320Y517D01*
X412Y517D02*
X414Y517D01*
X556Y517D02*
X560Y517D01*
X747Y517D02*
X755Y517D01*
X992Y517D02*
X999Y517D01*
X1251Y517D02*
X1259Y517D01*
X1444Y517D02*
X1450Y517D01*
X1658Y517D02*
X1660Y517D01*
X1667Y517D02*
X1676Y517D01*
X1892Y517D02*
X1898Y517D01*
X1992Y517D02*
X2005Y517D01*
X0Y516D02*
X13Y516D01*
X64Y516D02*
X76Y516D01*
X174Y516D02*
X177Y516D01*
X202Y516D02*
X205Y516D01*
X310Y516D02*
X320Y516D01*
X412Y516D02*
X415Y516D01*
X556Y516D02*
X561Y516D01*
X747Y516D02*
X755Y516D01*
X992Y516D02*
X1021Y516D01*
X1251Y516D02*
X1259Y516D01*
X1443Y516D02*
X1449Y516D01*
X1658Y516D02*
X1660Y516D01*
X1667Y516D02*
X1675Y516D01*
X1892Y516D02*
X1898Y516D01*
X1992Y516D02*
X2005Y516D01*
X0Y515D02*
X13Y515D01*
X64Y515D02*
X75Y515D01*
X174Y515D02*
X177Y515D01*
X188Y515D02*
X191Y515D01*
X202Y515D02*
X205Y515D01*
X310Y515D02*
X320Y515D01*
X413Y515D02*
X415Y515D01*
X441Y515D02*
X444Y515D01*
X540Y515D02*
X568Y515D01*
X747Y515D02*
X755Y515D01*
X992Y515D02*
X1021Y515D01*
X1251Y515D02*
X1259Y515D01*
X1443Y515D02*
X1449Y515D01*
X1658Y515D02*
X1660Y515D01*
X1667Y515D02*
X1673Y515D01*
X1892Y515D02*
X1899Y515D01*
X1992Y515D02*
X2005Y515D01*
X0Y514D02*
X13Y514D01*
X63Y514D02*
X75Y514D01*
X174Y514D02*
X177Y514D01*
X188Y514D02*
X191Y514D01*
X202Y514D02*
X205Y514D01*
X310Y514D02*
X320Y514D01*
X413Y514D02*
X416Y514D01*
X440Y514D02*
X444Y514D01*
X539Y514D02*
X570Y514D01*
X747Y514D02*
X755Y514D01*
X992Y514D02*
X1021Y514D01*
X1251Y514D02*
X1259Y514D01*
X1443Y514D02*
X1449Y514D01*
X1658Y514D02*
X1660Y514D01*
X1667Y514D02*
X1671Y514D01*
X1893Y514D02*
X1899Y514D01*
X1992Y514D02*
X2005Y514D01*
X0Y513D02*
X13Y513D01*
X63Y513D02*
X74Y513D01*
X174Y513D02*
X177Y513D01*
X188Y513D02*
X191Y513D01*
X202Y513D02*
X205Y513D01*
X310Y513D02*
X320Y513D01*
X413Y513D02*
X417Y513D01*
X439Y513D02*
X444Y513D01*
X538Y513D02*
X570Y513D01*
X747Y513D02*
X755Y513D01*
X992Y513D02*
X1020Y513D01*
X1251Y513D02*
X1259Y513D01*
X1442Y513D02*
X1449Y513D01*
X1658Y513D02*
X1660Y513D01*
X1667Y513D02*
X1670Y513D01*
X1893Y513D02*
X1899Y513D01*
X1992Y513D02*
X2005Y513D01*
X0Y512D02*
X13Y512D01*
X63Y512D02*
X74Y512D01*
X174Y512D02*
X177Y512D01*
X188Y512D02*
X191Y512D01*
X202Y512D02*
X205Y512D01*
X310Y512D02*
X320Y512D01*
X414Y512D02*
X419Y512D01*
X437Y512D02*
X444Y512D01*
X539Y512D02*
X570Y512D01*
X747Y512D02*
X755Y512D01*
X1251Y512D02*
X1259Y512D01*
X1442Y512D02*
X1448Y512D01*
X1658Y512D02*
X1660Y512D01*
X1667Y512D02*
X1669Y512D01*
X1893Y512D02*
X1899Y512D01*
X1992Y512D02*
X2005Y512D01*
X0Y511D02*
X13Y511D01*
X62Y511D02*
X73Y511D01*
X174Y511D02*
X177Y511D01*
X188Y511D02*
X191Y511D01*
X202Y511D02*
X205Y511D01*
X310Y511D02*
X320Y511D01*
X415Y511D02*
X422Y511D01*
X434Y511D02*
X444Y511D01*
X540Y511D02*
X568Y511D01*
X747Y511D02*
X755Y511D01*
X1251Y511D02*
X1259Y511D01*
X1442Y511D02*
X1448Y511D01*
X1658Y511D02*
X1660Y511D01*
X1667Y511D02*
X1669Y511D01*
X1894Y511D02*
X1900Y511D01*
X1992Y511D02*
X2005Y511D01*
X0Y510D02*
X13Y510D01*
X62Y510D02*
X73Y510D01*
X174Y510D02*
X177Y510D01*
X188Y510D02*
X191Y510D01*
X202Y510D02*
X205Y510D01*
X310Y510D02*
X320Y510D01*
X416Y510D02*
X439Y510D01*
X441Y510D02*
X444Y510D01*
X747Y510D02*
X755Y510D01*
X1251Y510D02*
X1259Y510D01*
X1442Y510D02*
X1448Y510D01*
X1658Y510D02*
X1684Y510D01*
X1894Y510D02*
X1900Y510D01*
X1992Y510D02*
X2005Y510D01*
X0Y509D02*
X13Y509D01*
X61Y509D02*
X72Y509D01*
X174Y509D02*
X177Y509D01*
X188Y509D02*
X191Y509D01*
X202Y509D02*
X205Y509D01*
X310Y509D02*
X320Y509D01*
X417Y509D02*
X438Y509D01*
X441Y509D02*
X444Y509D01*
X747Y509D02*
X755Y509D01*
X1251Y509D02*
X1259Y509D01*
X1442Y509D02*
X1448Y509D01*
X1658Y509D02*
X1685Y509D01*
X1894Y509D02*
X1900Y509D01*
X1992Y509D02*
X2005Y509D01*
X0Y508D02*
X13Y508D01*
X61Y508D02*
X72Y508D01*
X174Y508D02*
X177Y508D01*
X188Y508D02*
X191Y508D01*
X202Y508D02*
X205Y508D01*
X310Y508D02*
X320Y508D01*
X419Y508D02*
X436Y508D01*
X441Y508D02*
X444Y508D01*
X747Y508D02*
X755Y508D01*
X1251Y508D02*
X1259Y508D01*
X1441Y508D02*
X1447Y508D01*
X1658Y508D02*
X1685Y508D01*
X1894Y508D02*
X1900Y508D01*
X1992Y508D02*
X2005Y508D01*
X0Y507D02*
X13Y507D01*
X60Y507D02*
X71Y507D01*
X174Y507D02*
X205Y507D01*
X310Y507D02*
X320Y507D01*
X423Y507D02*
X433Y507D01*
X441Y507D02*
X444Y507D01*
X747Y507D02*
X755Y507D01*
X1251Y507D02*
X1259Y507D01*
X1441Y507D02*
X1447Y507D01*
X1658Y507D02*
X1684Y507D01*
X1895Y507D02*
X1901Y507D01*
X1992Y507D02*
X2005Y507D01*
X0Y506D02*
X13Y506D01*
X60Y506D02*
X71Y506D01*
X174Y506D02*
X205Y506D01*
X310Y506D02*
X320Y506D01*
X441Y506D02*
X444Y506D01*
X747Y506D02*
X755Y506D01*
X1251Y506D02*
X1259Y506D01*
X1441Y506D02*
X1447Y506D01*
X1895Y506D02*
X1901Y506D01*
X1992Y506D02*
X2005Y506D01*
X0Y505D02*
X13Y505D01*
X60Y505D02*
X71Y505D01*
X174Y505D02*
X205Y505D01*
X310Y505D02*
X320Y505D01*
X747Y505D02*
X755Y505D01*
X1251Y505D02*
X1259Y505D01*
X1441Y505D02*
X1447Y505D01*
X1895Y505D02*
X1901Y505D01*
X1992Y505D02*
X2005Y505D01*
X0Y504D02*
X13Y504D01*
X59Y504D02*
X70Y504D01*
X174Y504D02*
X205Y504D01*
X310Y504D02*
X320Y504D01*
X747Y504D02*
X755Y504D01*
X1006Y504D02*
X1007Y504D01*
X1251Y504D02*
X1259Y504D01*
X1440Y504D02*
X1446Y504D01*
X1895Y504D02*
X1901Y504D01*
X1992Y504D02*
X2005Y504D01*
X0Y503D02*
X13Y503D01*
X59Y503D02*
X70Y503D01*
X310Y503D02*
X320Y503D01*
X747Y503D02*
X755Y503D01*
X1003Y503D02*
X1010Y503D01*
X1251Y503D02*
X1259Y503D01*
X1342Y503D02*
X1345Y503D01*
X1440Y503D02*
X1446Y503D01*
X1895Y503D02*
X1901Y503D01*
X1992Y503D02*
X2005Y503D01*
X0Y502D02*
X13Y502D01*
X59Y502D02*
X69Y502D01*
X310Y502D02*
X320Y502D01*
X747Y502D02*
X755Y502D01*
X1001Y502D02*
X1012Y502D01*
X1251Y502D02*
X1259Y502D01*
X1342Y502D02*
X1345Y502D01*
X1440Y502D02*
X1446Y502D01*
X1896Y502D02*
X1902Y502D01*
X1992Y502D02*
X2005Y502D01*
X0Y501D02*
X13Y501D01*
X58Y501D02*
X69Y501D01*
X310Y501D02*
X320Y501D01*
X541Y501D02*
X568Y501D01*
X747Y501D02*
X755Y501D01*
X999Y501D02*
X1014Y501D01*
X1251Y501D02*
X1259Y501D01*
X1323Y501D02*
X1325Y501D01*
X1341Y501D02*
X1345Y501D01*
X1440Y501D02*
X1446Y501D01*
X1896Y501D02*
X1902Y501D01*
X1992Y501D02*
X2005Y501D01*
X0Y500D02*
X13Y500D01*
X58Y500D02*
X69Y500D01*
X310Y500D02*
X320Y500D01*
X415Y500D02*
X441Y500D01*
X539Y500D02*
X569Y500D01*
X747Y500D02*
X755Y500D01*
X997Y500D02*
X1005Y500D01*
X1008Y500D02*
X1016Y500D01*
X1251Y500D02*
X1259Y500D01*
X1323Y500D02*
X1326Y500D01*
X1340Y500D02*
X1344Y500D01*
X1439Y500D02*
X1445Y500D01*
X1896Y500D02*
X1902Y500D01*
X1992Y500D02*
X2005Y500D01*
X0Y499D02*
X13Y499D01*
X58Y499D02*
X68Y499D01*
X310Y499D02*
X320Y499D01*
X414Y499D02*
X442Y499D01*
X539Y499D02*
X569Y499D01*
X747Y499D02*
X755Y499D01*
X995Y499D02*
X1003Y499D01*
X1010Y499D02*
X1018Y499D01*
X1251Y499D02*
X1259Y499D01*
X1323Y499D02*
X1327Y499D01*
X1339Y499D02*
X1344Y499D01*
X1439Y499D02*
X1445Y499D01*
X1896Y499D02*
X1902Y499D01*
X1992Y499D02*
X2005Y499D01*
X0Y498D02*
X13Y498D01*
X60Y498D02*
X68Y498D01*
X310Y498D02*
X320Y498D01*
X413Y498D02*
X443Y498D01*
X538Y498D02*
X570Y498D01*
X747Y498D02*
X755Y498D01*
X993Y498D02*
X1001Y498D01*
X1012Y498D02*
X1020Y498D01*
X1251Y498D02*
X1259Y498D01*
X1323Y498D02*
X1328Y498D01*
X1338Y498D02*
X1343Y498D01*
X1439Y498D02*
X1445Y498D01*
X1658Y498D02*
X1660Y498D01*
X1683Y498D02*
X1684Y498D01*
X1896Y498D02*
X1902Y498D01*
X1992Y498D02*
X2005Y498D01*
X0Y497D02*
X13Y497D01*
X63Y497D02*
X68Y497D01*
X311Y497D02*
X320Y497D01*
X412Y497D02*
X444Y497D01*
X538Y497D02*
X542Y497D01*
X567Y497D02*
X570Y497D01*
X747Y497D02*
X755Y497D01*
X993Y497D02*
X999Y497D01*
X1014Y497D02*
X1021Y497D01*
X1251Y497D02*
X1259Y497D01*
X1324Y497D02*
X1329Y497D01*
X1337Y497D02*
X1342Y497D01*
X1439Y497D02*
X1445Y497D01*
X1658Y497D02*
X1660Y497D01*
X1682Y497D02*
X1685Y497D01*
X1897Y497D02*
X1903Y497D01*
X1992Y497D02*
X2005Y497D01*
X0Y496D02*
X13Y496D01*
X66Y496D02*
X67Y496D01*
X412Y496D02*
X416Y496D01*
X440Y496D02*
X444Y496D01*
X538Y496D02*
X542Y496D01*
X567Y496D02*
X570Y496D01*
X747Y496D02*
X755Y496D01*
X992Y496D02*
X997Y496D01*
X1016Y496D02*
X1021Y496D01*
X1251Y496D02*
X1259Y496D01*
X1325Y496D02*
X1330Y496D01*
X1336Y496D02*
X1341Y496D01*
X1439Y496D02*
X1445Y496D01*
X1658Y496D02*
X1660Y496D01*
X1682Y496D02*
X1685Y496D01*
X1897Y496D02*
X1903Y496D01*
X1992Y496D02*
X2005Y496D01*
X0Y495D02*
X13Y495D01*
X412Y495D02*
X415Y495D01*
X441Y495D02*
X444Y495D01*
X538Y495D02*
X542Y495D01*
X567Y495D02*
X570Y495D01*
X747Y495D02*
X755Y495D01*
X992Y495D02*
X995Y495D01*
X1018Y495D02*
X1021Y495D01*
X1251Y495D02*
X1259Y495D01*
X1326Y495D02*
X1330Y495D01*
X1336Y495D02*
X1340Y495D01*
X1439Y495D02*
X1445Y495D01*
X1658Y495D02*
X1660Y495D01*
X1682Y495D02*
X1685Y495D01*
X1897Y495D02*
X1903Y495D01*
X1992Y495D02*
X2005Y495D01*
X0Y494D02*
X13Y494D01*
X412Y494D02*
X415Y494D01*
X441Y494D02*
X444Y494D01*
X538Y494D02*
X542Y494D01*
X567Y494D02*
X570Y494D01*
X747Y494D02*
X755Y494D01*
X992Y494D02*
X995Y494D01*
X1018Y494D02*
X1021Y494D01*
X1251Y494D02*
X1259Y494D01*
X1327Y494D02*
X1331Y494D01*
X1335Y494D02*
X1339Y494D01*
X1438Y494D02*
X1444Y494D01*
X1658Y494D02*
X1660Y494D01*
X1682Y494D02*
X1685Y494D01*
X1897Y494D02*
X1903Y494D01*
X1992Y494D02*
X2005Y494D01*
X0Y493D02*
X13Y493D01*
X202Y493D02*
X205Y493D01*
X412Y493D02*
X415Y493D01*
X441Y493D02*
X444Y493D01*
X538Y493D02*
X542Y493D01*
X567Y493D02*
X570Y493D01*
X747Y493D02*
X755Y493D01*
X992Y493D02*
X996Y493D01*
X1017Y493D02*
X1021Y493D01*
X1251Y493D02*
X1259Y493D01*
X1328Y493D02*
X1332Y493D01*
X1334Y493D02*
X1338Y493D01*
X1438Y493D02*
X1444Y493D01*
X1658Y493D02*
X1660Y493D01*
X1682Y493D02*
X1685Y493D01*
X1897Y493D02*
X1903Y493D01*
X1992Y493D02*
X2005Y493D01*
X0Y492D02*
X13Y492D01*
X202Y492D02*
X205Y492D01*
X412Y492D02*
X415Y492D01*
X441Y492D02*
X444Y492D01*
X538Y492D02*
X542Y492D01*
X567Y492D02*
X570Y492D01*
X747Y492D02*
X755Y492D01*
X992Y492D02*
X998Y492D01*
X1015Y492D02*
X1021Y492D01*
X1251Y492D02*
X1259Y492D01*
X1329Y492D02*
X1338Y492D01*
X1438Y492D02*
X1444Y492D01*
X1658Y492D02*
X1660Y492D01*
X1682Y492D02*
X1685Y492D01*
X1898Y492D02*
X1904Y492D01*
X1992Y492D02*
X2005Y492D01*
X0Y491D02*
X13Y491D01*
X202Y491D02*
X205Y491D01*
X412Y491D02*
X415Y491D01*
X441Y491D02*
X444Y491D01*
X538Y491D02*
X542Y491D01*
X567Y491D02*
X570Y491D01*
X747Y491D02*
X755Y491D01*
X993Y491D02*
X1000Y491D01*
X1013Y491D02*
X1020Y491D01*
X1251Y491D02*
X1259Y491D01*
X1329Y491D02*
X1337Y491D01*
X1438Y491D02*
X1444Y491D01*
X1658Y491D02*
X1660Y491D01*
X1671Y491D02*
X1672Y491D01*
X1682Y491D02*
X1685Y491D01*
X1898Y491D02*
X1904Y491D01*
X1992Y491D02*
X2005Y491D01*
X0Y490D02*
X13Y490D01*
X202Y490D02*
X205Y490D01*
X412Y490D02*
X415Y490D01*
X441Y490D02*
X444Y490D01*
X538Y490D02*
X542Y490D01*
X567Y490D02*
X570Y490D01*
X747Y490D02*
X755Y490D01*
X994Y490D02*
X1002Y490D01*
X1011Y490D02*
X1019Y490D01*
X1251Y490D02*
X1259Y490D01*
X1330Y490D02*
X1336Y490D01*
X1438Y490D02*
X1444Y490D01*
X1658Y490D02*
X1660Y490D01*
X1670Y490D02*
X1672Y490D01*
X1682Y490D02*
X1685Y490D01*
X1898Y490D02*
X1904Y490D01*
X1992Y490D02*
X2005Y490D01*
X0Y489D02*
X13Y489D01*
X202Y489D02*
X205Y489D01*
X412Y489D02*
X415Y489D01*
X441Y489D02*
X444Y489D01*
X538Y489D02*
X542Y489D01*
X567Y489D02*
X570Y489D01*
X747Y489D02*
X755Y489D01*
X996Y489D02*
X1004Y489D01*
X1009Y489D02*
X1017Y489D01*
X1251Y489D02*
X1259Y489D01*
X1331Y489D02*
X1336Y489D01*
X1438Y489D02*
X1444Y489D01*
X1658Y489D02*
X1660Y489D01*
X1670Y489D02*
X1673Y489D01*
X1682Y489D02*
X1685Y489D01*
X1898Y489D02*
X1904Y489D01*
X1992Y489D02*
X2005Y489D01*
X0Y488D02*
X13Y488D01*
X202Y488D02*
X205Y488D01*
X412Y488D02*
X415Y488D01*
X441Y488D02*
X444Y488D01*
X538Y488D02*
X542Y488D01*
X567Y488D02*
X570Y488D01*
X747Y488D02*
X755Y488D01*
X998Y488D02*
X1015Y488D01*
X1251Y488D02*
X1259Y488D01*
X1332Y488D02*
X1336Y488D01*
X1437Y488D02*
X1443Y488D01*
X1658Y488D02*
X1660Y488D01*
X1670Y488D02*
X1673Y488D01*
X1682Y488D02*
X1685Y488D01*
X1898Y488D02*
X1904Y488D01*
X1992Y488D02*
X2005Y488D01*
X0Y487D02*
X13Y487D01*
X202Y487D02*
X205Y487D01*
X412Y487D02*
X415Y487D01*
X441Y487D02*
X444Y487D01*
X538Y487D02*
X542Y487D01*
X567Y487D02*
X570Y487D01*
X747Y487D02*
X755Y487D01*
X1000Y487D02*
X1013Y487D01*
X1251Y487D02*
X1259Y487D01*
X1315Y487D02*
X1344Y487D01*
X1437Y487D02*
X1443Y487D01*
X1658Y487D02*
X1660Y487D01*
X1670Y487D02*
X1673Y487D01*
X1682Y487D02*
X1685Y487D01*
X1898Y487D02*
X1904Y487D01*
X1992Y487D02*
X2005Y487D01*
X0Y486D02*
X13Y486D01*
X202Y486D02*
X205Y486D01*
X412Y486D02*
X415Y486D01*
X441Y486D02*
X444Y486D01*
X538Y486D02*
X542Y486D01*
X567Y486D02*
X570Y486D01*
X747Y486D02*
X755Y486D01*
X1002Y486D02*
X1011Y486D01*
X1251Y486D02*
X1259Y486D01*
X1314Y486D02*
X1345Y486D01*
X1437Y486D02*
X1443Y486D01*
X1658Y486D02*
X1660Y486D01*
X1670Y486D02*
X1673Y486D01*
X1682Y486D02*
X1685Y486D01*
X1898Y486D02*
X1904Y486D01*
X1992Y486D02*
X2005Y486D01*
X0Y485D02*
X13Y485D01*
X202Y485D02*
X204Y485D01*
X412Y485D02*
X415Y485D01*
X441Y485D02*
X444Y485D01*
X538Y485D02*
X570Y485D01*
X747Y485D02*
X755Y485D01*
X1004Y485D02*
X1009Y485D01*
X1251Y485D02*
X1259Y485D01*
X1314Y485D02*
X1345Y485D01*
X1437Y485D02*
X1443Y485D01*
X1658Y485D02*
X1660Y485D01*
X1670Y485D02*
X1673Y485D01*
X1682Y485D02*
X1685Y485D01*
X1899Y485D02*
X1905Y485D01*
X1992Y485D02*
X2005Y485D01*
X0Y484D02*
X13Y484D01*
X202Y484D02*
X203Y484D01*
X412Y484D02*
X416Y484D01*
X440Y484D02*
X444Y484D01*
X539Y484D02*
X570Y484D01*
X747Y484D02*
X755Y484D01*
X1251Y484D02*
X1259Y484D01*
X1314Y484D02*
X1345Y484D01*
X1437Y484D02*
X1443Y484D01*
X1658Y484D02*
X1685Y484D01*
X1899Y484D02*
X1905Y484D01*
X1992Y484D02*
X2005Y484D01*
X0Y483D02*
X13Y483D01*
X412Y483D02*
X444Y483D01*
X539Y483D02*
X569Y483D01*
X747Y483D02*
X755Y483D01*
X1251Y483D02*
X1259Y483D01*
X1437Y483D02*
X1443Y483D01*
X1658Y483D02*
X1685Y483D01*
X1899Y483D02*
X1905Y483D01*
X1992Y483D02*
X2005Y483D01*
X0Y482D02*
X13Y482D01*
X413Y482D02*
X443Y482D01*
X540Y482D02*
X568Y482D01*
X747Y482D02*
X755Y482D01*
X1251Y482D02*
X1259Y482D01*
X1437Y482D02*
X1443Y482D01*
X1658Y482D02*
X1685Y482D01*
X1899Y482D02*
X1905Y482D01*
X1992Y482D02*
X2005Y482D01*
X0Y481D02*
X13Y481D01*
X413Y481D02*
X443Y481D01*
X542Y481D02*
X566Y481D01*
X747Y481D02*
X755Y481D01*
X1251Y481D02*
X1259Y481D01*
X1436Y481D02*
X1442Y481D01*
X1658Y481D02*
X1685Y481D01*
X1899Y481D02*
X1905Y481D01*
X1992Y481D02*
X2005Y481D01*
X0Y480D02*
X13Y480D01*
X415Y480D02*
X441Y480D01*
X747Y480D02*
X755Y480D01*
X1251Y480D02*
X1259Y480D01*
X1436Y480D02*
X1442Y480D01*
X1899Y480D02*
X1905Y480D01*
X1992Y480D02*
X2005Y480D01*
X0Y479D02*
X13Y479D01*
X747Y479D02*
X755Y479D01*
X1251Y479D02*
X1259Y479D01*
X1436Y479D02*
X1442Y479D01*
X1899Y479D02*
X1905Y479D01*
X1992Y479D02*
X2005Y479D01*
X0Y478D02*
X13Y478D01*
X747Y478D02*
X755Y478D01*
X1251Y478D02*
X1259Y478D01*
X1436Y478D02*
X1442Y478D01*
X1900Y478D02*
X1905Y478D01*
X1992Y478D02*
X2005Y478D01*
X0Y477D02*
X13Y477D01*
X174Y477D02*
X195Y477D01*
X747Y477D02*
X755Y477D01*
X1251Y477D02*
X1259Y477D01*
X1436Y477D02*
X1442Y477D01*
X1900Y477D02*
X1906Y477D01*
X1992Y477D02*
X2005Y477D01*
X0Y476D02*
X13Y476D01*
X174Y476D02*
X194Y476D01*
X747Y476D02*
X755Y476D01*
X1251Y476D02*
X1259Y476D01*
X1436Y476D02*
X1442Y476D01*
X1900Y476D02*
X1906Y476D01*
X1992Y476D02*
X2005Y476D01*
X0Y475D02*
X13Y475D01*
X175Y475D02*
X193Y475D01*
X664Y475D02*
X695Y475D01*
X747Y475D02*
X755Y475D01*
X992Y475D02*
X997Y475D01*
X1251Y475D02*
X1259Y475D01*
X1436Y475D02*
X1442Y475D01*
X1900Y475D02*
X1906Y475D01*
X1992Y475D02*
X2005Y475D01*
X0Y474D02*
X13Y474D01*
X176Y474D02*
X192Y474D01*
X664Y474D02*
X695Y474D01*
X747Y474D02*
X755Y474D01*
X992Y474D02*
X998Y474D01*
X1251Y474D02*
X1259Y474D01*
X1436Y474D02*
X1442Y474D01*
X1900Y474D02*
X1906Y474D01*
X1992Y474D02*
X2005Y474D01*
X0Y473D02*
X13Y473D01*
X664Y473D02*
X695Y473D01*
X747Y473D02*
X755Y473D01*
X992Y473D02*
X998Y473D01*
X1251Y473D02*
X1259Y473D01*
X1316Y473D02*
X1329Y473D01*
X1343Y473D02*
X1345Y473D01*
X1436Y473D02*
X1442Y473D01*
X1900Y473D02*
X1906Y473D01*
X1992Y473D02*
X2005Y473D01*
X0Y472D02*
X13Y472D01*
X664Y472D02*
X694Y472D01*
X747Y472D02*
X755Y472D01*
X992Y472D02*
X997Y472D01*
X1251Y472D02*
X1259Y472D01*
X1315Y472D02*
X1330Y472D01*
X1342Y472D02*
X1345Y472D01*
X1436Y472D02*
X1442Y472D01*
X1658Y472D02*
X1659Y472D01*
X1683Y472D02*
X1684Y472D01*
X1900Y472D02*
X1906Y472D01*
X1992Y472D02*
X2005Y472D01*
X0Y471D02*
X13Y471D01*
X541Y471D02*
X553Y471D01*
X568Y471D02*
X569Y471D01*
X664Y471D02*
X669Y471D01*
X747Y471D02*
X755Y471D01*
X992Y471D02*
X995Y471D01*
X1251Y471D02*
X1259Y471D01*
X1314Y471D02*
X1331Y471D01*
X1342Y471D02*
X1345Y471D01*
X1436Y471D02*
X1442Y471D01*
X1658Y471D02*
X1661Y471D01*
X1682Y471D02*
X1685Y471D01*
X1900Y471D02*
X1906Y471D01*
X1992Y471D02*
X2005Y471D01*
X0Y470D02*
X13Y470D01*
X430Y470D02*
X441Y470D01*
X540Y470D02*
X555Y470D01*
X567Y470D02*
X570Y470D01*
X665Y470D02*
X671Y470D01*
X747Y470D02*
X755Y470D01*
X992Y470D02*
X995Y470D01*
X1251Y470D02*
X1259Y470D01*
X1314Y470D02*
X1331Y470D01*
X1342Y470D02*
X1345Y470D01*
X1435Y470D02*
X1441Y470D01*
X1658Y470D02*
X1663Y470D01*
X1682Y470D02*
X1685Y470D01*
X1900Y470D02*
X1906Y470D01*
X1992Y470D02*
X2005Y470D01*
X0Y469D02*
X13Y469D01*
X428Y469D02*
X442Y469D01*
X539Y469D02*
X555Y469D01*
X567Y469D02*
X570Y469D01*
X666Y469D02*
X672Y469D01*
X747Y469D02*
X755Y469D01*
X992Y469D02*
X995Y469D01*
X1251Y469D02*
X1259Y469D01*
X1314Y469D02*
X1317Y469D01*
X1328Y469D02*
X1331Y469D01*
X1342Y469D02*
X1345Y469D01*
X1435Y469D02*
X1441Y469D01*
X1658Y469D02*
X1665Y469D01*
X1682Y469D02*
X1685Y469D01*
X1900Y469D02*
X1906Y469D01*
X1992Y469D02*
X2005Y469D01*
X0Y468D02*
X13Y468D01*
X427Y468D02*
X443Y468D01*
X539Y468D02*
X556Y468D01*
X567Y468D02*
X570Y468D01*
X667Y468D02*
X674Y468D01*
X747Y468D02*
X755Y468D01*
X992Y468D02*
X995Y468D01*
X1251Y468D02*
X1259Y468D01*
X1314Y468D02*
X1317Y468D01*
X1328Y468D02*
X1331Y468D01*
X1342Y468D02*
X1345Y468D01*
X1435Y468D02*
X1441Y468D01*
X1658Y468D02*
X1666Y468D01*
X1682Y468D02*
X1685Y468D01*
X1900Y468D02*
X1906Y468D01*
X1992Y468D02*
X2005Y468D01*
X0Y467D02*
X13Y467D01*
X427Y467D02*
X444Y467D01*
X538Y467D02*
X542Y467D01*
X552Y467D02*
X556Y467D01*
X567Y467D02*
X570Y467D01*
X669Y467D02*
X677Y467D01*
X747Y467D02*
X755Y467D01*
X992Y467D02*
X1021Y467D01*
X1251Y467D02*
X1259Y467D01*
X1314Y467D02*
X1317Y467D01*
X1328Y467D02*
X1331Y467D01*
X1342Y467D02*
X1345Y467D01*
X1435Y467D02*
X1441Y467D01*
X1658Y467D02*
X1668Y467D01*
X1682Y467D02*
X1685Y467D01*
X1900Y467D02*
X1906Y467D01*
X1992Y467D02*
X2005Y467D01*
X0Y466D02*
X13Y466D01*
X415Y466D02*
X444Y466D01*
X538Y466D02*
X542Y466D01*
X553Y466D02*
X556Y466D01*
X567Y466D02*
X570Y466D01*
X670Y466D02*
X677Y466D01*
X747Y466D02*
X755Y466D01*
X992Y466D02*
X1021Y466D01*
X1251Y466D02*
X1259Y466D01*
X1314Y466D02*
X1317Y466D01*
X1328Y466D02*
X1331Y466D01*
X1342Y466D02*
X1345Y466D01*
X1435Y466D02*
X1441Y466D01*
X1658Y466D02*
X1660Y466D01*
X1663Y466D02*
X1670Y466D01*
X1682Y466D02*
X1685Y466D01*
X1900Y466D02*
X1906Y466D01*
X1992Y466D02*
X2005Y466D01*
X0Y465D02*
X13Y465D01*
X413Y465D02*
X430Y465D01*
X441Y465D02*
X444Y465D01*
X538Y465D02*
X542Y465D01*
X553Y465D02*
X556Y465D01*
X567Y465D02*
X570Y465D01*
X670Y465D02*
X677Y465D01*
X747Y465D02*
X755Y465D01*
X992Y465D02*
X1021Y465D01*
X1251Y465D02*
X1259Y465D01*
X1314Y465D02*
X1317Y465D01*
X1328Y465D02*
X1331Y465D01*
X1342Y465D02*
X1345Y465D01*
X1435Y465D02*
X1441Y465D01*
X1658Y465D02*
X1660Y465D01*
X1665Y465D02*
X1671Y465D01*
X1682Y465D02*
X1685Y465D01*
X1900Y465D02*
X1906Y465D01*
X1992Y465D02*
X2005Y465D01*
X0Y464D02*
X13Y464D01*
X412Y464D02*
X430Y464D01*
X441Y464D02*
X444Y464D01*
X538Y464D02*
X542Y464D01*
X553Y464D02*
X556Y464D01*
X567Y464D02*
X570Y464D01*
X669Y464D02*
X677Y464D01*
X747Y464D02*
X755Y464D01*
X992Y464D02*
X1020Y464D01*
X1251Y464D02*
X1259Y464D01*
X1314Y464D02*
X1317Y464D01*
X1328Y464D02*
X1331Y464D01*
X1342Y464D02*
X1345Y464D01*
X1435Y464D02*
X1441Y464D01*
X1658Y464D02*
X1660Y464D01*
X1667Y464D02*
X1673Y464D01*
X1682Y464D02*
X1685Y464D01*
X1901Y464D02*
X1907Y464D01*
X1992Y464D02*
X2005Y464D01*
X0Y463D02*
X13Y463D01*
X412Y463D02*
X430Y463D01*
X441Y463D02*
X444Y463D01*
X538Y463D02*
X542Y463D01*
X553Y463D02*
X556Y463D01*
X567Y463D02*
X570Y463D01*
X667Y463D02*
X674Y463D01*
X747Y463D02*
X755Y463D01*
X992Y463D02*
X995Y463D01*
X1251Y463D02*
X1259Y463D01*
X1314Y463D02*
X1317Y463D01*
X1328Y463D02*
X1331Y463D01*
X1342Y463D02*
X1345Y463D01*
X1435Y463D02*
X1441Y463D01*
X1658Y463D02*
X1660Y463D01*
X1669Y463D02*
X1675Y463D01*
X1682Y463D02*
X1685Y463D01*
X1901Y463D02*
X1907Y463D01*
X1992Y463D02*
X2005Y463D01*
X0Y462D02*
X13Y462D01*
X412Y462D02*
X430Y462D01*
X441Y462D02*
X444Y462D01*
X538Y462D02*
X542Y462D01*
X553Y462D02*
X556Y462D01*
X567Y462D02*
X570Y462D01*
X666Y462D02*
X672Y462D01*
X747Y462D02*
X755Y462D01*
X992Y462D02*
X995Y462D01*
X1251Y462D02*
X1259Y462D01*
X1314Y462D02*
X1317Y462D01*
X1328Y462D02*
X1331Y462D01*
X1342Y462D02*
X1345Y462D01*
X1435Y462D02*
X1441Y462D01*
X1658Y462D02*
X1660Y462D01*
X1670Y462D02*
X1677Y462D01*
X1682Y462D02*
X1685Y462D01*
X1901Y462D02*
X1907Y462D01*
X1992Y462D02*
X2005Y462D01*
X0Y461D02*
X13Y461D01*
X412Y461D02*
X415Y461D01*
X426Y461D02*
X430Y461D01*
X441Y461D02*
X444Y461D01*
X538Y461D02*
X542Y461D01*
X553Y461D02*
X556Y461D01*
X567Y461D02*
X570Y461D01*
X665Y461D02*
X671Y461D01*
X747Y461D02*
X755Y461D01*
X992Y461D02*
X995Y461D01*
X1251Y461D02*
X1259Y461D01*
X1314Y461D02*
X1317Y461D01*
X1328Y461D02*
X1331Y461D01*
X1342Y461D02*
X1345Y461D01*
X1435Y461D02*
X1441Y461D01*
X1658Y461D02*
X1660Y461D01*
X1672Y461D02*
X1678Y461D01*
X1682Y461D02*
X1685Y461D01*
X1901Y461D02*
X1907Y461D01*
X1992Y461D02*
X2005Y461D01*
X0Y460D02*
X13Y460D01*
X412Y460D02*
X415Y460D01*
X426Y460D02*
X430Y460D01*
X441Y460D02*
X444Y460D01*
X538Y460D02*
X542Y460D01*
X553Y460D02*
X556Y460D01*
X567Y460D02*
X570Y460D01*
X664Y460D02*
X670Y460D01*
X747Y460D02*
X755Y460D01*
X992Y460D02*
X996Y460D01*
X1251Y460D02*
X1259Y460D01*
X1314Y460D02*
X1317Y460D01*
X1328Y460D02*
X1331Y460D01*
X1342Y460D02*
X1345Y460D01*
X1435Y460D02*
X1441Y460D01*
X1658Y460D02*
X1660Y460D01*
X1674Y460D02*
X1680Y460D01*
X1682Y460D02*
X1685Y460D01*
X1901Y460D02*
X1907Y460D01*
X1992Y460D02*
X2005Y460D01*
X0Y459D02*
X13Y459D01*
X412Y459D02*
X415Y459D01*
X426Y459D02*
X430Y459D01*
X441Y459D02*
X444Y459D01*
X538Y459D02*
X542Y459D01*
X553Y459D02*
X556Y459D01*
X567Y459D02*
X570Y459D01*
X664Y459D02*
X694Y459D01*
X747Y459D02*
X755Y459D01*
X992Y459D02*
X998Y459D01*
X1251Y459D02*
X1259Y459D01*
X1314Y459D02*
X1317Y459D01*
X1328Y459D02*
X1331Y459D01*
X1342Y459D02*
X1345Y459D01*
X1435Y459D02*
X1441Y459D01*
X1658Y459D02*
X1660Y459D01*
X1675Y459D02*
X1685Y459D01*
X1901Y459D02*
X1907Y459D01*
X1992Y459D02*
X2005Y459D01*
X0Y458D02*
X13Y458D01*
X412Y458D02*
X416Y458D01*
X426Y458D02*
X430Y458D01*
X441Y458D02*
X444Y458D01*
X538Y458D02*
X542Y458D01*
X553Y458D02*
X556Y458D01*
X567Y458D02*
X570Y458D01*
X664Y458D02*
X695Y458D01*
X747Y458D02*
X755Y458D01*
X992Y458D02*
X998Y458D01*
X1251Y458D02*
X1259Y458D01*
X1314Y458D02*
X1317Y458D01*
X1328Y458D02*
X1331Y458D01*
X1342Y458D02*
X1345Y458D01*
X1435Y458D02*
X1441Y458D01*
X1658Y458D02*
X1660Y458D01*
X1677Y458D02*
X1685Y458D01*
X1901Y458D02*
X1907Y458D01*
X1992Y458D02*
X2005Y458D01*
X0Y457D02*
X13Y457D01*
X412Y457D02*
X430Y457D01*
X441Y457D02*
X444Y457D01*
X538Y457D02*
X542Y457D01*
X553Y457D02*
X556Y457D01*
X567Y457D02*
X570Y457D01*
X664Y457D02*
X695Y457D01*
X747Y457D02*
X755Y457D01*
X992Y457D02*
X998Y457D01*
X1251Y457D02*
X1259Y457D01*
X1314Y457D02*
X1317Y457D01*
X1328Y457D02*
X1345Y457D01*
X1435Y457D02*
X1441Y457D01*
X1658Y457D02*
X1660Y457D01*
X1679Y457D02*
X1685Y457D01*
X1901Y457D02*
X1907Y457D01*
X1992Y457D02*
X2005Y457D01*
X0Y456D02*
X13Y456D01*
X412Y456D02*
X430Y456D01*
X441Y456D02*
X444Y456D01*
X538Y456D02*
X542Y456D01*
X553Y456D02*
X556Y456D01*
X567Y456D02*
X570Y456D01*
X664Y456D02*
X695Y456D01*
X747Y456D02*
X755Y456D01*
X1251Y456D02*
X1259Y456D01*
X1314Y456D02*
X1317Y456D01*
X1328Y456D02*
X1345Y456D01*
X1435Y456D02*
X1441Y456D01*
X1658Y456D02*
X1660Y456D01*
X1681Y456D02*
X1685Y456D01*
X1901Y456D02*
X1907Y456D01*
X1992Y456D02*
X2005Y456D01*
X0Y455D02*
X13Y455D01*
X412Y455D02*
X430Y455D01*
X441Y455D02*
X444Y455D01*
X538Y455D02*
X542Y455D01*
X553Y455D02*
X556Y455D01*
X566Y455D02*
X570Y455D01*
X747Y455D02*
X755Y455D01*
X1251Y455D02*
X1259Y455D01*
X1314Y455D02*
X1317Y455D01*
X1329Y455D02*
X1345Y455D01*
X1435Y455D02*
X1441Y455D01*
X1658Y455D02*
X1660Y455D01*
X1682Y455D02*
X1685Y455D01*
X1901Y455D02*
X1907Y455D01*
X1992Y455D02*
X2005Y455D01*
X0Y454D02*
X13Y454D01*
X413Y454D02*
X430Y454D01*
X440Y454D02*
X444Y454D01*
X538Y454D02*
X542Y454D01*
X553Y454D02*
X570Y454D01*
X747Y454D02*
X755Y454D01*
X1251Y454D02*
X1259Y454D01*
X1314Y454D02*
X1317Y454D01*
X1330Y454D02*
X1345Y454D01*
X1435Y454D02*
X1441Y454D01*
X1901Y454D02*
X1907Y454D01*
X1992Y454D02*
X2005Y454D01*
X0Y453D02*
X13Y453D01*
X426Y453D02*
X444Y453D01*
X538Y453D02*
X542Y453D01*
X553Y453D02*
X570Y453D01*
X747Y453D02*
X755Y453D01*
X1251Y453D02*
X1259Y453D01*
X1435Y453D02*
X1441Y453D01*
X1901Y453D02*
X1907Y453D01*
X1992Y453D02*
X2005Y453D01*
X0Y452D02*
X13Y452D01*
X427Y452D02*
X443Y452D01*
X539Y452D02*
X541Y452D01*
X554Y452D02*
X570Y452D01*
X747Y452D02*
X755Y452D01*
X1251Y452D02*
X1259Y452D01*
X1435Y452D02*
X1441Y452D01*
X1901Y452D02*
X1907Y452D01*
X1992Y452D02*
X2005Y452D01*
X0Y451D02*
X13Y451D01*
X427Y451D02*
X443Y451D01*
X540Y451D02*
X540Y451D01*
X555Y451D02*
X570Y451D01*
X747Y451D02*
X755Y451D01*
X1251Y451D02*
X1259Y451D01*
X1435Y451D02*
X1441Y451D01*
X1901Y451D02*
X1907Y451D01*
X1992Y451D02*
X2005Y451D01*
X0Y450D02*
X13Y450D01*
X429Y450D02*
X441Y450D01*
X747Y450D02*
X755Y450D01*
X1251Y450D02*
X1259Y450D01*
X1435Y450D02*
X1441Y450D01*
X1901Y450D02*
X1907Y450D01*
X1992Y450D02*
X2005Y450D01*
X0Y449D02*
X13Y449D01*
X747Y449D02*
X755Y449D01*
X1251Y449D02*
X1259Y449D01*
X1435Y449D02*
X1441Y449D01*
X1901Y449D02*
X1907Y449D01*
X1992Y449D02*
X2005Y449D01*
X0Y448D02*
X13Y448D01*
X747Y448D02*
X755Y448D01*
X1251Y448D02*
X1259Y448D01*
X1435Y448D02*
X1441Y448D01*
X1901Y448D02*
X1907Y448D01*
X1992Y448D02*
X2005Y448D01*
X0Y447D02*
X13Y447D01*
X747Y447D02*
X755Y447D01*
X992Y447D02*
X997Y447D01*
X1251Y447D02*
X1259Y447D01*
X1435Y447D02*
X1441Y447D01*
X1901Y447D02*
X1907Y447D01*
X1992Y447D02*
X2005Y447D01*
X0Y446D02*
X13Y446D01*
X747Y446D02*
X755Y446D01*
X992Y446D02*
X998Y446D01*
X1251Y446D02*
X1259Y446D01*
X1435Y446D02*
X1441Y446D01*
X1658Y446D02*
X1659Y446D01*
X1901Y446D02*
X1907Y446D01*
X1992Y446D02*
X2005Y446D01*
X0Y445D02*
X13Y445D01*
X682Y445D02*
X695Y445D01*
X747Y445D02*
X755Y445D01*
X992Y445D02*
X998Y445D01*
X1251Y445D02*
X1259Y445D01*
X1435Y445D02*
X1441Y445D01*
X1658Y445D02*
X1661Y445D01*
X1682Y445D02*
X1685Y445D01*
X1901Y445D02*
X1907Y445D01*
X1992Y445D02*
X2005Y445D01*
X0Y444D02*
X13Y444D01*
X681Y444D02*
X695Y444D01*
X747Y444D02*
X755Y444D01*
X992Y444D02*
X998Y444D01*
X1251Y444D02*
X1259Y444D01*
X1435Y444D02*
X1441Y444D01*
X1658Y444D02*
X1662Y444D01*
X1682Y444D02*
X1685Y444D01*
X1901Y444D02*
X1907Y444D01*
X1992Y444D02*
X2005Y444D01*
X0Y443D02*
X13Y443D01*
X682Y443D02*
X695Y443D01*
X747Y443D02*
X755Y443D01*
X992Y443D02*
X995Y443D01*
X1251Y443D02*
X1259Y443D01*
X1332Y443D02*
X1345Y443D01*
X1435Y443D02*
X1441Y443D01*
X1658Y443D02*
X1664Y443D01*
X1682Y443D02*
X1685Y443D01*
X1901Y443D02*
X1906Y443D01*
X1992Y443D02*
X2005Y443D01*
X0Y442D02*
X13Y442D01*
X682Y442D02*
X695Y442D01*
X747Y442D02*
X755Y442D01*
X992Y442D02*
X995Y442D01*
X1251Y442D02*
X1259Y442D01*
X1331Y442D02*
X1345Y442D01*
X1435Y442D02*
X1441Y442D01*
X1658Y442D02*
X1666Y442D01*
X1682Y442D02*
X1685Y442D01*
X1900Y442D02*
X1906Y442D01*
X1992Y442D02*
X2005Y442D01*
X0Y441D02*
X13Y441D01*
X541Y441D02*
X553Y441D01*
X568Y441D02*
X569Y441D01*
X692Y441D02*
X695Y441D01*
X747Y441D02*
X755Y441D01*
X992Y441D02*
X995Y441D01*
X1251Y441D02*
X1259Y441D01*
X1332Y441D02*
X1345Y441D01*
X1435Y441D02*
X1441Y441D01*
X1658Y441D02*
X1668Y441D01*
X1682Y441D02*
X1685Y441D01*
X1900Y441D02*
X1906Y441D01*
X1992Y441D02*
X2005Y441D01*
X0Y440D02*
X13Y440D01*
X432Y440D02*
X442Y440D01*
X540Y440D02*
X554Y440D01*
X567Y440D02*
X570Y440D01*
X692Y440D02*
X695Y440D01*
X747Y440D02*
X755Y440D01*
X992Y440D02*
X995Y440D01*
X1251Y440D02*
X1259Y440D01*
X1332Y440D02*
X1345Y440D01*
X1435Y440D02*
X1441Y440D01*
X1658Y440D02*
X1660Y440D01*
X1663Y440D02*
X1669Y440D01*
X1682Y440D02*
X1685Y440D01*
X1900Y440D02*
X1906Y440D01*
X1992Y440D02*
X2005Y440D01*
X0Y439D02*
X13Y439D01*
X430Y439D02*
X443Y439D01*
X539Y439D02*
X555Y439D01*
X567Y439D02*
X570Y439D01*
X692Y439D02*
X695Y439D01*
X747Y439D02*
X755Y439D01*
X992Y439D02*
X1020Y439D01*
X1251Y439D02*
X1259Y439D01*
X1342Y439D02*
X1345Y439D01*
X1435Y439D02*
X1441Y439D01*
X1658Y439D02*
X1660Y439D01*
X1665Y439D02*
X1671Y439D01*
X1682Y439D02*
X1685Y439D01*
X1900Y439D02*
X1906Y439D01*
X1992Y439D02*
X2005Y439D01*
X0Y438D02*
X13Y438D01*
X430Y438D02*
X444Y438D01*
X539Y438D02*
X556Y438D01*
X567Y438D02*
X570Y438D01*
X692Y438D02*
X695Y438D01*
X747Y438D02*
X755Y438D01*
X992Y438D02*
X1021Y438D01*
X1251Y438D02*
X1259Y438D01*
X1342Y438D02*
X1345Y438D01*
X1435Y438D02*
X1441Y438D01*
X1658Y438D02*
X1660Y438D01*
X1666Y438D02*
X1673Y438D01*
X1682Y438D02*
X1685Y438D01*
X1900Y438D02*
X1906Y438D01*
X1992Y438D02*
X2005Y438D01*
X0Y437D02*
X13Y437D01*
X430Y437D02*
X444Y437D01*
X538Y437D02*
X542Y437D01*
X552Y437D02*
X556Y437D01*
X567Y437D02*
X570Y437D01*
X664Y437D02*
X695Y437D01*
X747Y437D02*
X755Y437D01*
X992Y437D02*
X1021Y437D01*
X1251Y437D02*
X1259Y437D01*
X1342Y437D02*
X1345Y437D01*
X1436Y437D02*
X1441Y437D01*
X1658Y437D02*
X1660Y437D01*
X1668Y437D02*
X1674Y437D01*
X1682Y437D02*
X1685Y437D01*
X1900Y437D02*
X1906Y437D01*
X1992Y437D02*
X2005Y437D01*
X0Y436D02*
X13Y436D01*
X432Y436D02*
X444Y436D01*
X538Y436D02*
X542Y436D01*
X553Y436D02*
X556Y436D01*
X567Y436D02*
X570Y436D01*
X664Y436D02*
X695Y436D01*
X747Y436D02*
X755Y436D01*
X992Y436D02*
X1021Y436D01*
X1251Y436D02*
X1259Y436D01*
X1342Y436D02*
X1345Y436D01*
X1436Y436D02*
X1442Y436D01*
X1658Y436D02*
X1660Y436D01*
X1670Y436D02*
X1676Y436D01*
X1682Y436D02*
X1685Y436D01*
X1900Y436D02*
X1906Y436D01*
X1992Y436D02*
X2005Y436D01*
X0Y435D02*
X13Y435D01*
X441Y435D02*
X444Y435D01*
X538Y435D02*
X542Y435D01*
X553Y435D02*
X556Y435D01*
X567Y435D02*
X570Y435D01*
X664Y435D02*
X695Y435D01*
X747Y435D02*
X755Y435D01*
X992Y435D02*
X995Y435D01*
X1251Y435D02*
X1259Y435D01*
X1314Y435D02*
X1345Y435D01*
X1436Y435D02*
X1442Y435D01*
X1658Y435D02*
X1660Y435D01*
X1672Y435D02*
X1678Y435D01*
X1682Y435D02*
X1685Y435D01*
X1900Y435D02*
X1906Y435D01*
X1992Y435D02*
X2005Y435D01*
X0Y434D02*
X13Y434D01*
X441Y434D02*
X444Y434D01*
X538Y434D02*
X542Y434D01*
X553Y434D02*
X556Y434D01*
X567Y434D02*
X570Y434D01*
X664Y434D02*
X695Y434D01*
X747Y434D02*
X755Y434D01*
X992Y434D02*
X995Y434D01*
X1251Y434D02*
X1259Y434D01*
X1314Y434D02*
X1345Y434D01*
X1436Y434D02*
X1442Y434D01*
X1658Y434D02*
X1660Y434D01*
X1673Y434D02*
X1680Y434D01*
X1682Y434D02*
X1685Y434D01*
X1900Y434D02*
X1906Y434D01*
X1992Y434D02*
X2005Y434D01*
X0Y433D02*
X13Y433D01*
X178Y433D02*
X186Y433D01*
X441Y433D02*
X444Y433D01*
X538Y433D02*
X542Y433D01*
X553Y433D02*
X556Y433D01*
X567Y433D02*
X570Y433D01*
X664Y433D02*
X667Y433D01*
X692Y433D02*
X695Y433D01*
X747Y433D02*
X755Y433D01*
X992Y433D02*
X995Y433D01*
X1251Y433D02*
X1259Y433D01*
X1314Y433D02*
X1345Y433D01*
X1436Y433D02*
X1442Y433D01*
X1658Y433D02*
X1660Y433D01*
X1675Y433D02*
X1685Y433D01*
X1900Y433D02*
X1906Y433D01*
X1992Y433D02*
X2005Y433D01*
X0Y432D02*
X13Y432D01*
X177Y432D02*
X188Y432D01*
X191Y432D02*
X192Y432D01*
X440Y432D02*
X444Y432D01*
X538Y432D02*
X542Y432D01*
X553Y432D02*
X556Y432D01*
X567Y432D02*
X570Y432D01*
X664Y432D02*
X667Y432D01*
X692Y432D02*
X695Y432D01*
X747Y432D02*
X755Y432D01*
X992Y432D02*
X995Y432D01*
X1251Y432D02*
X1259Y432D01*
X1314Y432D02*
X1345Y432D01*
X1436Y432D02*
X1442Y432D01*
X1658Y432D02*
X1660Y432D01*
X1677Y432D02*
X1685Y432D01*
X1900Y432D02*
X1906Y432D01*
X1992Y432D02*
X2005Y432D01*
X0Y431D02*
X13Y431D01*
X176Y431D02*
X192Y431D01*
X412Y431D02*
X444Y431D01*
X538Y431D02*
X542Y431D01*
X553Y431D02*
X556Y431D01*
X567Y431D02*
X570Y431D01*
X664Y431D02*
X667Y431D01*
X692Y431D02*
X695Y431D01*
X747Y431D02*
X755Y431D01*
X992Y431D02*
X997Y431D01*
X1251Y431D02*
X1259Y431D01*
X1314Y431D02*
X1317Y431D01*
X1342Y431D02*
X1345Y431D01*
X1436Y431D02*
X1442Y431D01*
X1658Y431D02*
X1660Y431D01*
X1678Y431D02*
X1685Y431D01*
X1900Y431D02*
X1906Y431D01*
X1992Y431D02*
X2005Y431D01*
X0Y430D02*
X13Y430D01*
X175Y430D02*
X193Y430D01*
X412Y430D02*
X444Y430D01*
X538Y430D02*
X542Y430D01*
X553Y430D02*
X556Y430D01*
X567Y430D02*
X570Y430D01*
X664Y430D02*
X667Y430D01*
X692Y430D02*
X695Y430D01*
X747Y430D02*
X755Y430D01*
X992Y430D02*
X998Y430D01*
X1251Y430D02*
X1259Y430D01*
X1314Y430D02*
X1317Y430D01*
X1342Y430D02*
X1345Y430D01*
X1436Y430D02*
X1442Y430D01*
X1658Y430D02*
X1660Y430D01*
X1680Y430D02*
X1685Y430D01*
X1900Y430D02*
X1906Y430D01*
X1992Y430D02*
X2005Y430D01*
X0Y429D02*
X13Y429D01*
X174Y429D02*
X179Y429D01*
X186Y429D02*
X193Y429D01*
X412Y429D02*
X444Y429D01*
X538Y429D02*
X542Y429D01*
X553Y429D02*
X556Y429D01*
X567Y429D02*
X570Y429D01*
X664Y429D02*
X667Y429D01*
X692Y429D02*
X695Y429D01*
X747Y429D02*
X755Y429D01*
X992Y429D02*
X998Y429D01*
X1251Y429D02*
X1259Y429D01*
X1314Y429D02*
X1317Y429D01*
X1342Y429D02*
X1345Y429D01*
X1436Y429D02*
X1442Y429D01*
X1658Y429D02*
X1660Y429D01*
X1682Y429D02*
X1685Y429D01*
X1899Y429D02*
X1905Y429D01*
X1992Y429D02*
X2005Y429D01*
X0Y428D02*
X13Y428D01*
X174Y428D02*
X178Y428D01*
X187Y428D02*
X192Y428D01*
X412Y428D02*
X444Y428D01*
X538Y428D02*
X542Y428D01*
X553Y428D02*
X556Y428D01*
X567Y428D02*
X570Y428D01*
X664Y428D02*
X667Y428D01*
X692Y428D02*
X695Y428D01*
X747Y428D02*
X755Y428D01*
X992Y428D02*
X997Y428D01*
X1251Y428D02*
X1259Y428D01*
X1314Y428D02*
X1317Y428D01*
X1342Y428D02*
X1345Y428D01*
X1436Y428D02*
X1442Y428D01*
X1684Y428D02*
X1684Y428D01*
X1899Y428D02*
X1905Y428D01*
X1992Y428D02*
X2005Y428D01*
X0Y427D02*
X13Y427D01*
X174Y427D02*
X177Y427D01*
X187Y427D02*
X191Y427D01*
X412Y427D02*
X415Y427D01*
X441Y427D02*
X444Y427D01*
X538Y427D02*
X542Y427D01*
X553Y427D02*
X556Y427D01*
X567Y427D02*
X570Y427D01*
X664Y427D02*
X667Y427D01*
X692Y427D02*
X695Y427D01*
X747Y427D02*
X755Y427D01*
X1251Y427D02*
X1259Y427D01*
X1314Y427D02*
X1317Y427D01*
X1342Y427D02*
X1345Y427D01*
X1436Y427D02*
X1442Y427D01*
X1899Y427D02*
X1905Y427D01*
X1992Y427D02*
X2005Y427D01*
X0Y426D02*
X13Y426D01*
X174Y426D02*
X177Y426D01*
X188Y426D02*
X191Y426D01*
X412Y426D02*
X415Y426D01*
X441Y426D02*
X444Y426D01*
X538Y426D02*
X542Y426D01*
X553Y426D02*
X556Y426D01*
X567Y426D02*
X570Y426D01*
X664Y426D02*
X667Y426D01*
X692Y426D02*
X695Y426D01*
X747Y426D02*
X755Y426D01*
X1251Y426D02*
X1259Y426D01*
X1314Y426D02*
X1317Y426D01*
X1342Y426D02*
X1345Y426D01*
X1437Y426D02*
X1443Y426D01*
X1899Y426D02*
X1905Y426D01*
X1992Y426D02*
X2005Y426D01*
X0Y425D02*
X13Y425D01*
X174Y425D02*
X177Y425D01*
X188Y425D02*
X191Y425D01*
X412Y425D02*
X415Y425D01*
X441Y425D02*
X444Y425D01*
X538Y425D02*
X542Y425D01*
X553Y425D02*
X556Y425D01*
X566Y425D02*
X570Y425D01*
X747Y425D02*
X755Y425D01*
X1251Y425D02*
X1259Y425D01*
X1314Y425D02*
X1317Y425D01*
X1342Y425D02*
X1345Y425D01*
X1437Y425D02*
X1443Y425D01*
X1899Y425D02*
X1905Y425D01*
X1992Y425D02*
X2005Y425D01*
X0Y424D02*
X13Y424D01*
X174Y424D02*
X177Y424D01*
X188Y424D02*
X191Y424D01*
X412Y424D02*
X415Y424D01*
X441Y424D02*
X444Y424D01*
X538Y424D02*
X542Y424D01*
X553Y424D02*
X570Y424D01*
X747Y424D02*
X755Y424D01*
X1251Y424D02*
X1259Y424D01*
X1314Y424D02*
X1317Y424D01*
X1342Y424D02*
X1345Y424D01*
X1437Y424D02*
X1443Y424D01*
X1899Y424D02*
X1905Y424D01*
X1992Y424D02*
X2005Y424D01*
X0Y423D02*
X13Y423D01*
X174Y423D02*
X177Y423D01*
X188Y423D02*
X191Y423D01*
X412Y423D02*
X415Y423D01*
X441Y423D02*
X444Y423D01*
X538Y423D02*
X542Y423D01*
X553Y423D02*
X570Y423D01*
X747Y423D02*
X755Y423D01*
X1251Y423D02*
X1259Y423D01*
X1437Y423D02*
X1443Y423D01*
X1899Y423D02*
X1905Y423D01*
X1992Y423D02*
X2005Y423D01*
X0Y422D02*
X13Y422D01*
X174Y422D02*
X177Y422D01*
X188Y422D02*
X191Y422D01*
X412Y422D02*
X415Y422D01*
X441Y422D02*
X444Y422D01*
X539Y422D02*
X541Y422D01*
X554Y422D02*
X570Y422D01*
X747Y422D02*
X755Y422D01*
X1251Y422D02*
X1259Y422D01*
X1437Y422D02*
X1443Y422D01*
X1899Y422D02*
X1905Y422D01*
X1992Y422D02*
X2005Y422D01*
X0Y421D02*
X13Y421D01*
X174Y421D02*
X177Y421D01*
X188Y421D02*
X191Y421D01*
X202Y421D02*
X203Y421D01*
X412Y421D02*
X415Y421D01*
X441Y421D02*
X444Y421D01*
X539Y421D02*
X541Y421D01*
X555Y421D02*
X570Y421D01*
X747Y421D02*
X755Y421D01*
X1251Y421D02*
X1259Y421D01*
X1437Y421D02*
X1443Y421D01*
X1898Y421D02*
X1904Y421D01*
X1992Y421D02*
X2005Y421D01*
X0Y420D02*
X13Y420D01*
X174Y420D02*
X177Y420D01*
X188Y420D02*
X191Y420D01*
X202Y420D02*
X204Y420D01*
X413Y420D02*
X415Y420D01*
X441Y420D02*
X443Y420D01*
X747Y420D02*
X755Y420D01*
X1251Y420D02*
X1259Y420D01*
X1437Y420D02*
X1443Y420D01*
X1898Y420D02*
X1904Y420D01*
X1992Y420D02*
X2005Y420D01*
X0Y419D02*
X13Y419D01*
X174Y419D02*
X177Y419D01*
X188Y419D02*
X191Y419D01*
X202Y419D02*
X205Y419D01*
X747Y419D02*
X755Y419D01*
X1251Y419D02*
X1259Y419D01*
X1437Y419D02*
X1443Y419D01*
X1658Y419D02*
X1682Y419D01*
X1898Y419D02*
X1904Y419D01*
X1992Y419D02*
X2005Y419D01*
X0Y418D02*
X13Y418D01*
X174Y418D02*
X177Y418D01*
X188Y418D02*
X191Y418D01*
X202Y418D02*
X205Y418D01*
X747Y418D02*
X755Y418D01*
X992Y418D02*
X1018Y418D01*
X1251Y418D02*
X1259Y418D01*
X1438Y418D02*
X1444Y418D01*
X1658Y418D02*
X1683Y418D01*
X1898Y418D02*
X1904Y418D01*
X1992Y418D02*
X2005Y418D01*
X0Y417D02*
X13Y417D01*
X174Y417D02*
X205Y417D01*
X747Y417D02*
X755Y417D01*
X992Y417D02*
X1020Y417D01*
X1251Y417D02*
X1259Y417D01*
X1438Y417D02*
X1444Y417D01*
X1658Y417D02*
X1684Y417D01*
X1898Y417D02*
X1904Y417D01*
X1992Y417D02*
X2005Y417D01*
X0Y416D02*
X13Y416D01*
X174Y416D02*
X205Y416D01*
X747Y416D02*
X755Y416D01*
X992Y416D02*
X1020Y416D01*
X1251Y416D02*
X1259Y416D01*
X1438Y416D02*
X1444Y416D01*
X1681Y416D02*
X1685Y416D01*
X1898Y416D02*
X1904Y416D01*
X1992Y416D02*
X2005Y416D01*
X0Y415D02*
X13Y415D01*
X174Y415D02*
X205Y415D01*
X747Y415D02*
X755Y415D01*
X993Y415D02*
X1021Y415D01*
X1251Y415D02*
X1259Y415D01*
X1438Y415D02*
X1444Y415D01*
X1682Y415D02*
X1685Y415D01*
X1897Y415D02*
X1903Y415D01*
X1992Y415D02*
X2005Y415D01*
X0Y414D02*
X13Y414D01*
X174Y414D02*
X205Y414D01*
X747Y414D02*
X755Y414D01*
X1018Y414D02*
X1021Y414D01*
X1251Y414D02*
X1259Y414D01*
X1438Y414D02*
X1444Y414D01*
X1682Y414D02*
X1685Y414D01*
X1897Y414D02*
X1903Y414D01*
X1992Y414D02*
X2005Y414D01*
X0Y413D02*
X13Y413D01*
X747Y413D02*
X755Y413D01*
X1018Y413D02*
X1021Y413D01*
X1251Y413D02*
X1259Y413D01*
X1438Y413D02*
X1444Y413D01*
X1682Y413D02*
X1685Y413D01*
X1897Y413D02*
X1903Y413D01*
X1992Y413D02*
X2005Y413D01*
X0Y412D02*
X13Y412D01*
X747Y412D02*
X755Y412D01*
X1018Y412D02*
X1021Y412D01*
X1251Y412D02*
X1259Y412D01*
X1439Y412D02*
X1445Y412D01*
X1682Y412D02*
X1685Y412D01*
X1897Y412D02*
X1903Y412D01*
X1992Y412D02*
X2005Y412D01*
X0Y411D02*
X13Y411D01*
X747Y411D02*
X755Y411D01*
X1018Y411D02*
X1021Y411D01*
X1251Y411D02*
X1259Y411D01*
X1439Y411D02*
X1445Y411D01*
X1682Y411D02*
X1685Y411D01*
X1897Y411D02*
X1903Y411D01*
X1992Y411D02*
X2005Y411D01*
X0Y410D02*
X13Y410D01*
X747Y410D02*
X755Y410D01*
X1018Y410D02*
X1021Y410D01*
X1251Y410D02*
X1259Y410D01*
X1439Y410D02*
X1445Y410D01*
X1682Y410D02*
X1685Y410D01*
X1897Y410D02*
X1903Y410D01*
X1992Y410D02*
X2005Y410D01*
X0Y409D02*
X13Y409D01*
X65Y409D02*
X67Y409D01*
X747Y409D02*
X755Y409D01*
X1018Y409D02*
X1021Y409D01*
X1251Y409D02*
X1259Y409D01*
X1439Y409D02*
X1445Y409D01*
X1682Y409D02*
X1685Y409D01*
X1896Y409D02*
X1902Y409D01*
X1992Y409D02*
X2005Y409D01*
X0Y408D02*
X13Y408D01*
X62Y408D02*
X68Y408D01*
X310Y408D02*
X320Y408D01*
X747Y408D02*
X755Y408D01*
X1018Y408D02*
X1021Y408D01*
X1251Y408D02*
X1259Y408D01*
X1439Y408D02*
X1445Y408D01*
X1682Y408D02*
X1685Y408D01*
X1896Y408D02*
X1902Y408D01*
X1992Y408D02*
X2005Y408D01*
X0Y407D02*
X13Y407D01*
X59Y407D02*
X68Y407D01*
X310Y407D02*
X320Y407D01*
X747Y407D02*
X755Y407D01*
X1018Y407D02*
X1021Y407D01*
X1251Y407D02*
X1259Y407D01*
X1440Y407D02*
X1446Y407D01*
X1682Y407D02*
X1685Y407D01*
X1896Y407D02*
X1902Y407D01*
X1992Y407D02*
X2005Y407D01*
X0Y406D02*
X13Y406D01*
X58Y406D02*
X68Y406D01*
X310Y406D02*
X320Y406D01*
X747Y406D02*
X755Y406D01*
X1018Y406D02*
X1021Y406D01*
X1251Y406D02*
X1259Y406D01*
X1440Y406D02*
X1446Y406D01*
X1682Y406D02*
X1685Y406D01*
X1896Y406D02*
X1902Y406D01*
X1992Y406D02*
X2005Y406D01*
X0Y405D02*
X13Y405D01*
X58Y405D02*
X69Y405D01*
X310Y405D02*
X320Y405D01*
X747Y405D02*
X755Y405D01*
X1018Y405D02*
X1021Y405D01*
X1251Y405D02*
X1259Y405D01*
X1440Y405D02*
X1446Y405D01*
X1658Y405D02*
X1684Y405D01*
X1896Y405D02*
X1902Y405D01*
X1992Y405D02*
X2005Y405D01*
X0Y404D02*
X13Y404D01*
X58Y404D02*
X69Y404D01*
X310Y404D02*
X320Y404D01*
X747Y404D02*
X755Y404D01*
X1018Y404D02*
X1021Y404D01*
X1251Y404D02*
X1259Y404D01*
X1440Y404D02*
X1446Y404D01*
X1658Y404D02*
X1684Y404D01*
X1895Y404D02*
X1901Y404D01*
X1992Y404D02*
X2005Y404D01*
X0Y403D02*
X13Y403D01*
X59Y403D02*
X69Y403D01*
X174Y403D02*
X176Y403D01*
X191Y403D02*
X202Y403D01*
X310Y403D02*
X320Y403D01*
X747Y403D02*
X755Y403D01*
X993Y403D02*
X1021Y403D01*
X1251Y403D02*
X1259Y403D01*
X1440Y403D02*
X1446Y403D01*
X1658Y403D02*
X1683Y403D01*
X1895Y403D02*
X1901Y403D01*
X1992Y403D02*
X2005Y403D01*
X0Y402D02*
X13Y402D01*
X59Y402D02*
X70Y402D01*
X174Y402D02*
X177Y402D01*
X191Y402D02*
X203Y402D01*
X310Y402D02*
X320Y402D01*
X747Y402D02*
X755Y402D01*
X992Y402D02*
X1020Y402D01*
X1251Y402D02*
X1259Y402D01*
X1441Y402D02*
X1447Y402D01*
X1659Y402D02*
X1681Y402D01*
X1895Y402D02*
X1901Y402D01*
X1992Y402D02*
X2005Y402D01*
X0Y401D02*
X13Y401D01*
X59Y401D02*
X70Y401D01*
X174Y401D02*
X177Y401D01*
X191Y401D02*
X204Y401D01*
X310Y401D02*
X320Y401D01*
X747Y401D02*
X755Y401D01*
X992Y401D02*
X1020Y401D01*
X1251Y401D02*
X1259Y401D01*
X1441Y401D02*
X1447Y401D01*
X1895Y401D02*
X1901Y401D01*
X1992Y401D02*
X2005Y401D01*
X0Y400D02*
X13Y400D01*
X60Y400D02*
X71Y400D01*
X174Y400D02*
X177Y400D01*
X191Y400D02*
X205Y400D01*
X310Y400D02*
X320Y400D01*
X747Y400D02*
X755Y400D01*
X992Y400D02*
X1018Y400D01*
X1251Y400D02*
X1259Y400D01*
X1441Y400D02*
X1447Y400D01*
X1894Y400D02*
X1900Y400D01*
X1992Y400D02*
X2005Y400D01*
X0Y399D02*
X13Y399D01*
X60Y399D02*
X71Y399D01*
X174Y399D02*
X177Y399D01*
X191Y399D02*
X194Y399D01*
X201Y399D02*
X205Y399D01*
X310Y399D02*
X320Y399D01*
X747Y399D02*
X755Y399D01*
X1251Y399D02*
X1259Y399D01*
X1441Y399D02*
X1447Y399D01*
X1894Y399D02*
X1900Y399D01*
X1992Y399D02*
X2005Y399D01*
X0Y398D02*
X13Y398D01*
X61Y398D02*
X72Y398D01*
X174Y398D02*
X177Y398D01*
X191Y398D02*
X194Y398D01*
X202Y398D02*
X205Y398D01*
X310Y398D02*
X320Y398D01*
X747Y398D02*
X755Y398D01*
X1251Y398D02*
X1259Y398D01*
X1442Y398D02*
X1448Y398D01*
X1894Y398D02*
X1900Y398D01*
X1992Y398D02*
X2005Y398D01*
X0Y397D02*
X13Y397D01*
X61Y397D02*
X72Y397D01*
X174Y397D02*
X177Y397D01*
X191Y397D02*
X194Y397D01*
X202Y397D02*
X205Y397D01*
X310Y397D02*
X320Y397D01*
X747Y397D02*
X755Y397D01*
X1251Y397D02*
X1259Y397D01*
X1442Y397D02*
X1448Y397D01*
X1894Y397D02*
X1900Y397D01*
X1992Y397D02*
X2005Y397D01*
X0Y396D02*
X13Y396D01*
X61Y396D02*
X72Y396D01*
X174Y396D02*
X177Y396D01*
X191Y396D02*
X194Y396D01*
X202Y396D02*
X205Y396D01*
X310Y396D02*
X320Y396D01*
X747Y396D02*
X755Y396D01*
X1251Y396D02*
X1259Y396D01*
X1442Y396D02*
X1448Y396D01*
X1893Y396D02*
X1900Y396D01*
X1992Y396D02*
X2005Y396D01*
X0Y395D02*
X13Y395D01*
X62Y395D02*
X73Y395D01*
X174Y395D02*
X177Y395D01*
X191Y395D02*
X194Y395D01*
X202Y395D02*
X205Y395D01*
X310Y395D02*
X320Y395D01*
X747Y395D02*
X755Y395D01*
X1251Y395D02*
X1259Y395D01*
X1442Y395D02*
X1448Y395D01*
X1893Y395D02*
X1899Y395D01*
X1992Y395D02*
X2005Y395D01*
X0Y394D02*
X13Y394D01*
X62Y394D02*
X73Y394D01*
X174Y394D02*
X178Y394D01*
X192Y394D02*
X194Y394D01*
X202Y394D02*
X205Y394D01*
X310Y394D02*
X320Y394D01*
X747Y394D02*
X755Y394D01*
X1251Y394D02*
X1259Y394D01*
X1443Y394D02*
X1449Y394D01*
X1893Y394D02*
X1899Y394D01*
X1992Y394D02*
X2005Y394D01*
X0Y393D02*
X13Y393D01*
X63Y393D02*
X74Y393D01*
X174Y393D02*
X179Y393D01*
X202Y393D02*
X205Y393D01*
X310Y393D02*
X320Y393D01*
X747Y393D02*
X755Y393D01*
X1251Y393D02*
X1259Y393D01*
X1443Y393D02*
X1449Y393D01*
X1662Y393D02*
X1668Y393D01*
X1674Y393D02*
X1680Y393D01*
X1893Y393D02*
X1899Y393D01*
X1992Y393D02*
X2005Y393D01*
X0Y392D02*
X13Y392D01*
X63Y392D02*
X74Y392D01*
X175Y392D02*
X180Y392D01*
X202Y392D02*
X205Y392D01*
X310Y392D02*
X320Y392D01*
X747Y392D02*
X755Y392D01*
X1251Y392D02*
X1259Y392D01*
X1443Y392D02*
X1449Y392D01*
X1660Y392D02*
X1670Y392D01*
X1673Y392D02*
X1682Y392D01*
X1892Y392D02*
X1898Y392D01*
X1992Y392D02*
X2005Y392D01*
X0Y391D02*
X13Y391D01*
X64Y391D02*
X75Y391D01*
X175Y391D02*
X181Y391D01*
X202Y391D02*
X205Y391D01*
X310Y391D02*
X320Y391D01*
X747Y391D02*
X755Y391D01*
X1251Y391D02*
X1259Y391D01*
X1443Y391D02*
X1450Y391D01*
X1659Y391D02*
X1683Y391D01*
X1892Y391D02*
X1898Y391D01*
X1992Y391D02*
X2005Y391D01*
X0Y390D02*
X13Y390D01*
X64Y390D02*
X75Y390D01*
X177Y390D02*
X183Y390D01*
X202Y390D02*
X205Y390D01*
X310Y390D02*
X320Y390D01*
X747Y390D02*
X755Y390D01*
X998Y390D02*
X1002Y390D01*
X1011Y390D02*
X1016Y390D01*
X1251Y390D02*
X1259Y390D01*
X1444Y390D02*
X1450Y390D01*
X1659Y390D02*
X1684Y390D01*
X1892Y390D02*
X1898Y390D01*
X1992Y390D02*
X2005Y390D01*
X0Y389D02*
X13Y389D01*
X64Y389D02*
X76Y389D01*
X178Y389D02*
X184Y389D01*
X202Y389D02*
X205Y389D01*
X310Y389D02*
X320Y389D01*
X430Y389D02*
X436Y389D01*
X545Y389D02*
X550Y389D01*
X747Y389D02*
X755Y389D01*
X995Y389D02*
X1004Y389D01*
X1009Y389D02*
X1018Y389D01*
X1251Y389D02*
X1259Y389D01*
X1444Y389D02*
X1450Y389D01*
X1658Y389D02*
X1662Y389D01*
X1668Y389D02*
X1674Y389D01*
X1681Y389D02*
X1684Y389D01*
X1891Y389D02*
X1898Y389D01*
X1992Y389D02*
X2005Y389D01*
X0Y388D02*
X13Y388D01*
X65Y388D02*
X76Y388D01*
X179Y388D02*
X185Y388D01*
X201Y388D02*
X205Y388D01*
X310Y388D02*
X320Y388D01*
X429Y388D02*
X437Y388D01*
X543Y388D02*
X552Y388D01*
X559Y388D02*
X561Y388D01*
X669Y388D02*
X685Y388D01*
X747Y388D02*
X755Y388D01*
X994Y388D02*
X1006Y388D01*
X1008Y388D02*
X1019Y388D01*
X1251Y388D02*
X1259Y388D01*
X1329Y388D02*
X1330Y388D01*
X1444Y388D02*
X1450Y388D01*
X1658Y388D02*
X1661Y388D01*
X1669Y388D02*
X1673Y388D01*
X1682Y388D02*
X1685Y388D01*
X1891Y388D02*
X1897Y388D01*
X1992Y388D02*
X2005Y388D01*
X0Y387D02*
X13Y387D01*
X65Y387D02*
X77Y387D01*
X181Y387D02*
X205Y387D01*
X310Y387D02*
X320Y387D01*
X430Y387D02*
X437Y387D01*
X543Y387D02*
X552Y387D01*
X559Y387D02*
X561Y387D01*
X668Y387D02*
X686Y387D01*
X747Y387D02*
X755Y387D01*
X993Y387D02*
X1020Y387D01*
X1251Y387D02*
X1259Y387D01*
X1321Y387D02*
X1336Y387D01*
X1445Y387D02*
X1451Y387D01*
X1658Y387D02*
X1660Y387D01*
X1670Y387D02*
X1673Y387D01*
X1682Y387D02*
X1685Y387D01*
X1891Y387D02*
X1897Y387D01*
X1992Y387D02*
X2005Y387D01*
X0Y386D02*
X13Y386D01*
X66Y386D02*
X77Y386D01*
X182Y386D02*
X204Y386D01*
X310Y386D02*
X320Y386D01*
X435Y386D02*
X437Y386D01*
X543Y386D02*
X544Y386D01*
X551Y386D02*
X552Y386D01*
X559Y386D02*
X561Y386D01*
X668Y386D02*
X669Y386D01*
X676Y386D02*
X678Y386D01*
X684Y386D02*
X686Y386D01*
X747Y386D02*
X755Y386D01*
X993Y386D02*
X997Y386D01*
X1003Y386D02*
X1011Y386D01*
X1016Y386D02*
X1020Y386D01*
X1251Y386D02*
X1259Y386D01*
X1321Y386D02*
X1336Y386D01*
X1445Y386D02*
X1451Y386D01*
X1658Y386D02*
X1660Y386D01*
X1670Y386D02*
X1673Y386D01*
X1682Y386D02*
X1685Y386D01*
X1891Y386D02*
X1897Y386D01*
X1992Y386D02*
X2005Y386D01*
X0Y385D02*
X13Y385D01*
X66Y385D02*
X78Y385D01*
X183Y385D02*
X203Y385D01*
X310Y385D02*
X320Y385D01*
X435Y385D02*
X437Y385D01*
X543Y385D02*
X544Y385D01*
X551Y385D02*
X552Y385D01*
X559Y385D02*
X561Y385D01*
X668Y385D02*
X669Y385D01*
X676Y385D02*
X678Y385D01*
X684Y385D02*
X686Y385D01*
X747Y385D02*
X755Y385D01*
X992Y385D02*
X996Y385D01*
X1004Y385D02*
X1009Y385D01*
X1017Y385D02*
X1021Y385D01*
X1251Y385D02*
X1259Y385D01*
X1322Y385D02*
X1335Y385D01*
X1445Y385D02*
X1451Y385D01*
X1658Y385D02*
X1660Y385D01*
X1670Y385D02*
X1673Y385D01*
X1682Y385D02*
X1685Y385D01*
X1890Y385D02*
X1896Y385D01*
X1992Y385D02*
X2005Y385D01*
X0Y384D02*
X13Y384D01*
X67Y384D02*
X79Y384D01*
X185Y384D02*
X202Y384D01*
X310Y384D02*
X320Y384D01*
X419Y384D02*
X437Y384D01*
X543Y384D02*
X544Y384D01*
X551Y384D02*
X552Y384D01*
X559Y384D02*
X561Y384D01*
X668Y384D02*
X669Y384D01*
X676Y384D02*
X677Y384D01*
X684Y384D02*
X686Y384D01*
X747Y384D02*
X755Y384D01*
X992Y384D02*
X995Y384D01*
X1005Y384D02*
X1008Y384D01*
X1018Y384D02*
X1021Y384D01*
X1251Y384D02*
X1259Y384D01*
X1329Y384D02*
X1330Y384D01*
X1445Y384D02*
X1452Y384D01*
X1658Y384D02*
X1660Y384D01*
X1670Y384D02*
X1673Y384D01*
X1682Y384D02*
X1685Y384D01*
X1890Y384D02*
X1896Y384D01*
X1992Y384D02*
X2005Y384D01*
X0Y383D02*
X13Y383D01*
X68Y383D02*
X79Y383D01*
X310Y383D02*
X320Y383D01*
X419Y383D02*
X437Y383D01*
X543Y383D02*
X544Y383D01*
X551Y383D02*
X552Y383D01*
X559Y383D02*
X561Y383D01*
X668Y383D02*
X669Y383D01*
X676Y383D02*
X677Y383D01*
X684Y383D02*
X686Y383D01*
X747Y383D02*
X755Y383D01*
X992Y383D02*
X995Y383D01*
X1005Y383D02*
X1008Y383D01*
X1018Y383D02*
X1021Y383D01*
X1251Y383D02*
X1259Y383D01*
X1329Y383D02*
X1330Y383D01*
X1446Y383D02*
X1452Y383D01*
X1658Y383D02*
X1660Y383D01*
X1670Y383D02*
X1673Y383D01*
X1682Y383D02*
X1685Y383D01*
X1890Y383D02*
X1896Y383D01*
X1992Y383D02*
X2005Y383D01*
X0Y382D02*
X13Y382D01*
X68Y382D02*
X80Y382D01*
X310Y382D02*
X320Y382D01*
X419Y382D02*
X437Y382D01*
X543Y382D02*
X544Y382D01*
X551Y382D02*
X552Y382D01*
X559Y382D02*
X561Y382D01*
X668Y382D02*
X669Y382D01*
X676Y382D02*
X677Y382D01*
X684Y382D02*
X686Y382D01*
X747Y382D02*
X755Y382D01*
X992Y382D02*
X995Y382D01*
X1005Y382D02*
X1008Y382D01*
X1018Y382D02*
X1021Y382D01*
X1251Y382D02*
X1259Y382D01*
X1329Y382D02*
X1330Y382D01*
X1446Y382D02*
X1452Y382D01*
X1658Y382D02*
X1660Y382D01*
X1670Y382D02*
X1673Y382D01*
X1682Y382D02*
X1685Y382D01*
X1889Y382D02*
X1895Y382D01*
X1992Y382D02*
X2005Y382D01*
X0Y381D02*
X13Y381D01*
X69Y381D02*
X80Y381D01*
X310Y381D02*
X320Y381D01*
X419Y381D02*
X420Y381D01*
X435Y381D02*
X437Y381D01*
X543Y381D02*
X544Y381D01*
X551Y381D02*
X552Y381D01*
X559Y381D02*
X561Y381D01*
X668Y381D02*
X669Y381D01*
X676Y381D02*
X677Y381D01*
X684Y381D02*
X686Y381D01*
X747Y381D02*
X755Y381D01*
X992Y381D02*
X995Y381D01*
X1005Y381D02*
X1008Y381D01*
X1018Y381D02*
X1021Y381D01*
X1251Y381D02*
X1259Y381D01*
X1329Y381D02*
X1330Y381D01*
X1446Y381D02*
X1453Y381D01*
X1658Y381D02*
X1660Y381D01*
X1670Y381D02*
X1673Y381D01*
X1682Y381D02*
X1685Y381D01*
X1889Y381D02*
X1895Y381D01*
X1992Y381D02*
X2005Y381D01*
X0Y380D02*
X13Y380D01*
X69Y380D02*
X81Y380D01*
X310Y380D02*
X320Y380D01*
X419Y380D02*
X420Y380D01*
X435Y380D02*
X437Y380D01*
X543Y380D02*
X544Y380D01*
X551Y380D02*
X552Y380D01*
X559Y380D02*
X561Y380D01*
X668Y380D02*
X669Y380D01*
X676Y380D02*
X677Y380D01*
X684Y380D02*
X686Y380D01*
X747Y380D02*
X755Y380D01*
X992Y380D02*
X995Y380D01*
X1005Y380D02*
X1008Y380D01*
X1018Y380D02*
X1021Y380D01*
X1251Y380D02*
X1259Y380D01*
X1319Y380D02*
X1330Y380D01*
X1447Y380D02*
X1453Y380D01*
X1658Y380D02*
X1660Y380D01*
X1670Y380D02*
X1673Y380D01*
X1682Y380D02*
X1685Y380D01*
X1889Y380D02*
X1895Y380D01*
X1992Y380D02*
X2005Y380D01*
X0Y379D02*
X13Y379D01*
X70Y379D02*
X82Y379D01*
X310Y379D02*
X320Y379D01*
X419Y379D02*
X420Y379D01*
X435Y379D02*
X437Y379D01*
X543Y379D02*
X544Y379D01*
X551Y379D02*
X561Y379D01*
X668Y379D02*
X669Y379D01*
X684Y379D02*
X686Y379D01*
X747Y379D02*
X755Y379D01*
X992Y379D02*
X995Y379D01*
X1005Y379D02*
X1008Y379D01*
X1018Y379D02*
X1021Y379D01*
X1251Y379D02*
X1259Y379D01*
X1319Y379D02*
X1330Y379D01*
X1447Y379D02*
X1453Y379D01*
X1658Y379D02*
X1685Y379D01*
X1888Y379D02*
X1894Y379D01*
X1992Y379D02*
X2005Y379D01*
X0Y378D02*
X13Y378D01*
X70Y378D02*
X82Y378D01*
X310Y378D02*
X320Y378D01*
X419Y378D02*
X420Y378D01*
X435Y378D02*
X437Y378D01*
X543Y378D02*
X544Y378D01*
X552Y378D02*
X561Y378D01*
X668Y378D02*
X669Y378D01*
X684Y378D02*
X686Y378D01*
X747Y378D02*
X755Y378D01*
X992Y378D02*
X995Y378D01*
X1005Y378D02*
X1008Y378D01*
X1018Y378D02*
X1021Y378D01*
X1251Y378D02*
X1259Y378D01*
X1319Y378D02*
X1330Y378D01*
X1447Y378D02*
X1454Y378D01*
X1658Y378D02*
X1685Y378D01*
X1888Y378D02*
X1894Y378D01*
X1992Y378D02*
X2005Y378D01*
X0Y377D02*
X13Y377D01*
X71Y377D02*
X83Y377D01*
X310Y377D02*
X320Y377D01*
X747Y377D02*
X755Y377D01*
X992Y377D02*
X995Y377D01*
X1005Y377D02*
X1008Y377D01*
X1018Y377D02*
X1021Y377D01*
X1251Y377D02*
X1259Y377D01*
X1448Y377D02*
X1454Y377D01*
X1658Y377D02*
X1685Y377D01*
X1888Y377D02*
X1894Y377D01*
X1992Y377D02*
X2005Y377D01*
X0Y376D02*
X13Y376D01*
X72Y376D02*
X84Y376D01*
X310Y376D02*
X320Y376D01*
X747Y376D02*
X755Y376D01*
X992Y376D02*
X995Y376D01*
X1005Y376D02*
X1008Y376D01*
X1018Y376D02*
X1021Y376D01*
X1251Y376D02*
X1259Y376D01*
X1448Y376D02*
X1454Y376D01*
X1658Y376D02*
X1685Y376D01*
X1887Y376D02*
X1893Y376D01*
X1992Y376D02*
X2005Y376D01*
X0Y375D02*
X13Y375D01*
X72Y375D02*
X84Y375D01*
X310Y375D02*
X320Y375D01*
X747Y375D02*
X755Y375D01*
X992Y375D02*
X995Y375D01*
X1005Y375D02*
X1008Y375D01*
X1018Y375D02*
X1021Y375D01*
X1251Y375D02*
X1259Y375D01*
X1449Y375D02*
X1455Y375D01*
X1887Y375D02*
X1893Y375D01*
X1992Y375D02*
X2005Y375D01*
X0Y374D02*
X13Y374D01*
X73Y374D02*
X85Y374D01*
X309Y374D02*
X320Y374D01*
X747Y374D02*
X755Y374D01*
X992Y374D02*
X1021Y374D01*
X1251Y374D02*
X1259Y374D01*
X1449Y374D02*
X1455Y374D01*
X1887Y374D02*
X1893Y374D01*
X1992Y374D02*
X2005Y374D01*
X0Y373D02*
X13Y373D01*
X73Y373D02*
X86Y373D01*
X177Y373D02*
X184Y373D01*
X202Y373D02*
X204Y373D01*
X308Y373D02*
X320Y373D01*
X747Y373D02*
X755Y373D01*
X992Y373D02*
X1021Y373D01*
X1251Y373D02*
X1259Y373D01*
X1449Y373D02*
X1455Y373D01*
X1886Y373D02*
X1892Y373D01*
X1992Y373D02*
X2005Y373D01*
X0Y372D02*
X13Y372D01*
X74Y372D02*
X86Y372D01*
X176Y372D02*
X185Y372D01*
X201Y372D02*
X205Y372D01*
X308Y372D02*
X320Y372D01*
X747Y372D02*
X755Y372D01*
X992Y372D02*
X1021Y372D01*
X1251Y372D02*
X1259Y372D01*
X1450Y372D02*
X1456Y372D01*
X1886Y372D02*
X1892Y372D01*
X1992Y372D02*
X2005Y372D01*
X0Y371D02*
X13Y371D01*
X75Y371D02*
X87Y371D01*
X175Y371D02*
X186Y371D01*
X199Y371D02*
X205Y371D01*
X307Y371D02*
X320Y371D01*
X420Y371D02*
X425Y371D01*
X435Y371D02*
X437Y371D01*
X544Y371D02*
X549Y371D01*
X559Y371D02*
X560Y371D01*
X670Y371D02*
X674Y371D01*
X684Y371D02*
X685Y371D01*
X747Y371D02*
X755Y371D01*
X992Y371D02*
X1021Y371D01*
X1251Y371D02*
X1259Y371D01*
X1320Y371D02*
X1324Y371D01*
X1334Y371D02*
X1336Y371D01*
X1450Y371D02*
X1456Y371D01*
X1885Y371D02*
X1892Y371D01*
X1992Y371D02*
X2005Y371D01*
X0Y370D02*
X13Y370D01*
X76Y370D02*
X88Y370D01*
X174Y370D02*
X187Y370D01*
X197Y370D02*
X204Y370D01*
X306Y370D02*
X319Y370D01*
X420Y370D02*
X426Y370D01*
X433Y370D02*
X436Y370D01*
X544Y370D02*
X550Y370D01*
X557Y370D02*
X560Y370D01*
X669Y370D02*
X675Y370D01*
X682Y370D02*
X686Y370D01*
X747Y370D02*
X755Y370D01*
X1251Y370D02*
X1259Y370D01*
X1319Y370D02*
X1325Y370D01*
X1333Y370D02*
X1336Y370D01*
X1450Y370D02*
X1457Y370D01*
X1885Y370D02*
X1891Y370D01*
X1992Y370D02*
X2005Y370D01*
X0Y369D02*
X13Y369D01*
X76Y369D02*
X89Y369D01*
X174Y369D02*
X178Y369D01*
X183Y369D02*
X187Y369D01*
X195Y369D02*
X203Y369D01*
X305Y369D02*
X318Y369D01*
X419Y369D02*
X421Y369D01*
X425Y369D02*
X426Y369D01*
X431Y369D02*
X435Y369D01*
X543Y369D02*
X545Y369D01*
X548Y369D02*
X550Y369D01*
X555Y369D02*
X559Y369D01*
X668Y369D02*
X670Y369D01*
X673Y369D02*
X675Y369D01*
X681Y369D02*
X685Y369D01*
X747Y369D02*
X755Y369D01*
X1251Y369D02*
X1259Y369D01*
X1319Y369D02*
X1320Y369D01*
X1324Y369D02*
X1326Y369D01*
X1331Y369D02*
X1335Y369D01*
X1451Y369D02*
X1457Y369D01*
X1885Y369D02*
X1891Y369D01*
X1992Y369D02*
X2005Y369D01*
X0Y368D02*
X13Y368D01*
X77Y368D02*
X89Y368D01*
X174Y368D02*
X177Y368D01*
X184Y368D02*
X187Y368D01*
X194Y368D02*
X201Y368D01*
X305Y368D02*
X317Y368D01*
X419Y368D02*
X420Y368D01*
X425Y368D02*
X427Y368D01*
X430Y368D02*
X433Y368D01*
X543Y368D02*
X544Y368D01*
X549Y368D02*
X550Y368D01*
X554Y368D02*
X558Y368D01*
X668Y368D02*
X669Y368D01*
X674Y368D02*
X675Y368D01*
X679Y368D02*
X683Y368D01*
X747Y368D02*
X755Y368D01*
X1251Y368D02*
X1259Y368D01*
X1318Y368D02*
X1320Y368D01*
X1325Y368D02*
X1326Y368D01*
X1329Y368D02*
X1333Y368D01*
X1451Y368D02*
X1457Y368D01*
X1884Y368D02*
X1890Y368D01*
X1992Y368D02*
X2005Y368D01*
X0Y367D02*
X13Y367D01*
X78Y367D02*
X90Y367D01*
X174Y367D02*
X177Y367D01*
X184Y367D02*
X187Y367D01*
X192Y367D02*
X199Y367D01*
X304Y367D02*
X317Y367D01*
X419Y367D02*
X420Y367D01*
X425Y367D02*
X432Y367D01*
X543Y367D02*
X544Y367D01*
X549Y367D02*
X556Y367D01*
X668Y367D02*
X669Y367D01*
X674Y367D02*
X681Y367D01*
X747Y367D02*
X755Y367D01*
X1251Y367D02*
X1259Y367D01*
X1318Y367D02*
X1320Y367D01*
X1325Y367D02*
X1331Y367D01*
X1452Y367D02*
X1458Y367D01*
X1884Y367D02*
X1890Y367D01*
X1992Y367D02*
X2005Y367D01*
X0Y366D02*
X13Y366D01*
X78Y366D02*
X91Y366D01*
X174Y366D02*
X177Y366D01*
X184Y366D02*
X187Y366D01*
X190Y366D02*
X198Y366D01*
X303Y366D02*
X316Y366D01*
X419Y366D02*
X420Y366D01*
X425Y366D02*
X430Y366D01*
X543Y366D02*
X544Y366D01*
X549Y366D02*
X554Y366D01*
X668Y366D02*
X669Y366D01*
X674Y366D02*
X679Y366D01*
X747Y366D02*
X755Y366D01*
X1251Y366D02*
X1259Y366D01*
X1318Y366D02*
X1320Y366D01*
X1325Y366D02*
X1330Y366D01*
X1452Y366D02*
X1458Y366D01*
X1883Y366D02*
X1890Y366D01*
X1992Y366D02*
X2005Y366D01*
X0Y365D02*
X13Y365D01*
X79Y365D02*
X92Y365D01*
X174Y365D02*
X177Y365D01*
X184Y365D02*
X196Y365D01*
X302Y365D02*
X315Y365D01*
X419Y365D02*
X420Y365D01*
X425Y365D02*
X428Y365D01*
X543Y365D02*
X544Y365D01*
X549Y365D02*
X552Y365D01*
X668Y365D02*
X669Y365D01*
X674Y365D02*
X678Y365D01*
X747Y365D02*
X755Y365D01*
X1251Y365D02*
X1259Y365D01*
X1318Y365D02*
X1320Y365D01*
X1325Y365D02*
X1328Y365D01*
X1452Y365D02*
X1459Y365D01*
X1883Y365D02*
X1889Y365D01*
X1992Y365D02*
X2005Y365D01*
X0Y364D02*
X13Y364D01*
X80Y364D02*
X93Y364D01*
X174Y364D02*
X177Y364D01*
X184Y364D02*
X194Y364D01*
X301Y364D02*
X315Y364D01*
X419Y364D02*
X420Y364D01*
X425Y364D02*
X427Y364D01*
X543Y364D02*
X544Y364D01*
X549Y364D02*
X551Y364D01*
X668Y364D02*
X669Y364D01*
X674Y364D02*
X676Y364D01*
X747Y364D02*
X755Y364D01*
X1251Y364D02*
X1259Y364D01*
X1318Y364D02*
X1320Y364D01*
X1325Y364D02*
X1326Y364D01*
X1453Y364D02*
X1459Y364D01*
X1883Y364D02*
X1889Y364D01*
X1992Y364D02*
X2005Y364D01*
X0Y363D02*
X13Y363D01*
X81Y363D02*
X93Y363D01*
X174Y363D02*
X177Y363D01*
X184Y363D02*
X193Y363D01*
X301Y363D02*
X314Y363D01*
X419Y363D02*
X420Y363D01*
X425Y363D02*
X427Y363D01*
X543Y363D02*
X544Y363D01*
X549Y363D02*
X550Y363D01*
X668Y363D02*
X669Y363D01*
X674Y363D02*
X675Y363D01*
X747Y363D02*
X755Y363D01*
X1251Y363D02*
X1259Y363D01*
X1318Y363D02*
X1320Y363D01*
X1325Y363D02*
X1326Y363D01*
X1453Y363D02*
X1459Y363D01*
X1882Y363D02*
X1888Y363D01*
X1992Y363D02*
X2005Y363D01*
X0Y362D02*
X13Y362D01*
X81Y362D02*
X94Y362D01*
X174Y362D02*
X177Y362D01*
X184Y362D02*
X191Y362D01*
X300Y362D02*
X313Y362D01*
X419Y362D02*
X436Y362D01*
X543Y362D02*
X560Y362D01*
X668Y362D02*
X684Y362D01*
X747Y362D02*
X755Y362D01*
X1251Y362D02*
X1259Y362D01*
X1318Y362D02*
X1336Y362D01*
X1454Y362D02*
X1460Y362D01*
X1882Y362D02*
X1888Y362D01*
X1992Y362D02*
X2005Y362D01*
X0Y361D02*
X13Y361D01*
X82Y361D02*
X95Y361D01*
X174Y361D02*
X177Y361D01*
X184Y361D02*
X189Y361D01*
X299Y361D02*
X312Y361D01*
X419Y361D02*
X437Y361D01*
X543Y361D02*
X561Y361D01*
X668Y361D02*
X686Y361D01*
X747Y361D02*
X755Y361D01*
X1251Y361D02*
X1259Y361D01*
X1318Y361D02*
X1336Y361D01*
X1454Y361D02*
X1460Y361D01*
X1881Y361D02*
X1888Y361D01*
X1992Y361D02*
X2005Y361D01*
X0Y360D02*
X13Y360D01*
X83Y360D02*
X96Y360D01*
X174Y360D02*
X177Y360D01*
X184Y360D02*
X188Y360D01*
X298Y360D02*
X311Y360D01*
X419Y360D02*
X436Y360D01*
X543Y360D02*
X560Y360D01*
X668Y360D02*
X685Y360D01*
X747Y360D02*
X755Y360D01*
X1251Y360D02*
X1259Y360D01*
X1319Y360D02*
X1335Y360D01*
X1454Y360D02*
X1461Y360D01*
X1881Y360D02*
X1887Y360D01*
X1992Y360D02*
X2005Y360D01*
X0Y359D02*
X13Y359D01*
X84Y359D02*
X97Y359D01*
X174Y359D02*
X177Y359D01*
X184Y359D02*
X187Y359D01*
X297Y359D02*
X311Y359D01*
X747Y359D02*
X755Y359D01*
X1251Y359D02*
X1259Y359D01*
X1455Y359D02*
X1461Y359D01*
X1880Y359D02*
X1887Y359D01*
X1992Y359D02*
X2005Y359D01*
X0Y358D02*
X13Y358D01*
X85Y358D02*
X98Y358D01*
X174Y358D02*
X177Y358D01*
X184Y358D02*
X187Y358D01*
X296Y358D02*
X310Y358D01*
X747Y358D02*
X755Y358D01*
X1251Y358D02*
X1259Y358D01*
X1455Y358D02*
X1462Y358D01*
X1880Y358D02*
X1886Y358D01*
X1992Y358D02*
X2005Y358D01*
X0Y357D02*
X13Y357D01*
X86Y357D02*
X99Y357D01*
X174Y357D02*
X204Y357D01*
X295Y357D02*
X309Y357D01*
X747Y357D02*
X755Y357D01*
X1251Y357D02*
X1259Y357D01*
X1456Y357D02*
X1462Y357D01*
X1879Y357D02*
X1886Y357D01*
X1992Y357D02*
X2005Y357D01*
X0Y356D02*
X13Y356D01*
X86Y356D02*
X100Y356D01*
X174Y356D02*
X205Y356D01*
X294Y356D02*
X308Y356D01*
X747Y356D02*
X755Y356D01*
X1251Y356D02*
X1259Y356D01*
X1456Y356D02*
X1463Y356D01*
X1879Y356D02*
X1885Y356D01*
X1992Y356D02*
X2005Y356D01*
X0Y355D02*
X13Y355D01*
X87Y355D02*
X101Y355D01*
X174Y355D02*
X205Y355D01*
X293Y355D02*
X307Y355D01*
X747Y355D02*
X755Y355D01*
X1251Y355D02*
X1259Y355D01*
X1457Y355D02*
X1463Y355D01*
X1879Y355D02*
X1885Y355D01*
X1992Y355D02*
X2005Y355D01*
X0Y354D02*
X13Y354D01*
X88Y354D02*
X102Y354D01*
X174Y354D02*
X205Y354D01*
X292Y354D02*
X306Y354D01*
X747Y354D02*
X755Y354D01*
X1251Y354D02*
X1259Y354D01*
X1457Y354D02*
X1464Y354D01*
X1878Y354D02*
X1884Y354D01*
X1992Y354D02*
X2005Y354D01*
X0Y353D02*
X13Y353D01*
X89Y353D02*
X103Y353D01*
X174Y353D02*
X203Y353D01*
X291Y353D02*
X305Y353D01*
X747Y353D02*
X755Y353D01*
X1251Y353D02*
X1259Y353D01*
X1458Y353D02*
X1464Y353D01*
X1878Y353D02*
X1884Y353D01*
X1992Y353D02*
X2005Y353D01*
X0Y352D02*
X13Y352D01*
X90Y352D02*
X104Y352D01*
X290Y352D02*
X304Y352D01*
X747Y352D02*
X755Y352D01*
X1251Y352D02*
X1259Y352D01*
X1458Y352D02*
X1465Y352D01*
X1877Y352D02*
X1884Y352D01*
X1992Y352D02*
X2005Y352D01*
X0Y351D02*
X13Y351D01*
X91Y351D02*
X105Y351D01*
X289Y351D02*
X304Y351D01*
X747Y351D02*
X755Y351D01*
X1251Y351D02*
X1259Y351D01*
X1459Y351D02*
X1465Y351D01*
X1877Y351D02*
X1883Y351D01*
X1992Y351D02*
X2005Y351D01*
X0Y350D02*
X13Y350D01*
X92Y350D02*
X106Y350D01*
X288Y350D02*
X303Y350D01*
X747Y350D02*
X755Y350D01*
X1251Y350D02*
X1259Y350D01*
X1459Y350D02*
X1466Y350D01*
X1876Y350D02*
X1883Y350D01*
X1992Y350D02*
X2005Y350D01*
X0Y349D02*
X13Y349D01*
X93Y349D02*
X107Y349D01*
X287Y349D02*
X302Y349D01*
X747Y349D02*
X755Y349D01*
X1251Y349D02*
X1259Y349D01*
X1460Y349D02*
X1466Y349D01*
X1876Y349D02*
X1882Y349D01*
X1992Y349D02*
X2005Y349D01*
X0Y348D02*
X13Y348D01*
X94Y348D02*
X109Y348D01*
X285Y348D02*
X301Y348D01*
X747Y348D02*
X755Y348D01*
X1251Y348D02*
X1259Y348D01*
X1460Y348D02*
X1467Y348D01*
X1875Y348D02*
X1881Y348D01*
X1992Y348D02*
X2005Y348D01*
X0Y347D02*
X13Y347D01*
X95Y347D02*
X110Y347D01*
X284Y347D02*
X300Y347D01*
X747Y347D02*
X755Y347D01*
X1251Y347D02*
X1259Y347D01*
X1461Y347D02*
X1467Y347D01*
X1875Y347D02*
X1881Y347D01*
X1992Y347D02*
X2005Y347D01*
X0Y346D02*
X13Y346D01*
X96Y346D02*
X111Y346D01*
X283Y346D02*
X299Y346D01*
X747Y346D02*
X755Y346D01*
X1251Y346D02*
X1259Y346D01*
X1461Y346D02*
X1468Y346D01*
X1874Y346D02*
X1880Y346D01*
X1992Y346D02*
X2005Y346D01*
X0Y345D02*
X13Y345D01*
X97Y345D02*
X112Y345D01*
X282Y345D02*
X297Y345D01*
X747Y345D02*
X755Y345D01*
X1251Y345D02*
X1259Y345D01*
X1462Y345D02*
X1468Y345D01*
X1873Y345D02*
X1880Y345D01*
X1992Y345D02*
X2005Y345D01*
X0Y344D02*
X13Y344D01*
X98Y344D02*
X114Y344D01*
X280Y344D02*
X296Y344D01*
X747Y344D02*
X755Y344D01*
X1251Y344D02*
X1259Y344D01*
X1462Y344D02*
X1469Y344D01*
X1873Y344D02*
X1879Y344D01*
X1992Y344D02*
X2005Y344D01*
X0Y343D02*
X13Y343D01*
X99Y343D02*
X115Y343D01*
X279Y343D02*
X295Y343D01*
X423Y343D02*
X431Y343D01*
X548Y343D02*
X556Y343D01*
X673Y343D02*
X681Y343D01*
X747Y343D02*
X755Y343D01*
X1251Y343D02*
X1259Y343D01*
X1323Y343D02*
X1331Y343D01*
X1463Y343D02*
X1469Y343D01*
X1872Y343D02*
X1879Y343D01*
X1992Y343D02*
X2005Y343D01*
X0Y342D02*
X13Y342D01*
X100Y342D02*
X116Y342D01*
X278Y342D02*
X294Y342D01*
X423Y342D02*
X432Y342D01*
X548Y342D02*
X557Y342D01*
X672Y342D02*
X682Y342D01*
X747Y342D02*
X755Y342D01*
X1251Y342D02*
X1259Y342D01*
X1322Y342D02*
X1331Y342D01*
X1463Y342D02*
X1470Y342D01*
X1872Y342D02*
X1878Y342D01*
X1992Y342D02*
X2005Y342D01*
X0Y341D02*
X13Y341D01*
X102Y341D02*
X118Y341D01*
X276Y341D02*
X293Y341D01*
X423Y341D02*
X432Y341D01*
X548Y341D02*
X557Y341D01*
X672Y341D02*
X682Y341D01*
X747Y341D02*
X755Y341D01*
X1251Y341D02*
X1259Y341D01*
X1322Y341D02*
X1331Y341D01*
X1464Y341D02*
X1470Y341D01*
X1871Y341D02*
X1878Y341D01*
X1992Y341D02*
X2005Y341D01*
X0Y340D02*
X13Y340D01*
X103Y340D02*
X119Y340D01*
X275Y340D02*
X292Y340D01*
X423Y340D02*
X432Y340D01*
X548Y340D02*
X557Y340D01*
X672Y340D02*
X682Y340D01*
X747Y340D02*
X755Y340D01*
X1251Y340D02*
X1259Y340D01*
X1322Y340D02*
X1331Y340D01*
X1464Y340D02*
X1471Y340D01*
X1871Y340D02*
X1877Y340D01*
X1992Y340D02*
X2005Y340D01*
X0Y339D02*
X13Y339D01*
X104Y339D02*
X121Y339D01*
X273Y339D02*
X291Y339D01*
X423Y339D02*
X432Y339D01*
X548Y339D02*
X557Y339D01*
X672Y339D02*
X682Y339D01*
X747Y339D02*
X755Y339D01*
X1251Y339D02*
X1259Y339D01*
X1322Y339D02*
X1331Y339D01*
X1465Y339D02*
X1472Y339D01*
X1870Y339D02*
X1877Y339D01*
X1992Y339D02*
X2005Y339D01*
X0Y338D02*
X13Y338D01*
X105Y338D02*
X122Y338D01*
X272Y338D02*
X289Y338D01*
X423Y338D02*
X432Y338D01*
X548Y338D02*
X557Y338D01*
X672Y338D02*
X682Y338D01*
X747Y338D02*
X755Y338D01*
X1251Y338D02*
X1259Y338D01*
X1322Y338D02*
X1331Y338D01*
X1465Y338D02*
X1472Y338D01*
X1870Y338D02*
X1876Y338D01*
X1992Y338D02*
X2005Y338D01*
X0Y337D02*
X13Y337D01*
X106Y337D02*
X124Y337D01*
X270Y337D02*
X288Y337D01*
X423Y337D02*
X432Y337D01*
X548Y337D02*
X557Y337D01*
X672Y337D02*
X682Y337D01*
X747Y337D02*
X755Y337D01*
X1251Y337D02*
X1259Y337D01*
X1322Y337D02*
X1331Y337D01*
X1466Y337D02*
X1473Y337D01*
X1869Y337D02*
X1876Y337D01*
X1992Y337D02*
X2005Y337D01*
X0Y336D02*
X13Y336D01*
X108Y336D02*
X125Y336D01*
X269Y336D02*
X287Y336D01*
X423Y336D02*
X432Y336D01*
X548Y336D02*
X557Y336D01*
X672Y336D02*
X682Y336D01*
X747Y336D02*
X755Y336D01*
X1251Y336D02*
X1259Y336D01*
X1322Y336D02*
X1331Y336D01*
X1467Y336D02*
X1473Y336D01*
X1868Y336D02*
X1875Y336D01*
X1992Y336D02*
X2005Y336D01*
X0Y335D02*
X13Y335D01*
X109Y335D02*
X127Y335D01*
X267Y335D02*
X286Y335D01*
X423Y335D02*
X432Y335D01*
X548Y335D02*
X557Y335D01*
X672Y335D02*
X682Y335D01*
X747Y335D02*
X755Y335D01*
X1251Y335D02*
X1259Y335D01*
X1322Y335D02*
X1331Y335D01*
X1467Y335D02*
X1474Y335D01*
X1868Y335D02*
X1874Y335D01*
X1992Y335D02*
X2005Y335D01*
X0Y334D02*
X13Y334D01*
X110Y334D02*
X129Y334D01*
X265Y334D02*
X284Y334D01*
X423Y334D02*
X432Y334D01*
X548Y334D02*
X557Y334D01*
X672Y334D02*
X682Y334D01*
X747Y334D02*
X755Y334D01*
X1251Y334D02*
X1259Y334D01*
X1322Y334D02*
X1331Y334D01*
X1468Y334D02*
X1474Y334D01*
X1867Y334D02*
X1874Y334D01*
X1992Y334D02*
X2005Y334D01*
X0Y333D02*
X13Y333D01*
X112Y333D02*
X131Y333D01*
X264Y333D02*
X283Y333D01*
X423Y333D02*
X432Y333D01*
X548Y333D02*
X557Y333D01*
X672Y333D02*
X682Y333D01*
X747Y333D02*
X755Y333D01*
X1251Y333D02*
X1259Y333D01*
X1322Y333D02*
X1331Y333D01*
X1468Y333D02*
X1475Y333D01*
X1867Y333D02*
X1873Y333D01*
X1992Y333D02*
X2005Y333D01*
X0Y332D02*
X13Y332D01*
X113Y332D02*
X132Y332D01*
X262Y332D02*
X281Y332D01*
X423Y332D02*
X432Y332D01*
X548Y332D02*
X557Y332D01*
X672Y332D02*
X682Y332D01*
X747Y332D02*
X755Y332D01*
X1251Y332D02*
X1259Y332D01*
X1322Y332D02*
X1331Y332D01*
X1469Y332D02*
X1476Y332D01*
X1866Y332D02*
X1873Y332D01*
X1992Y332D02*
X2005Y332D01*
X0Y331D02*
X13Y331D01*
X115Y331D02*
X134Y331D01*
X260Y331D02*
X280Y331D01*
X423Y331D02*
X432Y331D01*
X548Y331D02*
X557Y331D01*
X672Y331D02*
X682Y331D01*
X747Y331D02*
X755Y331D01*
X1251Y331D02*
X1259Y331D01*
X1322Y331D02*
X1331Y331D01*
X1470Y331D02*
X1476Y331D01*
X1865Y331D02*
X1872Y331D01*
X1992Y331D02*
X2005Y331D01*
X0Y330D02*
X13Y330D01*
X116Y330D02*
X136Y330D01*
X258Y330D02*
X278Y330D01*
X423Y330D02*
X432Y330D01*
X548Y330D02*
X557Y330D01*
X672Y330D02*
X682Y330D01*
X747Y330D02*
X755Y330D01*
X1251Y330D02*
X1259Y330D01*
X1322Y330D02*
X1331Y330D01*
X1470Y330D02*
X1477Y330D01*
X1865Y330D02*
X1871Y330D01*
X1992Y330D02*
X2005Y330D01*
X0Y329D02*
X13Y329D01*
X118Y329D02*
X138Y329D01*
X256Y329D02*
X277Y329D01*
X423Y329D02*
X432Y329D01*
X548Y329D02*
X557Y329D01*
X672Y329D02*
X682Y329D01*
X747Y329D02*
X755Y329D01*
X1251Y329D02*
X1259Y329D01*
X1322Y329D02*
X1331Y329D01*
X1471Y329D02*
X1478Y329D01*
X1864Y329D02*
X1871Y329D01*
X1992Y329D02*
X2005Y329D01*
X0Y328D02*
X13Y328D01*
X119Y328D02*
X141Y328D01*
X254Y328D02*
X275Y328D01*
X423Y328D02*
X432Y328D01*
X548Y328D02*
X557Y328D01*
X672Y328D02*
X682Y328D01*
X747Y328D02*
X755Y328D01*
X1251Y328D02*
X1259Y328D01*
X1322Y328D02*
X1331Y328D01*
X1471Y328D02*
X1478Y328D01*
X1863Y328D02*
X1870Y328D01*
X1992Y328D02*
X2005Y328D01*
X0Y327D02*
X13Y327D01*
X121Y327D02*
X143Y327D01*
X251Y327D02*
X274Y327D01*
X423Y327D02*
X432Y327D01*
X548Y327D02*
X557Y327D01*
X672Y327D02*
X682Y327D01*
X747Y327D02*
X755Y327D01*
X1251Y327D02*
X1259Y327D01*
X1322Y327D02*
X1331Y327D01*
X1472Y327D02*
X1479Y327D01*
X1863Y327D02*
X1869Y327D01*
X1992Y327D02*
X2005Y327D01*
X0Y326D02*
X13Y326D01*
X122Y326D02*
X145Y326D01*
X249Y326D02*
X272Y326D01*
X423Y326D02*
X432Y326D01*
X548Y326D02*
X557Y326D01*
X672Y326D02*
X682Y326D01*
X747Y326D02*
X755Y326D01*
X1251Y326D02*
X1259Y326D01*
X1322Y326D02*
X1331Y326D01*
X1473Y326D02*
X1480Y326D01*
X1862Y326D02*
X1869Y326D01*
X1992Y326D02*
X2005Y326D01*
X0Y325D02*
X13Y325D01*
X124Y325D02*
X148Y325D01*
X246Y325D02*
X270Y325D01*
X423Y325D02*
X432Y325D01*
X548Y325D02*
X557Y325D01*
X672Y325D02*
X682Y325D01*
X747Y325D02*
X755Y325D01*
X1251Y325D02*
X1259Y325D01*
X1322Y325D02*
X1331Y325D01*
X1473Y325D02*
X1480Y325D01*
X1861Y325D02*
X1868Y325D01*
X1992Y325D02*
X2005Y325D01*
X0Y324D02*
X13Y324D01*
X126Y324D02*
X151Y324D01*
X244Y324D02*
X269Y324D01*
X423Y324D02*
X432Y324D01*
X548Y324D02*
X557Y324D01*
X672Y324D02*
X682Y324D01*
X747Y324D02*
X755Y324D01*
X1251Y324D02*
X1259Y324D01*
X1322Y324D02*
X1331Y324D01*
X1474Y324D02*
X1481Y324D01*
X1861Y324D02*
X1868Y324D01*
X1992Y324D02*
X2005Y324D01*
X0Y323D02*
X13Y323D01*
X128Y323D02*
X154Y323D01*
X241Y323D02*
X267Y323D01*
X423Y323D02*
X432Y323D01*
X548Y323D02*
X557Y323D01*
X672Y323D02*
X682Y323D01*
X747Y323D02*
X755Y323D01*
X1251Y323D02*
X1259Y323D01*
X1322Y323D02*
X1331Y323D01*
X1475Y323D02*
X1482Y323D01*
X1860Y323D02*
X1867Y323D01*
X1992Y323D02*
X2005Y323D01*
X0Y322D02*
X13Y322D01*
X130Y322D02*
X157Y322D01*
X238Y322D02*
X265Y322D01*
X423Y322D02*
X432Y322D01*
X548Y322D02*
X557Y322D01*
X672Y322D02*
X682Y322D01*
X747Y322D02*
X755Y322D01*
X1251Y322D02*
X1259Y322D01*
X1322Y322D02*
X1331Y322D01*
X1475Y322D02*
X1482Y322D01*
X1859Y322D02*
X1866Y322D01*
X1992Y322D02*
X2005Y322D01*
X0Y321D02*
X13Y321D01*
X131Y321D02*
X160Y321D01*
X234Y321D02*
X263Y321D01*
X423Y321D02*
X432Y321D01*
X548Y321D02*
X557Y321D01*
X672Y321D02*
X682Y321D01*
X747Y321D02*
X755Y321D01*
X1251Y321D02*
X1259Y321D01*
X1322Y321D02*
X1331Y321D01*
X1476Y321D02*
X1483Y321D01*
X1859Y321D02*
X1866Y321D01*
X1992Y321D02*
X2005Y321D01*
X0Y320D02*
X13Y320D01*
X133Y320D02*
X164Y320D01*
X230Y320D02*
X261Y320D01*
X423Y320D02*
X432Y320D01*
X548Y320D02*
X557Y320D01*
X672Y320D02*
X682Y320D01*
X747Y320D02*
X755Y320D01*
X1251Y320D02*
X1259Y320D01*
X1322Y320D02*
X1331Y320D01*
X1477Y320D02*
X1484Y320D01*
X1858Y320D02*
X1865Y320D01*
X1992Y320D02*
X2005Y320D01*
X0Y319D02*
X13Y319D01*
X136Y319D02*
X169Y319D01*
X226Y319D02*
X259Y319D01*
X423Y319D02*
X432Y319D01*
X548Y319D02*
X557Y319D01*
X672Y319D02*
X682Y319D01*
X747Y319D02*
X755Y319D01*
X1251Y319D02*
X1259Y319D01*
X1322Y319D02*
X1331Y319D01*
X1477Y319D02*
X1484Y319D01*
X1857Y319D02*
X1864Y319D01*
X1992Y319D02*
X2005Y319D01*
X0Y318D02*
X13Y318D01*
X138Y318D02*
X174Y318D01*
X220Y318D02*
X257Y318D01*
X423Y318D02*
X432Y318D01*
X548Y318D02*
X557Y318D01*
X672Y318D02*
X682Y318D01*
X747Y318D02*
X755Y318D01*
X1251Y318D02*
X1259Y318D01*
X1322Y318D02*
X1331Y318D01*
X1478Y318D02*
X1485Y318D01*
X1856Y318D02*
X1863Y318D01*
X1992Y318D02*
X2005Y318D01*
X0Y317D02*
X13Y317D01*
X140Y317D02*
X182Y317D01*
X213Y317D02*
X254Y317D01*
X423Y317D02*
X432Y317D01*
X548Y317D02*
X557Y317D01*
X672Y317D02*
X682Y317D01*
X747Y317D02*
X755Y317D01*
X1251Y317D02*
X1259Y317D01*
X1322Y317D02*
X1331Y317D01*
X1479Y317D02*
X1486Y317D01*
X1856Y317D02*
X1863Y317D01*
X1992Y317D02*
X2005Y317D01*
X0Y316D02*
X13Y316D01*
X142Y316D02*
X252Y316D01*
X423Y316D02*
X432Y316D01*
X548Y316D02*
X557Y316D01*
X672Y316D02*
X682Y316D01*
X747Y316D02*
X755Y316D01*
X1251Y316D02*
X1259Y316D01*
X1322Y316D02*
X1331Y316D01*
X1480Y316D02*
X1487Y316D01*
X1855Y316D02*
X1862Y316D01*
X1992Y316D02*
X2005Y316D01*
X0Y315D02*
X13Y315D01*
X145Y315D02*
X250Y315D01*
X423Y315D02*
X432Y315D01*
X548Y315D02*
X557Y315D01*
X672Y315D02*
X682Y315D01*
X747Y315D02*
X755Y315D01*
X1251Y315D02*
X1259Y315D01*
X1322Y315D02*
X1331Y315D01*
X1480Y315D02*
X1487Y315D01*
X1854Y315D02*
X1861Y315D01*
X1992Y315D02*
X2005Y315D01*
X0Y314D02*
X13Y314D01*
X148Y314D02*
X247Y314D01*
X423Y314D02*
X432Y314D01*
X548Y314D02*
X557Y314D01*
X672Y314D02*
X682Y314D01*
X747Y314D02*
X755Y314D01*
X1251Y314D02*
X1259Y314D01*
X1322Y314D02*
X1331Y314D01*
X1481Y314D02*
X1488Y314D01*
X1853Y314D02*
X1861Y314D01*
X1992Y314D02*
X2005Y314D01*
X0Y313D02*
X13Y313D01*
X150Y313D02*
X244Y313D01*
X423Y313D02*
X432Y313D01*
X548Y313D02*
X557Y313D01*
X672Y313D02*
X682Y313D01*
X747Y313D02*
X755Y313D01*
X1251Y313D02*
X1259Y313D01*
X1322Y313D02*
X1331Y313D01*
X1482Y313D02*
X1489Y313D01*
X1853Y313D02*
X1860Y313D01*
X1992Y313D02*
X2005Y313D01*
X0Y312D02*
X13Y312D01*
X153Y312D02*
X241Y312D01*
X423Y312D02*
X432Y312D01*
X548Y312D02*
X557Y312D01*
X672Y312D02*
X682Y312D01*
X747Y312D02*
X755Y312D01*
X1251Y312D02*
X1259Y312D01*
X1322Y312D02*
X1331Y312D01*
X1483Y312D02*
X1490Y312D01*
X1852Y312D02*
X1859Y312D01*
X1992Y312D02*
X2005Y312D01*
X0Y311D02*
X13Y311D01*
X157Y311D02*
X238Y311D01*
X423Y311D02*
X432Y311D01*
X548Y311D02*
X557Y311D01*
X672Y311D02*
X682Y311D01*
X747Y311D02*
X755Y311D01*
X1251Y311D02*
X1259Y311D01*
X1322Y311D02*
X1331Y311D01*
X1483Y311D02*
X1491Y311D01*
X1851Y311D02*
X1858Y311D01*
X1992Y311D02*
X2005Y311D01*
X0Y310D02*
X13Y310D01*
X160Y310D02*
X234Y310D01*
X423Y310D02*
X432Y310D01*
X548Y310D02*
X557Y310D01*
X672Y310D02*
X682Y310D01*
X747Y310D02*
X755Y310D01*
X1251Y310D02*
X1259Y310D01*
X1322Y310D02*
X1331Y310D01*
X1484Y310D02*
X1491Y310D01*
X1850Y310D02*
X1858Y310D01*
X1992Y310D02*
X2005Y310D01*
X0Y309D02*
X13Y309D01*
X164Y309D02*
X230Y309D01*
X423Y309D02*
X432Y309D01*
X548Y309D02*
X557Y309D01*
X672Y309D02*
X682Y309D01*
X747Y309D02*
X755Y309D01*
X1251Y309D02*
X1259Y309D01*
X1322Y309D02*
X1331Y309D01*
X1485Y309D02*
X1492Y309D01*
X1849Y309D02*
X1857Y309D01*
X1992Y309D02*
X2005Y309D01*
X0Y308D02*
X13Y308D01*
X169Y308D02*
X226Y308D01*
X423Y308D02*
X432Y308D01*
X548Y308D02*
X557Y308D01*
X672Y308D02*
X682Y308D01*
X747Y308D02*
X755Y308D01*
X1251Y308D02*
X1259Y308D01*
X1322Y308D02*
X1331Y308D01*
X1486Y308D02*
X1493Y308D01*
X1849Y308D02*
X1856Y308D01*
X1992Y308D02*
X2005Y308D01*
X0Y307D02*
X13Y307D01*
X174Y307D02*
X220Y307D01*
X423Y307D02*
X432Y307D01*
X548Y307D02*
X557Y307D01*
X672Y307D02*
X682Y307D01*
X747Y307D02*
X755Y307D01*
X1251Y307D02*
X1259Y307D01*
X1322Y307D02*
X1331Y307D01*
X1486Y307D02*
X1494Y307D01*
X1848Y307D02*
X1855Y307D01*
X1992Y307D02*
X2005Y307D01*
X0Y306D02*
X13Y306D01*
X181Y306D02*
X213Y306D01*
X423Y306D02*
X432Y306D01*
X548Y306D02*
X557Y306D01*
X672Y306D02*
X682Y306D01*
X747Y306D02*
X755Y306D01*
X1251Y306D02*
X1259Y306D01*
X1322Y306D02*
X1331Y306D01*
X1487Y306D02*
X1495Y306D01*
X1847Y306D02*
X1854Y306D01*
X1992Y306D02*
X2005Y306D01*
X0Y305D02*
X13Y305D01*
X423Y305D02*
X432Y305D01*
X548Y305D02*
X557Y305D01*
X672Y305D02*
X682Y305D01*
X747Y305D02*
X755Y305D01*
X1251Y305D02*
X1259Y305D01*
X1322Y305D02*
X1331Y305D01*
X1488Y305D02*
X1496Y305D01*
X1846Y305D02*
X1854Y305D01*
X1992Y305D02*
X2005Y305D01*
X0Y304D02*
X13Y304D01*
X423Y304D02*
X432Y304D01*
X548Y304D02*
X557Y304D01*
X672Y304D02*
X682Y304D01*
X747Y304D02*
X755Y304D01*
X1251Y304D02*
X1259Y304D01*
X1322Y304D02*
X1331Y304D01*
X1489Y304D02*
X1496Y304D01*
X1845Y304D02*
X1853Y304D01*
X1992Y304D02*
X2005Y304D01*
X0Y303D02*
X13Y303D01*
X423Y303D02*
X432Y303D01*
X548Y303D02*
X557Y303D01*
X672Y303D02*
X682Y303D01*
X747Y303D02*
X755Y303D01*
X1251Y303D02*
X1259Y303D01*
X1322Y303D02*
X1331Y303D01*
X1490Y303D02*
X1497Y303D01*
X1844Y303D02*
X1852Y303D01*
X1992Y303D02*
X2005Y303D01*
X0Y302D02*
X13Y302D01*
X423Y302D02*
X432Y302D01*
X548Y302D02*
X557Y302D01*
X672Y302D02*
X682Y302D01*
X747Y302D02*
X755Y302D01*
X1251Y302D02*
X1259Y302D01*
X1322Y302D02*
X1331Y302D01*
X1491Y302D02*
X1498Y302D01*
X1844Y302D02*
X1851Y302D01*
X1992Y302D02*
X2005Y302D01*
X0Y301D02*
X13Y301D01*
X423Y301D02*
X432Y301D01*
X548Y301D02*
X557Y301D01*
X672Y301D02*
X682Y301D01*
X747Y301D02*
X755Y301D01*
X1251Y301D02*
X1259Y301D01*
X1322Y301D02*
X1331Y301D01*
X1491Y301D02*
X1499Y301D01*
X1843Y301D02*
X1850Y301D01*
X1992Y301D02*
X2005Y301D01*
X0Y300D02*
X13Y300D01*
X423Y300D02*
X432Y300D01*
X548Y300D02*
X557Y300D01*
X672Y300D02*
X682Y300D01*
X747Y300D02*
X755Y300D01*
X1251Y300D02*
X1259Y300D01*
X1322Y300D02*
X1331Y300D01*
X1492Y300D02*
X1500Y300D01*
X1842Y300D02*
X1849Y300D01*
X1992Y300D02*
X2005Y300D01*
X0Y299D02*
X13Y299D01*
X423Y299D02*
X432Y299D01*
X548Y299D02*
X557Y299D01*
X672Y299D02*
X682Y299D01*
X747Y299D02*
X755Y299D01*
X1251Y299D02*
X1259Y299D01*
X1322Y299D02*
X1331Y299D01*
X1493Y299D02*
X1501Y299D01*
X1841Y299D02*
X1848Y299D01*
X1992Y299D02*
X2005Y299D01*
X0Y298D02*
X13Y298D01*
X423Y298D02*
X432Y298D01*
X548Y298D02*
X557Y298D01*
X672Y298D02*
X682Y298D01*
X747Y298D02*
X755Y298D01*
X1251Y298D02*
X1259Y298D01*
X1322Y298D02*
X1331Y298D01*
X1494Y298D02*
X1502Y298D01*
X1840Y298D02*
X1848Y298D01*
X1992Y298D02*
X2005Y298D01*
X0Y297D02*
X13Y297D01*
X423Y297D02*
X432Y297D01*
X548Y297D02*
X557Y297D01*
X672Y297D02*
X682Y297D01*
X747Y297D02*
X755Y297D01*
X1251Y297D02*
X1259Y297D01*
X1322Y297D02*
X1331Y297D01*
X1495Y297D02*
X1503Y297D01*
X1839Y297D02*
X1847Y297D01*
X1992Y297D02*
X2005Y297D01*
X0Y296D02*
X13Y296D01*
X423Y296D02*
X432Y296D01*
X548Y296D02*
X557Y296D01*
X672Y296D02*
X682Y296D01*
X747Y296D02*
X755Y296D01*
X1251Y296D02*
X1259Y296D01*
X1322Y296D02*
X1331Y296D01*
X1496Y296D02*
X1504Y296D01*
X1838Y296D02*
X1846Y296D01*
X1992Y296D02*
X2005Y296D01*
X0Y295D02*
X13Y295D01*
X423Y295D02*
X425Y295D01*
X429Y295D02*
X432Y295D01*
X548Y295D02*
X550Y295D01*
X554Y295D02*
X557Y295D01*
X672Y295D02*
X675Y295D01*
X679Y295D02*
X682Y295D01*
X747Y295D02*
X755Y295D01*
X1251Y295D02*
X1259Y295D01*
X1322Y295D02*
X1325Y295D01*
X1329Y295D02*
X1331Y295D01*
X1497Y295D02*
X1505Y295D01*
X1837Y295D02*
X1845Y295D01*
X1992Y295D02*
X2005Y295D01*
X0Y294D02*
X13Y294D01*
X747Y294D02*
X755Y294D01*
X1251Y294D02*
X1259Y294D01*
X1498Y294D02*
X1505Y294D01*
X1836Y294D02*
X1844Y294D01*
X1992Y294D02*
X2005Y294D01*
X0Y293D02*
X13Y293D01*
X747Y293D02*
X755Y293D01*
X1251Y293D02*
X1259Y293D01*
X1499Y293D02*
X1506Y293D01*
X1835Y293D02*
X1843Y293D01*
X1992Y293D02*
X2005Y293D01*
X0Y292D02*
X13Y292D01*
X747Y292D02*
X755Y292D01*
X1251Y292D02*
X1259Y292D01*
X1499Y292D02*
X1507Y292D01*
X1834Y292D02*
X1842Y292D01*
X1992Y292D02*
X2005Y292D01*
X0Y291D02*
X13Y291D01*
X747Y291D02*
X755Y291D01*
X1251Y291D02*
X1259Y291D01*
X1500Y291D02*
X1508Y291D01*
X1833Y291D02*
X1841Y291D01*
X1992Y291D02*
X2005Y291D01*
X0Y290D02*
X13Y290D01*
X747Y290D02*
X755Y290D01*
X1251Y290D02*
X1259Y290D01*
X1501Y290D02*
X1509Y290D01*
X1832Y290D02*
X1840Y290D01*
X1992Y290D02*
X2005Y290D01*
X0Y289D02*
X13Y289D01*
X747Y289D02*
X755Y289D01*
X1251Y289D02*
X1259Y289D01*
X1502Y289D02*
X1510Y289D01*
X1831Y289D02*
X1839Y289D01*
X1992Y289D02*
X2005Y289D01*
X0Y288D02*
X13Y288D01*
X747Y288D02*
X755Y288D01*
X1251Y288D02*
X1259Y288D01*
X1503Y288D02*
X1512Y288D01*
X1830Y288D02*
X1838Y288D01*
X1992Y288D02*
X2005Y288D01*
X0Y287D02*
X13Y287D01*
X747Y287D02*
X755Y287D01*
X1251Y287D02*
X1259Y287D01*
X1504Y287D02*
X1513Y287D01*
X1829Y287D02*
X1837Y287D01*
X1992Y287D02*
X2005Y287D01*
X0Y286D02*
X13Y286D01*
X747Y286D02*
X755Y286D01*
X1251Y286D02*
X1259Y286D01*
X1505Y286D02*
X1514Y286D01*
X1828Y286D02*
X1836Y286D01*
X1992Y286D02*
X2005Y286D01*
X0Y285D02*
X13Y285D01*
X747Y285D02*
X755Y285D01*
X1251Y285D02*
X1259Y285D01*
X1506Y285D02*
X1515Y285D01*
X1827Y285D02*
X1835Y285D01*
X1992Y285D02*
X2005Y285D01*
X0Y284D02*
X13Y284D01*
X747Y284D02*
X755Y284D01*
X1251Y284D02*
X1259Y284D01*
X1507Y284D02*
X1516Y284D01*
X1826Y284D02*
X1834Y284D01*
X1992Y284D02*
X2005Y284D01*
X0Y283D02*
X13Y283D01*
X747Y283D02*
X755Y283D01*
X1251Y283D02*
X1259Y283D01*
X1508Y283D02*
X1517Y283D01*
X1825Y283D02*
X1833Y283D01*
X1992Y283D02*
X2005Y283D01*
X0Y282D02*
X13Y282D01*
X747Y282D02*
X755Y282D01*
X1251Y282D02*
X1259Y282D01*
X1509Y282D02*
X1518Y282D01*
X1824Y282D02*
X1832Y282D01*
X1992Y282D02*
X2005Y282D01*
X0Y281D02*
X13Y281D01*
X747Y281D02*
X755Y281D01*
X1251Y281D02*
X1259Y281D01*
X1511Y281D02*
X1519Y281D01*
X1822Y281D02*
X1831Y281D01*
X1992Y281D02*
X2005Y281D01*
X0Y280D02*
X13Y280D01*
X747Y280D02*
X755Y280D01*
X1251Y280D02*
X1259Y280D01*
X1512Y280D02*
X1520Y280D01*
X1821Y280D02*
X1830Y280D01*
X1992Y280D02*
X2005Y280D01*
X0Y279D02*
X13Y279D01*
X747Y279D02*
X755Y279D01*
X1251Y279D02*
X1259Y279D01*
X1513Y279D02*
X1521Y279D01*
X1820Y279D02*
X1829Y279D01*
X1992Y279D02*
X2005Y279D01*
X0Y278D02*
X13Y278D01*
X747Y278D02*
X755Y278D01*
X1251Y278D02*
X1259Y278D01*
X1514Y278D02*
X1523Y278D01*
X1819Y278D02*
X1828Y278D01*
X1992Y278D02*
X2005Y278D01*
X0Y277D02*
X13Y277D01*
X747Y277D02*
X755Y277D01*
X1251Y277D02*
X1259Y277D01*
X1515Y277D02*
X1524Y277D01*
X1818Y277D02*
X1827Y277D01*
X1992Y277D02*
X2005Y277D01*
X0Y276D02*
X13Y276D01*
X747Y276D02*
X755Y276D01*
X1251Y276D02*
X1259Y276D01*
X1516Y276D02*
X1525Y276D01*
X1817Y276D02*
X1826Y276D01*
X1992Y276D02*
X2005Y276D01*
X0Y275D02*
X13Y275D01*
X747Y275D02*
X755Y275D01*
X1251Y275D02*
X1259Y275D01*
X1517Y275D02*
X1526Y275D01*
X1672Y275D02*
X1674Y275D01*
X1815Y275D02*
X1824Y275D01*
X1992Y275D02*
X2005Y275D01*
X0Y274D02*
X13Y274D01*
X747Y274D02*
X755Y274D01*
X1251Y274D02*
X1259Y274D01*
X1518Y274D02*
X1528Y274D01*
X1671Y274D02*
X1675Y274D01*
X1814Y274D02*
X1823Y274D01*
X1992Y274D02*
X2005Y274D01*
X0Y273D02*
X13Y273D01*
X747Y273D02*
X755Y273D01*
X1251Y273D02*
X1259Y273D01*
X1520Y273D02*
X1529Y273D01*
X1670Y273D02*
X1676Y273D01*
X1813Y273D02*
X1822Y273D01*
X1992Y273D02*
X2005Y273D01*
X0Y272D02*
X13Y272D01*
X747Y272D02*
X755Y272D01*
X1251Y272D02*
X1259Y272D01*
X1521Y272D02*
X1530Y272D01*
X1670Y272D02*
X1676Y272D01*
X1811Y272D02*
X1821Y272D01*
X1992Y272D02*
X2005Y272D01*
X0Y271D02*
X13Y271D01*
X747Y271D02*
X755Y271D01*
X1251Y271D02*
X1259Y271D01*
X1522Y271D02*
X1531Y271D01*
X1670Y271D02*
X1676Y271D01*
X1810Y271D02*
X1820Y271D01*
X1992Y271D02*
X2005Y271D01*
X0Y270D02*
X13Y270D01*
X747Y270D02*
X755Y270D01*
X1251Y270D02*
X1259Y270D01*
X1523Y270D02*
X1533Y270D01*
X1670Y270D02*
X1676Y270D01*
X1809Y270D02*
X1818Y270D01*
X1992Y270D02*
X2005Y270D01*
X0Y269D02*
X13Y269D01*
X747Y269D02*
X755Y269D01*
X1251Y269D02*
X1259Y269D01*
X1524Y269D02*
X1534Y269D01*
X1670Y269D02*
X1676Y269D01*
X1808Y269D02*
X1817Y269D01*
X1992Y269D02*
X2005Y269D01*
X0Y268D02*
X13Y268D01*
X747Y268D02*
X755Y268D01*
X1251Y268D02*
X1259Y268D01*
X1526Y268D02*
X1535Y268D01*
X1670Y268D02*
X1676Y268D01*
X1806Y268D02*
X1816Y268D01*
X1992Y268D02*
X2005Y268D01*
X0Y267D02*
X13Y267D01*
X747Y267D02*
X755Y267D01*
X1251Y267D02*
X1259Y267D01*
X1527Y267D02*
X1537Y267D01*
X1670Y267D02*
X1676Y267D01*
X1805Y267D02*
X1815Y267D01*
X1992Y267D02*
X2005Y267D01*
X0Y266D02*
X13Y266D01*
X747Y266D02*
X755Y266D01*
X1251Y266D02*
X1259Y266D01*
X1528Y266D02*
X1538Y266D01*
X1670Y266D02*
X1676Y266D01*
X1803Y266D02*
X1813Y266D01*
X1992Y266D02*
X2005Y266D01*
X0Y265D02*
X13Y265D01*
X747Y265D02*
X755Y265D01*
X1251Y265D02*
X1259Y265D01*
X1530Y265D02*
X1540Y265D01*
X1670Y265D02*
X1676Y265D01*
X1802Y265D02*
X1812Y265D01*
X1992Y265D02*
X2005Y265D01*
X0Y264D02*
X13Y264D01*
X747Y264D02*
X755Y264D01*
X1251Y264D02*
X1259Y264D01*
X1531Y264D02*
X1541Y264D01*
X1670Y264D02*
X1676Y264D01*
X1801Y264D02*
X1811Y264D01*
X1992Y264D02*
X2005Y264D01*
X0Y263D02*
X13Y263D01*
X747Y263D02*
X755Y263D01*
X1251Y263D02*
X1259Y263D01*
X1532Y263D02*
X1543Y263D01*
X1670Y263D02*
X1676Y263D01*
X1799Y263D02*
X1809Y263D01*
X1992Y263D02*
X2005Y263D01*
X0Y262D02*
X13Y262D01*
X747Y262D02*
X755Y262D01*
X1251Y262D02*
X1259Y262D01*
X1534Y262D02*
X1544Y262D01*
X1670Y262D02*
X1676Y262D01*
X1798Y262D02*
X1808Y262D01*
X1992Y262D02*
X2005Y262D01*
X0Y261D02*
X13Y261D01*
X747Y261D02*
X755Y261D01*
X1251Y261D02*
X1259Y261D01*
X1535Y261D02*
X1546Y261D01*
X1669Y261D02*
X1676Y261D01*
X1796Y261D02*
X1807Y261D01*
X1992Y261D02*
X2005Y261D01*
X0Y260D02*
X13Y260D01*
X747Y260D02*
X755Y260D01*
X1251Y260D02*
X1259Y260D01*
X1536Y260D02*
X1547Y260D01*
X1657Y260D02*
X1689Y260D01*
X1794Y260D02*
X1805Y260D01*
X1992Y260D02*
X2005Y260D01*
X0Y259D02*
X13Y259D01*
X747Y259D02*
X755Y259D01*
X1251Y259D02*
X1259Y259D01*
X1538Y259D02*
X1549Y259D01*
X1656Y259D02*
X1690Y259D01*
X1793Y259D02*
X1804Y259D01*
X1992Y259D02*
X2005Y259D01*
X0Y258D02*
X13Y258D01*
X747Y258D02*
X755Y258D01*
X1251Y258D02*
X1259Y258D01*
X1539Y258D02*
X1550Y258D01*
X1655Y258D02*
X1690Y258D01*
X1791Y258D02*
X1802Y258D01*
X1992Y258D02*
X2005Y258D01*
X0Y257D02*
X13Y257D01*
X747Y257D02*
X755Y257D01*
X1251Y257D02*
X1259Y257D01*
X1541Y257D02*
X1552Y257D01*
X1655Y257D02*
X1690Y257D01*
X1790Y257D02*
X1801Y257D01*
X1992Y257D02*
X2005Y257D01*
X0Y256D02*
X13Y256D01*
X747Y256D02*
X755Y256D01*
X1251Y256D02*
X1259Y256D01*
X1542Y256D02*
X1554Y256D01*
X1655Y256D02*
X1690Y256D01*
X1788Y256D02*
X1799Y256D01*
X1992Y256D02*
X2005Y256D01*
X0Y255D02*
X13Y255D01*
X747Y255D02*
X755Y255D01*
X1251Y255D02*
X1259Y255D01*
X1544Y255D02*
X1555Y255D01*
X1656Y255D02*
X1690Y255D01*
X1786Y255D02*
X1798Y255D01*
X1992Y255D02*
X2005Y255D01*
X0Y254D02*
X13Y254D01*
X747Y254D02*
X755Y254D01*
X1251Y254D02*
X1259Y254D01*
X1545Y254D02*
X1557Y254D01*
X1657Y254D02*
X1688Y254D01*
X1784Y254D02*
X1796Y254D01*
X1992Y254D02*
X2005Y254D01*
X0Y253D02*
X13Y253D01*
X747Y253D02*
X755Y253D01*
X1251Y253D02*
X1259Y253D01*
X1547Y253D02*
X1559Y253D01*
X1670Y253D02*
X1676Y253D01*
X1783Y253D02*
X1795Y253D01*
X1992Y253D02*
X2005Y253D01*
X0Y252D02*
X13Y252D01*
X747Y252D02*
X755Y252D01*
X1251Y252D02*
X1259Y252D01*
X1549Y252D02*
X1561Y252D01*
X1670Y252D02*
X1676Y252D01*
X1781Y252D02*
X1793Y252D01*
X1992Y252D02*
X2005Y252D01*
X0Y251D02*
X13Y251D01*
X747Y251D02*
X755Y251D01*
X1251Y251D02*
X1259Y251D01*
X1550Y251D02*
X1563Y251D01*
X1670Y251D02*
X1676Y251D01*
X1779Y251D02*
X1791Y251D01*
X1992Y251D02*
X2005Y251D01*
X0Y250D02*
X13Y250D01*
X747Y250D02*
X755Y250D01*
X1251Y250D02*
X1259Y250D01*
X1552Y250D02*
X1565Y250D01*
X1670Y250D02*
X1676Y250D01*
X1777Y250D02*
X1790Y250D01*
X1992Y250D02*
X2005Y250D01*
X0Y249D02*
X13Y249D01*
X747Y249D02*
X755Y249D01*
X1251Y249D02*
X1259Y249D01*
X1554Y249D02*
X1567Y249D01*
X1670Y249D02*
X1676Y249D01*
X1775Y249D02*
X1788Y249D01*
X1992Y249D02*
X2005Y249D01*
X0Y248D02*
X13Y248D01*
X747Y248D02*
X755Y248D01*
X1251Y248D02*
X1259Y248D01*
X1555Y248D02*
X1568Y248D01*
X1670Y248D02*
X1676Y248D01*
X1773Y248D02*
X1786Y248D01*
X1992Y248D02*
X2005Y248D01*
X0Y247D02*
X13Y247D01*
X747Y247D02*
X755Y247D01*
X1251Y247D02*
X1259Y247D01*
X1557Y247D02*
X1570Y247D01*
X1670Y247D02*
X1676Y247D01*
X1771Y247D02*
X1784Y247D01*
X1992Y247D02*
X2005Y247D01*
X0Y246D02*
X13Y246D01*
X747Y246D02*
X755Y246D01*
X1251Y246D02*
X1259Y246D01*
X1559Y246D02*
X1573Y246D01*
X1670Y246D02*
X1676Y246D01*
X1769Y246D02*
X1783Y246D01*
X1992Y246D02*
X2005Y246D01*
X0Y245D02*
X13Y245D01*
X747Y245D02*
X755Y245D01*
X1251Y245D02*
X1259Y245D01*
X1561Y245D02*
X1575Y245D01*
X1670Y245D02*
X1676Y245D01*
X1767Y245D02*
X1781Y245D01*
X1992Y245D02*
X2005Y245D01*
X0Y244D02*
X13Y244D01*
X747Y244D02*
X755Y244D01*
X1251Y244D02*
X1259Y244D01*
X1563Y244D02*
X1577Y244D01*
X1670Y244D02*
X1676Y244D01*
X1765Y244D02*
X1779Y244D01*
X1992Y244D02*
X2005Y244D01*
X0Y243D02*
X13Y243D01*
X747Y243D02*
X755Y243D01*
X1250Y243D02*
X1259Y243D01*
X1565Y243D02*
X1579Y243D01*
X1670Y243D02*
X1676Y243D01*
X1762Y243D02*
X1777Y243D01*
X1992Y243D02*
X2005Y243D01*
X0Y242D02*
X13Y242D01*
X747Y242D02*
X756Y242D01*
X1250Y242D02*
X1259Y242D01*
X1567Y242D02*
X1582Y242D01*
X1670Y242D02*
X1676Y242D01*
X1760Y242D02*
X1775Y242D01*
X1992Y242D02*
X2005Y242D01*
X0Y241D02*
X13Y241D01*
X747Y241D02*
X756Y241D01*
X1250Y241D02*
X1259Y241D01*
X1569Y241D02*
X1584Y241D01*
X1670Y241D02*
X1675Y241D01*
X1757Y241D02*
X1773Y241D01*
X1992Y241D02*
X2005Y241D01*
X0Y240D02*
X13Y240D01*
X747Y240D02*
X756Y240D01*
X1250Y240D02*
X1259Y240D01*
X1571Y240D02*
X1587Y240D01*
X1671Y240D02*
X1675Y240D01*
X1755Y240D02*
X1771Y240D01*
X1992Y240D02*
X2005Y240D01*
X0Y239D02*
X13Y239D01*
X747Y239D02*
X756Y239D01*
X1250Y239D02*
X1259Y239D01*
X1573Y239D02*
X1589Y239D01*
X1752Y239D02*
X1769Y239D01*
X1992Y239D02*
X2005Y239D01*
X0Y238D02*
X13Y238D01*
X747Y238D02*
X756Y238D01*
X1250Y238D02*
X1259Y238D01*
X1575Y238D02*
X1592Y238D01*
X1750Y238D02*
X1766Y238D01*
X1992Y238D02*
X2005Y238D01*
X0Y237D02*
X13Y237D01*
X747Y237D02*
X756Y237D01*
X1250Y237D02*
X1259Y237D01*
X1577Y237D02*
X1595Y237D01*
X1747Y237D02*
X1764Y237D01*
X1992Y237D02*
X2005Y237D01*
X0Y236D02*
X13Y236D01*
X748Y236D02*
X756Y236D01*
X1250Y236D02*
X1258Y236D01*
X1580Y236D02*
X1598Y236D01*
X1744Y236D02*
X1762Y236D01*
X1992Y236D02*
X2005Y236D01*
X0Y235D02*
X13Y235D01*
X748Y235D02*
X757Y235D01*
X1249Y235D02*
X1258Y235D01*
X1582Y235D02*
X1601Y235D01*
X1741Y235D02*
X1760Y235D01*
X1992Y235D02*
X2005Y235D01*
X0Y234D02*
X13Y234D01*
X748Y234D02*
X757Y234D01*
X1249Y234D02*
X1258Y234D01*
X1585Y234D02*
X1604Y234D01*
X1738Y234D02*
X1757Y234D01*
X1992Y234D02*
X2005Y234D01*
X0Y233D02*
X13Y233D01*
X748Y233D02*
X757Y233D01*
X1249Y233D02*
X1258Y233D01*
X1587Y233D02*
X1607Y233D01*
X1734Y233D02*
X1755Y233D01*
X1992Y233D02*
X2005Y233D01*
X0Y232D02*
X13Y232D01*
X749Y232D02*
X757Y232D01*
X1249Y232D02*
X1257Y232D01*
X1590Y232D02*
X1611Y232D01*
X1731Y232D02*
X1752Y232D01*
X1992Y232D02*
X2005Y232D01*
X0Y231D02*
X13Y231D01*
X749Y231D02*
X758Y231D01*
X1248Y231D02*
X1257Y231D01*
X1592Y231D02*
X1615Y231D01*
X1727Y231D02*
X1749Y231D01*
X1992Y231D02*
X2005Y231D01*
X0Y230D02*
X13Y230D01*
X749Y230D02*
X758Y230D01*
X1248Y230D02*
X1257Y230D01*
X1595Y230D02*
X1619Y230D01*
X1722Y230D02*
X1746Y230D01*
X1992Y230D02*
X2005Y230D01*
X0Y229D02*
X13Y229D01*
X749Y229D02*
X759Y229D01*
X1247Y229D02*
X1257Y229D01*
X1598Y229D02*
X1624Y229D01*
X1718Y229D02*
X1743Y229D01*
X1992Y229D02*
X2005Y229D01*
X0Y228D02*
X13Y228D01*
X750Y228D02*
X759Y228D01*
X1247Y228D02*
X1256Y228D01*
X1601Y228D02*
X1629Y228D01*
X1712Y228D02*
X1740Y228D01*
X1992Y228D02*
X2005Y228D01*
X0Y227D02*
X13Y227D01*
X750Y227D02*
X760Y227D01*
X1246Y227D02*
X1256Y227D01*
X1605Y227D02*
X1635Y227D01*
X1707Y227D02*
X1737Y227D01*
X1992Y227D02*
X2005Y227D01*
X0Y226D02*
X13Y226D01*
X751Y226D02*
X760Y226D01*
X1246Y226D02*
X1255Y226D01*
X1608Y226D02*
X1642Y226D01*
X1699Y226D02*
X1733Y226D01*
X1992Y226D02*
X2005Y226D01*
X0Y225D02*
X13Y225D01*
X751Y225D02*
X761Y225D01*
X1245Y225D02*
X1255Y225D01*
X1612Y225D02*
X1653Y225D01*
X1689Y225D02*
X1730Y225D01*
X1992Y225D02*
X2005Y225D01*
X0Y224D02*
X13Y224D01*
X751Y224D02*
X761Y224D01*
X1245Y224D02*
X1255Y224D01*
X1616Y224D02*
X1726Y224D01*
X1992Y224D02*
X2005Y224D01*
X0Y223D02*
X13Y223D01*
X752Y223D02*
X762Y223D01*
X1244Y223D02*
X1254Y223D01*
X1620Y223D02*
X1722Y223D01*
X1992Y223D02*
X2005Y223D01*
X0Y222D02*
X13Y222D01*
X752Y222D02*
X763Y222D01*
X1243Y222D02*
X1254Y222D01*
X1624Y222D02*
X1717Y222D01*
X1992Y222D02*
X2005Y222D01*
X0Y221D02*
X13Y221D01*
X753Y221D02*
X763Y221D01*
X1243Y221D02*
X1253Y221D01*
X1630Y221D02*
X1712Y221D01*
X1992Y221D02*
X2005Y221D01*
X0Y220D02*
X13Y220D01*
X754Y220D02*
X764Y220D01*
X1242Y220D02*
X1252Y220D01*
X1636Y220D02*
X1706Y220D01*
X1992Y220D02*
X2005Y220D01*
X0Y219D02*
X13Y219D01*
X754Y219D02*
X765Y219D01*
X1241Y219D02*
X1252Y219D01*
X1643Y219D02*
X1698Y219D01*
X1992Y219D02*
X2005Y219D01*
X0Y218D02*
X13Y218D01*
X755Y218D02*
X766Y218D01*
X1240Y218D02*
X1251Y218D01*
X1654Y218D02*
X1688Y218D01*
X1992Y218D02*
X2005Y218D01*
X0Y217D02*
X13Y217D01*
X755Y217D02*
X767Y217D01*
X1239Y217D02*
X1251Y217D01*
X1992Y217D02*
X2005Y217D01*
X0Y216D02*
X13Y216D01*
X756Y216D02*
X768Y216D01*
X1238Y216D02*
X1250Y216D01*
X1992Y216D02*
X2005Y216D01*
X0Y215D02*
X13Y215D01*
X757Y215D02*
X769Y215D01*
X1237Y215D02*
X1249Y215D01*
X1992Y215D02*
X2005Y215D01*
X0Y214D02*
X13Y214D01*
X758Y214D02*
X770Y214D01*
X1236Y214D02*
X1248Y214D01*
X1992Y214D02*
X2005Y214D01*
X0Y213D02*
X13Y213D01*
X758Y213D02*
X771Y213D01*
X1234Y213D02*
X1248Y213D01*
X1992Y213D02*
X2005Y213D01*
X0Y212D02*
X13Y212D01*
X759Y212D02*
X773Y212D01*
X1233Y212D02*
X1247Y212D01*
X1992Y212D02*
X2005Y212D01*
X0Y211D02*
X13Y211D01*
X760Y211D02*
X774Y211D01*
X1231Y211D02*
X1246Y211D01*
X1992Y211D02*
X2005Y211D01*
X0Y210D02*
X13Y210D01*
X761Y210D02*
X776Y210D01*
X1230Y210D02*
X1245Y210D01*
X1992Y210D02*
X2005Y210D01*
X0Y209D02*
X13Y209D01*
X762Y209D02*
X778Y209D01*
X1228Y209D02*
X1244Y209D01*
X1992Y209D02*
X2005Y209D01*
X0Y208D02*
X13Y208D01*
X763Y208D02*
X781Y208D01*
X1225Y208D02*
X1243Y208D01*
X1992Y208D02*
X2005Y208D01*
X0Y207D02*
X13Y207D01*
X765Y207D02*
X784Y207D01*
X1222Y207D02*
X1241Y207D01*
X1992Y207D02*
X2005Y207D01*
X0Y206D02*
X13Y206D01*
X766Y206D02*
X788Y206D01*
X1218Y206D02*
X1240Y206D01*
X1992Y206D02*
X2005Y206D01*
X0Y205D02*
X13Y205D01*
X767Y205D02*
X855Y205D01*
X1152Y205D02*
X1239Y205D01*
X1992Y205D02*
X2005Y205D01*
X0Y204D02*
X13Y204D01*
X769Y204D02*
X855Y204D01*
X1152Y204D02*
X1237Y204D01*
X1992Y204D02*
X2005Y204D01*
X0Y203D02*
X13Y203D01*
X770Y203D02*
X855Y203D01*
X1152Y203D02*
X1236Y203D01*
X1992Y203D02*
X2005Y203D01*
X0Y202D02*
X13Y202D01*
X772Y202D02*
X855Y202D01*
X1152Y202D02*
X1234Y202D01*
X1992Y202D02*
X2005Y202D01*
X0Y201D02*
X13Y201D01*
X774Y201D02*
X855Y201D01*
X1152Y201D02*
X1232Y201D01*
X1992Y201D02*
X2005Y201D01*
X0Y200D02*
X13Y200D01*
X776Y200D02*
X855Y200D01*
X1152Y200D02*
X1230Y200D01*
X1992Y200D02*
X2005Y200D01*
X0Y199D02*
X13Y199D01*
X779Y199D02*
X855Y199D01*
X1152Y199D02*
X1227Y199D01*
X1992Y199D02*
X2005Y199D01*
X0Y198D02*
X13Y198D01*
X781Y198D02*
X855Y198D01*
X1152Y198D02*
X1224Y198D01*
X1992Y198D02*
X2005Y198D01*
X0Y197D02*
X13Y197D01*
X785Y197D02*
X855Y197D01*
X1152Y197D02*
X1221Y197D01*
X1992Y197D02*
X2005Y197D01*
X0Y196D02*
X13Y196D01*
X792Y196D02*
X855Y196D01*
X1152Y196D02*
X1214Y196D01*
X1992Y196D02*
X2005Y196D01*
X0Y195D02*
X13Y195D01*
X1992Y195D02*
X2005Y195D01*
X0Y194D02*
X13Y194D01*
X1992Y194D02*
X2005Y194D01*
X0Y193D02*
X13Y193D01*
X1992Y193D02*
X2005Y193D01*
X0Y192D02*
X13Y192D01*
X1992Y192D02*
X2005Y192D01*
X0Y191D02*
X13Y191D01*
X1992Y191D02*
X2005Y191D01*
X0Y190D02*
X13Y190D01*
X1992Y190D02*
X2005Y190D01*
X0Y189D02*
X13Y189D01*
X1992Y189D02*
X2005Y189D01*
X0Y188D02*
X13Y188D01*
X1992Y188D02*
X2005Y188D01*
X0Y187D02*
X13Y187D01*
X1992Y187D02*
X2005Y187D01*
X0Y186D02*
X13Y186D01*
X1992Y186D02*
X2005Y186D01*
X0Y185D02*
X13Y185D01*
X1992Y185D02*
X2005Y185D01*
X0Y184D02*
X13Y184D01*
X1992Y184D02*
X2005Y184D01*
X0Y183D02*
X13Y183D01*
X1992Y183D02*
X2005Y183D01*
X0Y182D02*
X13Y182D01*
X1992Y182D02*
X2005Y182D01*
X0Y181D02*
X13Y181D01*
X1992Y181D02*
X2005Y181D01*
X0Y180D02*
X13Y180D01*
X1992Y180D02*
X2005Y180D01*
X0Y179D02*
X13Y179D01*
X1992Y179D02*
X2005Y179D01*
X0Y178D02*
X13Y178D01*
X1992Y178D02*
X2005Y178D01*
X0Y177D02*
X13Y177D01*
X1992Y177D02*
X2005Y177D01*
X0Y176D02*
X13Y176D01*
X1992Y176D02*
X2005Y176D01*
X0Y175D02*
X13Y175D01*
X1992Y175D02*
X2005Y175D01*
X0Y174D02*
X13Y174D01*
X1992Y174D02*
X2005Y174D01*
X0Y173D02*
X13Y173D01*
X1992Y173D02*
X2005Y173D01*
X0Y172D02*
X13Y172D01*
X1992Y172D02*
X2005Y172D01*
X0Y171D02*
X13Y171D01*
X1992Y171D02*
X2005Y171D01*
X0Y170D02*
X13Y170D01*
X1992Y170D02*
X2005Y170D01*
X0Y169D02*
X13Y169D01*
X1992Y169D02*
X2005Y169D01*
X0Y168D02*
X13Y168D01*
X1992Y168D02*
X2005Y168D01*
X0Y167D02*
X13Y167D01*
X1992Y167D02*
X2005Y167D01*
X0Y166D02*
X13Y166D01*
X1992Y166D02*
X2005Y166D01*
X0Y165D02*
X13Y165D01*
X1992Y165D02*
X2005Y165D01*
X0Y164D02*
X13Y164D01*
X1992Y164D02*
X2005Y164D01*
X0Y163D02*
X13Y163D01*
X1992Y163D02*
X2005Y163D01*
X0Y162D02*
X13Y162D01*
X1992Y162D02*
X2005Y162D01*
X0Y161D02*
X13Y161D01*
X1992Y161D02*
X2005Y161D01*
X0Y160D02*
X13Y160D01*
X1992Y160D02*
X2005Y160D01*
X0Y159D02*
X13Y159D01*
X1992Y159D02*
X2005Y159D01*
X0Y158D02*
X13Y158D01*
X1992Y158D02*
X2005Y158D01*
X0Y157D02*
X13Y157D01*
X1992Y157D02*
X2005Y157D01*
X0Y156D02*
X13Y156D01*
X1992Y156D02*
X2005Y156D01*
X0Y155D02*
X13Y155D01*
X1992Y155D02*
X2005Y155D01*
X0Y154D02*
X13Y154D01*
X1992Y154D02*
X2005Y154D01*
X0Y153D02*
X13Y153D01*
X1992Y153D02*
X2005Y153D01*
X0Y152D02*
X13Y152D01*
X1992Y152D02*
X2005Y152D01*
X0Y151D02*
X13Y151D01*
X1992Y151D02*
X2005Y151D01*
X0Y150D02*
X13Y150D01*
X1992Y150D02*
X2005Y150D01*
X0Y149D02*
X13Y149D01*
X1992Y149D02*
X2005Y149D01*
X0Y148D02*
X13Y148D01*
X1992Y148D02*
X2005Y148D01*
X0Y147D02*
X13Y147D01*
X1992Y147D02*
X2005Y147D01*
X0Y146D02*
X13Y146D01*
X1992Y146D02*
X2005Y146D01*
X0Y145D02*
X13Y145D01*
X1992Y145D02*
X2005Y145D01*
X0Y144D02*
X13Y144D01*
X1992Y144D02*
X2005Y144D01*
X0Y143D02*
X13Y143D01*
X1992Y143D02*
X2005Y143D01*
X0Y142D02*
X13Y142D01*
X1992Y142D02*
X2005Y142D01*
X0Y141D02*
X13Y141D01*
X1992Y141D02*
X2005Y141D01*
X0Y140D02*
X13Y140D01*
X1992Y140D02*
X2005Y140D01*
X0Y139D02*
X13Y139D01*
X1992Y139D02*
X2005Y139D01*
X0Y138D02*
X13Y138D01*
X1992Y138D02*
X2005Y138D01*
X0Y137D02*
X13Y137D01*
X1992Y137D02*
X2005Y137D01*
X0Y136D02*
X13Y136D01*
X1992Y136D02*
X2005Y136D01*
X0Y135D02*
X13Y135D01*
X1992Y135D02*
X2005Y135D01*
X0Y134D02*
X13Y134D01*
X1992Y134D02*
X2005Y134D01*
X0Y133D02*
X13Y133D01*
X1992Y133D02*
X2005Y133D01*
X0Y132D02*
X13Y132D01*
X1992Y132D02*
X2005Y132D01*
X0Y131D02*
X13Y131D01*
X1992Y131D02*
X2005Y131D01*
X0Y130D02*
X13Y130D01*
X1992Y130D02*
X2005Y130D01*
X0Y129D02*
X13Y129D01*
X1992Y129D02*
X2005Y129D01*
X0Y128D02*
X13Y128D01*
X1992Y128D02*
X2005Y128D01*
X0Y127D02*
X13Y127D01*
X1992Y127D02*
X2005Y127D01*
X0Y126D02*
X13Y126D01*
X1992Y126D02*
X2005Y126D01*
X0Y125D02*
X13Y125D01*
X1992Y125D02*
X2005Y125D01*
X0Y124D02*
X13Y124D01*
X1992Y124D02*
X2005Y124D01*
X0Y123D02*
X13Y123D01*
X1992Y123D02*
X2005Y123D01*
X0Y122D02*
X13Y122D01*
X1992Y122D02*
X2005Y122D01*
X0Y121D02*
X13Y121D01*
X1992Y121D02*
X2005Y121D01*
X0Y120D02*
X13Y120D01*
X1992Y120D02*
X2005Y120D01*
X0Y119D02*
X13Y119D01*
X1992Y119D02*
X2005Y119D01*
X0Y118D02*
X13Y118D01*
X1992Y118D02*
X2005Y118D01*
X0Y117D02*
X13Y117D01*
X1992Y117D02*
X2005Y117D01*
X0Y116D02*
X13Y116D01*
X1992Y116D02*
X2005Y116D01*
X0Y115D02*
X13Y115D01*
X1992Y115D02*
X2005Y115D01*
X0Y114D02*
X13Y114D01*
X1992Y114D02*
X2005Y114D01*
X0Y113D02*
X13Y113D01*
X1992Y113D02*
X2005Y113D01*
X0Y112D02*
X13Y112D01*
X1992Y112D02*
X2005Y112D01*
X0Y111D02*
X13Y111D01*
X1992Y111D02*
X2005Y111D01*
X0Y110D02*
X13Y110D01*
X1992Y110D02*
X2005Y110D01*
X0Y109D02*
X13Y109D01*
X1992Y109D02*
X2005Y109D01*
X0Y108D02*
X13Y108D01*
X1992Y108D02*
X2005Y108D01*
X0Y107D02*
X13Y107D01*
X1992Y107D02*
X2005Y107D01*
X0Y106D02*
X13Y106D01*
X1992Y106D02*
X2005Y106D01*
X0Y105D02*
X13Y105D01*
X1992Y105D02*
X2005Y105D01*
X0Y104D02*
X13Y104D01*
X1992Y104D02*
X2005Y104D01*
X0Y103D02*
X13Y103D01*
X1992Y103D02*
X2005Y103D01*
X0Y102D02*
X13Y102D01*
X1992Y102D02*
X2005Y102D01*
X0Y101D02*
X13Y101D01*
X1992Y101D02*
X2005Y101D01*
X0Y100D02*
X13Y100D01*
X1992Y100D02*
X2005Y100D01*
X0Y99D02*
X13Y99D01*
X1992Y99D02*
X2005Y99D01*
X0Y98D02*
X13Y98D01*
X1992Y98D02*
X2005Y98D01*
X0Y97D02*
X13Y97D01*
X1992Y97D02*
X2005Y97D01*
X0Y96D02*
X13Y96D01*
X1992Y96D02*
X2005Y96D01*
X0Y95D02*
X13Y95D01*
X1992Y95D02*
X2005Y95D01*
X1Y94D02*
X13Y94D01*
X1992Y94D02*
X2005Y94D01*
X1Y93D02*
X14Y93D01*
X1991Y93D02*
X2004Y93D01*
X1Y92D02*
X14Y92D01*
X1991Y92D02*
X2004Y92D01*
X1Y91D02*
X14Y91D01*
X1991Y91D02*
X2004Y91D01*
X1Y90D02*
X14Y90D01*
X1991Y90D02*
X2004Y90D01*
X1Y89D02*
X14Y89D01*
X1991Y89D02*
X2004Y89D01*
X1Y88D02*
X14Y88D01*
X1991Y88D02*
X2004Y88D01*
X2Y87D02*
X15Y87D01*
X1990Y87D02*
X2003Y87D01*
X2Y86D02*
X15Y86D01*
X1990Y86D02*
X2003Y86D01*
X2Y85D02*
X15Y85D01*
X1990Y85D02*
X2003Y85D01*
X2Y84D02*
X15Y84D01*
X1990Y84D02*
X2003Y84D01*
X2Y83D02*
X15Y83D01*
X1990Y83D02*
X2003Y83D01*
X3Y82D02*
X16Y82D01*
X1989Y82D02*
X2002Y82D01*
X3Y81D02*
X16Y81D01*
X1989Y81D02*
X2002Y81D01*
X3Y80D02*
X16Y80D01*
X1989Y80D02*
X2002Y80D01*
X3Y79D02*
X16Y79D01*
X1988Y79D02*
X2002Y79D01*
X4Y78D02*
X17Y78D01*
X1988Y78D02*
X2001Y78D01*
X4Y77D02*
X17Y77D01*
X1988Y77D02*
X2001Y77D01*
X4Y76D02*
X17Y76D01*
X1987Y76D02*
X2001Y76D01*
X4Y75D02*
X18Y75D01*
X1987Y75D02*
X2001Y75D01*
X5Y74D02*
X18Y74D01*
X1987Y74D02*
X2000Y74D01*
X5Y73D02*
X18Y73D01*
X1986Y73D02*
X2000Y73D01*
X5Y72D02*
X19Y72D01*
X1986Y72D02*
X2000Y72D01*
X6Y71D02*
X19Y71D01*
X1986Y71D02*
X1999Y71D01*
X6Y70D02*
X20Y70D01*
X1985Y70D02*
X1999Y70D01*
X6Y69D02*
X20Y69D01*
X1985Y69D02*
X1998Y69D01*
X7Y68D02*
X21Y68D01*
X1984Y68D02*
X1998Y68D01*
X7Y67D02*
X21Y67D01*
X1984Y67D02*
X1998Y67D01*
X8Y66D02*
X22Y66D01*
X1983Y66D02*
X1997Y66D01*
X8Y65D02*
X22Y65D01*
X1983Y65D02*
X1997Y65D01*
X8Y64D02*
X22Y64D01*
X1982Y64D02*
X1996Y64D01*
X9Y63D02*
X23Y63D01*
X1982Y63D02*
X1996Y63D01*
X9Y62D02*
X24Y62D01*
X1981Y62D02*
X1996Y62D01*
X10Y61D02*
X24Y61D01*
X1981Y61D02*
X1995Y61D01*
X10Y60D02*
X25Y60D01*
X1980Y60D02*
X1995Y60D01*
X11Y59D02*
X25Y59D01*
X1980Y59D02*
X1994Y59D01*
X11Y58D02*
X26Y58D01*
X1979Y58D02*
X1994Y58D01*
X12Y57D02*
X26Y57D01*
X1978Y57D02*
X1993Y57D01*
X12Y56D02*
X27Y56D01*
X1978Y56D02*
X1992Y56D01*
X13Y55D02*
X28Y55D01*
X1977Y55D02*
X1992Y55D01*
X13Y54D02*
X29Y54D01*
X1976Y54D02*
X1991Y54D01*
X14Y53D02*
X29Y53D01*
X1976Y53D02*
X1991Y53D01*
X15Y52D02*
X30Y52D01*
X1975Y52D02*
X1990Y52D01*
X15Y51D02*
X31Y51D01*
X1974Y51D02*
X1990Y51D01*
X16Y50D02*
X31Y50D01*
X1973Y50D02*
X1989Y50D01*
X16Y49D02*
X32Y49D01*
X1972Y49D02*
X1988Y49D01*
X17Y48D02*
X33Y48D01*
X1972Y48D02*
X1988Y48D01*
X18Y47D02*
X34Y47D01*
X1971Y47D02*
X1987Y47D01*
X18Y46D02*
X35Y46D01*
X1970Y46D02*
X1986Y46D01*
X19Y45D02*
X36Y45D01*
X1969Y45D02*
X1986Y45D01*
X20Y44D02*
X37Y44D01*
X1968Y44D02*
X1985Y44D01*
X20Y43D02*
X37Y43D01*
X1967Y43D02*
X1984Y43D01*
X21Y42D02*
X38Y42D01*
X1966Y42D02*
X1983Y42D01*
X22Y41D02*
X39Y41D01*
X1965Y41D02*
X1983Y41D01*
X23Y40D02*
X41Y40D01*
X1964Y40D02*
X1982Y40D01*
X24Y39D02*
X42Y39D01*
X1963Y39D02*
X1981Y39D01*
X24Y38D02*
X43Y38D01*
X1962Y38D02*
X1980Y38D01*
X25Y37D02*
X44Y37D01*
X1961Y37D02*
X1979Y37D01*
X26Y36D02*
X45Y36D01*
X1959Y36D02*
X1979Y36D01*
X27Y35D02*
X46Y35D01*
X1958Y35D02*
X1978Y35D01*
X28Y34D02*
X47Y34D01*
X1957Y34D02*
X1977Y34D01*
X29Y33D02*
X49Y33D01*
X1956Y33D02*
X1976Y33D01*
X30Y32D02*
X50Y32D01*
X1954Y32D02*
X1975Y32D01*
X31Y31D02*
X51Y31D01*
X1953Y31D02*
X1974Y31D01*
X32Y30D02*
X53Y30D01*
X1951Y30D02*
X1973Y30D01*
X33Y29D02*
X54Y29D01*
X1950Y29D02*
X1972Y29D01*
X34Y28D02*
X56Y28D01*
X1948Y28D02*
X1970Y28D01*
X35Y27D02*
X58Y27D01*
X1946Y27D02*
X1969Y27D01*
X36Y26D02*
X59Y26D01*
X1945Y26D02*
X1968Y26D01*
X38Y25D02*
X61Y25D01*
X1943Y25D02*
X1967Y25D01*
X39Y24D02*
X63Y24D01*
X1941Y24D02*
X1966Y24D01*
X40Y23D02*
X65Y23D01*
X1938Y23D02*
X1964Y23D01*
X41Y22D02*
X68Y22D01*
X1936Y22D02*
X1963Y22D01*
X43Y21D02*
X70Y21D01*
X1934Y21D02*
X1962Y21D01*
X44Y20D02*
X73Y20D01*
X1931Y20D02*
X1960Y20D01*
X46Y19D02*
X76Y19D01*
X1928Y19D02*
X1959Y19D01*
X47Y18D02*
X80Y18D01*
X1924Y18D02*
X1957Y18D01*
X49Y17D02*
X84Y17D01*
X1919Y17D02*
X1956Y17D01*
X50Y16D02*
X91Y16D01*
X1913Y16D02*
X1954Y16D01*
X52Y15D02*
X1952Y15D01*
X54Y14D02*
X1950Y14D01*
X56Y13D02*
X1948Y13D01*
X58Y12D02*
X1946Y12D01*
X60Y11D02*
X1944Y11D01*
X62Y10D02*
X1942Y10D01*
X64Y9D02*
X1939Y9D01*
X67Y8D02*
X1937Y8D01*
X70Y7D02*
X1934Y7D01*
X73Y6D02*
X1931Y6D01*
X76Y5D02*
X1927Y5D01*
X80Y4D02*
X1923Y4D01*
X85Y3D02*
X1918Y3D01*
X92Y2D02*
X1911Y2D01*
D02*
G04 End of Silk1*
M02*