G04 MADE WITH FRITZING*
G04 WWW.FRITZING.ORG*
G04 DOUBLE SIDED*
G04 HOLES PLATED*
G04 CONTOUR ON CENTER OF CONTOUR VECTOR*
%ASAXBY*%
%FSLAX23Y23*%
%MOIN*%
%OFA0B0*%
%SFA1.0B1.0*%
%ADD10C,0.065118*%
%ADD11C,0.085000*%
%ADD12C,0.168819*%
%ADD13C,0.129449*%
%ADD14C,0.095000*%
%ADD15C,0.088740*%
%ADD16C,0.075000*%
%ADD17C,0.080866*%
%ADD18R,0.010170X0.010170*%
%LNMASK1*%
G90*
G70*
G54D10*
X1453Y51D03*
X853Y51D03*
X253Y851D03*
X653Y851D03*
X1553Y51D03*
X1253Y51D03*
X953Y51D03*
X1353Y51D03*
X1453Y851D03*
G54D11*
X678Y651D03*
X678Y251D03*
X428Y651D03*
X428Y251D03*
X553Y651D03*
X553Y251D03*
X1328Y651D03*
X1328Y251D03*
G54D10*
X1353Y851D03*
X753Y51D03*
X653Y51D03*
X353Y851D03*
X1553Y851D03*
X1653Y851D03*
X1753Y851D03*
X1253Y851D03*
X1153Y851D03*
X1053Y851D03*
X753Y851D03*
X1653Y51D03*
X1053Y51D03*
X453Y851D03*
X853Y851D03*
X1753Y51D03*
X1153Y51D03*
X553Y851D03*
X953Y851D03*
G54D12*
X1902Y800D03*
X1902Y103D03*
G54D13*
X102Y103D03*
X102Y802D03*
G54D14*
X1103Y697D03*
X906Y697D03*
X906Y205D03*
X1103Y205D03*
X1103Y697D03*
X906Y697D03*
X906Y205D03*
X1103Y205D03*
G54D15*
X811Y455D03*
X1194Y455D03*
G54D16*
X303Y451D03*
X224Y451D03*
X145Y451D03*
X67Y451D03*
G54D17*
X1673Y319D03*
X1673Y583D03*
G54D18*
X1145Y205D03*
G04 End of Mask1*
M02*