; NON-PLATED HOLES START AT T1
; THROUGH (PLATED) HOLES START AT T100
M48
INCH
T1C0.078740
T2C0.119449
T100C0.035000
T101C0.025000
T102C0.047244
T103C0.119449
T104C0.031496
%
T1
X011937Y004550
X008109Y004550
T2
X001022Y001026
X001022Y008024
T100
X013278Y006512
X004278Y002512
X006778Y002512
X013278Y002512
X005528Y006512
X004278Y006512
X005528Y002512
X006778Y006512
T101
X001454Y004512
X000666Y004512
X002240Y004512
X003028Y004512
T102
X009058Y002052
X011027Y002052
X009058Y006973
X011027Y006973
T103
X019019Y007997
X019019Y001028
T104
X011528Y000512
X007528Y000512
X014528Y008512
X010528Y000512
X016731Y003191
X008528Y008512
X011528Y008512
X007528Y008512
X010528Y008512
X004528Y008512
X016528Y000512
X015528Y000512
X013528Y000512
X016528Y008512
X009528Y000512
X012528Y000512
X015528Y008512
X006528Y000512
X013528Y008512
X009528Y008512
X012528Y008512
X016731Y005829
X006528Y008512
X005528Y008512
X017528Y000512
X003528Y008512
X002528Y008512
X014528Y000512
X017528Y008512
X008528Y000512
T00
M30
