<?xml version='1.0' encoding='UTF-8' standalone='no'?>
<!-- Created with Fritzing (http://www.fritzing.org/) -->
<svg xmlns="http://www.w3.org/2000/svg" xmlns:svg="http://www.w3.org/2000/svg" viewBox="0 0 144.5 65.2" x="0in" width="2.00694in" y="0in" height="0.905556in"  version="1.2" baseProfile="tiny">
 <g partID="854741730">
  <g transform="translate(144.5,65.2)">
   <g transform="matrix(-1,0,0,-1,0,0)">
    <g  id="board">
     <path fill="none" stroke-width="0.5" d="M136.8,64.7L7.69998,64.7c-0.2,0,-0.299999,0,-0.499999,0c-3.79999,-0.1,-6.79998,-3.3,-6.69999,-7.1l0,-50c0,-0.2,0,-0.3,0,-0.5c0.2,-3.8,3.39999,-6.7,7.19998,-6.6l129.1,0c0.2,0,0.299999,0,0.499999,0c3.79999,0.1,6.79998,3.3,6.69999,7.1l0,18.3l0,1.6L144,38l0,1.4l0,18.2c0,0.2,0,0.3,0,0.5C143.8,61.9,140.6,64.8,136.8,64.7" stroke="black" />
     <g  id="boardoutline">
      <g  id="g35_1_">
       <title  id="title37">element:JP1</title>
       <g  id="g39_1_">
        <title  id="title41">package:1X16_ROUND</title>
       </g>
      </g>
      <g  id="g43_1_">
       <title  id="title45">element:JP3</title>
       <g  id="g47_1_">
        <title  id="title49">package:1X12_ROUND</title>
       </g>
      </g>
      <g  id="g51_1_">
       <title  id="title53">element:U$9</title>
       <g  id="g55_1_">
        <title  id="title57">package:FEATHERLOGO</title>
       </g>
      </g>
      <g  id="g59_1_">
       <title  id="title61">element:U$26</title>
       <g  id="g63_1_">
        <title  id="title65">package:BLUEFRUITLOGO_100MM</title>
       </g>
      </g>
      <g  id="copper0_1_">
       <circle fill="none" stroke-width="0.5" r="4.29999" cx="7.49998" cy="7.4" stroke="black" stroke-miterlimit="10"  id="connector121pad_1_"/>
       <circle fill="none" stroke-width="0.5" r="4.29999" cx="137.1" cy="7.4" stroke="black" stroke-miterlimit="10"  id="connector123pad_1_"/>
       <circle fill="none" stroke-width="0.5" r="4.29999" cx="7.49998" cy="57.8" stroke="black" stroke-miterlimit="10"  id="connector122pad_1_"/>
       <circle fill="none" stroke-width="0.5" r="4.29999" cx="137.1" cy="57.8" stroke="black" stroke-miterlimit="10"  id="connector124pad_1_"/>
       <circle fill="none" stroke-width="0.5" r="1.9" cx="18.3" cy="61.4" stroke="black" stroke-miterlimit="10"  id="connector67pad_1_"/>
       <circle fill="none" stroke-width="0.5" r="1.9" cx="25.4999" cy="61.4" stroke="black" stroke-miterlimit="10"  id="connector68pad_1_"/>
       <circle fill="none" stroke-width="0.5" r="1.9" cx="32.6999" cy="61.4" stroke="black" stroke-miterlimit="10"  id="connector69pad_1_"/>
       <circle fill="none" stroke-width="0.5" r="1.9" cx="39.8999" cy="61.4" stroke="black" stroke-miterlimit="10"  id="connector70pad_1_"/>
       <circle fill="none" stroke-width="0.5" r="1.9" cx="47.0999" cy="61.4" stroke="black" stroke-miterlimit="10"  id="connector71pad_1_"/>
       <circle fill="none" stroke-width="0.5" r="1.9" cx="54.2999" cy="61.4" stroke="black" stroke-miterlimit="10"  id="connector72pad_1_"/>
       <circle fill="none" stroke-width="0.5" r="1.9" cx="61.4999" cy="61.4" stroke="black" stroke-miterlimit="10"  id="connector73pad_1_"/>
       <circle fill="none" stroke-width="0.5" r="1.9" cx="68.6998" cy="61.4" stroke="black" stroke-miterlimit="10"  id="connector74pad_1_"/>
       <circle fill="none" stroke-width="0.5" r="1.9" cx="75.8998" cy="61.4" stroke="black" stroke-miterlimit="10"  id="connector75pad_1_"/>
       <circle fill="none" stroke-width="0.5" r="1.9" cx="83.0998" cy="61.4" stroke="black" stroke-miterlimit="10"  id="connector76pad_1_"/>
       <circle fill="none" stroke-width="0.5" r="1.9" cx="90.2998" cy="61.4" stroke="black" stroke-miterlimit="10"  id="connector77pad_1_"/>
       <circle fill="none" stroke-width="0.5" r="1.9" cx="97.4998" cy="61.4" stroke="black" stroke-miterlimit="10"  id="connector78pad_1_"/>
       <circle fill="none" stroke-width="0.5" r="1.9" cx="104.7" cy="61.4" stroke="black" stroke-miterlimit="10"  id="connector79pad_1_"/>
       <circle fill="none" stroke-width="0.5" r="1.9" cx="111.9" cy="61.4" stroke="black" stroke-miterlimit="10"  id="connector80pad_1_"/>
       <circle fill="none" stroke-width="0.5" r="1.9" cx="119.1" cy="61.4" stroke="black" stroke-miterlimit="10"  id="connector81pad_1_"/>
       <circle fill="none" stroke-width="0.5" r="1.9" cx="126.3" cy="61.4" stroke="black" stroke-miterlimit="10"  id="connector82pad_1_"/>
       <circle fill="none" stroke-width="0.5" r="1.9" cx="97.4998" cy="3.8" stroke="black" stroke-miterlimit="10"  id="connector83pad_1_"/>
       <circle fill="none" stroke-width="0.5" r="1.9" cx="90.2998" cy="3.8" stroke="black" stroke-miterlimit="10"  id="connector84pad_1_"/>
       <circle fill="none" stroke-width="0.5" r="1.9" cx="83.0998" cy="3.8" stroke="black" stroke-miterlimit="10"  id="connector85pad_1_"/>
       <circle fill="none" stroke-width="0.5" r="1.9" cx="75.8998" cy="3.8" stroke="black" stroke-miterlimit="10"  id="connector86pad_1_"/>
       <circle fill="none" stroke-width="0.5" r="1.9" cx="68.6998" cy="3.8" stroke="black" stroke-miterlimit="10"  id="connector87pad_1_"/>
       <circle fill="none" stroke-width="0.5" r="1.9" cx="61.4999" cy="3.8" stroke="black" stroke-miterlimit="10"  id="connector88pad_1_"/>
       <circle fill="none" stroke-width="0.5" r="1.9" cx="54.2999" cy="3.8" stroke="black" stroke-miterlimit="10"  id="connector89pad_1_"/>
       <circle fill="none" stroke-width="0.5" r="1.9" cx="47.0999" cy="3.8" stroke="black" stroke-miterlimit="10"  id="connector90pad_1_"/>
       <circle fill="none" stroke-width="0.5" r="1.9" cx="39.8999" cy="3.8" stroke="black" stroke-miterlimit="10"  id="connector91pad_1_"/>
       <circle fill="none" stroke-width="0.5" r="1.9" cx="32.6999" cy="3.8" stroke="black" stroke-miterlimit="10"  id="connector92pad_1_"/>
       <circle fill="none" stroke-width="0.5" r="1.9" cx="25.4999" cy="3.8" stroke="black" stroke-miterlimit="10"  id="connector93pad_1_"/>
       <circle fill="none" stroke-width="0.5" r="1.9" cx="18.3" cy="3.8" stroke="black" stroke-miterlimit="10"  id="connector94pad_1_"/>
      </g>
     </g>
    </g>
   </g>
  </g>
 </g>
 <g partID="854730900">
  <g transform="translate(101.019,57.9256)">
   <g  id="copper0">
    <circle fill="none" cx="3.58425" r="1.55905" stroke-width="0.850392" cy="3.58425" stroke="black"  id="connector0pin"/>
   </g>
  </g>
 </g>
 <g partID="854730910">
  <g transform="translate(57.8191,57.9256)">
   <g  id="copper0">
    <circle fill="none" cx="3.58425" r="1.55905" stroke-width="0.850392" cy="3.58425" stroke="black"  id="connector0pin"/>
   </g>
  </g>
 </g>
 <g partID="854730920">
  <g transform="translate(14.6191,0.325312)">
   <g  id="copper0">
    <circle fill="none" cx="3.58425" r="1.55905" stroke-width="0.850392" cy="3.58425" stroke="black"  id="connector0pin"/>
   </g>
  </g>
 </g>
 <g partID="854730930">
  <g transform="translate(43.4191,0.325312)">
   <g  id="copper0">
    <circle fill="none" cx="3.58425" r="1.55905" stroke-width="0.850392" cy="3.58425" stroke="black"  id="connector0pin"/>
   </g>
  </g>
 </g>
 <g partID="854730940">
  <g transform="translate(108.219,57.9256)">
   <g  id="copper0">
    <circle fill="none" cx="3.58425" r="1.55905" stroke-width="0.850392" cy="3.58425" stroke="black"  id="connector0pin"/>
   </g>
  </g>
 </g>
 <g partID="854730950">
  <g transform="translate(86.6193,57.9256)">
   <g  id="copper0">
    <circle fill="none" cx="3.58425" r="1.55905" stroke-width="0.850392" cy="3.58425" stroke="black"  id="connector0pin"/>
   </g>
  </g>
 </g>
 <g partID="854730960">
  <g transform="translate(65.0191,57.9256)">
   <g  id="copper0">
    <circle fill="none" cx="3.58425" r="1.55905" stroke-width="0.850392" cy="3.58425" stroke="black"  id="connector0pin"/>
   </g>
  </g>
 </g>
 <g partID="854730970">
  <g transform="translate(93.8193,57.9256)">
   <g  id="copper0">
    <circle fill="none" cx="3.58425" r="1.55905" stroke-width="0.850392" cy="3.58425" stroke="black"  id="connector0pin"/>
   </g>
  </g>
 </g>
 <g partID="854730980">
  <g transform="translate(101.019,0.325312)">
   <g  id="copper0">
    <circle fill="none" cx="3.58425" r="1.55905" stroke-width="0.850392" cy="3.58425" stroke="black"  id="connector0pin"/>
   </g>
  </g>
 </g>
 <g partID="854730990">
  <g transform="translate(51.8991,15.6096)">
   <g transform="matrix(2.22045e-16,1,-1,2.22045e-16,0,0)">
    <g  id="copper0">
     <g  id="copper1">
      <!-- <rect width="55" x="10" y="15.5" fill="none" height="55" stroke="rgb(255, 191, 0)" stroke-width="20" />  -->
      <circle fill="none" cx="2.7" r="1.98" stroke-width="1.44" cy="3.096" stroke="black"  id="connector0pin"/>
      <circle fill="none" cx="31.5" r="1.98" stroke-width="1.44" cy="3.096" stroke="black"  id="connector1pin"/>
     </g>
    </g>
   </g>
  </g>
 </g>
 <g partID="854731000">
  <g transform="translate(33.8991,15.6096)">
   <g transform="matrix(2.22045e-16,1,-1,2.22045e-16,0,0)">
    <g  id="copper0">
     <g  id="copper1">
      <!-- <rect width="55" x="10" y="15.5" fill="none" height="55" stroke="rgb(255, 191, 0)" stroke-width="20" />  -->
      <circle fill="none" cx="2.7" r="1.98" stroke-width="1.44" cy="3.096" stroke="black"  id="connector0pin"/>
      <circle fill="none" cx="31.5" r="1.98" stroke-width="1.44" cy="3.096" stroke="black"  id="connector1pin"/>
     </g>
    </g>
   </g>
  </g>
 </g>
 <g partID="854731010">
  <g transform="translate(42.8991,15.6096)">
   <g transform="matrix(2.22045e-16,1,-1,2.22045e-16,0,0)">
    <g  id="copper0">
     <g  id="copper1">
      <!-- <rect width="55" x="10" y="15.5" fill="none" height="55" stroke="rgb(255, 191, 0)" stroke-width="20" />  -->
      <circle fill="none" cx="2.7" r="1.98" stroke-width="1.44" cy="3.096" stroke="black"  id="connector0pin"/>
      <circle fill="none" cx="31.5" r="1.98" stroke-width="1.44" cy="3.096" stroke="black"  id="connector1pin"/>
     </g>
    </g>
   </g>
  </g>
 </g>
 <g partID="854731020">
  <g transform="translate(98.6991,15.6096)">
   <g transform="matrix(2.22045e-16,1,-1,2.22045e-16,0,0)">
    <g  id="copper0">
     <g  id="copper1">
      <!-- <rect width="55" x="10" y="15.5" fill="none" height="55" stroke="rgb(255, 191, 0)" stroke-width="20" />  -->
      <circle fill="none" cx="2.7" r="1.98" stroke-width="1.44" cy="3.096" stroke="black"  id="connector0pin"/>
      <circle fill="none" cx="31.5" r="1.98" stroke-width="1.44" cy="3.096" stroke="black"  id="connector1pin"/>
     </g>
    </g>
   </g>
  </g>
 </g>
 <g partID="854731030">
  <g transform="translate(93.8193,0.325312)">
   <g  id="copper0">
    <circle fill="none" cx="3.58425" r="1.55905" stroke-width="0.850392" cy="3.58425" stroke="black"  id="connector0pin"/>
   </g>
  </g>
 </g>
 <g partID="854731040">
  <g transform="translate(50.6191,57.9256)">
   <g  id="copper0">
    <circle fill="none" cx="3.58425" r="1.55905" stroke-width="0.850392" cy="3.58425" stroke="black"  id="connector0pin"/>
   </g>
  </g>
 </g>
 <g partID="854731050">
  <g transform="translate(43.4191,57.9256)">
   <g  id="copper0">
    <circle fill="none" cx="3.58425" r="1.55905" stroke-width="0.850392" cy="3.58425" stroke="black"  id="connector0pin"/>
   </g>
  </g>
 </g>
 <g partID="854731060">
  <g transform="translate(21.8191,0.325312)">
   <g  id="copper0">
    <circle fill="none" cx="3.58425" r="1.55905" stroke-width="0.850392" cy="3.58425" stroke="black"  id="connector0pin"/>
   </g>
  </g>
 </g>
 <g partID="854731070">
  <g transform="translate(108.219,0.325312)">
   <g  id="copper0">
    <circle fill="none" cx="3.58425" r="1.55905" stroke-width="0.850392" cy="3.58425" stroke="black"  id="connector0pin"/>
   </g>
  </g>
 </g>
 <g partID="854731080">
  <g transform="translate(115.419,0.325312)">
   <g  id="copper0">
    <circle fill="none" cx="3.58425" r="1.55905" stroke-width="0.850392" cy="3.58425" stroke="black"  id="connector0pin"/>
   </g>
  </g>
 </g>
 <g partID="854748990">
  <g transform="translate(116.313,38.0674)">
   <g  id="copper0">
    <circle fill="none" cx="4.15118" r="1.84252" stroke-width="1.41732" cy="4.15118" stroke="black"  id="connector0pin"/>
   </g>
  </g>
 </g>
 <g partID="854731090">
  <g transform="translate(122.619,0.325312)">
   <g  id="copper0">
    <circle fill="none" cx="3.58425" r="1.55905" stroke-width="0.850392" cy="3.58425" stroke="black"  id="connector0pin"/>
   </g>
  </g>
 </g>
 <g partID="854731100">
  <g transform="translate(86.6193,0.325312)">
   <g  id="copper0">
    <circle fill="none" cx="3.58425" r="1.55905" stroke-width="0.850392" cy="3.58425" stroke="black"  id="connector0pin"/>
   </g>
  </g>
 </g>
 <g partID="854731110">
  <g transform="translate(79.4191,0.325312)">
   <g  id="copper0">
    <circle fill="none" cx="3.58425" r="1.55905" stroke-width="0.850392" cy="3.58425" stroke="black"  id="connector0pin"/>
   </g>
  </g>
 </g>
 <g partID="854731120">
  <g transform="translate(72.2191,0.325312)">
   <g  id="copper0">
    <circle fill="none" cx="3.58425" r="1.55905" stroke-width="0.850392" cy="3.58425" stroke="black"  id="connector0pin"/>
   </g>
  </g>
 </g>
 <g partID="854731130">
  <g transform="translate(50.6191,0.325312)">
   <g  id="copper0">
    <circle fill="none" cx="3.58425" r="1.55905" stroke-width="0.850392" cy="3.58425" stroke="black"  id="connector0pin"/>
   </g>
  </g>
 </g>
 <g partID="854731140">
  <g transform="translate(115.419,57.9256)">
   <g  id="copper0">
    <circle fill="none" cx="3.58425" r="1.55905" stroke-width="0.850392" cy="3.58425" stroke="black"  id="connector0pin"/>
   </g>
  </g>
 </g>
 <g partID="854731150">
  <g transform="translate(72.2191,57.9256)">
   <g  id="copper0">
    <circle fill="none" cx="3.58425" r="1.55905" stroke-width="0.850392" cy="3.58425" stroke="black"  id="connector0pin"/>
   </g>
  </g>
 </g>
 <g partID="854731160">
  <g transform="translate(29.0191,0.325312)">
   <g  id="copper0">
    <circle fill="none" cx="3.58425" r="1.55905" stroke-width="0.850392" cy="3.58425" stroke="black"  id="connector0pin"/>
   </g>
  </g>
 </g>
 <g partID="854731170">
  <g transform="translate(57.8191,0.325312)">
   <g  id="copper0">
    <circle fill="none" cx="3.58425" r="1.55905" stroke-width="0.850392" cy="3.58425" stroke="black"  id="connector0pin"/>
   </g>
  </g>
 </g>
 <g partID="854731180">
  <g transform="translate(122.619,57.9256)">
   <g  id="copper0">
    <circle fill="none" cx="3.58425" r="1.55905" stroke-width="0.850392" cy="3.58425" stroke="black"  id="connector0pin"/>
   </g>
  </g>
 </g>
 <g partID="854731190">
  <g transform="translate(79.4191,57.9256)">
   <g  id="copper0">
    <circle fill="none" cx="3.58425" r="1.55905" stroke-width="0.850392" cy="3.58425" stroke="black"  id="connector0pin"/>
   </g>
  </g>
 </g>
 <g partID="854731200">
  <g transform="translate(36.2191,0.325312)">
   <g  id="copper0">
    <circle fill="none" cx="3.58425" r="1.55905" stroke-width="0.850392" cy="3.58425" stroke="black"  id="connector0pin"/>
   </g>
  </g>
 </g>
 <g partID="854731210">
  <g transform="translate(65.0191,0.325312)">
   <g  id="copper0">
    <circle fill="none" cx="3.58425" r="1.55905" stroke-width="0.850392" cy="3.58425" stroke="black"  id="connector0pin"/>
   </g>
  </g>
 </g>
 <g partID="854741790">
  <g transform="translate(129.622,0.301461)">
   <g  id="copper0">
    <circle fill="none" cx="7.3175" r="5.00882" stroke-width="1.41732" cy="7.3175" stroke="black"  id="nonconn0"/>
   </g>
  </g>
 </g>
 <g partID="854731220">
  <g transform="translate(129.622,50.4747)">
   <g  id="copper0">
    <circle fill="none" cx="7.3175" r="5.00882" stroke-width="1.41732" cy="7.3175" stroke="black"  id="nonconn0"/>
   </g>
  </g>
 </g>
 <g partID="854741880">
  <g transform="translate(1.462,51.909)">
   <g  id="copper0">
    <circle fill="black" cx="5.90016" r="4.30016" stroke-width="0" cy="5.90016" stroke="black"  id="nonconn0"/>
   </g>
  </g>
 </g>
 <g partID="854731240">
  <g transform="translate(1.462,1.52317)">
   <g  id="copper0">
    <circle fill="black" cx="5.90016" r="4.30016" stroke-width="0" cy="5.90016" stroke="black"  id="nonconn0"/>
   </g>
  </g>
 </g>
 <g partID="854731260">
  <g transform="translate(89.6057,11.929)">
   <g transform="matrix(0,1,-1,0,0,0)">
    <g gorn="0.1.5"  id="copper0">
     <circle stroke-width="1.35921" cx="3.06" r="2.38039" fill="none" cy="10.2093" stroke="black" connectorname="4" gorn="0.1.5.0"  id="connector3pin"/>
     <circle stroke-width="1.35921" cx="3.06" r="2.38039" fill="none" cy="24.3825" stroke="black" connectorname="2" gorn="0.1.5.1"  id="connector4pin"/>
     <circle stroke-width="1.35921" cx="38.4931" r="2.38039" fill="none" cy="24.3825" stroke="black" connectorname="1" gorn="0.1.5.2"  id="connector2pad"/>
     <circle stroke-width="1.35921" cx="38.4931" r="2.38039" fill="none" cy="10.2093" stroke="black" connectorname="3" gorn="0.1.5.3"  id="connector2pad"/>
    </g>
   </g>
  </g>
 </g>
 <g partID="854731270">
  <g transform="translate(53.9511,28.0044)">
   <g  id="copper0">
    <circle fill="black" cx="4.43465" r="2.83465" stroke-width="0" cy="4.43465" stroke="black"  id="nonconn0"/>
   </g>
  </g>
 </g>
 <g partID="854731280">
  <g transform="translate(81.5177,28.0044)">
   <g  id="copper0">
    <circle fill="black" cx="4.43465" r="2.83465" stroke-width="0" cy="4.43465" stroke="black"  id="nonconn0"/>
   </g>
  </g>
 </g>
 <g partID="854731290">
  <g transform="translate(24.3682,42.9276)">
   <g transform="matrix(-1,0,0,-1,0,0)">
    <g  id="copper0">
     <circle cx="2.56464" r="1.62" stroke-width="1.44" fill="none" cy="10.2182" stroke="black"  id="connector0pad"/>
     <circle cx="8.23824" r="1.62" stroke-width="1.44" fill="none" cy="10.2182" stroke="black"  id="connector1pad"/>
     <circle cx="13.8974" r="1.62" stroke-width="1.44" fill="none" cy="10.2182" stroke="black"  id="connector2pad"/>
     <circle cx="19.571" r="1.62" stroke-width="1.44" fill="none" cy="10.2182" stroke="black"  id="connector3pad"/>
    </g>
   </g>
  </g>
 </g>
 <g partID="854749030">
  <g transform="translate(116.313,19.0753)">
   <g  id="copper0">
    <circle fill="none" cx="4.15118" r="1.84252" stroke-width="1.41732" cy="4.15118" stroke="black"  id="connector0pin"/>
   </g>
  </g>
 </g>
 <g partID="854744220">
  <line y1="25.2824" y2="47.9213" stroke-width="1.728" x1="79.3964" x2="79.3964" stroke="black" stroke-linecap="round"/>
 </g>
 <g partID="854744190">
  <line y1="25.2824" y2="25.2824" stroke-width="1.728" x1="18.2034" x2="79.3964" stroke="black" stroke-linecap="round"/>
 </g>
 <g partID="854744160">
  <line y1="5.84342" y2="25.2824" stroke-width="1.728" x1="18.2034" x2="18.2034" stroke="black" stroke-linecap="round"/>
 </g>
 <g partID="854731340">
  <line y1="8.95999" y2="5.84339" stroke-width="1.728" x1="25.4039" x2="25.4039" stroke="black" stroke-linecap="round"/>
 </g>
 <g partID="854731350">
  <line y1="8.95999" y2="8.95999" stroke-width="1.728" x1="95.6033" x2="25.4035" stroke="black" stroke-linecap="round"/>
 </g>
 <g partID="854731360">
  <line y1="16.2496" y2="8.95999" stroke-width="1.728" x1="95.6033" x2="95.6033" stroke="black" stroke-linecap="round"/>
 </g>
 <g partID="854736420">
  <line y1="56.7472" y2="56.7472" stroke-width="1.728" x1="57.7047" x2="68.6035" stroke="black" stroke-linecap="round"/>
 </g>
 <g partID="854736390">
  <line y1="42.4" y2="56.7474" stroke-width="1.728" x1="57.5463" x2="57.7049" stroke="black" stroke-linecap="round"/>
 </g>
 <g partID="854733560">
  <line y1="56.7472" y2="59.5757" stroke-width="1.728" x1="68.6039" x2="68.6039" stroke="black" stroke-linecap="round"/>
 </g>
 <g partID="854733530">
  <line y1="42.4" y2="42.4" stroke-width="1.728" x1="4.79755" x2="57.5465" stroke="black" stroke-linecap="round"/>
 </g>
 <g partID="854733500">
  <line y1="34.4096" y2="42.4002" stroke-width="1.728" x1="4.79755" x2="4.79755" stroke="black" stroke-linecap="round"/>
 </g>
 <g partID="854736570">
  <line y1="56.7472" y2="59.5757" stroke-width="1.728" x1="83.0041" x2="83.0041" stroke="black" stroke-linecap="round"/>
 </g>
 <g partID="854736540">
  <line y1="56.7472" y2="56.7472" stroke-width="1.728" x1="71.9495" x2="83.0037" stroke="black" stroke-linecap="round"/>
 </g>
 <g partID="854736510">
  <line y1="38.88" y2="56.7474" stroke-width="1.728" x1="71.9463" x2="71.9495" stroke="black" stroke-linecap="round"/>
 </g>
 <g partID="854736480">
  <line y1="38.88" y2="38.88" stroke-width="1.728" x1="21.8039" x2="71.9465" stroke="black" stroke-linecap="round"/>
 </g>
 <g partID="854736450">
  <line y1="34.4096" y2="38.8802" stroke-width="1.728" x1="21.8039" x2="21.8039" stroke="black" stroke-linecap="round"/>
 </g>
 <g partID="854736630">
  <line y1="61.5096" y2="49.1694" stroke-width="1.728" x1="48.8031" x2="48.8031" stroke="black" stroke-linecap="round"/>
 </g>
 <g partID="854736600">
  <line y1="61.5096" y2="61.5096" stroke-width="1.728" x1="48.9378" x2="48.8037" stroke="black" stroke-linecap="round"/>
 </g>
 <g partID="854741030">
  <line y1="25.28" y2="14.9929" stroke-width="1.728" x1="86.8265" x2="86.8265" stroke="black" stroke-linecap="round"/>
 </g>
 <g partID="854740960">
  <line y1="14.9929" y2="14.9903" stroke-width="1.728" x1="86.8265" x2="81.8972" stroke="black" stroke-linecap="round"/>
 </g>
 <g partID="854740300">
  <line y1="25.28" y2="25.28" stroke-width="1.728" x1="95.6033" x2="86.8263" stroke="black" stroke-linecap="round"/>
 </g>
 <g partID="854740230">
  <line y1="45.0496" y2="25.28" stroke-width="1.728" x1="95.6033" x2="95.6033" stroke="black" stroke-linecap="round"/>
 </g>
 <g partID="854740570">
  <line y1="56.48" y2="59.5759" stroke-width="1.728" x1="104.604" x2="104.604" stroke="black" stroke-linecap="round"/>
 </g>
 <g partID="854740540">
  <line y1="56.48" y2="56.48" stroke-width="1.728" x1="90.3465" x2="104.604" stroke="black" stroke-linecap="round"/>
 </g>
 <g partID="854740510">
  <line y1="50.4256" y2="56.4797" stroke-width="1.728" x1="90.3465" x2="90.3465" stroke="black" stroke-linecap="round"/>
 </g>
 <g partID="854740390">
  <line y1="50.4229" y2="50.4256" stroke-width="1.728" x1="81.8972" x2="90.3465" stroke="black" stroke-linecap="round"/>
 </g>
</svg>
