<?xml version="1.0" encoding="utf-8"?>
<!-- Generator: Adobe Illustrator 23.0.1, SVG Export Plug-In . SVG Version: 6.00 Build 0)  -->
<!DOCTYPE svg [
	<!ENTITY ns_extend "http://ns.adobe.com/Extensibility/1.0/">
	<!ENTITY ns_ai "http://ns.adobe.com/AdobeIllustrator/10.0/">
	<!ENTITY ns_graphs "http://ns.adobe.com/Graphs/1.0/">
	<!ENTITY ns_vars "http://ns.adobe.com/Variables/1.0/">
	<!ENTITY ns_imrep "http://ns.adobe.com/ImageReplacement/1.0/">
	<!ENTITY ns_sfw "http://ns.adobe.com/SaveForWeb/1.0/">
	<!ENTITY ns_custom "http://ns.adobe.com/GenericCustomNamespace/1.0/">
	<!ENTITY ns_adobe_xpath "http://ns.adobe.com/XPath/1.0/">
]>
<svg version="1.2" baseProfile="tiny" id="Layer_1" xmlns:x="&ns_extend;" xmlns:i="&ns_ai;" xmlns:graph="&ns_graphs;"
	 xmlns="http://www.w3.org/2000/svg" xmlns:xlink="http://www.w3.org/1999/xlink" x="0px" y="0px" width="71.8px" height="313.3px"
	 viewBox="0 0 71.8 313.3" xml:space="preserve">
<metadata>
	<sfw  xmlns="&ns_sfw;">
		<slices></slices>
		<sliceSourceBounds  bottomLeftOrigin="true" height="311.3" width="71.8" x="-114.3" y="-130.8"></sliceSourceBounds>
	</sfw>
</metadata>
<g id="silkscreen">
	<path fill="#FFFFFF" d="M23.5,247.6h-6.2v-1.8c0-7-3.1-10.7-8.6-10.7c-4.9,0-8.2,3.7-8.2,10.2v9.6h23V247.6z M6,247.8v-2
		c0-2.4,1-3.6,2.9-3.6c2,0,3.1,1.2,3.1,3.8l0,1.8H6z"/>
	<path fill="#FFFFFF" d="M13.6,224.9H0.5v7.2h13.9c6.9,0,9.6-4.6,9.6-10.7c0-6.3-3.1-10.7-10.2-10.7H0.5v7.2h13.2
		c3.2,0,4.3,1,4.3,3.4C18.1,223.8,16.7,224.9,13.6,224.9z"/>
	<path fill="#FFFFFF" d="M7.4,207.5c4.7,0,6.3-4.3,7.2-7.6c0.8-2.7,1.1-4.3,2.2-4.3c1,0,1.3,1.1,1.3,2.8c0,2.9-0.9,6-2.1,8.5
		l5.9,1.1c1.1-2.1,2.1-5.7,2.1-9.4c0-6.7-3.2-10.1-7.8-10.1c-4.4,0-6,3.8-7,7.5c-0.6,2.3-1.1,4.5-2.2,4.5c-0.9,0-1.2-0.8-1.2-2.2
		c0-2.4,0.8-5.5,2.1-8.1L2,188.8c-1.1,2.2-2,5.2-2,9.3C0,204.4,2.9,207.5,7.4,207.5z"/>
	<polygon fill="#FFFFFF" points="23.5,177.7 14.9,177.7 14.9,170.2 23.5,170.2 23.5,162.9 0.5,162.9 0.5,170.2 8.9,170.2 8.9,177.7 
		0.5,177.7 0.5,184.9 23.5,184.9 	"/>
	<rect x="11.9" y="146.8" fill="#FFFFFF" width="5.4" height="13.1"/>
	<polygon fill="#FFFFFF" points="6.4,139.6 23.5,139.6 23.5,132.3 6.4,132.3 6.4,125.4 0.5,125.4 0.5,146.5 6.4,146.5 	"/>
	<polygon fill="#FFFFFF" points="23.5,115.1 14.9,115.1 14.9,107.6 23.5,107.6 23.5,100.4 0.5,100.4 0.5,107.6 8.9,107.6 8.9,115.1 
		0.5,115.1 0.5,122.4 23.5,122.4 	"/>
	<path fill="#FFFFFF" d="M23.5,88.9h-6.8l-0.2-2l7-4.1v-8l-8.8,5.7C13.5,77.4,11,76,8.1,76c-4.6,0-7.5,3.4-7.5,9.8v10.4h23V88.9z
		 M6,89v-2c0-2.6,0.8-3.6,2.5-3.6c1.9,0,2.7,0.9,2.9,3.1l0,2.5H6z"/>
	<path fill="#FFFFFF" d="M24,62c0-6.3-3.1-10.7-10.2-10.7H0.5v7.2h13.2c3.2,0,4.3,1,4.3,3.4c0,2.5-1.4,3.6-4.5,3.6H0.5v7.2h13.9
		C21.4,72.7,24,68.1,24,62z"/>
	<path fill="#FFFFFF" d="M47.5,234c-3,0-4.9,2.2-5.3,5.1c-0.7-2.7-2.2-4.4-4.9-4.4c-3.3,0-6,1.5-6,9v11.1h23v-11.2
		C54.3,235.6,51.1,234,47.5,234z M40.7,247.9h-4.3v-3.2c0-1.8,0.7-2.7,2.1-2.7c1.5,0,2.2,1,2.2,2.9V247.9z M49.1,247.9h-4.3v-3.3
		c0-2.1,0.6-3.3,2.1-3.3c1.5,0,2.2,1,2.2,3.2V247.9z"/>
	<path fill="#FFFFFF" d="M44.6,209.9H31.3v7.2h13.2c3.2,0,4.3,1,4.3,3.4c0,2.5-1.4,3.6-4.5,3.6H31.3v7.2h13.9
		c6.9,0,9.6-4.6,9.6-10.7C54.8,214.3,51.7,209.9,44.6,209.9z"/>
	<polygon fill="#FFFFFF" points="31.3,207.1 37.2,207.1 37.2,200.1 54.3,200.1 54.3,192.9 37.2,192.9 37.2,185.9 31.3,185.9 	"/>
	<polygon fill="#FFFFFF" points="31.3,163.4 31.3,184.5 37.2,184.5 37.2,177.6 54.3,177.6 54.3,170.3 37.2,170.3 37.2,163.4 	"/>
	<path fill="#FFFFFF" d="M42.7,137c-8,0-12,5.4-12,12.2s4.6,12.4,12.1,12.4c8,0,12-5.4,12-12.2S50.2,137,42.7,137z M42.7,154.3
		c-3.7,0-6.3-1.6-6.3-5s2.6-5.1,6.4-5.1c3.7,0,6.3,1.7,6.3,5C49.1,152.6,46.5,154.3,42.7,154.3z"/>
	<polygon fill="#FFFFFF" points="54.3,126.8 41.2,126.8 54.5,118.6 54.5,110.9 31.3,110.9 31.3,117.6 44.3,117.6 31.3,125.8 
		31.3,133.6 54.3,133.6 	"/>
	<path fill="#FFFFFF" d="M6.5,313.3h34.9v-34.9H6.5V313.3z M9.4,281.3h29.1v29.1H9.4V281.3z"/>
	<polygon fill="#FFFFFF" points="12.3,284.2 12.3,293 12.3,298.8 12.3,301.7 12.3,307.5 18.1,307.5 35.6,307.5 35.6,301.7 
		18.1,301.7 18.1,298.8 35.6,298.8 35.6,293 18.1,293 18.1,290 35.6,290 35.6,284.2 18.1,284.2 	"/>
	<path fill="#FFFFFF" d="M45.1,311.9l3.6,1.3v-1.1l-0.7-0.2v-1.2l0.7-0.2v-1.1l-3.6,1.2V311.9z M47.2,310.8v0.8l-1.3-0.4L47.2,310.8
		z"/>
	<path fill="#FFFFFF" d="M47.8,307.5c0-1.1-0.5-1.7-1.4-1.7c-0.8,0-1.3,0.6-1.3,1.6v1.5h3.6v-1.1h-1V307.5z M46,307.8v-0.3
		c0-0.4,0.2-0.6,0.5-0.6c0.3,0,0.5,0.2,0.5,0.6l0,0.3H46z"/>
	<path fill="#FFFFFF" d="M47.8,303.8c0-1.1-0.5-1.7-1.4-1.7c-0.8,0-1.3,0.6-1.3,1.6v1.5h3.6v-1.1h-1V303.8z M46,304.2v-0.3
		c0-0.4,0.2-0.6,0.5-0.6c0.3,0,0.5,0.2,0.5,0.6l0,0.3H46z"/>
	<polygon fill="#FFFFFF" points="47.8,300.5 45.1,300.5 45.1,301.6 48.7,301.6 48.7,299.1 47.8,299.1 	"/>
	<rect x="45.1" y="297.4" fill="#FFFFFF" width="3.6" height="1.1"/>
	<path fill="#FFFFFF" d="M45.1,295.8l3.6,1.3v-1.1l-0.7-0.2v-1.2l0.7-0.2v-1.1l-3.6,1.2V295.8z M47.2,294.7v0.8l-1.3-0.4L47.2,294.7
		z"/>
	<polygon fill="#FFFFFF" points="45.1,290.2 47.2,290.2 45.1,291.5 45.1,292.7 48.7,292.7 48.7,291.7 46.7,291.7 48.8,290.4 
		48.8,289.1 45.1,289.1 	"/>
	<path fill="#FFFFFF" d="M47.6,285.6c0.2,0.3,0.3,0.6,0.3,0.9c0,0.6-0.4,0.9-1,0.9c-0.6,0-0.9-0.3-0.9-0.9c0-0.3,0.1-0.6,0.2-0.9
		l-0.9-0.3c-0.2,0.3-0.3,0.8-0.3,1.2c0,1.3,0.7,2,1.9,2c1.3,0,1.9-0.8,1.9-2c0-0.4-0.1-1-0.2-1.2L47.6,285.6z"/>
	<polygon fill="#FFFFFF" points="45.1,282 45.1,284.9 48.7,284.9 48.7,282 47.9,282 47.9,283.7 47.4,283.7 47.4,282.4 46.5,282.4 
		46.5,283.7 46,283.7 46,282 	"/>
	<path fill="#FFFFFF" d="M47.6,278.5c-0.7,0-0.9,0.6-1.1,1.2c-0.1,0.4-0.2,0.7-0.3,0.7c-0.1,0-0.2-0.1-0.2-0.3
		c0-0.4,0.1-0.9,0.3-1.3l-0.9-0.2c-0.2,0.3-0.3,0.8-0.3,1.5c0,1,0.5,1.5,1.2,1.5c0.7,0,1-0.7,1.1-1.2c0.1-0.4,0.2-0.7,0.3-0.7
		c0.2,0,0.2,0.2,0.2,0.4c0,0.5-0.1,0.9-0.3,1.3l0.9,0.2c0.2-0.3,0.3-0.9,0.3-1.5C48.8,279.1,48.3,278.5,47.6,278.5z"/>
	<path fill="#FFFFFF" d="M71.7,3.2c-0.2-0.6-0.6-1-1.3-1.1c0,0-0.1,0-0.1,0c-9.6,0-19.2,0-28.8,0c-0.1,0-0.2,0-0.2,0.1
		c-0.7,0.2-1.2,0.8-1.2,1.5c0,0,0,0.1,0,0.1c0,9.5,0,18.9,0,28.4c0,0.8,0.4,1.4,1.1,1.6c0.2,0,0.3,0.1,0.5,0.1c9.5,0,19,0,28.5,0
		c0.8,0,1.5-0.5,1.6-1.4c0,0,0-0.1,0-0.1c0-9.6,0-19.2,0-28.8C71.7,3.4,71.7,3.3,71.7,3.2z M65.8,10.5c0.1,0,0.1,0.1,0.1,0.2
		c0,0.5,0,1.1,0,1.6c0,0.1,0,0.1,0,0.2c0.3,0,0.6-0.2,0.6-0.5c0-0.3,0-0.5-0.2-0.7c0,0,0-0.1,0-0.1c0.1-0.1,0.1-0.3,0.2-0.4
		c0.3,0.2,0.5,0.5,0.6,0.9c0.1,0.5,0,1-0.4,1.3c-0.5,0.4-1,0.4-1.6,0.1c-0.5-0.2-0.8-0.6-0.8-1.2C64.3,10.8,65.1,10.4,65.8,10.5z
		 M64.6,13.5c0,0,0.1-0.1,0.2-0.1c0.2,0,0.3,0,0.5,0.1c-0.3,0.2-0.5,0.4-0.5,0.8c0,0.2,0.1,0.3,0.2,0.5c0.3,0.3,0.8,0.4,1.2,0.2
		c0.1-0.1,0.2-0.2,0.3-0.4c0-0.1,0-0.3,0-0.5c0-0.2-0.1-0.3-0.2-0.5c0.2,0,0.4,0,0.6,0.1c0,0,0.1,0,0.1,0.1c0.3,0.8,0,1.7-0.9,1.9
		c-0.9,0.2-1.6-0.3-1.8-1C64.2,14.2,64.3,13.9,64.6,13.5z M67,16.5c0,0.2,0,0.4,0,0.6c-0.4-0.1-0.9-0.1-1.3-0.2
		c-0.4,0-0.8-0.1-1.2-0.1c-0.1,0-0.1,0-0.1-0.1c0-0.2,0-0.3,0-0.5C65.3,16.3,66.1,16.4,67,16.5z M63.2,16c0.2,0,0.3,0.1,0.3,0.3
		c0,0.2-0.2,0.4-0.4,0.3c-0.2,0-0.3-0.1-0.3-0.3C62.8,16.2,63,16,63.2,16z M59.6,13.9c-0.5,0.1-1,0-1.5-0.4
		c-0.4-0.4-0.5-1.2-0.1-1.7c0,0,0,0,0.1-0.1c-0.1,0-0.2,0-0.3-0.1c0-0.2,0-0.4,0-0.5c0,0,0.1-0.1,0.1-0.1c0.3,0,0.6,0.1,1,0.1
		c0.5,0.1,1,0.1,1.5,0.2c0,0,0,0,0.1,0c0,0.2,0,0.4,0,0.6c-0.1,0-0.1,0-0.2,0c0.1,0.2,0.2,0.3,0.2,0.4
		C60.7,13.1,60.4,13.7,59.6,13.9z M60.5,14.7c0,0.2,0,0.4,0,0.6c-0.4,0-0.7-0.1-1-0.1c-0.5-0.1-1-0.1-1.4-0.2c-0.1,0-0.1,0-0.1-0.1
		c0-0.2,0-0.3,0-0.5C58.7,14.5,59.6,14.6,60.5,14.7z M58.4,9.1c0.1,0.3,0.2,0.5,0.5,0.5c0.4,0.1,0.7,0.1,1.1,0.2c0.1,0,0.1,0,0.2,0
		c0.3,0,0.3,0,0.3,0.3c0,0.1,0,0.2,0,0.4c-0.3,0-0.5-0.1-0.8-0.1c-0.6-0.1-1.1-0.1-1.7-0.2c-0.1,0-0.2-0.1-0.2-0.2
		c0-0.2,0-0.3,0-0.5c0.1,0,0.1,0,0.2,0c-0.1-0.1-0.1-0.3-0.2-0.4C57.7,8.6,58,8,58.7,8c0.2,0,0.4,0,0.5,0c0.4,0,0.8,0.1,1.2,0.1
		c0.1,0,0.1,0,0.1,0.1c0,0.2,0,0.3,0,0.5c-0.4,0-0.8-0.1-1.2-0.1c-0.2,0-0.4,0-0.6-0.1C58.4,8.6,58.3,8.8,58.4,9.1z M56.7,6.3
		c0.4,0,0.8,0.1,1.2,0.1c0-0.2,0-0.3,0-0.4c0-0.1,0-0.1,0.1-0.1c0.1,0,0.2,0,0.4,0.1c0.1,0,0.1,0.1,0.1,0.1c0,0.1,0,0.3,0,0.4
		c0.4,0,0.7,0.1,1.1,0.1c0.3,0,0.5,0.1,0.8,0.1c0,0,0.1,0.1,0.1,0.1c0,0.2,0,0.4,0,0.6c-0.3,0-0.7-0.1-1-0.1c-0.3,0-0.7-0.1-1-0.1
		c0,0.1,0,0.2,0,0.3c-0.2,0-0.4,0-0.5-0.1c0,0-0.1-0.1-0.1-0.1c0-0.1,0-0.1,0-0.2c-0.4,0-0.7-0.1-1.1-0.1c-0.1,0-0.2,0-0.1-0.2
		C56.7,6.6,56.7,6.5,56.7,6.3z M56.7,14.2c0.2,0,0.3,0.1,0.4,0.3c0,0.2-0.1,0.4-0.3,0.4c-0.2,0-0.4-0.1-0.4-0.3
		C56.3,14.3,56.5,14.2,56.7,14.2z M49.4,6.2c0.6,0.1,1.1,0.2,1.7,0.4c0.4,0.1,0.6-0.1,0.5-0.5c0-0.1,0-0.1,0-0.2
		c0.3,0,0.5,0.1,0.7,0.3c0.3,0.3,0.5,0.8,0.3,1.3c-0.2,0.5-0.6,0.6-1,0.6c-0.4,0-0.9-0.1-1.3-0.2c-0.8-0.2-1.7-0.3-2.5-0.5
		c-0.1,0-0.1-0.1-0.1-0.1c0-0.5,0-0.9,0-1.4C48.2,6,48.8,6.1,49.4,6.2z M45.4,6.3c0-0.5,0.4-0.8,0.8-0.8c0.4,0,0.8,0.4,0.8,0.8
		c0,0.5-0.4,0.8-0.8,0.8C45.7,7.1,45.4,6.7,45.4,6.3z M46.1,13.3c0-0.4-0.1-0.8-0.2-1.3c0,0,0,0,0-0.1c0.5,0.1,1,0.2,1.6,0.3
		c0-0.2,0-0.4,0-0.6c0.1,0,0.2,0,0.3,0.1c0,0,0.1,0.1,0.1,0.1c0,0.2,0,0.3,0,0.5c0.4,0.1,0.8,0.2,1.2,0.3c0.6,0.1,1.3,0.3,1.9,0.4
		c0.2,0,0.4,0.1,0.5-0.1c0.1-0.2,0.1-0.4,0-0.6c-0.2-0.4-0.5-0.5-0.9-0.6c-1-0.2-2-0.4-3-0.6c-0.1,0-0.2-0.1-0.2-0.2
		c0-0.4,0-0.9,0-1.3c0.2,0,0.3,0.1,0.5,0.1C48,9.6,48,9.6,47.9,9.5c-0.2-0.2-0.4-0.5-0.4-0.7c-0.1-0.4,0-0.6,0.3-0.8
		c0.3-0.2,0.7-0.2,1,0.1C49,8.2,49.1,8.4,49,8.7c0,0.1-0.1,0.2-0.2,0.2c-0.1,0-0.1,0.1-0.2,0.1c-0.3,0.1-0.3,0.2-0.2,0.4
		c0.1,0.3,0.3,0.5,0.6,0.5c1.1,0.2,2.2,0.5,3.4,0.7c0.1,0,0.2,0.1,0.2,0.2c0,0.4,0,0.9,0,1.3c-0.2,0-0.3-0.1-0.5-0.1
		c0.3,0.3,0.4,0.6,0.5,1c0.1,0.6,0,1.2-0.7,1.4c0,0,0.1,0.1,0.1,0.1c0.5,0.4,0.7,1,0.6,1.6c-0.1,0.5-0.5,0.8-1,0.8
		c-0.5,0-1-0.1-1.4-0.2c-0.4-0.1-0.8-0.1-1.2-0.2c0,0,0,0-0.1,0c-0.2,0-0.3,0-0.4,0.2c-0.1,0.2,0,0.3,0.1,0.5
		c0.2,0.3,0.6,0.4,0.9,0.5c1,0.2,1.9,0.4,2.9,0.6c0.1,0,0.2,0.1,0.2,0.2c0,0.4,0,0.9,0,1.3c-0.1,0-0.3,0-0.4-0.1
		c0.1,0.2,0.3,0.5,0.4,0.7c0.2,0.6,0.1,1.3-0.7,1.5c0.1,0.1,0.3,0.2,0.4,0.4c0.4,0.4,0.5,0.9,0.4,1.5c-0.1,0.5-0.6,0.9-1.2,0.9
		c-1.1,0.1-2.2-0.2-3.1-0.9c-0.6-0.4-0.8-1-0.8-1.7c0-0.3,0.1-0.6,0.4-0.7c0,0,0,0,0,0c-0.3-0.1-0.3-0.1-0.3-0.4c0-0.3,0-0.6,0-1
		c0-0.1,0-0.1,0-0.2c0.5,0.1,1,0.2,1.4,0.3c0.7,0.1,1.4,0.3,2.1,0.4c0.2,0,0.4,0,0.5-0.2c0.1-0.2,0.1-0.4-0.1-0.6
		c-0.3-0.3-0.6-0.4-0.9-0.4c-1-0.2-1.9-0.4-2.9-0.6c0,0-0.1-0.1-0.1-0.1c0-0.5,0-0.9,0-1.4c0.1,0,0.3,0.1,0.4,0.1
		c-0.2-0.2-0.4-0.5-0.4-0.8c-0.1-0.3-0.1-0.5,0-0.8c0.1-0.4,0.5-0.7,1-0.7c0.5,0,1,0.1,1.5,0.2c0.3,0.1,0.7,0.2,1,0.2
		c0.1,0,0.1,0,0.2,0c0.3,0,0.5-0.2,0.4-0.5c0-0.1-0.2-0.3-0.3-0.4c-0.3-0.2-0.7-0.3-1-0.4c-0.7-0.2-1.5-0.3-2.2-0.5c0,0,0,0-0.1,0
		c0,0.1,0,0.2,0,0.3c-0.1,0-0.2,0-0.3-0.1c0,0-0.1-0.1-0.1-0.1c0-0.2-0.1-0.2-0.2-0.3c-0.3-0.1-0.7-0.1-1-0.2
		C46.2,13.4,46.1,13.4,46.1,13.3z M54.2,30.1c-1.9-0.4-3.8-0.8-5.6-1.2c-0.4-0.1-0.9-0.2-1.3-0.3c0,0-0.1-0.1-0.1-0.1
		c0-0.5,0-0.9,0-1.4c0.2,0,0.5,0.1,0.6,0.1c-0.1-0.2-0.2-0.5-0.3-0.7c-0.1-0.4-0.1-0.9,0.2-1.2c0.2-0.3,0.6-0.4,0.9-0.4
		c0.9-0.1,1.8,0,2.6,0.4c0.5,0.3,1,0.6,1.2,1.2c0.2,0.4,0.2,0.8,0.1,1.2c0,0.2-0.1,0.3-0.2,0.5c0.2,0,0.4,0.1,0.7,0.2
		c0.5,0.1,1,0.2,1.5,0.3c0,0,0.1,0,0.1,0.1c0.1,0.5,0.2,1,0.4,1.5C54.7,30.2,54.5,30.1,54.2,30.1z M55.9,16.2
		C55.9,16.2,55.8,16.2,55.9,16.2c-0.1-0.3-0.1-0.4-0.1-0.6c0.2,0,0.4,0,0.7,0.1c0.7,0.1,1.3,0.2,2,0.2c0.6,0.1,1.2,0.2,1.8,0.2
		c0.1,0,0.1,0,0.1,0.2c0,0.2,0,0.3,0,0.5c-0.5-0.1-0.9-0.1-1.3-0.2c-0.6-0.1-1.1-0.1-1.7-0.2C56.9,16.3,56.4,16.3,55.9,16.2z
		 M58,22.1c-0.2-0.3-0.2-0.5-0.1-0.8c0.1-0.3,0.4-0.5,0.8-0.5c0.6,0.1,1.2,0.1,1.8,0.2c0,0.2,0,0.4,0,0.6c-0.3,0-0.6-0.1-0.9-0.1
		c-0.3,0-0.5-0.1-0.8-0.1c-0.2,0-0.3,0-0.4,0.2c-0.1,0.2,0,0.4,0.1,0.5c0.2,0.1,0.3,0.2,0.5,0.2c0.4,0.1,0.9,0.1,1.3,0.2
		c0.1,0,0.1,0.1,0.1,0.1c0,0.2,0,0.3,0,0.5c-0.2,0-0.5-0.1-0.7-0.1c-0.3,0-0.7-0.1-1-0.1c-0.1,0-0.3,0-0.4,0.1
		c-0.1,0.2,0,0.3,0.1,0.5c0.1,0.2,0.3,0.2,0.5,0.2c0.4,0.1,0.9,0.1,1.3,0.2c0.1,0,0.2,0,0.2,0.2c0,0.1,0,0.3,0,0.5
		c-0.4,0-0.7-0.1-1-0.1c-0.5-0.1-1-0.1-1.4-0.2c-0.1,0-0.2-0.1-0.2-0.2c0-0.1,0-0.2,0-0.3c0-0.1,0-0.2,0.2-0.1
		c-0.2-0.2-0.3-0.5-0.3-0.7c0-0.3,0.1-0.5,0.4-0.6C58.1,22.3,58,22.2,58,22.1z M59.6,30.6c-0.9,0.2-1.6-0.3-1.8-1
		c-0.1-0.4,0-0.8,0.3-1.1c0,0,0.1-0.1,0.2-0.1c0.2,0,0.3,0,0.6,0.1c-0.3,0.2-0.5,0.4-0.5,0.8c0,0.2,0.1,0.3,0.2,0.5
		c0.2,0.3,0.8,0.4,1.2,0.2c0.2-0.1,0.4-0.3,0.3-0.6c0-0.2-0.1-0.5-0.2-0.7c0.2,0,0.4,0,0.6,0.1c0,0,0.1,0,0.1,0.1
		C60.8,29.5,60.5,30.4,59.6,30.6z M59.5,28c-0.9,0.2-1.7-0.5-1.7-1.4c0-0.5,0.1-0.9,0.5-1.2c0.7-0.6,2-0.3,2.2,0.8
		c0,0.1,0,0.2,0,0.3C60.6,27.3,60.2,27.9,59.5,28z M61.2,20.3c-0.7-0.1-1.3-0.2-2-0.2C58.8,20,58.4,20,58,19.9c0,0-0.1-0.1-0.1-0.1
		c0-0.2,0-0.3,0-0.5c0.1,0,0.1,0,0.2,0c-0.1-0.2-0.2-0.4-0.2-0.6c-0.1-0.7,0.4-1.2,0.9-1.4c0.6-0.2,1.2,0.1,1.6,0.5
		c0.3,0.4,0.4,1.2-0.1,1.6c0,0,0,0-0.1,0.1c0.4,0,0.7,0.1,1.1,0.1c0.2,0,0.4,0,0.6,0.1c0,0,0.1,0.1,0.1,0.1c0,0.2,0,0.4,0,0.6
		C61.7,20.4,61.5,20.3,61.2,20.3z M66.9,25.8c-0.2,0.4-0.6,0.6-1,0.7c-0.6,0-1-0.1-1.4-0.6c-0.3-0.4-0.3-1.1,0.1-1.6
		c0,0,0-0.1,0.1-0.1c-0.8-0.1-1.6-0.2-2.4-0.3c0-0.2,0-0.4,0-0.6c1.5,0.2,3.1,0.4,4.6,0.6c0,0.2,0,0.4,0,0.6c-0.1,0-0.1,0-0.2,0
		c0,0,0,0.1,0,0.1C67.1,24.9,67.1,25.3,66.9,25.8z M66.6,22.7c-0.5,0.4-1,0.3-1.5,0.1c-0.5-0.2-0.8-0.6-0.8-1.2
		c0-0.9,0.8-1.3,1.5-1.3c0.1,0,0.1,0.1,0.1,0.2c0,0.5,0,1.1,0,1.6c0,0.1,0,0.1,0,0.2c0.3,0,0.6-0.2,0.6-0.5c0-0.3,0-0.5-0.2-0.7
		c0,0,0-0.1,0-0.1c0.1-0.1,0.1-0.3,0.2-0.4c0.3,0.2,0.5,0.5,0.6,0.9C67.1,21.9,67,22.4,66.6,22.7z M64.4,20c0-0.2,0-0.4,0-0.6
		c0,0,0.1-0.1,0.2-0.1c0.4-0.1,0.9-0.2,1.3-0.4c0,0,0.1,0,0.1,0c-0.5-0.3-1-0.6-1.5-0.8c-0.1-0.1-0.2-0.1-0.2-0.3c0-0.2,0-0.3,0-0.6
		c1,0.6,2,1.2,3,1.8C66.3,19.4,65.4,19.7,64.4,20z"/>
	<path fill="#FFFFFF" d="M50.7,22c-0.7-0.2-1.4-0.3-2.1-0.5c-0.3-0.1-0.5,0.1-0.4,0.4c0,0.2,0.2,0.4,0.4,0.6
		c0.7,0.5,1.5,0.7,2.3,0.7c0.1,0,0.2,0,0.2,0c0.2,0,0.4,0,0.5-0.3c0.1-0.2,0-0.4-0.1-0.6C51.3,22.2,51,22.1,50.7,22z"/>
	<path fill="#FFFFFF" d="M51.1,26.8c-0.8-0.4-1.6-0.6-2.4-0.5c-0.4,0-0.6,0.3-0.5,0.6c0.1,0.3,0.3,0.5,0.6,0.6
		c0.8,0.2,1.6,0.3,2.5,0.5c0.3,0.1,0.4,0,0.4-0.5C51.7,27.3,51.4,27,51.1,26.8z"/>
	<path fill="#FFFFFF" d="M66.2,24.5c-0.1-0.1-0.3-0.2-0.5-0.2c-0.4-0.1-0.8,0.2-0.8,0.7c0,0.5,0.4,0.8,0.9,0.8
		c0.4,0,0.6-0.1,0.7-0.4C66.6,25,66.5,24.7,66.2,24.5z"/>
	<path fill="#FFFFFF" d="M59.7,18.1c-0.2-0.1-0.4-0.2-0.6-0.2c-0.5,0-0.7,0.4-0.6,0.9c0.1,0.4,0.4,0.6,0.9,0.6
		c0.4,0,0.6-0.2,0.7-0.5C60.1,18.6,60,18.3,59.7,18.1z"/>
	<path fill="#FFFFFF" d="M59.1,11.8c-0.6,0-0.9,0.5-0.7,1c0.2,0.4,0.9,0.6,1.3,0.3c0.2-0.1,0.3-0.4,0.3-0.6
		C59.9,12.1,59.6,11.8,59.1,11.8z"/>
	<path fill="#FFFFFF" d="M64.8,21.6c0,0.3,0.2,0.6,0.5,0.6c0-0.4,0-0.8,0-1.2C65.1,21,64.8,21.2,64.8,21.6z"/>
	<path fill="#FFFFFF" d="M65.4,12.4c0-0.4,0-0.8,0-1.3c-0.3,0-0.5,0.2-0.5,0.6C64.8,12.1,65,12.3,65.4,12.4z"/>
	<path fill="#FFFFFF" d="M59,25.8c-0.3,0.1-0.6,0.3-0.6,0.6c-0.1,0.6,0.3,1,0.8,1c0.7,0,1-0.6,0.8-1.1C59.8,25.9,59.4,25.7,59,25.8z
		"/>
</g>
</svg>
