<?xml version="1.0" encoding="utf-8"?>
<!-- Generator: Adobe Illustrator 23.0.1, SVG Export Plug-In . SVG Version: 6.00 Build 0)  -->
<svg version="1.2" baseProfile="tiny" id="Layer_1" xmlns="http://www.w3.org/2000/svg" xmlns:xlink="http://www.w3.org/1999/xlink"
	 x="0px" y="0px" width="144.5px" height="65.2px" viewBox="0 0 144.5 65.2" xml:space="preserve">
<g id="board">
	<path fill="#3F673C" d="M136.8,64.7H7.7c-0.2,0-0.3,0-0.5,0c-3.8-0.1-6.8-3.3-6.7-7.1v-50c0-0.2,0-0.3,0-0.5
		c0.2-3.8,3.4-6.7,7.2-6.6h129.1c0.2,0,0.3,0,0.5,0c3.8,0.1,6.8,3.3,6.7,7.1v18.3v1.6V38v1.4v18.2c0,0.2,0,0.3,0,0.5
		C143.8,61.9,140.6,64.8,136.8,64.7"/>
	<g id="boardoutline">
		<g id="g35_1_">
			<title  id="title37">element:JP1</title>
			<g id="g39_1_">
				<title  id="title41">package:1X16_ROUND</title>
			</g>
		</g>
		<g id="g43_1_">
			<title  id="title45">element:JP3</title>
			<g id="g47_1_">
				<title  id="title49">package:1X12_ROUND</title>
			</g>
		</g>
		<g id="g51_1_">
			<title  id="title53">element:U$9</title>
			<g id="g55_1_">
				<title  id="title57">package:FEATHERLOGO</title>
			</g>
		</g>
		<g id="g59_1_">
			<title  id="title61">element:U$26</title>
			<g id="g63_1_">
				<title  id="title65">package:BLUEFRUITLOGO_100MM</title>
			</g>
		</g>
		<g id="copper0_1_">
			<circle id="connector121pad_1_" fill="none" stroke="#000000" stroke-miterlimit="10" cx="7.5" cy="7.4" r="4.3"/>
			<circle id="connector123pad_1_" fill="none" stroke="#000000" stroke-miterlimit="10" cx="137.1" cy="7.4" r="4.3"/>
			<circle id="connector122pad_1_" fill="none" stroke="#000000" stroke-miterlimit="10" cx="7.5" cy="57.8" r="4.3"/>
			<circle id="connector124pad_1_" fill="none" stroke="#000000" stroke-miterlimit="10" cx="137.1" cy="57.8" r="4.3"/>
			<circle id="connector67pad_1_" fill="none" stroke="#000000" stroke-miterlimit="10" cx="18.3" cy="61.4" r="1.9"/>
			<circle id="connector68pad_1_" fill="none" stroke="#000000" stroke-miterlimit="10" cx="25.5" cy="61.4" r="1.9"/>
			<circle id="connector69pad_1_" fill="none" stroke="#000000" stroke-miterlimit="10" cx="32.7" cy="61.4" r="1.9"/>
			<circle id="connector70pad_1_" fill="none" stroke="#000000" stroke-miterlimit="10" cx="39.9" cy="61.4" r="1.9"/>
			<circle id="connector71pad_1_" fill="none" stroke="#000000" stroke-miterlimit="10" cx="47.1" cy="61.4" r="1.9"/>
			<circle id="connector72pad_1_" fill="none" stroke="#000000" stroke-miterlimit="10" cx="54.3" cy="61.4" r="1.9"/>
			<circle id="connector73pad_1_" fill="none" stroke="#000000" stroke-miterlimit="10" cx="61.5" cy="61.4" r="1.9"/>
			<circle id="connector74pad_1_" fill="none" stroke="#000000" stroke-miterlimit="10" cx="68.7" cy="61.4" r="1.9"/>
			<circle id="connector75pad_1_" fill="none" stroke="#000000" stroke-miterlimit="10" cx="75.9" cy="61.4" r="1.9"/>
			<circle id="connector76pad_1_" fill="none" stroke="#000000" stroke-miterlimit="10" cx="83.1" cy="61.4" r="1.9"/>
			<circle id="connector77pad_1_" fill="none" stroke="#000000" stroke-miterlimit="10" cx="90.3" cy="61.4" r="1.9"/>
			<circle id="connector78pad_1_" fill="none" stroke="#000000" stroke-miterlimit="10" cx="97.5" cy="61.4" r="1.9"/>
			<circle id="connector79pad_1_" fill="none" stroke="#000000" stroke-miterlimit="10" cx="104.7" cy="61.4" r="1.9"/>
			<circle id="connector80pad_1_" fill="none" stroke="#000000" stroke-miterlimit="10" cx="111.9" cy="61.4" r="1.9"/>
			<circle id="connector81pad_1_" fill="none" stroke="#000000" stroke-miterlimit="10" cx="119.1" cy="61.4" r="1.9"/>
			<circle id="connector82pad_1_" fill="none" stroke="#000000" stroke-miterlimit="10" cx="126.3" cy="61.4" r="1.9"/>
			<circle id="connector83pad_1_" fill="none" stroke="#000000" stroke-miterlimit="10" cx="97.5" cy="3.8" r="1.9"/>
			<circle id="connector84pad_1_" fill="none" stroke="#000000" stroke-miterlimit="10" cx="90.3" cy="3.8" r="1.9"/>
			<circle id="connector85pad_1_" fill="none" stroke="#000000" stroke-miterlimit="10" cx="83.1" cy="3.8" r="1.9"/>
			<circle id="connector86pad_1_" fill="none" stroke="#000000" stroke-miterlimit="10" cx="75.9" cy="3.8" r="1.9"/>
			<circle id="connector87pad_1_" fill="none" stroke="#000000" stroke-miterlimit="10" cx="68.7" cy="3.8" r="1.9"/>
			<circle id="connector88pad_1_" fill="none" stroke="#000000" stroke-miterlimit="10" cx="61.5" cy="3.8" r="1.9"/>
			<circle id="connector89pad_1_" fill="none" stroke="#000000" stroke-miterlimit="10" cx="54.3" cy="3.8" r="1.9"/>
			<circle id="connector90pad_1_" fill="none" stroke="#000000" stroke-miterlimit="10" cx="47.1" cy="3.8" r="1.9"/>
			<circle id="connector91pad_1_" fill="none" stroke="#000000" stroke-miterlimit="10" cx="39.9" cy="3.8" r="1.9"/>
			<circle id="connector92pad_1_" fill="none" stroke="#000000" stroke-miterlimit="10" cx="32.7" cy="3.8" r="1.9"/>
			<circle id="connector93pad_1_" fill="none" stroke="#000000" stroke-miterlimit="10" cx="25.5" cy="3.8" r="1.9"/>
			<circle id="connector94pad_1_" fill="none" stroke="#000000" stroke-miterlimit="10" cx="18.3" cy="3.8" r="1.9"/>
		</g>
	</g>
</g>
<g id="silkscreen">
	<path fill="none" stroke="#FFFFFF" stroke-miterlimit="10" d="M136.8,64.7H7.7c-0.2,0-0.3,0-0.5,0c-3.8-0.1-6.8-3.3-6.7-7.1v-50
		c0-0.2,0-0.3,0-0.5c0.2-3.8,3.4-6.7,7.2-6.6h129.1c0.2,0,0.3,0,0.5,0c3.8,0.1,6.8,3.3,6.7,7.1v18.3v1.6V38v1.4v18.2
		c0,0.2,0,0.3,0,0.5C143.8,61.9,140.6,64.8,136.8,64.7"/>
</g>
</svg>
